<?xml version="1.0" standalone="no"?>
<!DOCTYPE svg PUBLIC "-//W3C//DTD SVG 20010904//EN"
 "http://www.w3.org/TR/2001/REC-SVG-20010904/DTD/svg10.dtd">
<svg version="1.0" xmlns="http://www.w3.org/2000/svg"
 width="200.000000pt" height="200.000000pt" viewBox="0 0 200.000000 200.000000"
 preserveAspectRatio="xMidYMid meet">

<g transform="translate(0.000000,200.000000) scale(0.100000,-0.100000)"
fill="#000000" stroke="none">
<path d="M986 1508 c-21 -24 -54 -77 -74 -118 -69 -144 -54 -289 47 -458 25
-42 53 -77 61 -77 20 0 93 109 121 182 27 71 36 186 19 262 -17 77 -71 190
-107 224 l-30 28 -37 -43z m56 -31 c-7 -8 -9 -17 -6 -20 3 -3 -11 -20 -31 -38
-36 -32 -37 -35 -33 -86 6 -66 18 -82 52 -63 14 7 33 9 43 5 16 -6 16 -8 -4
-16 -14 -5 -23 -17 -23 -29 0 -30 -52 -28 -65 2 -6 13 -19 25 -30 27 -27 5
-45 20 -45 40 0 25 63 152 95 189 25 30 30 32 43 18 12 -11 13 -18 4 -29z m54
-83 c-3 -8 -17 -19 -31 -24 -28 -11 -33 -37 -10 -46 17 -7 48 14 40 26 -3 4 1
13 9 19 11 9 17 -1 30 -53 9 -36 16 -74 16 -85 0 -11 -22 -41 -50 -67 -40 -37
-50 -53 -50 -79 0 -21 -8 -39 -25 -55 -24 -22 -25 -22 -57 -6 l-33 17 42 -4
c46 -5 70 11 59 39 -4 11 -13 14 -28 11 -14 -4 0 16 45 61 37 37 67 76 67 87
0 23 -38 65 -60 65 -36 0 -70 25 -70 51 0 28 43 75 75 81 23 4 39 -16 31 -38z
m-178 -162 c5 -31 70 -49 123 -35 48 13 47 9 -12 -45 -35 -32 -48 -39 -52 -28
-3 8 -16 16 -29 18 -15 2 -24 11 -26 26 -2 13 -10 26 -18 29 -18 7 -19 66 -1
61 6 -3 13 -14 15 -26z m218 -91 c-9 -10 -16 -34 -16 -55 0 -52 -21 -95 -73
-144 l-44 -44 -22 36 c-24 39 -21 56 10 56 30 0 79 53 79 86 0 19 12 41 37 66
36 37 62 36 29 -1z m-190 -52 c16 -6 15 -8 -7 -8 -28 -1 -45 22 -32 42 4 7 9
4 13 -8 4 -10 15 -22 26 -26z"/>
<path d="M420 1238 c1 -140 100 -316 214 -382 22 -14 73 -34 111 -45 74 -21
223 -46 231 -38 10 9 -57 164 -96 224 -78 118 -203 210 -357 262 -94 32 -103
30 -103 -21z"/>
<path d="M1518 1255 c-186 -66 -311 -173 -390 -335 -26 -52 -50 -108 -54 -124
l-7 -29 59 7 c100 12 224 45 276 73 123 67 227 246 228 391 0 37 -3 42 -22 42
-13 -1 -53 -12 -90 -25z"/>
<path d="M631 688 c-31 -16 -44 -63 -30 -106 12 -35 35 -46 90 -40 49 4 42 22
-11 28 l-45 5 0 40 0 40 45 5 c31 3 45 10 45 20 0 20 -62 25 -94 8z"/>
<path d="M750 680 c0 -17 7 -20 45 -20 33 0 45 -4 45 -15 0 -10 -10 -15 -29
-15 -50 0 -61 -9 -61 -51 0 -28 4 -39 15 -39 8 0 15 9 15 20 l0 20 40 -20 c47
-24 60 -25 60 -5 0 8 -15 21 -32 29 -18 8 -26 15 -17 15 26 2 52 37 44 61 -8
25 -42 40 -91 40 -27 0 -34 -4 -34 -20z"/>
<path d="M923 690 c-19 -8 -22 -16 -22 -67 1 -32 6 -64 11 -70 16 -19 118 -17
118 2 0 11 -12 15 -50 15 -38 0 -50 4 -50 15 0 11 12 15 50 15 37 0 50 4 50
14 0 11 -14 16 -47 18 -67 4 -70 28 -3 28 44 0 51 3 48 18 -4 20 -68 27 -105
12z"/>
<path d="M1045 690 c-8 -14 3 -30 21 -30 11 0 14 -14 14 -60 0 -47 3 -60 15
-60 12 0 15 13 15 56 0 47 3 57 20 61 11 3 20 14 20 24 0 16 -8 19 -49 19 -28
0 -53 -4 -56 -10z"/>
<path d="M1170 636 c0 -75 14 -96 65 -96 51 0 65 21 65 96 0 49 -3 64 -15 64
-10 0 -15 -16 -17 -62 -3 -63 -3 -63 -33 -63 -30 0 -30 0 -33 63 -2 46 -7 62
-17 62 -12 0 -15 -15 -15 -64z"/>
<path d="M1342 684 c-46 -32 -16 -84 49 -84 28 0 39 -4 39 -15 0 -11 -12 -15
-50 -15 -38 0 -50 -4 -50 -15 0 -11 12 -15 49 -15 66 0 81 7 81 39 0 37 -17
51 -62 51 -27 0 -38 4 -38 15 0 11 12 15 45 15 38 0 45 3 45 20 0 17 -7 20
-43 20 -23 0 -53 -7 -65 -16z"/>
</g>
</svg>
