<svg id="svg" version="1.1" xmlns="http://www.w3.org/2000/svg" xmlns:xlink="http://www.w3.org/1999/xlink" width="400" height="400" viewBox="0, 0, 400,400"><g id="svgg"><path id="path0" d="M0.000 200.000 L 0.000 400.000 200.000 400.000 L 400.000 400.000 400.000 200.000 L 400.000 0.000 200.000 0.000 L 0.000 0.000 0.000 200.000 M244.400 52.980 C 304.036 60.023,345.841 106.285,345.990 165.400 C 346.044 186.728,341.191 205.208,329.710 227.400 C 325.938 234.689,320.321 245.966,310.780 265.400 C 306.354 274.414,301.695 282.999,296.453 291.800 C 268.509 338.710,211.154 359.297,159.400 340.992 C 149.164 337.372,138.449 331.202,127.200 322.450 C 124.197 320.114,116.938 314.171,116.400 313.609 C 116.290 313.494,114.220 311.696,111.800 309.613 C 109.380 307.530,104.610 303.406,101.200 300.450 C 60.580 265.231,46.923 227.308,57.570 179.297 C 60.328 166.858,61.724 160.738,62.585 157.309 C 63.124 155.159,63.859 151.960,64.217 150.200 C 75.664 93.971,117.448 57.653,175.800 53.212 C 178.880 52.978,182.120 52.734,183.000 52.671 C 189.573 52.197,239.917 52.451,244.400 52.980 M181.600 59.995 C 173.001 60.431,164.328 61.626,154.039 63.792 C 149.754 64.694,139.317 68.162,134.897 70.153 C 132.641 71.169,130.729 72.000,130.648 72.000 C 130.567 72.000,128.543 73.137,126.150 74.527 C 95.487 92.335,79.793 114.357,71.223 151.600 C 64.236 181.960,62.925 188.400,62.181 196.000 C 62.041 197.430,61.836 199.050,61.726 199.600 C 60.558 205.419,61.361 220.137,63.395 230.200 C 67.686 251.433,82.378 274.740,102.257 291.850 C 103.766 293.148,109.230 297.904,114.400 302.419 C 122.597 309.577,126.636 312.930,133.400 318.193 C 147.950 329.513,162.518 335.915,181.800 339.464 C 187.648 340.540,207.972 340.538,213.800 339.461 C 238.943 334.812,255.882 326.370,272.930 309.989 C 280.396 302.815,287.825 293.189,292.215 285.000 C 293.041 283.460,293.849 282.020,294.012 281.800 C 295.049 280.398,301.008 269.103,305.091 260.800 C 315.845 238.931,318.605 233.385,323.308 224.200 C 335.154 201.063,339.296 184.461,338.676 162.600 C 337.175 109.639,302.740 70.686,248.600 60.705 C 243.834 59.826,195.115 59.310,181.600 59.995 M199.294 74.406 C 227.275 75.613,243.914 79.317,260.800 88.096 C 285.913 101.153,305.016 124.683,312.194 151.400 C 312.785 153.600,313.423 155.850,313.612 156.400 C 316.058 163.518,316.729 186.806,314.827 198.600 C 313.078 209.447,308.826 222.727,304.042 232.279 C 303.139 234.083,302.400 235.652,302.400 235.767 C 302.400 235.958,298.137 244.058,294.638 250.513 C 269.147 297.543,234.832 320.800,190.931 320.800 C 161.266 320.800,136.509 310.100,114.600 287.811 C 73.029 245.518,62.815 207.427,79.790 158.000 C 90.588 126.558,101.688 109.456,120.097 95.901 C 143.018 79.023,165.414 72.944,199.294 74.406 M180.400 79.836 C 139.262 82.104,106.605 105.355,90.967 143.509 C 76.459 178.904,73.898 202.668,81.861 228.000 C 85.700 240.213,93.613 255.325,100.502 263.600 C 100.777 263.930,101.719 265.100,102.595 266.200 C 121.006 289.303,137.912 302.768,156.800 309.371 C 159.110 310.178,161.420 311.013,161.933 311.226 C 164.882 312.449,177.001 314.620,184.263 315.226 C 206.819 317.110,235.355 308.627,252.346 294.989 C 279.166 273.459,305.721 226.881,309.805 194.200 C 315.447 149.056,292.781 107.969,252.400 90.139 C 235.076 82.489,206.485 78.398,180.400 79.836 M203.635 96.990 C 209.171 97.955,210.752 98.325,215.600 99.796 C 233.676 105.280,249.970 115.849,262.224 130.039 C 265.177 133.459,270.800 140.882,270.800 141.360 C 270.800 141.461,271.488 142.591,272.330 143.872 C 287.471 166.920,291.210 201.584,281.577 229.600 C 278.932 237.295,272.850 249.474,269.856 253.074 C 269.340 253.693,268.708 254.601,268.450 255.091 C 261.737 267.854,237.902 285.843,219.533 292.013 C 214.336 293.758,211.593 294.516,207.400 295.364 C 178.159 301.283,152.842 295.634,126.627 277.344 C 115.702 269.722,103.037 254.139,96.436 240.200 C 89.498 225.547,87.000 213.953,87.000 196.400 C 87.000 185.445,87.131 184.042,89.041 174.633 C 99.502 123.072,151.421 87.894,203.635 96.990 M176.200 100.045 C 175.100 100.239,172.982 100.577,171.494 100.798 C 160.693 102.398,146.791 107.475,137.908 113.062 C 137.087 113.578,136.310 114.000,136.181 114.000 C 135.916 114.000,134.980 114.669,129.600 118.706 C 109.560 133.743,97.515 153.211,92.051 179.400 C 89.718 190.580,90.709 212.499,93.978 222.000 C 94.167 222.550,94.712 224.350,95.188 226.000 C 95.665 227.650,96.295 229.540,96.588 230.200 C 96.882 230.860,97.603 232.660,98.191 234.200 C 100.424 240.044,107.064 251.505,111.049 256.393 C 120.335 267.783,130.540 276.329,142.000 282.315 C 143.430 283.062,144.780 283.808,145.000 283.972 C 145.714 284.504,156.521 288.667,159.400 289.519 C 189.338 298.377,222.396 291.961,246.400 272.632 C 250.014 269.722,259.227 260.762,260.619 258.803 C 261.167 258.032,262.342 256.500,263.230 255.400 C 276.651 238.760,284.640 212.193,282.836 190.200 C 281.606 175.198,278.914 165.477,272.312 152.200 C 262.495 132.454,244.437 115.569,224.200 107.214 C 222.440 106.487,220.640 105.743,220.200 105.560 C 209.236 101.001,186.781 98.187,176.200 100.045 M198.200 114.416 C 216.549 118.057,226.124 122.284,238.641 132.268 C 274.600 160.950,279.525 219.240,248.352 247.200 C 226.277 267.000,191.871 269.250,167.800 252.468 C 135.190 229.732,136.571 179.613,170.200 165.324 C 189.875 156.964,217.316 170.672,220.053 190.230 C 220.960 196.705,222.162 196.367,196.542 196.831 C 174.098 197.237,174.298 197.217,171.390 199.435 C 165.441 203.972,167.918 215.159,175.110 216.237 C 178.744 216.782,225.914 216.002,229.200 215.343 C 240.310 213.113,244.274 199.479,238.718 182.600 C 223.282 135.706,160.444 128.667,134.320 170.905 C 109.697 210.716,132.414 266.397,177.600 276.989 C 184.200 278.536,184.069 279.497,177.357 278.781 C 147.928 275.642,123.074 256.375,110.301 226.800 C 101.275 205.902,103.325 176.869,115.314 155.800 C 128.787 132.121,150.374 117.897,178.800 113.968 C 181.915 113.538,195.335 113.847,198.200 114.416 " stroke="none" fill="#13045b" fill-rule="evenodd"></path><path id="path1" d="M177.429 114.415 C 128.594 119.961,95.335 168.598,107.412 216.805 C 114.772 246.178,139.133 270.441,167.600 276.750 C 177.665 278.980,186.619 279.656,178.564 277.577 C 130.856 265.266,108.637 209.725,135.208 169.200 C 153.237 141.702,189.024 134.435,216.569 152.679 C 242.039 169.549,250.673 210.915,229.666 215.429 C 226.009 216.215,177.402 217.101,174.901 216.427 C 167.517 214.439,165.352 204.858,171.070 199.464 C 173.743 196.942,174.344 196.875,196.800 196.596 C 221.692 196.287,221.008 196.467,220.046 190.494 C 217.645 175.584,201.212 163.109,184.000 163.128 C 143.439 163.175,129.755 220.470,163.515 248.898 C 196.816 276.940,249.978 263.120,264.402 222.672 C 284.306 166.857,236.760 107.676,177.429 114.415 " stroke="none" fill="#fafafb" fill-rule="evenodd"></path><path id="path2" d="M186.200 52.808 C 149.053 54.236,122.779 63.967,99.999 84.734 C 80.891 102.154,70.449 122.211,63.209 155.400 C 62.537 158.480,61.554 162.710,61.023 164.800 C 50.035 208.101,52.671 236.652,70.286 265.154 C 78.641 278.673,87.248 288.047,107.200 305.358 C 135.084 329.551,145.189 336.197,162.828 341.944 C 213.695 358.517,269.514 337.290,296.793 291.000 C 298.736 287.703,299.969 285.504,305.091 276.200 C 306.060 274.440,308.660 269.310,310.868 264.800 C 318.151 249.922,324.720 236.739,329.802 226.800 C 339.042 208.727,342.297 198.760,344.887 180.600 C 346.435 169.740,345.282 148.425,342.570 137.800 C 330.800 91.678,296.738 61.488,247.501 53.537 C 241.629 52.589,203.645 52.137,186.200 52.808 M245.276 60.124 C 312.032 68.882,351.934 129.124,335.143 195.800 C 332.976 204.405,330.219 211.126,323.246 224.800 C 315.453 240.083,311.896 247.192,305.833 259.600 C 298.211 275.198,290.525 288.984,285.873 295.400 C 258.579 333.043,212.158 349.184,168.000 336.386 C 150.518 331.319,139.081 324.146,114.880 303.069 C 110.794 299.511,106.090 295.438,104.426 294.018 C 72.420 266.704,58.003 234.486,61.614 198.342 C 62.932 185.153,71.201 148.178,75.914 134.400 C 90.679 91.236,125.609 65.031,174.600 60.365 C 187.462 59.141,236.502 58.973,245.276 60.124 M183.500 142.682 C 183.995 142.778,184.805 142.778,185.300 142.682 C 185.795 142.587,185.390 142.509,184.400 142.509 C 183.410 142.509,183.005 142.587,183.500 142.682 M123.728 207.600 C 123.728 209.030,123.801 209.615,123.889 208.900 C 123.978 208.185,123.978 207.015,123.889 206.300 C 123.801 205.585,123.728 206.170,123.728 207.600 M213.911 216.293 C 214.851 216.378,216.291 216.377,217.111 216.291 C 217.930 216.205,217.160 216.136,215.400 216.137 C 213.640 216.139,212.970 216.209,213.911 216.293 M189.905 216.683 C 190.402 216.779,191.122 216.775,191.505 216.675 C 191.887 216.575,191.480 216.496,190.600 216.501 C 189.720 216.505,189.407 216.587,189.905 216.683 " stroke="none" fill="#0bdac5" fill-rule="evenodd"></path><path id="path3" d="M173.081 75.415 C 132.750 79.811,101.485 103.946,85.789 142.800 C 71.920 177.131,69.230 198.380,75.458 224.400 C 78.789 238.318,87.919 256.273,97.720 268.181 C 98.996 269.732,100.325 271.360,100.674 271.800 C 101.023 272.240,102.152 273.590,103.183 274.800 C 104.213 276.010,105.494 277.529,106.028 278.176 C 128.246 305.066,156.171 319.517,187.400 320.284 C 239.676 321.567,278.151 291.267,306.105 226.800 C 331.950 167.197,304.766 102.362,245.339 81.872 C 228.591 76.097,194.645 73.064,173.081 75.415 M201.046 79.616 C 221.359 80.626,235.021 82.982,247.086 87.554 C 296.947 106.448,321.984 158.684,306.607 211.736 C 301.962 227.764,286.540 256.844,274.572 272.144 C 273.048 274.094,271.448 276.164,271.018 276.744 C 247.272 308.803,202.800 323.235,163.000 311.797 C 140.477 305.324,125.482 294.243,103.383 267.739 C 77.076 236.190,70.668 201.666,83.756 162.000 C 93.500 132.469,103.926 115.375,120.164 102.308 C 142.369 84.440,165.813 77.863,201.046 79.616 M180.200 96.279 C 158.528 98.233,141.050 105.100,124.718 118.076 C 88.228 147.069,76.644 199.609,97.576 241.183 C 127.075 299.775,202.556 315.269,251.559 272.792 C 274.207 253.159,286.049 227.152,286.160 196.800 C 286.196 187.008,286.106 185.827,284.754 178.200 C 283.727 172.406,281.110 163.184,279.419 159.400 C 279.125 158.740,278.468 157.210,277.961 156.000 C 262.233 118.491,219.998 92.690,180.200 96.279 M192.207 99.207 C 250.927 102.947,292.348 156.058,282.045 214.400 C 281.211 219.123,278.483 228.573,276.792 232.600 C 276.514 233.260,276.029 234.430,275.714 235.200 C 264.488 262.579,238.062 284.835,208.800 291.556 C 200.126 293.548,197.839 293.778,186.800 293.767 C 174.047 293.756,169.094 293.062,158.400 289.792 C 151.632 287.722,141.364 283.196,137.998 280.799 C 137.381 280.359,136.773 280.000,136.647 280.000 C 136.163 280.000,129.059 274.965,126.101 272.526 C 113.789 262.371,101.743 246.133,97.224 233.600 C 96.946 232.830,96.569 231.840,96.386 231.400 C 96.074 230.653,94.435 225.709,93.600 223.000 C 82.945 188.416,96.057 145.423,124.416 121.963 C 142.463 107.034,159.114 100.684,185.007 98.857 C 185.451 98.826,188.691 98.983,192.207 99.207 " stroke="none" fill="#0b3de0" fill-rule="evenodd"></path><path id="path4" d="M187.900 52.695 C 189.055 52.776,190.945 52.776,192.100 52.695 C 193.255 52.614,192.310 52.548,190.000 52.548 C 187.690 52.548,186.745 52.614,187.900 52.695 M238.900 52.676 C 239.285 52.776,239.915 52.776,240.300 52.676 C 240.685 52.575,240.370 52.493,239.600 52.493 C 238.830 52.493,238.515 52.575,238.900 52.676 M178.700 53.082 C 179.195 53.178,180.005 53.178,180.500 53.082 C 180.995 52.987,180.590 52.909,179.600 52.909 C 178.610 52.909,178.205 52.987,178.700 53.082 M173.905 53.483 C 174.402 53.579,175.122 53.575,175.505 53.475 C 175.887 53.375,175.480 53.296,174.600 53.301 C 173.720 53.305,173.407 53.387,173.905 53.483 M169.900 53.882 C 170.395 53.978,171.205 53.978,171.700 53.882 C 172.195 53.787,171.790 53.709,170.800 53.709 C 169.810 53.709,169.405 53.787,169.900 53.882 M208.300 59.500 C 213.415 59.563,221.785 59.563,226.900 59.500 C 232.015 59.436,227.830 59.385,217.600 59.385 C 207.370 59.385,203.185 59.436,208.300 59.500 M184.100 59.887 C 184.705 59.978,185.695 59.978,186.300 59.887 C 186.905 59.795,186.410 59.720,185.200 59.720 C 183.990 59.720,183.495 59.795,184.100 59.887 M133.200 70.600 C 132.650 70.914,132.380 71.172,132.600 71.172 C 132.820 71.172,133.450 70.914,134.000 70.600 C 134.550 70.286,134.820 70.028,134.600 70.028 C 134.380 70.028,133.750 70.286,133.200 70.600 M181.400 74.383 C 179.134 74.550,182.753 74.677,191.167 74.724 C 198.518 74.766,204.458 74.732,204.367 74.649 C 204.032 74.346,184.895 74.124,181.400 74.383 M174.905 75.087 C 175.514 75.179,176.414 75.177,176.905 75.082 C 177.397 74.987,176.900 74.911,175.800 74.914 C 174.700 74.917,174.297 74.995,174.905 75.087 M206.707 75.090 C 207.426 75.179,208.506 75.177,209.107 75.086 C 209.708 74.995,209.120 74.922,207.800 74.924 C 206.480 74.926,205.988 75.001,206.707 75.090 M171.505 75.483 C 172.002 75.579,172.722 75.575,173.105 75.475 C 173.487 75.375,173.080 75.296,172.200 75.301 C 171.320 75.305,171.007 75.387,171.505 75.483 M211.305 75.487 C 211.914 75.579,212.814 75.577,213.305 75.482 C 213.797 75.387,213.300 75.311,212.200 75.314 C 211.100 75.317,210.697 75.395,211.305 75.487 M219.105 76.283 C 219.602 76.379,220.322 76.375,220.705 76.275 C 221.087 76.175,220.680 76.096,219.800 76.101 C 218.920 76.105,218.607 76.187,219.105 76.283 M159.000 77.402 C 156.800 77.917,154.550 78.537,154.000 78.780 L 153.000 79.223 154.000 79.016 C 156.694 78.458,164.248 76.747,164.600 76.614 C 165.933 76.111,162.379 76.611,159.000 77.402 M226.000 77.214 C 228.530 77.617,232.289 78.325,234.354 78.787 C 236.418 79.248,238.185 79.548,238.281 79.453 C 238.742 78.991,225.053 76.363,222.600 76.442 C 221.940 76.463,223.470 76.811,226.000 77.214 M187.500 79.497 C 189.095 79.573,191.705 79.573,193.300 79.497 C 194.895 79.421,193.590 79.359,190.400 79.359 C 187.210 79.359,185.905 79.421,187.500 79.497 M179.100 79.889 C 179.815 79.978,180.985 79.978,181.700 79.889 C 182.415 79.801,181.830 79.728,180.400 79.728 C 178.970 79.728,178.385 79.801,179.100 79.889 M199.312 79.895 C 200.364 79.977,201.984 79.976,202.912 79.892 C 203.840 79.808,202.980 79.741,201.000 79.742 C 199.020 79.743,198.260 79.812,199.312 79.895 M146.000 81.345 C 143.073 82.470,138.756 84.562,141.000 83.768 C 144.271 82.609,150.486 80.030,150.000 80.033 C 149.670 80.035,147.870 80.625,146.000 81.345 M173.700 80.276 C 174.085 80.376,174.715 80.376,175.100 80.276 C 175.485 80.175,175.170 80.093,174.400 80.093 C 173.630 80.093,173.315 80.175,173.700 80.276 M208.100 80.287 C 208.705 80.378,209.695 80.378,210.300 80.287 C 210.905 80.195,210.410 80.120,209.200 80.120 C 207.990 80.120,207.495 80.195,208.100 80.287 M170.900 80.676 C 171.285 80.776,171.915 80.776,172.300 80.676 C 172.685 80.575,172.370 80.493,171.600 80.493 C 170.830 80.493,170.515 80.575,170.900 80.676 M212.300 80.682 C 212.795 80.778,213.605 80.778,214.100 80.682 C 214.595 80.587,214.190 80.509,213.200 80.509 C 212.210 80.509,211.805 80.587,212.300 80.682 M244.600 81.611 C 246.360 82.252,247.980 82.722,248.200 82.655 C 248.623 82.526,242.482 80.384,241.799 80.422 C 241.579 80.435,242.840 80.970,244.600 81.611 M164.000 81.596 C 160.261 82.387,155.369 83.736,157.600 83.362 C 161.660 82.680,169.635 80.879,168.600 80.878 C 167.940 80.877,165.870 81.200,164.000 81.596 M222.800 81.982 C 226.870 82.592,230.920 83.199,231.800 83.332 C 232.912 83.500,232.729 83.398,231.200 82.997 C 228.649 82.328,218.127 80.782,216.503 80.837 C 215.896 80.858,218.730 81.373,222.800 81.982 M249.200 83.164 C 249.530 83.350,250.250 83.623,250.800 83.768 L 251.800 84.033 250.800 83.431 C 250.250 83.099,249.530 82.827,249.200 82.826 C 248.667 82.825,248.667 82.862,249.200 83.164 M136.000 85.839 C 129.606 89.271,121.710 94.280,120.697 95.547 C 120.424 95.889,121.640 95.165,123.400 93.939 C 127.431 91.130,131.591 88.618,136.200 86.211 C 139.969 84.242,140.367 83.996,139.767 84.007 C 139.565 84.010,137.870 84.835,136.000 85.839 M150.600 85.170 C 145.449 87.008,144.751 87.285,144.899 87.432 C 145.046 87.579,154.056 84.477,154.358 84.176 C 154.742 83.792,153.656 84.079,150.600 85.170 M235.633 84.157 C 235.806 84.321,243.592 86.732,245.000 87.059 C 247.057 87.535,242.614 85.847,239.527 84.979 C 236.093 84.014,235.306 83.848,235.633 84.157 M252.086 84.220 C 252.468 84.601,260.000 87.988,260.000 87.778 C 260.000 87.534,256.325 85.716,253.908 84.764 C 252.749 84.307,251.929 84.062,252.086 84.220 M313.800 86.000 C 314.659 86.880,315.452 87.600,315.562 87.600 C 315.672 87.600,315.059 86.880,314.200 86.000 C 313.341 85.120,312.548 84.400,312.438 84.400 C 312.328 84.400,312.941 85.120,313.800 86.000 M97.781 86.500 L 96.200 88.200 97.900 86.619 C 98.835 85.749,99.600 84.984,99.600 84.919 C 99.600 84.616,99.252 84.919,97.781 86.500 M104.581 89.700 L 103.000 91.400 104.700 89.819 C 106.281 88.348,106.584 88.000,106.281 88.000 C 106.216 88.000,105.451 88.765,104.581 89.700 M139.800 89.646 C 138.040 90.528,136.420 91.437,136.200 91.666 C 135.852 92.028,143.127 88.560,143.567 88.154 C 144.121 87.642,142.579 88.253,139.800 89.646 M248.000 88.093 C 248.377 88.455,256.535 91.999,256.673 91.860 C 256.839 91.694,250.229 88.619,248.800 88.196 C 248.250 88.034,247.890 87.987,248.000 88.093 M93.785 90.500 L 91.800 92.600 93.900 90.615 C 95.851 88.771,96.183 88.400,95.885 88.400 C 95.822 88.400,94.877 89.345,93.785 90.500 M261.200 88.593 C 261.200 88.700,262.085 89.235,263.167 89.783 C 274.668 95.611,289.782 109.395,297.944 121.500 C 299.563 123.901,300.483 124.850,299.610 123.219 C 297.076 118.484,286.571 106.585,280.000 101.005 C 273.868 95.799,261.200 87.436,261.200 88.593 M317.200 89.725 C 317.200 89.794,317.785 90.379,318.500 91.025 L 319.800 92.200 318.625 90.900 C 317.530 89.688,317.200 89.416,317.200 89.725 M133.200 93.224 C 131.303 94.260,128.265 96.394,129.400 95.893 C 130.291 95.499,135.600 92.298,135.600 92.154 C 135.600 91.917,135.547 91.941,133.200 93.224 M257.200 92.114 C 257.200 92.216,259.001 93.308,261.203 94.543 C 263.404 95.777,266.869 97.986,268.903 99.451 C 275.683 104.335,275.642 104.309,273.811 102.624 C 270.924 99.967,257.200 91.284,257.200 92.114 M179.000 95.830 C 132.299 99.259,95.689 133.991,87.537 182.600 C 85.734 193.348,87.224 213.591,90.673 225.200 C 96.715 245.539,111.246 266.613,126.627 277.344 C 139.509 286.332,149.506 291.208,161.081 294.150 C 181.446 299.327,199.749 298.657,219.533 292.013 C 237.902 285.843,261.737 267.854,268.450 255.091 C 268.708 254.601,269.340 253.693,269.856 253.074 C 272.850 249.474,278.932 237.295,281.577 229.600 C 291.210 201.584,287.471 166.920,272.330 143.872 C 271.488 142.591,270.800 141.461,270.800 141.360 C 270.800 141.260,269.616 139.535,268.169 137.528 C 258.767 124.483,246.697 113.995,233.055 107.015 C 224.730 102.755,220.857 101.243,211.400 98.562 C 204.142 96.504,188.169 95.157,179.000 95.830 M117.400 97.881 C 108.552 104.813,97.965 117.472,92.798 127.300 C 91.172 130.392,91.575 130.237,93.333 127.094 C 99.488 116.087,108.381 105.617,118.621 97.321 C 119.490 96.618,120.110 96.033,120.000 96.021 C 119.890 96.010,118.720 96.847,117.400 97.881 M196.257 96.592 C 232.613 100.478,264.360 123.562,277.961 156.000 C 278.468 157.210,279.125 158.740,279.419 159.400 C 281.110 163.184,283.727 172.406,284.754 178.200 C 286.106 185.827,286.196 187.008,286.160 196.800 C 285.833 285.951,179.528 330.403,116.770 267.631 C 109.488 260.347,105.604 255.325,100.249 246.270 C 88.719 226.775,84.531 201.021,89.051 177.400 C 97.134 135.150,131.795 102.277,173.800 97.023 C 183.073 95.864,188.470 95.760,196.257 96.592 M122.992 100.098 C 112.883 107.688,103.577 118.376,97.216 129.700 C 95.356 133.010,95.991 132.537,98.022 129.100 C 105.381 116.641,113.290 107.722,124.065 99.730 C 127.175 97.423,127.904 96.800,127.492 96.800 C 127.433 96.800,125.408 98.284,122.992 100.098 M180.000 99.229 C 134.164 102.674,97.761 136.912,90.936 183.000 C 89.195 194.749,90.381 212.554,93.600 223.000 C 94.435 225.709,96.074 230.653,96.386 231.400 C 96.569 231.840,96.946 232.830,97.224 233.600 C 101.743 246.133,113.789 262.371,126.101 272.526 C 129.059 274.965,136.163 280.000,136.647 280.000 C 136.773 280.000,137.381 280.359,137.998 280.799 C 141.364 283.196,151.632 287.722,158.400 289.792 C 169.094 293.062,174.047 293.756,186.800 293.767 C 225.882 293.803,261.233 270.518,275.714 235.200 C 276.029 234.430,276.514 233.260,276.792 232.600 C 296.100 186.632,274.157 130.361,228.378 108.444 C 215.722 102.385,196.192 98.068,185.007 98.857 C 184.563 98.888,182.310 99.056,180.000 99.229 M198.052 100.182 C 205.565 101.182,215.434 103.579,220.200 105.560 C 220.640 105.743,222.440 106.487,224.200 107.214 C 244.437 115.569,262.495 132.454,272.312 152.200 C 278.914 165.477,281.606 175.198,282.836 190.200 C 284.640 212.193,276.651 238.760,263.230 255.400 C 262.342 256.500,261.167 258.032,260.619 258.803 C 259.227 260.762,250.014 269.722,246.400 272.632 C 222.396 291.961,189.338 298.377,159.400 289.519 C 156.521 288.667,145.714 284.504,145.000 283.972 C 144.780 283.808,143.430 283.062,142.000 282.315 C 130.540 276.329,120.335 267.783,111.049 256.393 C 107.064 251.505,100.424 240.044,98.191 234.200 C 97.603 232.660,96.882 230.860,96.588 230.200 C 96.295 229.540,95.665 227.650,95.188 226.000 C 94.712 224.350,94.167 222.550,93.978 222.000 C 90.709 212.499,89.718 190.580,92.051 179.400 C 97.515 153.211,109.560 133.743,129.600 118.706 C 134.980 114.669,135.916 114.000,136.181 114.000 C 136.310 114.000,137.087 113.578,137.908 113.062 C 146.791 107.475,160.693 102.398,171.494 100.798 C 172.982 100.577,175.100 100.239,176.200 100.045 C 179.474 99.470,193.358 99.557,198.052 100.182 M281.236 109.600 C 286.830 115.203,290.411 119.458,293.945 124.700 C 295.579 127.125,296.806 128.315,295.388 126.100 C 291.987 120.788,286.610 114.284,281.738 109.591 C 275.525 103.604,275.255 103.609,281.236 109.600 M183.700 113.897 C 185.405 113.972,188.195 113.972,189.900 113.897 C 191.605 113.822,190.210 113.761,186.800 113.761 C 183.390 113.761,181.995 113.822,183.700 113.897 M177.505 114.283 C 178.002 114.379,178.722 114.375,179.105 114.275 C 179.487 114.175,179.080 114.096,178.200 114.101 C 177.320 114.105,177.007 114.187,177.505 114.283 M194.705 114.283 C 195.202 114.379,195.922 114.375,196.305 114.275 C 196.687 114.175,196.280 114.096,195.400 114.101 C 194.520 114.105,194.207 114.187,194.705 114.283 M211.800 117.814 C 212.460 118.117,213.270 118.358,213.600 118.352 C 213.930 118.345,213.570 118.097,212.800 117.800 C 210.974 117.097,210.255 117.107,211.800 117.814 M328.828 119.400 C 328.828 119.620,329.086 120.250,329.400 120.800 C 329.714 121.350,329.972 121.620,329.972 121.400 C 329.972 121.180,329.714 120.550,329.400 120.000 C 329.086 119.450,328.828 119.180,328.828 119.400 M150.800 122.000 C 150.030 122.422,149.544 122.774,149.720 122.783 C 150.144 122.805,152.400 121.632,152.400 121.390 C 152.400 121.128,152.377 121.137,150.800 122.000 M337.829 122.800 C 337.976 123.350,338.264 124.070,338.467 124.400 C 338.725 124.817,338.757 124.695,338.571 124.000 C 338.424 123.450,338.136 122.730,337.933 122.400 C 337.675 121.983,337.643 122.105,337.829 122.800 M301.434 126.900 C 302.218 128.275,304.030 131.740,305.461 134.600 C 306.891 137.460,307.938 139.350,307.787 138.800 C 307.189 136.621,300.729 124.400,300.175 124.400 C 300.083 124.400,300.649 125.525,301.434 126.900 M296.847 129.000 C 297.359 129.880,299.081 133.210,300.672 136.400 C 302.264 139.590,303.573 142.020,303.583 141.800 C 303.611 141.135,297.679 129.474,296.765 128.400 C 295.992 127.491,296.000 127.546,296.847 129.000 M90.083 132.304 C 88.762 134.783,87.912 136.800,88.189 136.800 C 88.409 136.800,91.579 130.246,91.431 130.098 C 91.369 130.036,90.763 131.029,90.083 132.304 M94.071 135.796 C 93.152 137.658,92.409 139.321,92.420 139.491 C 92.431 139.661,93.253 138.206,94.245 136.259 C 95.238 134.311,95.981 132.648,95.896 132.563 C 95.811 132.478,94.990 133.933,94.071 135.796 M242.000 135.400 C 242.746 136.170,243.447 136.800,243.557 136.800 C 243.667 136.800,243.146 136.170,242.400 135.400 C 241.654 134.630,240.953 134.000,240.843 134.000 C 240.733 134.000,241.254 134.630,242.000 135.400 M85.887 141.479 C 84.075 145.817,83.311 147.976,83.721 147.596 C 84.073 147.270,87.994 137.461,87.836 137.302 C 87.757 137.224,86.880 139.103,85.887 141.479 M245.800 139.200 C 246.883 140.300,247.860 141.200,247.970 141.200 C 248.080 141.200,247.283 140.300,246.200 139.200 C 245.117 138.100,244.140 137.200,244.030 137.200 C 243.920 137.200,244.717 138.100,245.800 139.200 M91.028 142.305 C 90.075 144.294,87.945 150.079,88.106 150.239 C 88.176 150.309,89.077 148.271,90.109 145.709 C 91.958 141.118,92.425 139.386,91.028 142.305 M308.579 141.400 C 309.066 143.195,311.562 149.764,311.580 149.299 C 311.606 148.641,309.379 142.224,308.807 141.311 C 308.400 140.661,308.380 140.669,308.579 141.400 M304.172 144.158 C 306.109 150.092,306.941 152.392,307.096 152.237 C 307.331 152.002,304.939 144.811,304.356 144.000 C 304.001 143.506,303.968 143.534,304.172 144.158 M202.200 145.755 C 202.860 146.055,203.850 146.411,204.400 146.546 C 205.203 146.743,205.164 146.684,204.200 146.245 C 203.540 145.945,202.550 145.589,202.000 145.454 C 201.197 145.257,201.236 145.316,202.200 145.755 M82.097 151.279 C 80.644 155.320,80.230 156.665,80.524 156.393 C 80.879 156.064,83.627 148.294,83.451 148.117 C 83.363 148.029,82.754 149.452,82.097 151.279 M337.693 149.600 C 337.693 150.370,337.775 150.685,337.876 150.300 C 337.976 149.915,337.976 149.285,337.876 148.900 C 337.775 148.515,337.693 148.830,337.693 149.600 M86.426 154.290 C 85.718 156.221,84.948 158.301,84.715 158.913 C 84.483 159.525,84.380 160.113,84.487 160.220 C 84.594 160.327,85.426 158.310,86.338 155.738 C 87.249 153.165,87.931 150.998,87.854 150.920 C 87.777 150.843,87.134 152.360,86.426 154.290 M312.400 153.004 C 312.400 153.117,312.774 154.872,313.230 156.904 C 313.687 158.937,314.405 162.760,314.826 165.400 C 315.373 168.835,315.529 169.404,315.374 167.400 C 314.995 162.524,312.400 149.958,312.400 153.004 M224.600 159.600 C 226.350 161.360,227.871 162.800,227.981 162.800 C 228.091 162.800,226.750 161.360,225.000 159.600 C 223.250 157.840,221.729 156.400,221.619 156.400 C 221.509 156.400,222.850 157.840,224.600 159.600 M113.800 158.400 C 113.459 159.060,113.269 159.600,113.379 159.600 C 113.489 159.600,113.859 159.060,114.200 158.400 C 114.541 157.740,114.731 157.200,114.621 157.200 C 114.511 157.200,114.141 157.740,113.800 158.400 M308.444 157.860 C 308.420 158.113,308.746 160.363,309.169 162.860 C 311.346 175.705,311.136 189.565,308.574 202.127 C 308.222 203.854,308.012 205.345,308.107 205.441 C 308.379 205.713,309.543 199.883,310.271 194.600 C 311.203 187.834,311.200 173.489,310.265 166.800 C 309.605 162.079,308.541 156.854,308.444 157.860 M345.766 165.600 C 345.766 169.670,345.825 171.335,345.898 169.300 C 345.971 167.265,345.971 163.935,345.898 161.900 C 345.825 159.865,345.766 161.530,345.766 165.600 M61.450 161.650 C 61.117 163.317,61.440 163.640,61.800 162.000 C 61.952 161.309,61.993 160.659,61.891 160.558 C 61.789 160.456,61.591 160.947,61.450 161.650 M77.850 163.659 C 76.467 168.274,75.920 170.454,76.100 170.633 C 76.184 170.717,76.902 168.496,77.697 165.697 C 78.492 162.898,79.076 160.543,78.996 160.463 C 78.916 160.383,78.400 161.821,77.850 163.659 M82.594 165.470 C 81.323 169.825,80.363 173.696,80.517 173.850 C 80.601 173.935,81.327 171.630,82.129 168.729 C 82.932 165.829,83.518 163.384,83.431 163.298 C 83.345 163.211,82.968 164.189,82.594 165.470 M315.728 173.600 C 315.728 175.030,315.801 175.615,315.889 174.900 C 315.978 174.185,315.978 173.015,315.889 172.300 C 315.801 171.585,315.728 172.170,315.728 173.600 M74.459 176.486 C 73.328 181.449,72.394 187.431,72.443 189.400 C 72.466 190.318,72.708 189.344,73.012 187.117 C 73.303 184.981,74.005 180.946,74.571 178.150 C 75.772 172.223,75.694 171.066,74.459 176.486 M156.975 174.100 L 155.800 175.400 157.100 174.225 C 158.312 173.130,158.584 172.800,158.275 172.800 C 158.206 172.800,157.621 173.385,156.975 174.100 M338.093 178.000 C 338.093 178.770,338.175 179.085,338.276 178.700 C 338.376 178.315,338.376 177.685,338.276 177.300 C 338.175 176.915,338.093 177.230,338.093 178.000 M78.666 181.479 C 77.263 189.386,77.060 191.718,77.076 199.800 C 77.091 207.893,77.729 214.537,78.805 217.800 C 79.272 219.217,79.208 218.605,78.152 211.600 C 76.918 203.406,77.279 191.483,79.057 181.664 C 79.390 179.830,79.578 178.245,79.476 178.143 C 79.374 178.041,79.010 179.542,78.666 181.479 M337.693 181.600 C 337.693 182.370,337.775 182.685,337.876 182.300 C 337.976 181.915,337.976 181.285,337.876 180.900 C 337.775 180.515,337.693 180.830,337.693 181.600 M315.731 187.400 C 315.733 188.940,315.805 189.521,315.892 188.691 C 315.979 187.861,315.977 186.601,315.889 185.891 C 315.800 185.181,315.729 185.860,315.731 187.400 M104.893 189.600 C 104.893 190.370,104.975 190.685,105.076 190.300 C 105.176 189.915,105.176 189.285,105.076 188.900 C 104.975 188.515,104.893 188.830,104.893 189.600 M268.493 189.600 C 268.493 190.370,268.575 190.685,268.676 190.300 C 268.776 189.915,268.776 189.285,268.676 188.900 C 268.575 188.515,268.493 188.830,268.493 189.600 M72.124 193.400 C 72.126 194.720,72.201 195.212,72.290 194.493 C 72.379 193.774,72.377 192.694,72.286 192.093 C 72.195 191.492,72.122 192.080,72.124 193.400 M315.301 193.000 C 315.305 193.880,315.387 194.193,315.483 193.695 C 315.579 193.198,315.575 192.478,315.475 192.095 C 315.375 191.713,315.296 192.120,315.301 193.000 M62.093 194.400 C 62.093 195.170,62.175 195.485,62.276 195.100 C 62.376 194.715,62.376 194.085,62.276 193.700 C 62.175 193.315,62.093 193.630,62.093 194.400 M240.909 194.800 C 240.909 195.790,240.987 196.195,241.082 195.700 C 241.178 195.205,241.178 194.395,241.082 193.900 C 240.987 193.405,240.909 193.810,240.909 194.800 M104.520 196.400 C 104.520 197.610,104.595 198.105,104.687 197.500 C 104.778 196.895,104.778 195.905,104.687 195.300 C 104.595 194.695,104.520 195.190,104.520 196.400 M314.410 198.298 C 314.125 200.224,313.468 203.677,312.950 205.971 C 312.433 208.266,312.079 210.212,312.164 210.297 C 312.249 210.382,312.777 208.505,313.337 206.126 C 314.425 201.507,315.417 195.284,315.113 194.980 C 315.012 194.879,314.696 196.372,314.410 198.298 M61.701 197.800 C 61.705 198.680,61.787 198.993,61.883 198.495 C 61.979 197.998,61.975 197.278,61.875 196.895 C 61.775 196.513,61.696 196.920,61.701 197.800 M201.700 196.697 C 203.405 196.772,206.195 196.772,207.900 196.697 C 209.605 196.622,208.210 196.561,204.800 196.561 C 201.390 196.561,199.995 196.622,201.700 196.697 M179.315 197.096 C 180.588 197.176,182.568 197.175,183.715 197.094 C 184.862 197.014,183.820 196.949,181.400 196.950 C 178.980 196.951,178.042 197.016,179.315 197.096 M240.893 200.400 C 240.893 201.170,240.975 201.485,241.076 201.100 C 241.176 200.715,241.176 200.085,241.076 199.700 C 240.975 199.315,240.893 199.630,240.893 200.400 M104.893 203.200 C 104.893 203.970,104.975 204.285,105.076 203.900 C 105.176 203.515,105.176 202.885,105.076 202.500 C 104.975 202.115,104.893 202.430,104.893 203.200 M268.493 203.600 C 268.493 204.370,268.575 204.685,268.676 204.300 C 268.776 203.915,268.776 203.285,268.676 202.900 C 268.575 202.515,268.493 202.830,268.493 203.600 M72.128 205.600 C 72.128 207.030,72.201 207.615,72.289 206.900 C 72.378 206.185,72.378 205.015,72.289 204.300 C 72.201 203.585,72.128 204.170,72.128 205.600 M54.159 210.000 C 54.159 213.190,54.221 214.495,54.297 212.900 C 54.373 211.305,54.373 208.695,54.297 207.100 C 54.221 205.505,54.159 206.810,54.159 210.000 M144.128 206.800 C 144.128 208.230,144.201 208.815,144.289 208.100 C 144.378 207.385,144.378 206.215,144.289 205.500 C 144.201 204.785,144.128 205.370,144.128 206.800 M307.429 207.429 C 307.281 208.015,307.238 208.572,307.332 208.666 C 307.427 208.760,307.624 208.358,307.771 207.771 C 307.919 207.185,307.962 206.628,307.868 206.534 C 307.773 206.440,307.576 206.842,307.429 207.429 M72.447 209.660 C 72.369 212.090,74.651 224.166,74.766 221.925 C 74.785 221.553,74.516 220.023,74.168 218.525 C 73.821 217.026,73.302 214.090,73.015 212.000 C 72.729 209.910,72.473 208.857,72.447 209.660 M305.521 213.875 C 304.714 216.466,304.117 218.651,304.195 218.729 C 304.408 218.941,307.255 209.965,307.111 209.534 C 307.043 209.330,306.327 211.283,305.521 213.875 M310.111 216.113 C 309.182 218.996,308.481 221.415,308.554 221.487 C 308.722 221.655,310.083 217.867,311.217 214.079 C 312.712 209.081,311.889 210.596,310.111 216.113 M329.265 211.817 C 328.595 213.288,328.723 213.602,329.447 212.265 C 329.786 211.640,329.988 211.054,329.896 210.963 C 329.805 210.871,329.521 211.256,329.265 211.817 M206.115 216.296 C 207.388 216.376,209.368 216.375,210.515 216.294 C 211.662 216.214,210.620 216.149,208.200 216.150 C 205.780 216.151,204.842 216.216,206.115 216.296 M178.900 216.698 C 180.825 216.771,183.975 216.771,185.900 216.698 C 187.825 216.625,186.250 216.565,182.400 216.565 C 178.550 216.565,176.975 216.625,178.900 216.698 M79.268 219.800 C 79.262 220.240,79.411 220.960,79.600 221.400 C 80.038 222.419,80.038 221.368,79.600 220.000 C 79.343 219.196,79.277 219.157,79.268 219.800 M302.014 223.292 C 299.961 228.244,299.694 229.064,300.762 227.147 C 301.790 225.301,304.083 219.550,303.875 219.341 C 303.788 219.255,302.951 221.033,302.014 223.292 M61.693 221.600 C 61.693 222.370,61.775 222.685,61.876 222.300 C 61.976 221.915,61.976 221.285,61.876 220.900 C 61.775 220.515,61.693 220.830,61.693 221.600 M74.868 223.200 C 74.888 224.239,75.518 225.946,75.532 225.000 C 75.538 224.560,75.389 223.840,75.200 223.400 C 74.989 222.910,74.861 222.832,74.868 223.200 M80.032 222.957 C 79.951 223.863,83.555 234.979,83.838 234.695 C 83.906 234.627,83.085 231.878,82.013 228.586 C 80.941 225.294,80.050 222.761,80.032 222.957 M307.089 224.483 C 306.973 224.767,306.234 226.494,305.446 228.319 C 304.658 230.145,304.172 231.541,304.366 231.421 C 304.796 231.155,307.680 224.347,307.457 224.124 C 307.370 224.037,307.204 224.198,307.089 224.483 M321.800 227.200 C 321.459 227.860,321.269 228.400,321.379 228.400 C 321.489 228.400,321.859 227.860,322.200 227.200 C 322.541 226.540,322.731 226.000,322.621 226.000 C 322.511 226.000,322.141 226.540,321.800 227.200 M262.065 228.217 C 261.395 229.688,261.523 230.002,262.247 228.665 C 262.586 228.040,262.788 227.454,262.696 227.363 C 262.605 227.271,262.321 227.656,262.065 228.217 M76.158 228.300 C 77.432 232.507,78.476 235.508,78.836 236.000 C 79.227 236.533,79.256 236.533,79.096 236.000 C 78.237 233.118,76.295 227.600,76.140 227.600 C 76.033 227.600,76.042 227.915,76.158 228.300 M297.685 233.015 C 296.761 234.877,296.093 236.400,296.198 236.400 C 296.465 236.400,299.685 229.951,299.507 229.774 C 299.428 229.695,298.608 231.153,297.685 233.015 M300.845 237.911 C 291.325 256.913,282.310 270.881,271.251 283.762 C 269.380 285.941,268.124 287.561,268.459 287.362 C 269.238 286.899,274.506 280.622,278.664 275.200 C 283.928 268.337,290.380 258.366,294.639 250.513 C 300.545 239.623,304.190 232.400,303.781 232.400 C 303.684 232.400,302.363 234.880,300.845 237.911 M317.800 234.800 C 317.459 235.460,317.269 236.000,317.379 236.000 C 317.489 236.000,317.859 235.460,318.200 234.800 C 318.541 234.140,318.731 233.600,318.621 233.600 C 318.511 233.600,318.141 234.140,317.800 234.800 M84.038 235.265 C 83.915 236.118,90.057 248.909,91.409 250.614 C 91.752 251.046,90.803 248.970,89.300 246.000 C 87.797 243.030,86.007 239.340,85.322 237.800 C 84.637 236.260,84.059 235.119,84.038 235.265 M257.600 236.400 C 257.130 237.060,256.836 237.600,256.946 237.600 C 257.056 237.600,257.530 237.060,258.000 236.400 C 258.470 235.740,258.764 235.200,258.654 235.200 C 258.544 235.200,258.070 235.740,257.600 236.400 M293.454 241.079 C 292.225 243.455,290.394 246.885,289.386 248.700 C 288.378 250.515,287.638 252.000,287.741 252.000 C 288.212 252.000,296.194 237.260,295.889 236.955 C 295.780 236.846,294.684 238.702,293.454 241.079 M80.033 238.994 C 79.991 239.500,83.286 246.448,83.477 246.256 C 83.557 246.176,82.822 244.421,81.844 242.356 C 80.866 240.290,80.051 238.777,80.033 238.994 M250.788 244.700 L 248.200 247.400 250.900 244.812 C 252.385 243.388,253.600 242.173,253.600 242.112 C 253.600 241.817,253.193 242.192,250.788 244.700 M85.126 249.800 C 86.010 251.560,87.029 253.360,87.389 253.800 C 87.749 254.240,87.199 252.980,86.166 251.000 C 85.133 249.020,84.115 247.220,83.903 247.000 C 83.691 246.780,84.241 248.040,85.126 249.800 M124.800 250.925 C 124.800 250.994,125.385 251.579,126.100 252.225 L 127.400 253.400 126.225 252.100 C 125.130 250.888,124.800 250.616,124.800 250.925 M93.032 253.500 C 94.330 255.726,99.003 262.331,99.894 263.200 C 100.233 263.530,99.763 262.720,98.850 261.400 C 97.938 260.080,96.091 257.335,94.747 255.300 C 92.135 251.345,91.208 250.373,93.032 253.500 M286.146 254.300 C 277.561 269.291,259.773 290.682,252.513 294.745 C 252.124 294.962,251.911 295.245,252.039 295.373 C 252.283 295.617,257.225 291.588,260.542 288.442 C 262.495 286.589,269.548 278.710,271.013 276.744 C 271.446 276.164,273.049 274.094,274.575 272.144 C 279.116 266.345,288.213 252.400,287.455 252.400 C 287.333 252.400,286.744 253.255,286.146 254.300 M140.400 253.325 C 140.400 253.394,140.985 253.979,141.700 254.625 L 143.000 255.800 141.825 254.500 C 140.730 253.288,140.400 253.016,140.400 253.325 M88.878 256.305 C 89.385 257.243,90.218 258.503,90.728 259.105 L 91.656 260.200 90.728 258.575 C 90.218 257.681,89.385 256.421,88.878 255.775 L 87.955 254.600 88.878 256.305 M132.000 258.200 C 132.746 258.970,133.447 259.600,133.557 259.600 C 133.667 259.600,133.146 258.970,132.400 258.200 C 131.654 257.430,130.953 256.800,130.843 256.800 C 130.733 256.800,131.254 257.430,132.000 258.200 M145.200 258.600 C 145.946 259.370,146.647 260.000,146.757 260.000 C 146.867 260.000,146.346 259.370,145.600 258.600 C 144.854 257.830,144.153 257.200,144.043 257.200 C 143.933 257.200,144.454 257.830,145.200 258.600 M91.856 260.900 C 93.411 263.468,99.260 270.949,100.113 271.461 C 100.673 271.798,100.154 271.092,97.565 268.000 C 96.552 266.790,94.870 264.585,93.827 263.100 C 92.202 260.787,90.922 259.359,91.856 260.900 M198.100 263.476 C 198.485 263.576,199.115 263.576,199.500 263.476 C 199.885 263.375,199.570 263.293,198.800 263.293 C 198.030 263.293,197.715 263.375,198.100 263.476 M101.551 265.538 C 103.453 267.940,104.371 268.451,102.590 266.117 C 101.715 264.971,100.850 264.026,100.666 264.017 C 100.483 264.008,100.881 264.692,101.551 265.538 M104.472 269.100 C 104.800 269.485,106.295 271.240,107.795 273.000 C 116.656 283.401,128.330 294.425,135.300 298.974 C 137.492 300.405,136.334 299.223,133.706 297.348 C 126.866 292.467,117.442 283.489,109.094 273.900 C 106.460 270.875,104.209 268.400,104.091 268.400 C 103.973 268.400,104.144 268.715,104.472 269.100 M101.271 273.141 C 102.636 274.816,106.433 279.339,106.845 279.780 C 107.069 280.020,107.199 280.020,107.196 279.780 C 107.194 279.571,106.384 278.500,105.395 277.400 C 104.406 276.300,103.012 274.641,102.298 273.712 C 101.584 272.784,100.852 272.019,100.671 272.012 C 100.490 272.006,100.760 272.513,101.271 273.141 M173.300 278.276 C 173.685 278.376,174.315 278.376,174.700 278.276 C 175.085 278.175,174.770 278.093,174.000 278.093 C 173.230 278.093,172.915 278.175,173.300 278.276 M89.600 279.725 C 89.600 279.794,90.185 280.379,90.900 281.025 L 92.200 282.200 91.025 280.900 C 89.930 279.688,89.600 279.416,89.600 279.725 M109.006 281.968 C 117.350 291.532,131.516 303.483,139.100 307.357 C 141.386 308.524,140.495 307.748,137.500 305.964 C 130.413 301.741,122.396 295.162,113.449 286.228 C 110.349 283.133,108.350 281.216,109.006 281.968 M301.800 282.000 C 301.459 282.660,301.269 283.200,301.379 283.200 C 301.489 283.200,301.859 282.660,302.200 282.000 C 302.541 281.340,302.731 280.800,302.621 280.800 C 302.511 280.800,302.141 281.340,301.800 282.000 M90.200 290.400 C 92.392 292.600,94.275 294.400,94.385 294.400 C 94.495 294.400,92.792 292.600,90.600 290.400 C 88.408 288.200,86.525 286.400,86.415 286.400 C 86.305 286.400,88.008 288.200,90.200 290.400 M99.200 289.400 C 99.946 290.170,100.647 290.800,100.757 290.800 C 100.867 290.800,100.346 290.170,99.600 289.400 C 98.854 288.630,98.153 288.000,98.043 288.000 C 97.933 288.000,98.454 288.630,99.200 289.400 M266.015 289.500 C 265.504 290.105,264.814 290.915,264.481 291.300 C 263.297 292.670,264.262 291.971,266.000 290.200 C 266.972 289.210,267.582 288.400,267.355 288.400 C 267.129 288.400,266.526 288.895,266.015 289.500 M261.385 294.066 L 259.400 296.131 261.500 294.403 C 262.655 293.452,263.600 292.523,263.600 292.337 C 263.600 291.794,263.470 291.896,261.385 294.066 M248.800 297.443 C 241.683 302.363,233.019 306.765,224.840 309.619 C 219.512 311.478,218.478 312.118,223.216 310.624 C 231.833 307.907,249.810 298.573,251.409 295.985 C 251.762 295.414,251.629 295.488,248.800 297.443 M254.600 299.414 C 249.312 303.414,248.413 304.138,249.200 303.762 C 251.065 302.869,260.245 295.756,259.162 296.043 C 259.073 296.066,257.020 297.584,254.600 299.414 M137.200 300.113 C 138.368 301.389,151.159 308.053,152.304 307.982 C 152.467 307.971,150.440 306.919,147.800 305.643 C 143.497 303.562,141.278 302.353,137.718 300.150 C 136.748 299.550,136.679 299.545,137.200 300.113 M102.400 301.325 C 102.400 301.394,102.985 301.979,103.700 302.625 L 105.000 303.800 103.825 302.500 C 102.730 301.288,102.400 301.016,102.400 301.325 M245.308 305.730 C 241.649 307.907,241.019 308.549,244.271 306.787 C 246.608 305.520,248.837 304.023,248.400 304.013 C 248.290 304.011,246.899 304.783,245.308 305.730 M274.000 309.000 C 273.028 309.990,272.323 310.800,272.433 310.800 C 272.543 310.800,273.428 309.990,274.400 309.000 C 275.372 308.010,276.077 307.200,275.967 307.200 C 275.857 307.200,274.972 308.010,274.000 309.000 M140.800 308.245 C 140.800 308.553,148.427 312.106,148.637 311.896 C 148.793 311.741,147.174 310.934,141.900 308.538 C 141.295 308.263,140.800 308.131,140.800 308.245 M153.673 308.573 C 154.973 309.329,162.012 311.722,162.246 311.487 C 162.382 311.351,158.875 310.055,153.400 308.218 C 152.960 308.070,153.083 308.230,153.673 308.573 M237.400 309.982 C 235.200 311.062,233.559 311.958,233.754 311.973 C 234.250 312.011,241.600 308.501,241.600 308.225 C 241.600 307.907,241.793 307.827,237.400 309.982 M166.000 312.611 C 168.381 313.407,175.407 314.811,176.743 314.757 C 177.456 314.728,177.214 314.594,176.000 314.345 C 173.961 313.927,166.716 312.487,165.200 312.198 C 164.650 312.094,165.010 312.280,166.000 312.611 M212.800 313.020 C 210.490 313.526,206.620 314.218,204.200 314.558 L 199.800 315.176 203.200 314.965 C 206.595 314.754,215.414 313.165,217.237 312.436 C 218.728 311.840,217.384 312.017,212.800 313.020 M231.200 312.690 C 230.430 313.034,228.180 313.910,226.200 314.637 C 224.220 315.365,222.791 315.969,223.025 315.980 C 223.750 316.014,230.134 313.757,231.810 312.874 C 233.658 311.899,233.248 311.776,231.200 312.690 M150.827 312.990 C 152.071 313.667,158.754 316.008,159.364 315.981 C 159.604 315.970,157.640 315.164,155.000 314.188 C 149.893 312.302,149.190 312.100,150.827 312.990 M178.905 315.087 C 179.514 315.179,180.414 315.177,180.905 315.082 C 181.397 314.987,180.900 314.911,179.800 314.914 C 178.700 314.917,178.297 314.995,178.905 315.087 M183.107 315.490 C 183.826 315.579,184.906 315.577,185.507 315.486 C 186.108 315.395,185.520 315.322,184.200 315.324 C 182.880 315.326,182.388 315.401,183.107 315.490 M195.300 315.491 C 196.125 315.578,197.475 315.578,198.300 315.491 C 199.125 315.405,198.450 315.334,196.800 315.334 C 195.150 315.334,194.475 315.405,195.300 315.491 M160.000 316.134 C 160.000 316.688,172.432 319.638,174.477 319.569 C 174.985 319.552,173.330 319.113,170.800 318.594 C 166.762 317.765,162.927 316.841,160.700 316.160 C 160.315 316.042,160.000 316.031,160.000 316.134 M218.800 316.886 C 218.030 317.114,214.970 317.807,212.000 318.425 C 209.030 319.044,207.027 319.561,207.550 319.575 C 208.882 319.610,217.870 317.753,219.800 317.044 C 221.623 316.374,220.911 316.262,218.800 316.886 M274.975 317.700 L 273.800 319.000 275.100 317.825 C 275.815 317.179,276.400 316.594,276.400 316.525 C 276.400 316.216,276.070 316.488,274.975 317.700 M204.500 319.876 C 204.885 319.976,205.515 319.976,205.900 319.876 C 206.285 319.775,205.970 319.693,205.200 319.693 C 204.430 319.693,204.115 319.775,204.500 319.876 M179.900 320.282 C 180.395 320.378,181.205 320.378,181.700 320.282 C 182.195 320.187,181.790 320.109,180.800 320.109 C 179.810 320.109,179.405 320.187,179.900 320.282 M199.900 320.282 C 200.395 320.378,201.205 320.378,201.700 320.282 C 202.195 320.187,201.790 320.109,200.800 320.109 C 199.810 320.109,199.405 320.187,199.900 320.282 M187.121 320.699 C 189.388 320.770,192.988 320.770,195.121 320.698 C 197.255 320.626,195.400 320.568,191.000 320.568 C 186.600 320.568,184.855 320.627,187.121 320.699 M150.400 329.396 C 150.400 329.670,152.849 330.884,153.032 330.701 C 153.119 330.614,152.562 330.244,151.795 329.878 C 151.028 329.512,150.400 329.295,150.400 329.396 M194.520 340.698 C 196.455 340.772,199.515 340.771,201.320 340.697 C 203.124 340.623,201.540 340.563,197.800 340.564 C 194.060 340.564,192.584 340.625,194.520 340.698 " stroke="none" fill="#17279b" fill-rule="evenodd"></path></g></svg>