<svg id="svg" version="1.1" xmlns="http://www.w3.org/2000/svg" xmlns:xlink="http://www.w3.org/1999/xlink" width="400" height="400" viewBox="0, 0, 400,400"><g id="svgg"><path id="path0" d="M99.447 22.973 L 98.400 24.347 98.400 200.331 C 98.400 356.392,98.468 376.340,99.000 376.545 C 99.330 376.671,99.600 377.031,99.600 377.345 C 99.600 378.354,100.553 378.400,121.433 378.400 C 141.467 378.400,142.021 378.379,142.800 377.600 C 143.589 376.811,143.600 376.267,143.600 337.354 L 143.600 297.909 147.938 293.654 C 150.324 291.314,153.519 288.252,155.038 286.849 C 156.557 285.446,159.544 282.611,161.674 280.549 C 163.805 278.487,165.767 276.800,166.034 276.800 C 166.513 276.800,169.200 279.341,169.200 279.795 C 169.200 279.924,170.016 280.878,171.014 281.915 C 172.011 282.952,172.931 284.205,173.057 284.700 C 173.183 285.195,173.537 285.600,173.843 285.600 C 174.150 285.600,174.400 285.863,174.400 286.184 C 174.400 286.505,174.823 287.180,175.340 287.684 C 175.857 288.188,177.202 289.770,178.330 291.200 C 179.457 292.630,180.654 294.115,180.990 294.500 C 181.325 294.885,181.600 295.298,181.600 295.418 C 181.600 295.609,184.103 298.818,186.396 301.563 C 186.838 302.093,187.200 302.768,187.200 303.063 C 187.200 303.359,187.470 303.600,187.800 303.600 C 188.130 303.600,188.400 303.774,188.400 303.986 C 188.400 304.199,188.895 304.904,189.500 305.553 C 190.105 306.203,191.050 307.396,191.600 308.205 C 192.150 309.015,193.005 310.052,193.500 310.511 C 193.995 310.969,194.400 311.522,194.400 311.739 C 194.400 311.955,194.665 312.418,194.989 312.766 C 197.526 315.497,198.151 316.248,199.111 317.714 C 199.710 318.629,200.523 319.743,200.919 320.189 C 202.457 321.925,202.731 322.261,204.136 324.122 C 204.934 325.179,205.860 326.317,206.193 326.650 C 206.527 326.984,206.800 327.411,206.800 327.600 C 206.800 327.789,207.565 328.760,208.500 329.758 C 209.435 330.757,210.650 332.227,211.200 333.026 C 211.750 333.824,212.515 334.770,212.900 335.128 C 213.285 335.485,213.600 335.975,213.600 336.217 C 213.600 336.458,214.005 337.036,214.500 337.501 C 214.995 337.966,215.850 338.915,216.400 339.611 C 216.950 340.307,217.805 341.354,218.300 341.938 C 218.794 342.522,219.199 343.219,219.200 343.486 C 219.200 343.753,219.560 344.165,220.000 344.400 C 220.440 344.635,220.800 345.040,220.800 345.300 C 220.800 345.560,221.151 346.138,221.581 346.586 C 223.319 348.397,224.017 349.243,225.287 351.079 C 226.737 353.173,227.341 353.915,229.891 356.732 C 230.821 357.759,231.586 358.823,231.591 359.097 C 231.596 359.370,231.960 359.818,232.400 360.093 C 232.840 360.368,233.200 360.812,233.200 361.081 C 233.200 361.349,233.537 361.891,233.949 362.284 C 235.319 363.594,238.800 367.959,238.800 368.368 C 238.800 368.590,239.160 368.965,239.600 369.200 C 240.040 369.435,240.400 369.821,240.400 370.056 C 240.400 370.666,244.961 376.009,246.593 377.312 L 247.964 378.406 274.682 378.303 L 301.400 378.200 301.525 376.900 C 301.595 376.178,301.464 375.600,301.230 375.600 C 300.999 375.600,300.693 374.875,300.552 373.988 C 300.410 373.102,299.775 371.707,299.141 370.888 C 298.506 370.070,297.675 368.979,297.294 368.465 C 296.912 367.951,296.195 367.120,295.700 366.619 C 295.205 366.118,294.800 365.587,294.800 365.439 C 294.800 365.290,294.065 364.411,293.168 363.485 C 292.270 362.558,291.275 361.305,290.957 360.700 C 290.640 360.095,290.204 359.600,289.990 359.600 C 289.775 359.600,289.600 359.362,289.600 359.072 C 289.600 358.782,289.195 358.164,288.700 357.699 C 288.205 357.234,287.350 356.285,286.800 355.589 C 286.250 354.893,285.395 353.846,284.900 353.262 C 284.406 352.678,284.001 351.981,284.000 351.714 C 284.000 351.447,283.640 351.035,283.200 350.800 C 282.760 350.565,282.400 350.174,282.400 349.932 C 282.400 349.690,281.995 349.094,281.500 348.608 C 280.036 347.170,277.012 343.563,276.851 343.063 C 276.706 342.613,275.729 341.477,274.300 340.098 C 273.915 339.726,273.600 339.187,273.600 338.899 C 273.600 338.611,273.362 338.283,273.070 338.172 C 272.779 338.060,271.841 337.030,270.987 335.884 C 269.236 333.535,268.592 332.757,267.300 331.432 C 266.805 330.924,266.400 330.336,266.400 330.126 C 266.400 329.916,265.995 329.364,265.500 328.899 C 265.005 328.434,264.209 327.547,263.732 326.927 C 263.254 326.307,262.399 325.234,261.832 324.542 C 261.264 323.850,260.800 323.085,260.800 322.842 C 260.800 322.599,260.530 322.400,260.200 322.400 C 259.870 322.400,259.600 322.237,259.600 322.037 C 259.600 321.838,258.244 319.993,256.586 317.937 C 254.928 315.882,253.263 313.790,252.886 313.289 C 252.509 312.788,251.592 311.708,250.849 310.889 C 250.106 310.070,249.092 308.770,248.597 308.000 C 248.101 307.230,247.139 306.060,246.459 305.400 C 245.779 304.740,245.217 304.007,245.211 303.772 C 245.205 303.537,244.795 302.957,244.300 302.484 C 243.242 301.473,242.022 300.016,240.376 297.800 C 238.370 295.100,237.824 294.395,237.184 293.684 C 234.750 290.981,232.400 288.021,232.400 287.660 C 232.400 287.422,232.040 287.035,231.600 286.800 C 231.160 286.565,230.800 286.174,230.800 285.932 C 230.800 285.690,230.395 285.091,229.900 284.602 C 229.405 284.113,228.640 283.239,228.200 282.661 C 227.760 282.083,226.905 281.070,226.300 280.409 C 225.695 279.748,225.200 278.948,225.200 278.631 C 225.200 278.313,224.840 277.940,224.400 277.800 C 223.960 277.660,223.600 277.295,223.600 276.987 C 223.600 276.680,223.240 276.235,222.800 276.000 C 222.360 275.765,222.000 275.318,222.000 275.009 C 222.000 274.699,221.685 274.210,221.300 273.921 C 220.490 273.315,218.000 270.181,218.000 269.768 C 218.000 269.614,217.744 269.288,217.431 269.044 C 217.119 268.800,215.141 266.440,213.035 263.800 C 210.930 261.160,208.846 258.634,208.404 258.186 C 207.962 257.738,207.600 257.251,207.600 257.104 C 207.600 256.957,207.195 256.406,206.700 255.879 C 206.205 255.353,205.400 254.386,204.910 253.731 C 204.421 253.075,203.611 252.075,203.110 251.508 C 202.610 250.941,201.840 249.994,201.400 249.404 C 200.960 248.813,200.195 247.920,199.700 247.419 C 198.405 246.109,198.459 243.884,199.800 243.273 C 200.350 243.022,200.800 242.543,200.800 242.209 C 200.800 241.874,200.988 241.600,201.217 241.600 C 201.446 241.600,203.690 239.575,206.202 237.100 C 208.714 234.625,214.148 229.360,218.277 225.400 C 222.407 221.440,226.992 216.985,228.468 215.500 C 229.943 214.015,231.251 212.800,231.374 212.800 C 231.496 212.800,233.189 211.180,235.136 209.200 C 237.082 207.220,238.883 205.600,239.137 205.600 C 239.392 205.600,239.600 205.396,239.600 205.147 C 239.600 204.617,242.284 202.000,242.828 202.000 C 243.033 202.000,243.200 201.759,243.200 201.464 C 243.200 201.170,243.650 200.723,244.200 200.473 C 244.750 200.222,245.200 199.743,245.200 199.409 C 245.200 199.074,245.474 198.800,245.809 198.800 C 246.143 198.800,246.622 198.350,246.873 197.800 C 247.123 197.250,247.570 196.800,247.864 196.800 C 248.159 196.800,248.400 196.530,248.400 196.200 C 248.400 195.870,248.576 195.600,248.791 195.600 C 249.006 195.600,251.661 193.170,254.691 190.200 C 263.276 181.785,272.262 173.065,286.741 159.100 C 289.649 156.295,292.202 154.000,292.414 154.000 C 292.626 154.000,292.800 153.742,292.800 153.427 C 292.800 153.112,293.151 152.743,293.580 152.606 C 294.008 152.470,294.467 152.017,294.600 151.600 C 294.733 151.183,295.185 150.732,295.607 150.598 C 296.792 150.222,297.236 145.503,296.184 144.450 C 295.843 144.109,247.723 143.883,244.124 144.206 C 241.859 144.409,241.026 144.669,240.203 145.432 C 239.629 145.964,238.988 146.400,238.779 146.400 C 238.571 146.400,238.400 146.670,238.400 147.000 C 238.400 147.330,238.265 147.601,238.100 147.602 C 237.665 147.606,233.200 151.968,233.200 152.390 C 233.200 152.586,232.849 152.857,232.420 152.994 C 231.992 153.130,231.536 153.572,231.407 153.977 C 231.279 154.382,230.819 154.806,230.387 154.919 C 229.954 155.033,229.600 155.400,229.600 155.736 C 229.600 156.071,229.249 156.457,228.820 156.594 C 228.392 156.730,227.930 157.192,227.794 157.620 C 227.657 158.049,227.381 158.400,227.180 158.400 C 226.979 158.400,225.866 159.405,224.707 160.634 C 223.548 161.863,213.825 171.685,203.100 182.461 C 192.375 193.237,183.600 202.193,183.600 202.363 C 183.600 202.533,183.150 202.877,182.600 203.127 C 182.050 203.378,181.600 203.765,181.600 203.988 C 181.600 204.341,181.120 204.848,178.699 207.055 C 178.425 207.305,177.660 208.157,177.000 208.946 C 176.340 209.736,175.575 210.387,175.300 210.391 C 175.025 210.396,174.800 210.580,174.800 210.800 C 174.800 211.306,170.563 215.600,170.064 215.600 C 169.860 215.600,169.596 215.973,169.476 216.430 C 169.357 216.886,168.886 217.357,168.430 217.476 C 167.973 217.596,167.600 217.852,167.600 218.047 C 167.600 218.241,163.235 222.804,157.900 228.187 C 152.565 233.569,147.708 238.519,147.106 239.187 C 145.855 240.575,144.616 240.751,144.014 239.626 C 143.732 239.099,143.598 204.608,143.594 131.126 C 143.591 71.877,143.456 23.202,143.294 22.960 C 142.436 21.675,141.206 21.600,120.874 21.600 L 100.495 21.600 99.447 22.973 " stroke="none" fill="#1dbcfc" fill-rule="evenodd"></path><path id="path1" d="M0.000 200.000 L 0.000 400.000 200.000 400.000 L 400.000 400.000 400.000 200.000 L 400.000 0.000 200.000 0.000 L 0.000 0.000 0.000 200.000 M142.284 19.936 C 142.678 20.341,143.289 20.775,143.643 20.901 C 145.689 21.632,145.600 16.594,145.600 131.375 C 145.600 237.333,145.602 237.600,146.400 237.600 C 146.842 237.600,147.200 237.333,147.200 237.003 C 147.200 236.675,147.560 236.182,148.000 235.907 C 148.440 235.632,148.800 235.193,148.800 234.931 C 148.800 234.668,149.160 234.340,149.600 234.200 C 150.040 234.060,150.400 233.684,150.400 233.363 C 150.400 233.043,150.850 232.609,151.400 232.400 C 151.950 232.191,152.400 231.757,152.400 231.437 C 152.400 231.116,152.751 230.743,153.180 230.606 C 153.608 230.470,154.070 230.008,154.206 229.580 C 154.343 229.151,154.683 228.800,154.963 228.800 C 155.243 228.800,155.677 228.350,155.927 227.800 C 156.178 227.250,156.636 226.800,156.945 226.800 C 157.254 226.800,157.601 226.440,157.716 226.000 C 157.831 225.560,158.212 225.200,158.563 225.200 C 158.913 225.200,159.200 225.055,159.200 224.878 C 159.200 224.366,161.861 221.600,162.354 221.600 C 162.599 221.600,162.800 221.393,162.800 221.140 C 162.800 220.572,165.404 218.000,165.980 218.000 C 166.211 218.000,166.400 217.815,166.400 217.588 C 166.400 217.362,170.810 212.757,176.200 207.356 C 181.590 201.954,186.000 197.473,186.000 197.397 C 186.000 197.252,205.091 177.913,226.000 156.877 C 235.254 147.567,239.184 143.881,240.800 143.000 L 243.000 141.800 268.200 141.678 C 285.337 141.595,293.871 141.693,294.873 141.986 C 297.999 142.899,300.277 147.723,298.446 149.554 C 297.981 150.019,297.600 150.548,297.600 150.728 C 297.600 150.908,297.150 151.447,296.600 151.925 C 296.050 152.403,295.600 152.976,295.600 153.197 C 295.600 153.419,295.375 153.601,295.100 153.603 C 294.825 153.605,293.886 154.415,293.013 155.403 C 292.140 156.391,291.216 157.200,290.960 157.200 C 290.703 157.200,290.399 157.560,290.284 158.000 C 290.169 158.440,289.800 158.800,289.464 158.800 C 289.129 158.800,288.743 159.151,288.606 159.580 C 288.470 160.008,288.028 160.464,287.623 160.593 C 287.218 160.721,286.794 161.181,286.681 161.613 C 286.567 162.046,286.200 162.400,285.864 162.400 C 285.529 162.400,285.140 162.760,285.000 163.200 C 284.860 163.640,284.590 164.000,284.400 164.000 C 284.209 164.000,281.254 166.790,277.832 170.200 C 274.410 173.610,271.440 176.400,271.232 176.400 C 271.024 176.400,270.743 176.751,270.606 177.180 C 270.470 177.608,270.008 178.070,269.580 178.206 C 269.151 178.343,268.800 178.712,268.800 179.027 C 268.800 179.342,268.665 179.601,268.500 179.602 C 268.335 179.603,266.105 181.628,263.545 184.102 C 260.984 186.576,256.609 190.760,253.823 193.400 C 251.036 196.040,247.171 199.775,245.233 201.700 C 243.296 203.625,241.505 205.200,241.255 205.200 C 241.005 205.200,240.800 205.487,240.800 205.837 C 240.800 206.188,240.462 206.563,240.049 206.671 C 239.636 206.779,239.099 207.303,238.857 207.834 C 238.615 208.365,238.143 208.800,237.809 208.800 C 237.474 208.800,237.200 209.087,237.200 209.437 C 237.200 209.788,236.846 210.167,236.413 210.281 C 235.981 210.394,235.518 210.827,235.386 211.243 C 235.254 211.659,234.989 212.000,234.797 212.000 C 234.604 212.000,232.497 213.945,230.113 216.323 C 227.729 218.701,225.468 220.765,225.089 220.910 C 224.710 221.056,224.400 221.438,224.400 221.760 C 224.400 222.083,224.049 222.457,223.620 222.594 C 223.192 222.730,222.730 223.192,222.594 223.620 C 222.457 224.049,222.117 224.400,221.837 224.400 C 221.557 224.400,221.123 224.850,220.873 225.400 C 220.622 225.950,220.143 226.400,219.809 226.400 C 219.474 226.400,219.200 226.670,219.200 227.000 C 219.200 227.330,219.031 227.600,218.824 227.600 C 218.617 227.600,215.938 230.075,212.870 233.100 C 209.802 236.125,205.814 240.006,204.007 241.723 C 200.007 245.527,200.008 245.551,204.428 250.214 C 204.853 250.662,205.200 251.247,205.200 251.514 C 205.200 251.781,205.341 252.000,205.514 252.000 C 205.859 252.000,210.400 257.439,210.400 257.852 C 210.400 257.993,210.805 258.509,211.300 258.998 C 211.795 259.487,212.560 260.356,213.000 260.927 C 213.440 261.499,214.478 262.736,215.307 263.675 C 216.136 264.615,217.036 265.885,217.307 266.497 C 217.578 267.109,218.115 267.709,218.500 267.832 C 218.885 267.954,219.200 268.390,219.200 268.800 C 219.200 269.210,219.560 269.660,220.000 269.800 C 220.440 269.940,220.800 270.222,220.800 270.427 C 220.800 270.632,221.115 271.127,221.500 271.526 C 222.828 272.903,224.800 275.554,224.800 275.962 C 224.800 276.188,225.160 276.565,225.600 276.800 C 226.040 277.035,226.400 277.423,226.400 277.661 C 226.400 277.899,227.120 278.792,228.000 279.646 C 228.880 280.500,229.600 281.311,229.600 281.447 C 229.600 281.669,230.154 282.382,232.799 285.563 C 233.240 286.093,233.600 286.768,233.600 287.063 C 233.600 287.359,233.876 287.600,234.213 287.600 C 234.549 287.600,234.941 287.915,235.083 288.300 C 235.224 288.685,235.714 289.380,236.170 289.844 C 237.774 291.475,239.200 293.377,239.200 293.886 C 239.200 294.169,239.450 294.400,239.757 294.400 C 240.063 294.400,240.423 294.838,240.558 295.373 C 240.692 295.909,241.161 296.461,241.601 296.600 C 242.040 296.740,242.400 297.046,242.400 297.281 C 242.400 297.516,242.805 298.124,243.300 298.632 C 244.923 300.297,245.482 300.987,245.975 301.930 C 246.437 302.816,247.071 303.592,248.819 305.414 C 249.249 305.862,249.600 306.336,249.600 306.467 C 249.600 306.598,250.408 307.582,251.396 308.653 C 252.383 309.724,253.193 310.782,253.196 311.004 C 253.198 311.226,253.560 311.632,254.000 311.907 C 254.440 312.182,254.800 312.669,254.800 312.989 C 254.800 313.310,255.160 313.765,255.600 314.000 C 256.040 314.235,256.400 314.671,256.400 314.968 C 256.400 315.265,256.850 315.803,257.400 316.163 C 257.950 316.524,258.400 317.044,258.400 317.320 C 258.400 317.596,258.715 318.108,259.100 318.456 C 259.485 318.805,260.250 319.686,260.800 320.413 C 261.350 321.140,262.205 322.163,262.700 322.686 C 263.195 323.209,263.602 323.763,263.603 323.918 C 263.605 324.073,264.242 324.870,265.019 325.690 C 266.734 327.499,269.200 330.694,269.200 331.107 C 269.200 331.272,269.560 331.632,270.000 331.907 C 270.440 332.182,270.800 332.675,270.800 333.003 C 270.800 333.332,270.949 333.600,271.131 333.600 C 271.414 333.600,274.809 337.676,277.092 340.756 C 277.481 341.282,278.205 342.113,278.700 342.602 C 279.195 343.091,279.600 343.598,279.600 343.728 C 279.600 343.857,280.005 344.401,280.500 344.936 C 282.290 346.871,283.581 348.610,283.590 349.100 C 283.596 349.375,283.867 349.600,284.192 349.600 C 284.518 349.600,284.898 350.050,285.036 350.600 C 285.174 351.150,285.537 351.600,285.843 351.600 C 286.150 351.600,286.400 351.774,286.400 351.986 C 286.400 352.199,286.895 352.909,287.500 353.564 C 288.959 355.145,289.323 355.603,290.232 357.004 C 290.654 357.654,291.323 358.550,291.719 358.993 C 292.736 360.136,293.217 360.712,295.224 363.200 C 296.201 364.410,297.135 365.460,297.300 365.533 C 297.465 365.607,297.600 366.000,297.600 366.406 C 297.600 366.813,297.951 367.257,298.380 367.394 C 298.808 367.530,299.265 367.975,299.395 368.384 C 299.524 368.792,299.894 369.227,300.215 369.350 C 300.537 369.474,300.800 369.840,300.800 370.165 C 300.800 370.489,301.205 371.038,301.700 371.385 C 302.487 371.936,302.617 372.431,302.738 375.331 L 302.876 378.647 301.465 379.724 L 300.053 380.800 274.716 380.800 C 253.956 380.800,249.235 380.701,248.589 380.254 C 248.155 379.954,247.350 379.573,246.800 379.409 C 245.450 379.006,239.200 372.428,239.200 371.410 C 239.200 371.180,238.840 370.768,238.400 370.493 C 237.960 370.218,237.600 369.731,237.600 369.411 C 237.600 369.090,237.240 368.635,236.800 368.400 C 236.360 368.165,236.000 367.806,236.000 367.604 C 236.000 367.402,235.595 366.788,235.100 366.241 C 232.717 363.606,232.400 363.196,232.400 362.760 C 232.400 362.503,231.995 361.890,231.500 361.400 C 230.037 359.950,227.438 356.779,226.912 355.802 C 226.644 355.303,226.149 354.789,225.812 354.660 C 225.475 354.531,225.200 354.072,225.200 353.640 C 225.200 353.205,224.842 352.740,224.400 352.600 C 223.960 352.460,223.600 352.010,223.600 351.600 C 223.600 351.190,223.240 350.740,222.800 350.600 C 222.360 350.460,222.000 350.178,222.000 349.973 C 222.000 349.768,221.650 349.250,221.221 348.821 C 220.793 348.393,220.158 347.493,219.811 346.821 C 219.464 346.150,219.008 345.600,218.797 345.600 C 218.587 345.600,218.302 345.150,218.164 344.600 C 218.026 344.050,217.663 343.600,217.357 343.600 C 217.050 343.600,216.800 343.439,216.800 343.241 C 216.800 343.044,216.357 342.369,215.816 341.741 C 213.254 338.771,212.801 338.166,212.800 337.714 C 212.800 337.447,212.440 337.035,212.000 336.800 C 211.560 336.565,211.200 336.174,211.200 335.932 C 211.200 335.690,210.795 335.083,210.300 334.584 C 208.565 332.833,205.600 328.939,205.600 328.411 C 205.600 328.200,205.240 327.835,204.800 327.600 C 204.360 327.365,204.000 326.992,204.000 326.771 C 204.000 326.551,203.190 325.526,202.200 324.492 C 201.210 323.459,200.400 322.418,200.400 322.179 C 200.400 321.940,199.950 321.353,199.400 320.875 C 198.850 320.397,198.400 319.830,198.400 319.616 C 198.400 319.402,197.815 318.627,197.100 317.895 C 195.281 316.031,193.200 313.327,193.200 312.827 C 193.200 312.596,192.840 312.182,192.400 311.907 C 191.960 311.632,191.600 311.213,191.600 310.976 C 191.600 310.739,191.195 310.164,190.700 309.699 C 190.205 309.234,189.409 308.347,188.932 307.727 C 188.454 307.107,187.599 306.034,187.032 305.342 C 186.464 304.650,186.000 303.795,186.000 303.442 C 186.000 303.089,185.724 302.800,185.387 302.800 C 185.051 302.800,184.659 302.485,184.517 302.100 C 184.376 301.715,183.886 301.005,183.430 300.522 C 181.751 298.747,181.300 298.178,180.792 297.200 C 180.507 296.650,179.942 295.965,179.537 295.677 C 179.131 295.390,178.800 294.910,178.800 294.611 C 178.800 294.311,178.629 294.007,178.420 293.933 C 177.826 293.725,173.600 288.281,173.600 287.725 C 173.600 287.452,173.240 287.035,172.800 286.800 C 172.360 286.565,172.000 286.186,172.000 285.958 C 172.000 285.730,171.280 284.791,170.400 283.872 C 169.520 282.952,168.181 281.432,167.426 280.493 L 166.052 278.786 164.685 280.193 C 163.934 280.967,163.112 281.600,162.860 281.600 C 162.607 281.600,162.400 281.841,162.400 282.136 C 162.400 282.430,161.950 282.877,161.400 283.127 C 160.850 283.378,160.400 283.857,160.400 284.191 C 160.400 284.526,160.225 284.800,160.011 284.800 C 159.797 284.800,157.580 286.825,155.085 289.300 C 152.589 291.775,149.479 294.773,148.174 295.962 L 145.800 298.124 145.690 336.932 C 145.630 358.277,145.430 375.935,145.245 376.171 C 145.061 376.407,144.801 377.059,144.667 377.621 C 144.525 378.217,143.739 379.091,142.776 379.721 L 141.128 380.800 121.335 380.800 L 101.542 380.800 99.762 379.757 C 98.783 379.183,97.806 378.385,97.591 377.983 C 97.023 376.922,97.056 23.016,97.624 21.955 C 97.858 21.518,98.443 20.983,98.924 20.764 C 99.406 20.545,100.250 20.106,100.800 19.789 C 102.524 18.794,141.308 18.932,142.284 19.936 " stroke="none" fill="#fcfcfc" fill-rule="evenodd"></path><path id="path2" d="M100.849 20.550 C 100.106 20.819,99.071 21.535,98.549 22.142 L 97.600 23.245 97.600 199.803 C 97.600 330.982,97.717 376.619,98.055 377.362 C 99.140 379.742,99.561 379.789,120.563 379.911 C 142.789 380.040,144.469 379.816,144.386 376.726 C 144.378 376.437,144.133 376.630,143.842 377.156 C 142.721 379.177,142.796 379.171,121.560 379.186 C 100.392 379.201,99.817 379.152,98.679 377.227 C 98.043 376.149,98.000 364.941,98.000 199.845 L 98.000 23.613 99.167 22.306 L 100.334 21.000 120.658 20.889 C 142.030 20.773,142.722 20.823,143.715 22.555 C 144.090 23.209,144.245 47.846,144.400 131.367 C 144.559 217.189,144.702 239.368,145.100 239.500 C 145.559 239.653,151.563 233.675,190.995 193.800 C 235.994 148.295,239.903 144.465,242.115 143.716 C 244.735 142.828,291.307 142.382,294.200 143.217 C 297.519 144.175,298.920 149.147,296.343 150.824 C 295.983 151.058,282.884 163.699,270.827 175.447 C 266.962 179.213,263.080 182.966,262.200 183.787 C 261.320 184.607,256.228 189.536,250.883 194.739 C 238.146 207.141,232.503 212.614,227.932 217.000 C 225.868 218.980,219.684 224.942,214.190 230.249 C 208.695 235.556,203.120 240.925,201.800 242.178 C 198.793 245.035,198.803 245.106,202.942 250.226 C 204.734 252.443,206.650 254.858,207.200 255.592 C 207.750 256.326,208.470 257.200,208.800 257.535 C 209.130 257.869,209.894 258.785,210.497 259.571 C 212.385 262.031,213.363 263.234,214.500 264.497 C 215.105 265.169,215.603 265.827,215.606 265.959 C 215.609 266.092,216.284 266.969,217.106 267.908 C 217.928 268.847,218.911 270.017,219.291 270.508 C 220.430 271.977,225.556 278.352,228.693 282.200 C 230.307 284.180,231.936 286.208,232.314 286.706 C 233.698 288.534,240.016 296.364,241.026 297.505 C 241.364 297.887,243.351 300.360,245.441 303.000 C 247.531 305.640,249.906 308.595,250.720 309.566 C 251.534 310.537,253.978 313.597,256.151 316.366 C 258.324 319.135,260.701 322.120,261.434 323.000 C 262.166 323.880,265.304 327.750,268.406 331.600 C 271.508 335.450,274.711 339.392,275.523 340.359 C 276.335 341.327,277.165 342.407,277.366 342.759 C 277.567 343.112,277.837 343.490,277.966 343.600 C 278.095 343.710,278.909 344.700,279.775 345.800 C 280.641 346.900,281.631 348.114,281.975 348.497 C 283.103 349.756,284.371 351.317,289.691 358.000 C 292.580 361.630,295.906 365.770,297.082 367.200 C 298.257 368.630,299.378 370.000,299.573 370.244 C 302.062 373.368,302.589 378.326,300.490 378.881 C 297.850 379.580,247.891 379.084,246.782 378.349 C 245.438 377.457,243.993 376.035,242.800 374.430 C 241.556 372.756,229.556 357.403,228.312 355.894 C 227.810 355.285,227.040 354.353,226.600 353.822 C 226.160 353.292,224.180 350.761,222.200 348.199 C 220.220 345.637,216.940 341.440,214.910 338.871 C 210.689 333.528,211.132 334.096,208.851 331.098 C 207.890 329.834,206.945 328.800,206.751 328.800 C 206.558 328.800,206.400 328.601,206.400 328.359 C 206.400 327.929,203.204 323.819,201.600 322.186 C 201.160 321.738,200.800 321.162,200.800 320.906 C 200.800 320.649,200.574 320.296,200.298 320.120 C 200.021 319.944,199.267 319.080,198.621 318.200 C 196.629 315.485,193.896 312.370,193.689 312.578 C 193.581 312.686,193.876 313.186,194.346 313.687 C 194.815 314.189,196.459 316.220,197.999 318.200 C 199.539 320.180,201.005 322.045,201.257 322.345 C 201.509 322.644,202.345 323.724,203.115 324.745 C 204.651 326.781,205.048 327.261,206.572 328.918 C 207.137 329.533,207.600 330.126,207.600 330.236 C 207.600 330.483,211.274 335.096,212.384 336.242 C 212.833 336.705,213.200 337.230,213.200 337.409 C 213.200 337.587,213.475 338.018,213.812 338.366 C 214.320 338.893,217.006 342.262,221.174 347.600 C 221.603 348.150,223.228 350.220,224.786 352.200 C 226.343 354.180,227.928 356.208,228.308 356.706 C 229.654 358.468,231.009 360.128,231.700 360.859 C 232.085 361.267,232.400 361.693,232.400 361.806 C 232.400 361.991,236.805 367.580,238.806 369.934 C 239.243 370.448,239.600 371.031,239.600 371.231 C 239.600 371.430,239.960 371.818,240.400 372.093 C 240.840 372.368,241.200 372.774,241.200 372.996 C 241.201 374.090,245.908 378.442,247.916 379.205 C 250.924 380.348,298.470 380.415,300.800 379.279 C 303.316 378.052,302.867 373.614,299.859 369.980 C 299.387 369.410,298.556 368.355,298.013 367.636 C 297.470 366.917,296.660 365.919,296.213 365.417 C 295.766 364.916,294.414 363.222,293.209 361.653 C 292.003 360.084,290.878 358.800,290.709 358.800 C 290.539 358.800,290.400 358.581,290.400 358.314 C 290.400 358.047,290.035 357.462,289.588 357.014 C 288.403 355.826,278.278 343.285,277.755 342.358 C 277.511 341.924,277.040 341.351,276.708 341.085 C 276.377 340.818,275.153 339.340,273.988 337.800 C 272.824 336.260,271.634 334.730,271.343 334.400 C 270.539 333.486,269.092 331.712,268.200 330.547 C 267.760 329.972,266.846 328.848,266.170 328.051 C 265.493 327.253,263.366 324.620,261.443 322.200 C 259.521 319.780,257.554 317.306,257.074 316.701 C 256.593 316.097,255.840 315.170,255.400 314.640 C 254.960 314.111,254.240 313.203,253.800 312.623 C 253.360 312.043,252.590 311.094,252.090 310.515 C 251.589 309.935,250.779 308.928,250.290 308.276 C 249.800 307.625,248.950 306.574,248.400 305.941 C 247.850 305.308,247.040 304.328,246.600 303.765 C 246.160 303.201,245.407 302.259,244.926 301.670 C 240.576 296.343,233.721 287.801,233.400 287.308 C 233.180 286.970,232.640 286.291,232.200 285.798 C 231.244 284.729,230.544 283.852,227.445 279.845 C 226.150 278.170,224.935 276.800,224.745 276.800 C 224.555 276.800,224.400 276.626,224.400 276.414 C 224.400 276.201,221.954 273.006,218.965 269.314 C 215.976 265.621,213.141 262.108,212.665 261.507 C 212.189 260.906,211.290 259.826,210.667 259.107 C 210.044 258.388,208.577 256.540,207.407 255.000 C 206.237 253.460,204.767 251.611,204.140 250.890 C 203.513 250.170,202.640 249.113,202.200 248.543 C 201.760 247.972,201.085 247.166,200.700 246.752 C 199.503 245.465,199.895 244.663,203.300 241.434 C 206.566 238.336,220.490 224.886,229.629 216.000 C 232.231 213.470,237.993 207.890,242.432 203.600 C 246.872 199.310,252.901 193.460,255.829 190.600 C 258.757 187.740,262.344 184.292,263.801 182.937 C 265.258 181.582,269.919 177.082,274.159 172.937 C 278.399 168.792,285.260 162.109,289.406 158.087 C 298.921 148.856,299.227 148.380,297.638 145.284 C 296.083 142.255,297.513 142.400,269.138 142.402 C 247.443 142.405,243.635 142.491,242.654 143.002 C 242.024 143.331,241.318 143.600,241.085 143.600 C 240.418 143.600,236.652 147.024,230.919 152.841 C 228.015 155.789,216.888 167.020,206.191 177.800 C 195.495 188.580,186.570 197.715,186.358 198.100 C 186.146 198.485,185.708 198.800,185.386 198.800 C 185.064 198.800,184.800 198.953,184.800 199.141 C 184.800 199.328,177.135 207.203,167.766 216.641 C 158.398 226.078,149.862 234.744,148.798 235.898 C 147.733 237.052,146.398 238.172,145.831 238.388 L 144.800 238.780 144.777 131.490 C 144.752 12.824,144.979 21.871,142.000 20.732 C 139.696 19.851,103.227 19.689,100.849 20.550 M162.315 280.900 C 160.429 282.715,157.471 285.528,155.743 287.151 C 154.014 288.775,150.755 291.895,148.500 294.086 L 144.400 298.070 144.496 337.135 L 144.592 376.200 144.796 337.070 L 145.000 297.939 147.200 295.932 C 148.410 294.829,152.429 291.017,156.132 287.463 C 159.835 283.908,163.611 280.322,164.523 279.494 L 166.182 277.987 167.391 279.357 C 168.056 280.110,171.030 283.833,174.000 287.629 C 176.970 291.426,179.715 294.863,180.100 295.266 C 180.485 295.670,180.800 296.170,180.800 296.377 C 180.800 296.585,181.118 296.990,181.507 297.277 C 181.896 297.565,182.556 298.335,182.975 298.990 C 183.936 300.492,184.379 301.052,185.500 302.184 C 185.995 302.683,186.400 303.230,186.400 303.400 C 186.400 303.570,186.805 304.118,187.300 304.619 C 187.795 305.120,188.509 305.951,188.886 306.465 C 190.760 309.019,193.304 312.030,193.457 311.876 C 193.553 311.781,193.272 311.274,192.832 310.751 C 191.741 309.451,185.234 301.242,184.000 299.609 C 182.382 297.468,178.021 291.888,177.074 290.748 C 176.593 290.169,175.793 289.179,175.297 288.548 C 173.192 285.874,168.313 279.715,167.495 278.700 C 166.257 277.163,166.152 277.208,162.315 280.900 " stroke="none" fill="#9dddfc" fill-rule="evenodd"></path><path id="path3" d="M100.555 21.192 C 100.091 21.380,99.326 22.023,98.855 22.621 L 98.000 23.708 98.000 199.892 C 98.000 364.944,98.043 376.149,98.679 377.227 C 99.053 377.860,99.890 378.562,100.539 378.789 C 102.313 379.407,140.843 379.346,142.211 378.722 C 144.490 377.684,144.400 379.403,144.400 337.055 L 144.400 298.070 148.500 294.086 C 150.755 291.895,154.014 288.775,155.743 287.151 C 157.471 285.528,160.429 282.715,162.315 280.900 C 166.152 277.208,166.257 277.163,167.495 278.700 C 168.313 279.715,173.192 285.874,175.297 288.548 C 175.793 289.179,176.593 290.169,177.074 290.748 C 178.021 291.888,182.382 297.468,184.000 299.609 C 184.841 300.723,190.397 307.760,192.717 310.651 C 193.093 311.119,193.580 311.778,193.800 312.115 C 194.310 312.898,198.995 318.726,200.022 319.856 C 200.450 320.327,200.800 320.861,200.800 321.042 C 200.800 321.224,201.160 321.738,201.600 322.186 C 203.204 323.819,206.400 327.929,206.400 328.359 C 206.400 328.601,206.558 328.800,206.751 328.800 C 206.945 328.800,207.890 329.834,208.851 331.098 C 211.132 334.096,210.689 333.528,214.910 338.871 C 216.940 341.440,220.220 345.637,222.200 348.199 C 224.180 350.761,226.160 353.292,226.600 353.822 C 227.040 354.353,227.810 355.285,228.312 355.894 C 229.556 357.403,241.556 372.756,242.800 374.430 C 243.993 376.035,245.438 377.457,246.782 378.349 C 247.891 379.084,297.850 379.580,300.490 378.881 C 302.589 378.326,302.062 373.368,299.573 370.244 C 299.378 370.000,298.257 368.630,297.082 367.200 C 295.906 365.770,292.580 361.630,289.691 358.000 C 284.371 351.317,283.103 349.756,281.975 348.497 C 281.631 348.114,280.641 346.900,279.775 345.800 C 278.909 344.700,278.095 343.710,277.966 343.600 C 277.837 343.490,277.567 343.112,277.366 342.759 C 277.165 342.407,276.335 341.327,275.523 340.359 C 274.711 339.392,271.508 335.450,268.406 331.600 C 265.304 327.750,262.166 323.880,261.434 323.000 C 260.701 322.120,258.324 319.135,256.151 316.366 C 253.978 313.597,251.534 310.537,250.720 309.566 C 249.906 308.595,247.531 305.640,245.441 303.000 C 243.351 300.360,241.364 297.887,241.026 297.505 C 240.016 296.364,233.698 288.534,232.314 286.706 C 231.936 286.208,230.307 284.180,228.693 282.200 C 225.556 278.352,220.430 271.977,219.291 270.508 C 218.911 270.017,217.928 268.847,217.106 267.908 C 216.284 266.969,215.609 266.092,215.606 265.959 C 215.603 265.827,215.105 265.169,214.500 264.497 C 213.363 263.234,212.385 262.031,210.497 259.571 C 209.894 258.785,209.130 257.869,208.800 257.535 C 208.470 257.200,207.750 256.326,207.200 255.592 C 206.650 254.858,204.734 252.443,202.942 250.226 C 198.803 245.106,198.793 245.035,201.800 242.178 C 203.120 240.925,208.695 235.556,214.190 230.249 C 219.684 224.942,225.868 218.980,227.932 217.000 C 232.503 212.614,238.146 207.141,250.883 194.739 C 256.228 189.536,261.320 184.607,262.200 183.787 C 263.080 182.966,266.962 179.213,270.827 175.447 C 282.884 163.699,295.983 151.058,296.343 150.824 C 298.920 149.147,297.519 144.175,294.200 143.217 C 291.307 142.382,244.735 142.828,242.115 143.716 C 239.903 144.465,235.994 148.295,190.995 193.800 C 151.563 233.675,145.559 239.653,145.100 239.500 C 144.702 239.368,144.559 217.189,144.400 131.367 C 144.289 71.318,144.045 23.083,143.852 22.685 C 142.952 20.839,142.458 20.798,121.320 20.825 C 110.364 20.839,101.020 21.004,100.555 21.192 M142.126 22.060 C 142.607 22.313,143.132 22.718,143.294 22.960 C 143.456 23.202,143.591 71.877,143.594 131.126 C 143.598 204.608,143.732 239.099,144.014 239.626 C 144.616 240.751,145.855 240.575,147.106 239.187 C 147.708 238.519,152.565 233.569,157.900 228.187 C 163.235 222.804,167.600 218.241,167.600 218.047 C 167.600 217.852,167.973 217.596,168.430 217.476 C 168.886 217.357,169.357 216.886,169.476 216.430 C 169.596 215.973,169.860 215.600,170.064 215.600 C 170.563 215.600,174.800 211.306,174.800 210.800 C 174.800 210.580,175.025 210.396,175.300 210.391 C 175.575 210.387,176.340 209.736,177.000 208.946 C 177.660 208.157,178.425 207.305,178.699 207.055 C 181.120 204.848,181.600 204.341,181.600 203.988 C 181.600 203.765,182.050 203.378,182.600 203.127 C 183.150 202.877,183.600 202.533,183.600 202.363 C 183.600 202.193,192.375 193.237,203.100 182.461 C 213.825 171.685,223.548 161.863,224.707 160.634 C 225.866 159.405,226.979 158.400,227.180 158.400 C 227.381 158.400,227.657 158.049,227.794 157.620 C 227.930 157.192,228.392 156.730,228.820 156.594 C 229.249 156.457,229.600 156.071,229.600 155.736 C 229.600 155.400,229.954 155.033,230.387 154.919 C 230.819 154.806,231.279 154.382,231.407 153.977 C 231.536 153.572,231.992 153.130,232.420 152.994 C 232.849 152.857,233.200 152.586,233.200 152.390 C 233.200 151.968,237.665 147.606,238.100 147.602 C 238.265 147.601,238.400 147.330,238.400 147.000 C 238.400 146.670,238.571 146.400,238.779 146.400 C 238.988 146.400,239.629 145.964,240.203 145.432 C 241.026 144.669,241.859 144.409,244.124 144.206 C 247.723 143.883,295.843 144.109,296.184 144.450 C 297.236 145.503,296.792 150.222,295.607 150.598 C 295.185 150.732,294.733 151.183,294.600 151.600 C 294.467 152.017,294.008 152.470,293.580 152.606 C 293.151 152.743,292.800 153.112,292.800 153.427 C 292.800 153.742,292.626 154.000,292.414 154.000 C 292.202 154.000,289.649 156.295,286.741 159.100 C 272.262 173.065,263.276 181.785,254.691 190.200 C 251.661 193.170,249.006 195.600,248.791 195.600 C 248.576 195.600,248.400 195.870,248.400 196.200 C 248.400 196.530,248.159 196.800,247.864 196.800 C 247.570 196.800,247.123 197.250,246.873 197.800 C 246.622 198.350,246.143 198.800,245.809 198.800 C 245.474 198.800,245.200 199.074,245.200 199.409 C 245.200 199.743,244.750 200.222,244.200 200.473 C 243.650 200.723,243.200 201.170,243.200 201.464 C 243.200 201.759,243.033 202.000,242.828 202.000 C 242.284 202.000,239.600 204.617,239.600 205.147 C 239.600 205.396,239.392 205.600,239.137 205.600 C 238.883 205.600,237.082 207.220,235.136 209.200 C 233.189 211.180,231.496 212.800,231.374 212.800 C 231.251 212.800,229.943 214.015,228.468 215.500 C 226.992 216.985,222.407 221.440,218.277 225.400 C 214.148 229.360,208.714 234.625,206.202 237.100 C 203.690 239.575,201.446 241.600,201.217 241.600 C 200.988 241.600,200.800 241.874,200.800 242.209 C 200.800 242.543,200.350 243.022,199.800 243.273 C 198.459 243.884,198.405 246.109,199.700 247.419 C 200.195 247.920,200.960 248.813,201.400 249.404 C 201.840 249.994,202.610 250.941,203.110 251.508 C 203.611 252.075,204.421 253.075,204.910 253.731 C 205.400 254.386,206.205 255.353,206.700 255.879 C 207.195 256.406,207.600 256.957,207.600 257.104 C 207.600 257.251,207.962 257.738,208.404 258.186 C 208.846 258.634,210.930 261.160,213.035 263.800 C 215.141 266.440,217.119 268.800,217.431 269.044 C 217.744 269.288,218.000 269.614,218.000 269.768 C 218.000 270.181,220.490 273.315,221.300 273.921 C 221.685 274.210,222.000 274.699,222.000 275.009 C 222.000 275.318,222.360 275.765,222.800 276.000 C 223.240 276.235,223.600 276.680,223.600 276.987 C 223.600 277.295,223.960 277.660,224.400 277.800 C 224.840 277.940,225.200 278.313,225.200 278.631 C 225.200 278.948,225.695 279.748,226.300 280.409 C 226.905 281.070,227.760 282.083,228.200 282.661 C 228.640 283.239,229.405 284.113,229.900 284.602 C 230.395 285.091,230.800 285.690,230.800 285.932 C 230.800 286.174,231.160 286.565,231.600 286.800 C 232.040 287.035,232.400 287.422,232.400 287.660 C 232.400 288.021,234.750 290.981,237.184 293.684 C 237.824 294.395,238.370 295.100,240.376 297.800 C 242.022 300.016,243.242 301.473,244.300 302.484 C 244.795 302.957,245.205 303.537,245.211 303.772 C 245.217 304.007,245.779 304.740,246.459 305.400 C 247.139 306.060,248.101 307.230,248.597 308.000 C 249.092 308.770,250.106 310.070,250.849 310.889 C 251.592 311.708,252.509 312.788,252.886 313.289 C 253.263 313.790,254.928 315.882,256.586 317.937 C 258.244 319.993,259.600 321.838,259.600 322.037 C 259.600 322.237,259.870 322.400,260.200 322.400 C 260.530 322.400,260.800 322.599,260.800 322.842 C 260.800 323.085,261.264 323.850,261.832 324.542 C 262.399 325.234,263.254 326.307,263.732 326.927 C 264.209 327.547,265.005 328.434,265.500 328.899 C 265.995 329.364,266.400 329.916,266.400 330.126 C 266.400 330.336,266.805 330.924,267.300 331.432 C 268.592 332.757,269.236 333.535,270.987 335.884 C 271.841 337.030,272.779 338.060,273.070 338.172 C 273.362 338.283,273.600 338.611,273.600 338.899 C 273.600 339.187,273.915 339.726,274.300 340.098 C 275.729 341.477,276.706 342.613,276.851 343.063 C 277.012 343.563,280.036 347.170,281.500 348.608 C 281.995 349.094,282.400 349.690,282.400 349.932 C 282.400 350.174,282.760 350.565,283.200 350.800 C 283.640 351.035,284.000 351.447,284.000 351.714 C 284.001 351.981,284.406 352.678,284.900 353.262 C 285.395 353.846,286.250 354.893,286.800 355.589 C 287.350 356.285,288.205 357.234,288.700 357.699 C 289.195 358.164,289.600 358.782,289.600 359.072 C 289.600 359.362,289.775 359.600,289.990 359.600 C 290.204 359.600,290.640 360.095,290.957 360.700 C 291.275 361.305,292.270 362.558,293.168 363.485 C 294.065 364.411,294.800 365.290,294.800 365.439 C 294.800 365.587,295.205 366.118,295.700 366.619 C 296.195 367.120,296.912 367.951,297.294 368.465 C 297.675 368.979,298.506 370.070,299.141 370.888 C 299.775 371.707,300.410 373.102,300.552 373.988 C 300.693 374.875,300.999 375.600,301.230 375.600 C 301.464 375.600,301.595 376.178,301.525 376.900 L 301.400 378.200 274.682 378.303 L 247.964 378.406 246.593 377.312 C 244.961 376.009,240.400 370.666,240.400 370.056 C 240.400 369.821,240.040 369.435,239.600 369.200 C 239.160 368.965,238.800 368.590,238.800 368.368 C 238.800 367.959,235.319 363.594,233.949 362.284 C 233.537 361.891,233.200 361.349,233.200 361.081 C 233.200 360.812,232.840 360.368,232.400 360.093 C 231.960 359.818,231.596 359.370,231.591 359.097 C 231.586 358.823,230.821 357.759,229.891 356.732 C 227.341 353.915,226.737 353.173,225.287 351.079 C 224.017 349.243,223.319 348.397,221.581 346.586 C 221.151 346.138,220.800 345.560,220.800 345.300 C 220.800 345.040,220.440 344.635,220.000 344.400 C 219.560 344.165,219.200 343.753,219.200 343.486 C 219.199 343.219,218.794 342.522,218.300 341.938 C 217.805 341.354,216.950 340.307,216.400 339.611 C 215.850 338.915,214.995 337.966,214.500 337.501 C 214.005 337.036,213.600 336.458,213.600 336.217 C 213.600 335.975,213.285 335.485,212.900 335.128 C 212.515 334.770,211.750 333.824,211.200 333.026 C 210.650 332.227,209.435 330.757,208.500 329.758 C 207.565 328.760,206.800 327.789,206.800 327.600 C 206.800 327.411,206.527 326.984,206.193 326.650 C 205.860 326.317,204.934 325.179,204.136 324.122 C 202.731 322.261,202.457 321.925,200.919 320.189 C 200.523 319.743,199.710 318.629,199.111 317.714 C 198.151 316.248,197.526 315.497,194.989 312.766 C 194.665 312.418,194.400 311.955,194.400 311.739 C 194.400 311.522,193.995 310.969,193.500 310.511 C 193.005 310.052,192.150 309.015,191.600 308.205 C 191.050 307.396,190.105 306.203,189.500 305.553 C 188.895 304.904,188.400 304.199,188.400 303.986 C 188.400 303.774,188.130 303.600,187.800 303.600 C 187.470 303.600,187.200 303.359,187.200 303.063 C 187.200 302.768,186.838 302.093,186.396 301.563 C 184.103 298.818,181.600 295.609,181.600 295.418 C 181.600 295.298,181.325 294.885,180.990 294.500 C 180.654 294.115,179.457 292.630,178.330 291.200 C 177.202 289.770,175.857 288.188,175.340 287.684 C 174.823 287.180,174.400 286.505,174.400 286.184 C 174.400 285.863,174.150 285.600,173.843 285.600 C 173.537 285.600,173.183 285.195,173.057 284.700 C 172.931 284.205,172.011 282.952,171.014 281.915 C 170.016 280.878,169.200 279.924,169.200 279.795 C 169.200 279.341,166.513 276.800,166.034 276.800 C 165.767 276.800,163.805 278.487,161.674 280.549 C 159.544 282.611,156.557 285.446,155.038 286.849 C 153.519 288.252,150.324 291.314,147.938 293.654 L 143.600 297.909 143.600 337.354 C 143.600 376.267,143.589 376.811,142.800 377.600 C 142.021 378.379,141.467 378.400,121.433 378.400 C 100.553 378.400,99.600 378.354,99.600 377.345 C 99.600 377.031,99.330 376.671,99.000 376.545 C 98.468 376.340,98.400 356.392,98.400 200.331 L 98.400 24.347 99.447 22.973 L 100.495 21.600 120.874 21.600 C 135.455 21.600,141.501 21.731,142.126 22.060 " stroke="none" fill="#60cffc" fill-rule="evenodd"></path><path id="path4" d="M100.800 19.789 C 100.250 20.106,99.406 20.545,98.924 20.764 C 98.443 20.983,97.858 21.518,97.624 21.955 C 97.056 23.016,97.023 376.922,97.591 377.983 C 97.806 378.385,98.783 379.183,99.762 379.757 L 101.542 380.800 121.335 380.800 L 141.128 380.800 142.776 379.721 C 143.739 379.091,144.525 378.217,144.667 377.621 C 144.801 377.059,145.061 376.407,145.245 376.171 C 145.430 375.935,145.630 358.277,145.690 336.932 L 145.800 298.124 148.174 295.962 C 149.479 294.773,152.589 291.775,155.085 289.300 C 157.580 286.825,159.797 284.800,160.011 284.800 C 160.225 284.800,160.400 284.526,160.400 284.191 C 160.400 283.857,160.850 283.378,161.400 283.127 C 161.950 282.877,162.400 282.430,162.400 282.136 C 162.400 281.841,162.607 281.600,162.860 281.600 C 163.112 281.600,163.934 280.967,164.685 280.193 L 166.052 278.786 167.426 280.493 C 168.181 281.432,169.520 282.952,170.400 283.872 C 171.280 284.791,172.000 285.730,172.000 285.958 C 172.000 286.186,172.360 286.565,172.800 286.800 C 173.240 287.035,173.600 287.452,173.600 287.725 C 173.600 288.281,177.826 293.725,178.420 293.933 C 178.629 294.007,178.800 294.311,178.800 294.611 C 178.800 294.910,179.131 295.390,179.537 295.677 C 179.942 295.965,180.507 296.650,180.792 297.200 C 181.300 298.178,181.751 298.747,183.430 300.522 C 183.886 301.005,184.376 301.715,184.517 302.100 C 184.659 302.485,185.051 302.800,185.387 302.800 C 185.724 302.800,186.000 303.089,186.000 303.442 C 186.000 303.795,186.464 304.650,187.032 305.342 C 187.599 306.034,188.454 307.107,188.932 307.727 C 189.409 308.347,190.205 309.234,190.700 309.699 C 191.195 310.164,191.600 310.739,191.600 310.976 C 191.600 311.213,191.960 311.632,192.400 311.907 C 192.840 312.182,193.200 312.596,193.200 312.827 C 193.200 313.327,195.281 316.031,197.100 317.895 C 197.815 318.627,198.400 319.402,198.400 319.616 C 198.400 319.830,198.850 320.397,199.400 320.875 C 199.950 321.353,200.400 321.940,200.400 322.179 C 200.400 322.418,201.210 323.459,202.200 324.492 C 203.190 325.526,204.000 326.551,204.000 326.771 C 204.000 326.992,204.360 327.365,204.800 327.600 C 205.240 327.835,205.600 328.200,205.600 328.411 C 205.600 328.939,208.565 332.833,210.300 334.584 C 210.795 335.083,211.200 335.690,211.200 335.932 C 211.200 336.174,211.560 336.565,212.000 336.800 C 212.440 337.035,212.800 337.447,212.800 337.714 C 212.801 338.166,213.254 338.771,215.816 341.741 C 216.357 342.369,216.800 343.044,216.800 343.241 C 216.800 343.439,217.050 343.600,217.357 343.600 C 217.663 343.600,218.026 344.050,218.164 344.600 C 218.302 345.150,218.587 345.600,218.797 345.600 C 219.008 345.600,219.464 346.150,219.811 346.821 C 220.158 347.493,220.793 348.393,221.221 348.821 C 221.650 349.250,222.000 349.768,222.000 349.973 C 222.000 350.178,222.360 350.460,222.800 350.600 C 223.240 350.740,223.600 351.190,223.600 351.600 C 223.600 352.010,223.960 352.460,224.400 352.600 C 224.842 352.740,225.200 353.205,225.200 353.640 C 225.200 354.072,225.475 354.531,225.812 354.660 C 226.149 354.789,226.644 355.303,226.912 355.802 C 227.365 356.644,229.625 359.443,231.333 361.279 C 231.737 361.712,232.157 361.977,232.267 361.867 C 232.377 361.757,232.137 361.318,231.733 360.893 C 231.014 360.133,229.678 358.500,228.308 356.706 C 227.928 356.208,226.343 354.180,224.786 352.200 C 223.228 350.220,221.603 348.150,221.174 347.600 C 217.006 342.262,214.320 338.893,213.812 338.366 C 213.475 338.018,213.200 337.587,213.200 337.409 C 213.200 337.230,212.833 336.705,212.384 336.242 C 211.274 335.096,207.600 330.483,207.600 330.236 C 207.600 330.126,207.137 329.533,206.572 328.918 C 205.048 327.261,204.651 326.781,203.115 324.745 C 202.345 323.724,201.509 322.644,201.257 322.345 C 201.005 322.045,199.539 320.180,197.999 318.200 C 196.459 316.220,194.839 314.215,194.400 313.744 C 193.960 313.273,193.600 312.770,193.600 312.626 C 193.600 312.482,192.691 311.248,191.579 309.882 C 190.467 308.517,189.252 306.979,188.879 306.465 C 188.506 305.951,187.795 305.120,187.300 304.619 C 186.805 304.118,186.400 303.570,186.400 303.400 C 186.400 303.230,185.995 302.683,185.500 302.184 C 184.379 301.052,183.936 300.492,182.975 298.990 C 182.556 298.335,181.896 297.565,181.507 297.277 C 181.118 296.990,180.800 296.585,180.800 296.377 C 180.800 296.170,180.485 295.670,180.100 295.266 C 179.715 294.863,176.970 291.426,174.000 287.629 C 171.030 283.833,168.056 280.110,167.391 279.357 L 166.182 277.987 164.523 279.494 C 163.611 280.322,159.762 283.970,155.970 287.600 C 152.179 291.230,148.115 295.114,146.938 296.231 L 144.800 298.263 144.777 337.031 C 144.761 365.975,144.634 376.152,144.277 377.189 C 143.325 379.960,142.652 380.038,120.651 379.911 C 99.552 379.789,99.140 379.743,98.055 377.362 C 97.717 376.619,97.600 330.984,97.600 199.812 L 97.600 23.261 98.576 22.101 C 100.280 20.077,101.142 19.998,121.446 20.022 C 142.782 20.047,143.352 20.116,144.277 22.810 C 144.642 23.873,144.760 49.457,144.777 131.490 L 144.800 238.780 145.831 238.388 C 146.398 238.172,147.733 237.052,148.798 235.898 C 149.862 234.744,158.398 226.078,167.766 216.641 C 177.135 207.203,184.800 199.328,184.800 199.141 C 184.800 198.953,185.064 198.800,185.386 198.800 C 185.708 198.800,186.146 198.485,186.358 198.100 C 186.570 197.715,195.495 188.580,206.191 177.800 C 216.888 167.020,228.015 155.789,230.919 152.841 C 236.652 147.024,240.418 143.600,241.085 143.600 C 241.318 143.600,242.024 143.331,242.654 143.002 C 243.635 142.491,247.443 142.405,269.138 142.402 C 297.513 142.400,296.083 142.255,297.638 145.284 C 299.227 148.380,298.921 148.856,289.406 158.087 C 285.260 162.109,278.399 168.792,274.159 172.937 C 269.919 177.082,265.258 181.582,263.801 182.937 C 262.344 184.292,258.757 187.740,255.829 190.600 C 252.901 193.460,246.872 199.310,242.432 203.600 C 237.993 207.890,232.231 213.470,229.629 216.000 C 220.490 224.886,206.566 238.336,203.300 241.434 C 199.895 244.663,199.503 245.465,200.700 246.752 C 201.085 247.166,201.760 247.972,202.200 248.543 C 202.640 249.113,203.513 250.170,204.140 250.890 C 204.767 251.611,206.237 253.460,207.407 255.000 C 208.577 256.540,210.044 258.388,210.667 259.107 C 211.290 259.826,212.189 260.906,212.665 261.507 C 213.141 262.108,215.976 265.621,218.965 269.314 C 221.954 273.006,224.400 276.201,224.400 276.414 C 224.400 276.626,224.555 276.800,224.745 276.800 C 224.935 276.800,226.150 278.170,227.445 279.845 C 230.544 283.852,231.244 284.729,232.200 285.798 C 232.640 286.291,233.180 286.970,233.400 287.308 C 233.721 287.801,240.576 296.343,244.926 301.670 C 245.407 302.259,246.160 303.201,246.600 303.765 C 247.040 304.328,247.850 305.308,248.400 305.941 C 248.950 306.574,249.800 307.625,250.290 308.276 C 250.779 308.928,251.589 309.935,252.090 310.515 C 252.590 311.094,253.360 312.043,253.800 312.623 C 254.240 313.203,254.960 314.111,255.400 314.640 C 255.840 315.170,256.593 316.097,257.074 316.701 C 257.554 317.306,259.521 319.780,261.443 322.200 C 263.366 324.620,265.493 327.253,266.170 328.051 C 266.846 328.848,267.760 329.972,268.200 330.547 C 269.092 331.712,270.539 333.486,271.343 334.400 C 271.634 334.730,272.824 336.260,273.988 337.800 C 275.153 339.340,276.377 340.818,276.708 341.085 C 277.040 341.351,277.511 341.924,277.755 342.358 C 278.278 343.285,288.403 355.826,289.588 357.014 C 290.035 357.462,290.400 358.047,290.400 358.314 C 290.400 358.581,290.539 358.800,290.709 358.800 C 290.878 358.800,292.003 360.083,293.209 361.651 C 296.479 365.907,297.600 367.099,297.600 366.322 C 297.600 365.962,297.465 365.607,297.300 365.533 C 297.135 365.460,296.201 364.410,295.224 363.200 C 293.217 360.712,292.736 360.136,291.719 358.993 C 291.323 358.550,290.654 357.654,290.232 357.004 C 289.323 355.603,288.959 355.145,287.500 353.564 C 286.895 352.909,286.400 352.199,286.400 351.986 C 286.400 351.774,286.150 351.600,285.843 351.600 C 285.537 351.600,285.174 351.150,285.036 350.600 C 284.898 350.050,284.518 349.600,284.192 349.600 C 283.867 349.600,283.596 349.375,283.590 349.100 C 283.581 348.610,282.290 346.871,280.500 344.936 C 280.005 344.401,279.600 343.857,279.600 343.728 C 279.600 343.598,279.195 343.091,278.700 342.602 C 278.205 342.113,277.481 341.282,277.092 340.756 C 274.809 337.676,271.414 333.600,271.131 333.600 C 270.949 333.600,270.800 333.332,270.800 333.003 C 270.800 332.675,270.440 332.182,270.000 331.907 C 269.560 331.632,269.200 331.272,269.200 331.107 C 269.200 330.694,266.734 327.499,265.019 325.690 C 264.242 324.870,263.605 324.073,263.603 323.918 C 263.602 323.763,263.195 323.209,262.700 322.686 C 262.205 322.163,261.350 321.140,260.800 320.413 C 260.250 319.686,259.485 318.805,259.100 318.456 C 258.715 318.108,258.400 317.596,258.400 317.320 C 258.400 317.044,257.950 316.524,257.400 316.163 C 256.850 315.803,256.400 315.265,256.400 314.968 C 256.400 314.671,256.040 314.235,255.600 314.000 C 255.160 313.765,254.800 313.310,254.800 312.989 C 254.800 312.669,254.440 312.182,254.000 311.907 C 253.560 311.632,253.198 311.226,253.196 311.004 C 253.193 310.782,252.383 309.724,251.396 308.653 C 250.408 307.582,249.600 306.598,249.600 306.467 C 249.600 306.336,249.249 305.862,248.819 305.414 C 247.071 303.592,246.437 302.816,245.975 301.930 C 245.482 300.987,244.923 300.297,243.300 298.632 C 242.805 298.124,242.400 297.516,242.400 297.281 C 242.400 297.046,242.040 296.740,241.601 296.600 C 241.161 296.461,240.692 295.909,240.558 295.373 C 240.423 294.838,240.063 294.400,239.757 294.400 C 239.450 294.400,239.200 294.169,239.200 293.886 C 239.200 293.377,237.774 291.475,236.170 289.844 C 235.714 289.380,235.224 288.685,235.083 288.300 C 234.941 287.915,234.549 287.600,234.213 287.600 C 233.876 287.600,233.600 287.359,233.600 287.063 C 233.600 286.768,233.240 286.093,232.799 285.563 C 230.154 282.382,229.600 281.669,229.600 281.447 C 229.600 281.311,228.880 280.500,228.000 279.646 C 227.120 278.792,226.400 277.899,226.400 277.661 C 226.400 277.423,226.040 277.035,225.600 276.800 C 225.160 276.565,224.800 276.188,224.800 275.962 C 224.800 275.554,222.828 272.903,221.500 271.526 C 221.115 271.127,220.800 270.632,220.800 270.427 C 220.800 270.222,220.440 269.940,220.000 269.800 C 219.560 269.660,219.200 269.210,219.200 268.800 C 219.200 268.390,218.885 267.954,218.500 267.832 C 218.115 267.709,217.578 267.109,217.307 266.497 C 217.036 265.885,216.136 264.615,215.307 263.675 C 214.478 262.736,213.440 261.499,213.000 260.927 C 212.560 260.356,211.795 259.487,211.300 258.998 C 210.805 258.509,210.400 257.993,210.400 257.852 C 210.400 257.439,205.859 252.000,205.514 252.000 C 205.341 252.000,205.200 251.781,205.200 251.514 C 205.200 251.247,204.853 250.662,204.428 250.214 C 200.008 245.551,200.007 245.527,204.007 241.723 C 205.814 240.006,209.802 236.125,212.870 233.100 C 215.938 230.075,218.617 227.600,218.824 227.600 C 219.031 227.600,219.200 227.330,219.200 227.000 C 219.200 226.670,219.474 226.400,219.809 226.400 C 220.143 226.400,220.622 225.950,220.873 225.400 C 221.123 224.850,221.557 224.400,221.837 224.400 C 222.117 224.400,222.457 224.049,222.594 223.620 C 222.730 223.192,223.192 222.730,223.620 222.594 C 224.049 222.457,224.400 222.083,224.400 221.760 C 224.400 221.438,224.710 221.056,225.089 220.910 C 225.468 220.765,227.729 218.701,230.113 216.323 C 232.497 213.945,234.604 212.000,234.797 212.000 C 234.989 212.000,235.254 211.659,235.386 211.243 C 235.518 210.827,235.981 210.394,236.413 210.281 C 236.846 210.167,237.200 209.788,237.200 209.437 C 237.200 209.087,237.474 208.800,237.809 208.800 C 238.143 208.800,238.615 208.365,238.857 207.834 C 239.099 207.303,239.636 206.779,240.049 206.671 C 240.462 206.563,240.800 206.188,240.800 205.837 C 240.800 205.487,241.005 205.200,241.255 205.200 C 241.505 205.200,243.296 203.625,245.233 201.700 C 247.171 199.775,251.036 196.040,253.823 193.400 C 256.609 190.760,260.984 186.576,263.545 184.102 C 266.105 181.628,268.335 179.603,268.500 179.602 C 268.665 179.601,268.800 179.342,268.800 179.027 C 268.800 178.712,269.151 178.343,269.580 178.206 C 270.008 178.070,270.470 177.608,270.606 177.180 C 270.743 176.751,271.024 176.400,271.232 176.400 C 271.440 176.400,274.410 173.610,277.832 170.200 C 281.254 166.790,284.209 164.000,284.400 164.000 C 284.590 164.000,284.860 163.640,285.000 163.200 C 285.140 162.760,285.529 162.400,285.864 162.400 C 286.200 162.400,286.567 162.046,286.681 161.613 C 286.794 161.181,287.218 160.721,287.623 160.593 C 288.028 160.464,288.470 160.008,288.606 159.580 C 288.743 159.151,289.129 158.800,289.464 158.800 C 289.800 158.800,290.169 158.440,290.284 158.000 C 290.399 157.560,290.703 157.200,290.960 157.200 C 291.216 157.200,292.140 156.391,293.013 155.403 C 293.886 154.415,294.825 153.605,295.100 153.603 C 295.375 153.601,295.600 153.419,295.600 153.197 C 295.600 152.976,296.050 152.403,296.600 151.925 C 297.150 151.447,297.600 150.908,297.600 150.728 C 297.600 150.548,297.981 150.019,298.446 149.554 C 300.277 147.723,297.999 142.899,294.873 141.986 C 293.871 141.693,285.337 141.595,268.200 141.678 L 243.000 141.800 240.800 143.000 C 239.184 143.881,235.254 147.567,226.000 156.877 C 205.091 177.913,186.000 197.252,186.000 197.397 C 186.000 197.473,181.590 201.954,176.200 207.356 C 170.810 212.757,166.400 217.362,166.400 217.588 C 166.400 217.815,166.211 218.000,165.980 218.000 C 165.404 218.000,162.800 220.572,162.800 221.140 C 162.800 221.393,162.599 221.600,162.354 221.600 C 161.861 221.600,159.200 224.366,159.200 224.878 C 159.200 225.055,158.913 225.200,158.563 225.200 C 158.212 225.200,157.831 225.560,157.716 226.000 C 157.601 226.440,157.254 226.800,156.945 226.800 C 156.636 226.800,156.178 227.250,155.927 227.800 C 155.677 228.350,155.243 228.800,154.963 228.800 C 154.683 228.800,154.343 229.151,154.206 229.580 C 154.070 230.008,153.608 230.470,153.180 230.606 C 152.751 230.743,152.400 231.116,152.400 231.437 C 152.400 231.757,151.950 232.191,151.400 232.400 C 150.850 232.609,150.400 233.043,150.400 233.363 C 150.400 233.684,150.040 234.060,149.600 234.200 C 149.160 234.340,148.800 234.668,148.800 234.931 C 148.800 235.193,148.440 235.632,148.000 235.907 C 147.560 236.182,147.200 236.675,147.200 237.003 C 147.200 237.333,146.842 237.600,146.400 237.600 C 145.602 237.600,145.600 237.333,145.600 131.375 C 145.600 16.594,145.689 21.632,143.643 20.901 C 143.289 20.775,142.678 20.341,142.284 19.936 C 141.308 18.932,102.524 18.794,100.800 19.789 M232.400 362.791 C 232.400 363.198,232.726 363.615,235.100 366.241 C 235.595 366.788,236.000 367.402,236.000 367.604 C 236.000 367.806,236.360 368.165,236.800 368.400 C 237.240 368.635,237.600 369.090,237.600 369.411 C 237.600 369.731,237.960 370.218,238.400 370.493 C 238.840 370.768,239.200 371.180,239.200 371.410 C 239.200 372.428,245.450 379.006,246.800 379.409 C 247.350 379.573,248.155 379.954,248.589 380.254 C 249.235 380.701,253.956 380.800,274.716 380.800 L 300.053 380.800 301.465 379.724 L 302.876 378.647 302.738 375.331 C 302.617 372.431,302.487 371.936,301.700 371.385 C 301.205 371.038,300.800 370.535,300.800 370.266 C 300.800 369.998,300.485 369.480,300.100 369.117 C 299.715 368.754,299.168 368.174,298.884 367.828 C 298.601 367.483,298.151 367.203,297.884 367.206 C 297.581 367.210,297.550 367.322,297.800 367.506 C 301.909 370.525,303.770 377.831,300.800 379.279 C 298.470 380.415,250.924 380.348,247.916 379.205 C 245.908 378.442,241.201 374.090,241.200 372.996 C 241.200 372.774,240.840 372.368,240.400 372.093 C 239.960 371.818,239.600 371.415,239.600 371.197 C 239.600 370.978,239.285 370.469,238.900 370.063 C 238.515 369.658,237.058 367.858,235.662 366.064 C 233.030 362.680,232.400 362.047,232.400 362.791 " stroke="none" fill="#c6ecfc" fill-rule="evenodd"></path></g></svg>