<svg id="svg" version="1.1" xmlns="http://www.w3.org/2000/svg" xmlns:xlink="http://www.w3.org/1999/xlink" width="400" height="400" viewBox="0, 0, 400,400"><g id="svgg"><path id="path0" d="M5.012 2.306 C 1.761 4.008,1.314 7.889,4.046 10.704 C 4.951 11.637,5.851 12.400,6.046 12.400 C 6.241 12.400,6.400 12.670,6.400 13.000 C 6.400 13.330,6.593 13.600,6.829 13.600 C 7.382 13.600,8.400 14.618,8.400 15.171 C 8.400 15.407,8.593 15.600,8.829 15.600 C 9.382 15.600,10.400 16.618,10.400 17.171 C 10.400 17.407,10.593 17.600,10.829 17.600 C 11.382 17.600,12.400 18.618,12.400 19.171 C 12.400 19.407,12.593 19.600,12.829 19.600 C 13.382 19.600,14.400 20.618,14.400 21.171 C 14.400 21.407,14.593 21.600,14.829 21.600 C 15.382 21.600,16.400 22.618,16.400 23.171 C 16.400 23.407,16.565 23.600,16.767 23.600 C 16.969 23.600,22.295 28.730,28.603 35.000 C 34.912 41.270,40.303 46.400,40.585 46.400 C 40.866 46.400,41.525 47.030,42.048 47.801 C 42.572 48.571,43.315 49.303,43.700 49.428 C 44.085 49.552,44.400 49.822,44.400 50.027 C 44.400 50.232,44.670 50.400,45.000 50.400 C 45.330 50.400,45.600 50.580,45.600 50.800 C 45.600 51.321,48.679 54.400,49.200 54.400 C 49.420 54.400,49.600 54.593,49.600 54.829 C 49.600 55.382,50.618 56.400,51.171 56.400 C 51.407 56.400,51.600 56.593,51.600 56.829 C 51.600 57.382,52.618 58.400,53.171 58.400 C 53.407 58.400,53.600 58.593,53.600 58.829 C 53.600 59.382,54.618 60.400,55.171 60.400 C 55.407 60.400,55.600 60.593,55.600 60.829 C 55.600 61.382,56.618 62.400,57.171 62.400 C 57.407 62.400,57.600 62.593,57.600 62.829 C 57.600 63.382,58.618 64.400,59.171 64.400 C 59.407 64.400,59.600 64.593,59.600 64.829 C 59.600 65.382,60.618 66.400,61.171 66.400 C 61.407 66.400,61.600 66.593,61.600 66.829 C 61.600 67.382,62.618 68.400,63.171 68.400 C 63.407 68.400,63.600 68.593,63.600 68.829 C 63.600 69.382,64.618 70.400,65.171 70.400 C 65.407 70.400,65.600 70.593,65.600 70.829 C 65.600 71.382,66.618 72.400,67.171 72.400 C 67.407 72.400,67.600 72.593,67.600 72.829 C 67.600 73.382,68.618 74.400,69.171 74.400 C 69.407 74.400,69.600 74.593,69.600 74.829 C 69.600 75.382,70.618 76.400,71.171 76.400 C 71.407 76.400,71.600 76.670,71.600 77.000 C 71.600 77.330,71.749 77.600,71.932 77.600 C 72.114 77.600,75.667 80.930,79.827 85.000 C 83.987 89.070,87.618 92.400,87.895 92.400 C 88.173 92.400,88.400 92.670,88.400 93.000 C 88.400 93.330,88.593 93.600,88.829 93.600 C 89.064 93.600,89.514 93.857,89.829 94.171 C 90.143 94.486,90.400 94.936,90.400 95.171 C 90.400 95.407,90.593 95.600,90.829 95.600 C 91.064 95.600,91.514 95.857,91.829 96.171 C 92.143 96.486,92.400 96.936,92.400 97.171 C 92.400 97.407,92.593 97.600,92.829 97.600 C 93.064 97.600,93.514 97.857,93.829 98.171 C 94.143 98.486,94.400 98.936,94.400 99.171 C 94.400 99.407,94.593 99.600,94.829 99.600 C 95.064 99.600,95.514 99.857,95.829 100.171 C 96.143 100.486,96.400 100.936,96.400 101.171 C 96.400 101.407,96.593 101.600,96.829 101.600 C 97.382 101.600,98.400 102.618,98.400 103.171 C 98.400 103.407,98.576 103.600,98.792 103.600 C 99.007 103.600,102.770 107.197,107.153 111.593 L 115.123 119.585 116.461 119.126 C 117.198 118.874,118.340 118.277,119.000 117.800 C 122.614 115.191,127.433 115.397,135.200 118.495 C 143.277 121.715,156.242 132.165,164.604 142.194 C 165.702 143.510,166.927 144.950,167.326 145.394 C 167.725 145.837,168.805 147.190,169.725 148.400 C 170.645 149.610,171.495 150.690,171.614 150.800 C 174.460 153.439,186.393 172.536,192.276 183.865 C 196.375 191.759,196.670 192.627,195.481 193.264 C 192.834 194.680,190.814 201.523,192.683 202.741 C 192.901 202.883,193.295 203.408,193.557 203.906 C 195.152 206.934,200.363 207.769,203.654 205.523 C 206.143 203.825,206.800 202.341,206.800 198.418 L 206.800 195.262 209.264 194.031 C 210.619 193.354,211.969 192.800,212.264 192.800 C 212.559 192.800,212.800 192.623,212.800 192.408 C 212.800 192.192,213.250 191.902,213.800 191.764 C 214.350 191.626,214.800 191.353,214.800 191.157 C 214.800 190.960,215.124 190.800,215.520 190.800 C 215.916 190.800,216.411 190.642,216.620 190.449 C 216.829 190.256,218.080 189.506,219.400 188.783 C 224.519 185.979,225.468 185.436,227.508 184.140 C 228.667 183.403,229.716 182.800,229.838 182.800 C 229.961 182.800,231.401 181.900,233.038 180.800 C 234.676 179.700,236.110 178.800,236.225 178.800 C 236.340 178.800,236.651 178.621,236.917 178.403 C 237.183 178.184,239.470 176.546,242.000 174.762 C 244.530 172.979,246.660 171.358,246.733 171.160 C 246.807 170.962,247.045 170.800,247.262 170.800 C 247.479 170.800,247.899 170.575,248.194 170.300 C 248.489 170.025,249.318 169.350,250.036 168.800 C 250.754 168.250,251.538 167.620,251.780 167.400 C 252.022 167.180,253.205 166.197,254.410 165.215 C 259.310 161.221,267.692 152.828,270.803 148.800 C 271.568 147.810,272.330 146.940,272.497 146.867 C 272.664 146.793,272.800 146.493,272.800 146.200 C 272.800 145.907,272.938 145.607,273.107 145.533 C 273.276 145.460,274.035 144.410,274.794 143.200 C 275.553 141.990,276.280 140.910,276.409 140.800 C 276.654 140.591,279.854 133.992,280.384 132.600 C 281.353 130.058,281.600 128.575,281.600 125.295 C 281.600 123.289,281.420 121.536,281.200 121.400 C 280.980 121.264,280.800 120.881,280.800 120.550 C 280.800 120.218,280.341 119.345,279.780 118.609 C 278.800 117.324,278.783 117.214,279.366 115.821 C 279.699 115.023,279.810 114.470,279.612 114.593 C 279.414 114.715,278.752 114.317,278.141 113.708 C 277.530 113.098,276.888 112.645,276.715 112.700 C 276.542 112.755,276.400 112.609,276.400 112.376 C 276.400 111.924,271.265 106.706,268.597 104.447 C 267.719 103.703,266.158 102.308,265.129 101.347 C 264.100 100.386,263.065 99.600,262.829 99.600 C 262.593 99.600,262.400 99.407,262.400 99.171 C 262.400 98.618,261.382 97.600,260.829 97.600 C 260.593 97.600,260.400 97.407,260.400 97.171 C 260.400 96.618,259.382 95.600,258.829 95.600 C 258.593 95.600,258.400 95.407,258.400 95.171 C 258.400 94.618,257.382 93.600,256.829 93.600 C 256.593 93.600,256.400 93.407,256.400 93.171 C 256.400 92.618,255.382 91.600,254.829 91.600 C 254.593 91.600,254.400 91.407,254.400 91.171 C 254.400 90.650,253.395 89.600,252.896 89.600 C 252.698 89.600,252.294 89.150,252.000 88.600 C 251.706 88.050,251.256 87.600,251.000 87.600 C 250.744 87.600,250.294 87.150,250.000 86.600 C 249.706 86.050,249.256 85.600,249.000 85.600 C 248.744 85.600,248.294 85.150,248.000 84.600 C 247.706 84.050,247.256 83.600,247.000 83.600 C 246.744 83.600,246.294 83.150,246.000 82.600 C 245.706 82.050,245.225 81.600,244.932 81.600 C 244.640 81.600,244.400 81.407,244.400 81.171 C 244.400 80.618,243.382 79.600,242.829 79.600 C 242.593 79.600,242.400 79.407,242.400 79.171 C 242.400 78.618,241.382 77.600,240.829 77.600 C 240.593 77.600,240.400 77.319,240.400 76.976 C 240.400 76.633,240.220 76.464,240.000 76.600 C 239.780 76.736,239.600 76.567,239.600 76.224 C 239.600 75.881,239.330 75.600,239.000 75.600 C 238.670 75.600,238.400 75.319,238.400 74.976 C 238.400 74.633,238.220 74.464,238.000 74.600 C 237.780 74.736,237.600 74.567,237.600 74.224 C 237.600 73.881,237.330 73.600,237.000 73.600 C 236.670 73.600,236.400 73.300,236.400 72.933 C 236.400 72.567,236.303 72.363,236.186 72.481 C 236.068 72.599,234.358 71.107,232.386 69.164 C 230.413 67.222,228.800 65.722,228.800 65.830 C 228.800 65.939,228.215 65.350,227.500 64.521 C 225.653 62.380,223.932 60.832,223.109 60.571 C 222.719 60.447,222.400 60.120,222.400 59.843 C 222.400 59.220,220.720 57.600,220.074 57.600 C 219.813 57.600,219.600 57.330,219.600 57.000 C 219.600 56.670,219.407 56.400,219.171 56.400 C 218.618 56.400,217.600 55.382,217.600 54.829 C 217.600 54.593,217.407 54.400,217.171 54.400 C 216.618 54.400,215.600 53.382,215.600 52.829 C 215.600 52.593,215.407 52.400,215.171 52.400 C 214.618 52.400,213.600 51.382,213.600 50.829 C 213.600 50.593,213.407 50.400,213.171 50.400 C 212.618 50.400,211.600 49.382,211.600 48.829 C 211.600 48.593,211.433 48.400,211.228 48.400 C 211.023 48.400,209.475 47.050,207.787 45.400 C 206.099 43.750,204.466 42.400,204.159 42.400 C 203.852 42.400,203.600 42.220,203.600 42.000 C 203.600 41.780,203.330 41.600,203.000 41.600 C 202.670 41.600,202.400 41.351,202.400 41.046 C 202.400 40.741,201.770 40.192,201.000 39.827 C 200.230 39.461,199.600 38.991,199.600 38.781 C 199.600 38.572,199.330 38.400,199.000 38.400 C 198.670 38.400,198.400 38.220,198.400 38.000 C 198.400 37.780,198.065 37.600,197.656 37.600 C 197.247 37.600,196.574 37.150,196.161 36.600 C 195.747 36.049,195.004 35.600,194.505 35.600 C 193.967 35.600,193.600 35.357,193.600 35.000 C 193.600 34.670,193.330 34.400,193.000 34.400 C 192.670 34.400,192.400 34.220,192.400 34.000 C 192.400 33.780,191.950 33.600,191.400 33.600 C 190.778 33.600,190.400 33.373,190.400 33.000 C 190.400 32.627,190.022 32.400,189.400 32.400 C 188.850 32.400,188.400 32.241,188.400 32.047 C 188.400 31.852,188.085 31.584,187.700 31.451 C 187.315 31.318,186.460 30.860,185.800 30.434 C 185.140 30.007,184.204 29.645,183.720 29.629 C 183.236 29.613,182.696 29.375,182.520 29.100 C 182.025 28.326,180.517 27.600,179.405 27.600 C 178.778 27.600,178.400 27.374,178.400 27.000 C 178.400 26.627,178.022 26.400,177.400 26.400 C 176.850 26.400,176.400 26.220,176.400 26.000 C 176.400 25.780,176.027 25.600,175.571 25.600 C 175.116 25.600,174.473 25.330,174.143 25.000 C 173.813 24.670,173.106 24.400,172.571 24.400 C 172.037 24.400,171.600 24.220,171.600 24.000 C 171.600 23.780,171.172 23.600,170.649 23.600 C 170.126 23.600,169.474 23.330,169.200 23.000 C 168.926 22.670,168.184 22.400,167.551 22.400 C 166.918 22.400,166.400 22.220,166.400 22.000 C 166.400 21.780,165.789 21.600,165.043 21.600 C 164.205 21.600,163.597 21.370,163.455 21.000 C 163.311 20.623,162.699 20.400,161.813 20.400 C 161.036 20.400,160.400 20.220,160.400 20.000 C 160.400 19.780,159.789 19.600,159.043 19.600 C 158.205 19.600,157.597 19.370,157.455 19.000 C 157.311 18.623,156.699 18.400,155.813 18.400 C 155.036 18.400,154.400 18.220,154.400 18.000 C 154.400 17.780,153.500 17.600,152.400 17.600 C 150.889 17.600,150.400 17.453,150.400 17.000 C 150.400 16.567,149.956 16.400,148.800 16.400 C 147.920 16.400,147.200 16.220,147.200 16.000 C 147.200 15.780,146.412 15.600,145.449 15.600 C 144.380 15.600,143.504 15.366,143.200 15.000 C 142.898 14.636,142.022 14.400,140.975 14.400 C 140.025 14.400,139.136 14.220,139.000 14.000 C 138.864 13.780,137.851 13.600,136.748 13.600 C 135.499 13.600,134.517 13.374,134.143 13.000 C 133.793 12.650,132.815 12.400,131.795 12.400 C 130.834 12.400,129.936 12.220,129.800 12.000 C 129.664 11.780,128.505 11.600,127.225 11.600 C 125.645 11.600,124.738 11.408,124.400 11.000 C 124.062 10.592,123.155 10.400,121.575 10.400 C 120.295 10.400,119.136 10.220,119.000 10.000 C 118.864 9.780,117.401 9.600,115.748 9.600 C 113.610 9.600,112.570 9.427,112.143 9.000 C 111.735 8.592,110.726 8.400,108.995 8.400 C 107.594 8.400,106.336 8.220,106.200 8.000 C 106.064 7.780,104.331 7.600,102.348 7.600 C 99.677 7.600,98.587 7.445,98.143 7.000 C 97.687 6.544,96.549 6.400,93.395 6.400 C 91.061 6.400,89.139 6.225,89.000 6.000 C 88.855 5.766,86.556 5.600,83.456 5.600 C 79.752 5.600,78.010 5.450,77.662 5.100 C 77.092 4.528,70.416 4.070,58.221 3.766 C 52.839 3.632,50.053 3.410,49.660 3.083 C 49.232 2.728,44.792 2.568,32.839 2.479 C 23.319 2.408,16.443 2.201,16.220 1.979 C 15.566 1.326,6.372 1.595,5.012 2.306 M311.600 306.935 C 311.600 307.323,314.038 309.695,314.235 309.499 C 314.319 309.414,313.761 308.737,312.994 307.994 C 312.227 307.251,311.600 306.774,311.600 306.935 M193.083 355.551 C 194.005 356.437,194.625 356.687,194.201 356.002 C 194.066 355.783,193.560 355.401,193.078 355.153 L 192.200 354.701 193.083 355.551 M350.200 396.000 C 350.336 396.220,351.202 396.379,352.124 396.353 C 353.707 396.308,353.733 396.288,352.600 396.000 C 350.825 395.548,349.921 395.548,350.200 396.000 M392.573 396.781 C 392.368 396.984,391.390 397.219,390.400 397.305 L 388.600 397.460 390.400 397.524 C 392.109 397.585,393.626 397.093,393.162 396.628 C 393.043 396.510,392.779 396.579,392.573 396.781 " stroke="none" fill="#e84027" fill-rule="evenodd"></path><path id="path1" d="M206.834 199.400 C 206.819 201.089,206.927 201.622,207.200 201.200 C 207.669 200.474,207.669 198.891,207.200 197.800 C 206.955 197.231,206.850 197.693,206.834 199.400 M191.798 203.372 C 191.579 203.686,188.520 205.416,185.000 207.215 C 181.480 209.014,178.420 210.622,178.200 210.789 C 177.798 211.095,175.400 212.453,172.800 213.849 C 172.030 214.262,171.310 214.703,171.200 214.829 C 171.090 214.955,170.730 215.187,170.400 215.345 C 169.492 215.778,168.256 216.519,166.545 217.654 C 165.695 218.218,163.020 219.992,160.600 221.596 C 156.716 224.172,148.542 230.134,148.000 230.787 C 147.890 230.919,147.277 231.429,146.637 231.921 C 126.191 247.626,113.226 269.312,118.456 279.059 C 119.237 280.516,119.685 281.898,119.642 282.717 C 119.575 283.980,124.088 289.200,125.246 289.200 C 125.441 289.200,125.600 289.440,125.600 289.732 C 125.600 290.025,126.050 290.506,126.600 290.800 C 127.150 291.094,127.600 291.560,127.600 291.834 C 127.600 292.109,127.770 292.393,127.978 292.467 C 128.520 292.658,131.440 295.144,133.185 296.900 C 134.005 297.725,134.884 298.400,135.138 298.400 C 135.392 298.400,135.600 298.593,135.600 298.829 C 135.600 299.382,136.618 300.400,137.171 300.400 C 137.407 300.400,137.600 300.593,137.600 300.829 C 137.600 301.382,138.618 302.400,139.171 302.400 C 139.407 302.400,139.600 302.593,139.600 302.829 C 139.600 303.382,140.618 304.400,141.171 304.400 C 141.407 304.400,141.600 304.593,141.600 304.829 C 141.600 305.382,142.618 306.400,143.171 306.400 C 143.407 306.400,143.600 306.640,143.600 306.932 C 143.600 307.225,144.050 307.706,144.600 308.000 C 145.150 308.294,145.600 308.698,145.600 308.896 C 145.600 309.395,146.650 310.400,147.171 310.400 C 147.407 310.400,147.600 310.593,147.600 310.829 C 147.600 311.382,148.618 312.400,149.171 312.400 C 149.407 312.400,149.600 312.593,149.600 312.829 C 149.600 313.382,150.618 314.400,151.171 314.400 C 151.407 314.400,151.600 314.593,151.600 314.829 C 151.600 315.350,152.605 316.400,153.104 316.400 C 153.302 316.400,153.706 316.850,154.000 317.400 C 154.294 317.950,154.775 318.400,155.068 318.400 C 155.360 318.400,155.600 318.670,155.600 319.000 C 155.600 319.330,155.881 319.600,156.224 319.600 C 156.567 319.600,156.736 319.780,156.600 320.000 C 156.464 320.220,156.633 320.400,156.976 320.400 C 157.319 320.400,157.600 320.670,157.600 321.000 C 157.600 321.330,157.746 321.600,157.924 321.600 C 158.103 321.600,160.704 324.030,163.705 327.000 C 166.706 329.970,169.380 332.400,169.647 332.400 C 169.915 332.400,170.028 332.505,169.900 332.633 C 169.649 332.884,170.176 333.458,172.529 335.500 C 173.354 336.215,173.932 336.800,173.814 336.800 C 173.696 336.800,173.960 337.160,174.400 337.600 C 174.840 338.040,175.348 338.400,175.529 338.400 C 175.710 338.400,176.462 339.120,177.200 340.000 C 177.938 340.880,178.703 341.600,178.900 341.600 C 179.396 341.600,180.400 342.652,180.400 343.171 C 180.400 343.407,180.593 343.600,180.829 343.600 C 181.382 343.600,182.400 344.618,182.400 345.171 C 182.400 345.407,182.579 345.600,182.797 345.600 C 183.016 345.600,185.131 347.535,187.497 349.901 C 189.864 352.266,192.520 354.725,193.400 355.365 C 194.280 356.004,195.381 356.949,195.847 357.464 C 196.312 357.979,196.897 358.400,197.147 358.400 C 197.396 358.400,197.600 358.577,197.600 358.792 C 197.600 359.008,198.050 359.298,198.600 359.436 C 199.150 359.574,199.600 359.847,199.600 360.043 C 199.600 360.240,199.881 360.400,200.224 360.400 C 200.567 360.400,200.758 360.545,200.648 360.722 C 200.539 360.899,201.113 361.394,201.924 361.821 C 202.736 362.249,203.638 362.824,203.929 363.099 C 204.219 363.375,204.632 363.600,204.845 363.600 C 205.059 363.600,205.629 363.968,206.111 364.418 C 207.138 365.374,209.085 366.400,209.874 366.400 C 210.177 366.400,210.529 366.670,210.655 367.000 C 210.782 367.330,211.211 367.600,211.609 367.600 C 212.008 367.600,212.393 367.735,212.467 367.900 C 212.540 368.065,213.320 368.535,214.200 368.944 C 215.080 369.354,216.113 369.849,216.495 370.044 C 216.877 370.240,217.467 370.400,217.807 370.400 C 218.147 370.400,218.529 370.670,218.655 371.000 C 218.782 371.330,219.327 371.600,219.866 371.600 C 220.418 371.600,220.739 371.775,220.600 372.000 C 220.461 372.225,220.782 372.400,221.334 372.400 C 221.873 372.400,222.409 372.647,222.525 372.950 C 222.642 373.252,223.246 373.601,223.868 373.726 C 226.624 374.276,227.420 374.551,227.720 375.058 C 227.896 375.356,228.380 375.600,228.796 375.600 C 229.212 375.600,229.664 375.780,229.800 376.000 C 229.936 376.220,230.532 376.406,231.124 376.413 C 231.716 376.420,232.549 376.690,232.976 377.013 C 233.404 377.336,234.158 377.600,234.653 377.600 C 235.148 377.600,235.664 377.780,235.800 378.000 C 235.936 378.220,236.532 378.406,237.124 378.413 C 237.716 378.420,238.549 378.690,238.976 379.013 C 239.404 379.336,240.169 379.600,240.676 379.600 C 241.184 379.600,241.600 379.780,241.600 380.000 C 241.600 380.220,242.243 380.400,243.029 380.400 C 243.814 380.400,244.727 380.670,245.057 381.000 C 245.387 381.330,246.264 381.600,247.005 381.600 C 247.746 381.600,248.464 381.780,248.600 382.000 C 248.736 382.220,249.737 382.400,250.824 382.400 C 252.191 382.400,252.769 382.554,252.700 382.900 C 252.639 383.206,253.143 383.450,254.000 383.529 C 254.770 383.599,255.571 383.824,255.780 384.029 C 255.989 384.233,257.009 384.400,258.047 384.400 C 259.114 384.400,260.000 384.600,260.087 384.860 C 260.171 385.114,261.270 385.406,262.528 385.511 C 263.786 385.615,264.912 385.858,265.031 386.050 C 265.150 386.243,266.327 386.400,267.647 386.400 C 268.967 386.400,269.948 386.561,269.826 386.758 C 269.509 387.271,270.595 387.600,272.609 387.600 C 273.568 387.600,274.445 387.749,274.557 387.931 C 274.670 388.113,275.805 388.303,277.081 388.353 C 278.356 388.404,279.799 388.705,280.286 389.023 C 280.844 389.386,282.206 389.600,283.962 389.600 C 285.497 389.600,286.864 389.780,287.000 390.000 C 287.136 390.220,288.835 390.400,290.775 390.400 C 293.422 390.400,294.426 390.550,294.800 391.000 C 295.154 391.426,296.089 391.600,298.025 391.600 C 299.525 391.600,300.851 391.758,300.970 391.952 C 301.090 392.146,303.121 392.335,305.483 392.373 C 308.268 392.417,309.880 392.606,310.068 392.910 C 310.392 393.434,317.253 393.933,328.388 394.243 C 333.219 394.377,335.467 394.586,335.672 394.919 C 336.008 395.463,343.737 395.814,367.200 396.353 C 375.230 396.537,382.880 396.890,384.200 397.137 C 386.704 397.606,392.262 397.347,392.635 396.744 C 392.752 396.555,393.209 396.400,393.652 396.400 C 394.518 396.400,395.600 395.527,395.600 394.829 C 395.600 394.593,395.780 394.400,396.000 394.400 C 396.222 394.400,396.400 393.333,396.400 392.000 C 396.400 390.667,396.222 389.600,396.000 389.600 C 395.780 389.600,395.600 389.360,395.600 389.068 C 395.600 388.775,395.150 388.294,394.600 388.000 C 394.050 387.706,393.600 387.225,393.600 386.932 C 393.600 386.640,393.407 386.400,393.171 386.400 C 392.936 386.400,392.486 386.143,392.171 385.829 C 391.857 385.514,391.600 385.064,391.600 384.829 C 391.600 384.593,391.425 384.400,391.211 384.400 C 390.998 384.400,386.334 379.914,380.847 374.431 C 375.360 368.948,370.765 364.568,370.636 364.698 C 370.506 364.827,370.392 364.678,370.381 364.367 C 370.371 364.055,369.665 363.260,368.813 362.600 C 367.960 361.940,367.038 360.995,366.764 360.500 C 366.489 360.005,366.025 359.600,365.732 359.600 C 365.440 359.600,365.200 359.450,365.200 359.266 C 365.200 358.851,362.247 355.873,359.978 354.000 C 359.046 353.230,357.589 351.925,356.741 351.100 C 355.894 350.275,355.020 349.600,354.800 349.600 C 354.580 349.600,354.400 349.420,354.400 349.200 C 354.400 348.980,353.680 348.080,352.800 347.200 C 351.920 346.320,351.020 345.600,350.800 345.600 C 350.580 345.600,350.400 345.407,350.400 345.171 C 350.400 344.650,349.395 343.600,348.896 343.600 C 348.698 343.600,348.294 343.150,348.000 342.600 C 347.706 342.050,347.256 341.600,347.000 341.600 C 346.744 341.600,346.294 341.150,346.000 340.600 C 345.706 340.050,345.256 339.600,345.000 339.600 C 344.744 339.600,344.294 339.150,344.000 338.600 C 343.706 338.050,343.225 337.600,342.932 337.600 C 342.640 337.600,342.400 337.360,342.400 337.068 C 342.400 336.775,341.950 336.294,341.400 336.000 C 340.850 335.706,340.400 335.256,340.400 335.000 C 340.400 334.744,339.950 334.294,339.400 334.000 C 338.850 333.706,338.400 333.256,338.400 333.000 C 338.400 332.744,337.950 332.294,337.400 332.000 C 336.850 331.706,336.400 331.225,336.400 330.932 C 336.400 330.640,336.244 330.400,336.054 330.400 C 335.863 330.400,332.396 327.115,328.349 323.100 C 324.302 319.085,320.863 315.750,320.707 315.689 C 320.551 315.627,319.113 314.233,317.512 312.589 C 315.910 310.946,314.471 309.601,314.314 309.601 C 313.864 309.600,311.600 307.274,311.600 306.813 C 311.600 306.586,311.425 306.400,311.212 306.400 C 310.998 306.400,305.868 301.450,299.812 295.401 C 293.755 289.351,288.800 284.487,288.800 284.592 C 288.800 284.697,287.810 283.761,286.600 282.512 C 285.390 281.262,284.400 280.096,284.400 279.920 C 284.400 279.188,282.446 279.682,280.929 280.798 C 270.016 288.823,246.188 273.921,225.926 246.400 C 222.602 241.885,218.800 236.401,218.800 236.123 C 218.800 235.987,218.350 235.286,217.800 234.564 C 217.250 233.843,216.800 233.061,216.800 232.827 C 216.800 232.592,216.661 232.400,216.491 232.400 C 216.321 232.400,215.829 231.725,215.397 230.900 C 214.965 230.075,214.051 228.500,213.366 227.400 C 212.681 226.300,211.524 224.320,210.795 223.000 C 210.066 221.680,209.115 219.970,208.682 219.200 C 204.052 210.968,202.127 206.000,203.566 206.000 C 203.737 206.000,204.293 205.640,204.800 205.200 C 206.190 203.994,205.414 204.240,203.537 205.600 C 200.457 207.831,194.906 206.825,193.521 203.785 C 193.015 202.675,192.388 202.525,191.798 203.372 " stroke="none" fill="#04b348" fill-rule="evenodd"></path><path id="path2" d="M105.375 129.700 L 104.200 131.000 105.500 129.825 C 106.712 128.730,106.984 128.400,106.675 128.400 C 106.606 128.400,106.021 128.985,105.375 129.700 M97.600 137.400 C 97.083 137.950,96.806 138.400,96.983 138.400 C 97.284 138.400,98.800 136.847,98.800 136.539 C 98.800 136.229,98.494 136.449,97.600 137.400 M90.756 171.378 C 90.658 171.475,88.963 171.746,86.989 171.978 C 83.494 172.390,82.380 172.608,77.400 173.857 C 71.513 175.334,63.485 178.883,58.800 182.082 C 57.370 183.058,55.237 184.519,54.060 185.329 C 51.749 186.917,50.800 187.163,50.800 186.171 C 50.800 185.613,50.733 185.610,50.200 186.143 C 49.870 186.473,49.600 186.842,49.600 186.963 C 49.600 187.329,45.139 191.600,44.756 191.600 C 44.560 191.600,44.400 191.780,44.400 191.999 C 44.400 192.219,43.770 193.066,43.000 193.882 C 42.230 194.699,41.600 195.580,41.600 195.841 C 41.600 196.101,41.330 196.418,41.000 196.545 C 40.670 196.671,40.400 197.018,40.400 197.315 C 40.400 197.613,39.995 198.236,39.500 198.700 C 38.082 200.031,37.600 200.717,37.600 201.407 C 37.600 201.759,37.439 201.948,37.243 201.826 C 37.046 201.705,36.773 202.054,36.635 202.603 C 36.497 203.151,36.208 203.600,35.992 203.600 C 35.777 203.600,35.600 203.870,35.600 204.200 C 35.600 204.530,35.461 204.800,35.291 204.800 C 35.018 204.800,34.174 206.244,33.420 208.000 C 32.792 209.463,31.206 212.162,31.188 211.800 C 31.152 211.071,29.600 214.527,29.600 215.338 C 29.600 215.775,29.475 216.008,29.321 215.855 C 28.954 215.487,27.600 218.297,27.600 219.429 C 27.600 219.916,27.330 220.418,27.000 220.545 C 26.670 220.671,26.400 221.241,26.400 221.811 C 26.400 222.400,26.227 222.741,26.000 222.600 C 25.775 222.461,25.600 222.780,25.600 223.327 C 25.600 223.863,25.330 224.526,25.000 224.800 C 24.670 225.074,24.400 225.816,24.400 226.449 C 24.400 227.082,24.220 227.600,24.000 227.600 C 23.780 227.600,23.600 227.973,23.600 228.429 C 23.600 228.884,23.330 229.527,23.000 229.857 C 22.670 230.187,22.400 230.984,22.400 231.629 C 22.400 232.273,22.220 232.800,22.000 232.800 C 21.780 232.800,21.600 233.353,21.600 234.029 C 21.600 234.704,21.330 235.527,21.000 235.857 C 20.670 236.187,20.400 236.984,20.400 237.629 C 20.400 238.273,20.220 238.800,20.000 238.800 C 19.780 238.800,19.600 239.318,19.600 239.951 C 19.600 240.584,19.322 241.333,18.982 241.615 C 18.642 241.897,18.448 242.347,18.550 242.614 C 18.653 242.882,18.481 243.593,18.168 244.196 C 17.856 244.798,17.600 245.969,17.600 246.797 C 17.600 247.647,17.339 248.519,17.000 248.800 C 16.670 249.074,16.400 249.805,16.400 250.425 C 16.400 251.045,16.220 251.664,16.000 251.800 C 15.780 251.936,15.600 252.825,15.600 253.775 C 15.600 254.822,15.364 255.698,15.000 256.000 C 14.658 256.284,14.400 257.156,14.400 258.025 C 14.400 258.865,14.220 259.664,14.000 259.800 C 13.780 259.936,13.600 261.005,13.600 262.175 C 13.600 263.578,13.396 264.472,13.000 264.800 C 12.636 265.102,12.400 265.978,12.400 267.025 C 12.400 267.975,12.220 268.864,12.000 269.000 C 11.780 269.136,11.594 270.182,11.587 271.324 C 11.580 272.466,11.341 273.707,11.056 274.082 C 10.772 274.457,10.496 275.801,10.445 277.070 C 10.394 278.338,10.207 279.562,10.031 279.788 C 9.854 280.015,9.672 281.550,9.625 283.200 C 9.576 284.943,9.326 286.451,9.028 286.800 C 8.746 287.130,8.475 288.568,8.425 289.996 C 8.376 291.424,8.195 292.684,8.023 292.796 C 7.851 292.908,7.673 294.619,7.628 296.598 C 7.577 298.836,7.352 300.424,7.033 300.798 C 6.704 301.184,6.488 302.840,6.433 305.400 C 6.386 307.600,6.179 309.571,5.974 309.780 C 5.768 309.989,5.600 312.715,5.600 315.837 C 5.600 320.089,5.471 321.564,5.087 321.711 C 4.716 321.854,4.541 323.284,4.458 326.848 C 4.394 329.565,4.186 331.976,3.994 332.208 C 3.802 332.439,3.633 336.392,3.618 340.993 C 3.597 347.185,3.461 349.438,3.095 349.665 C 2.718 349.897,2.569 353.825,2.471 366.080 C 2.399 374.940,2.191 382.371,2.007 382.595 C 0.620 384.277,1.980 394.886,3.650 395.416 C 4.063 395.547,4.400 395.822,4.400 396.027 C 4.400 396.232,5.493 396.400,6.829 396.400 C 9.189 396.400,10.400 395.867,10.400 394.829 C 10.400 394.593,10.580 394.400,10.800 394.400 C 11.321 394.400,14.400 391.321,14.400 390.800 C 14.400 390.580,14.593 390.400,14.829 390.400 C 15.260 390.400,16.400 389.427,16.400 389.059 C 16.400 388.801,18.801 386.400,19.059 386.400 C 19.427 386.400,20.400 385.260,20.400 384.829 C 20.400 384.593,20.593 384.400,20.829 384.400 C 21.382 384.400,22.400 383.382,22.400 382.829 C 22.400 382.593,22.593 382.400,22.829 382.400 C 23.382 382.400,24.400 381.382,24.400 380.829 C 24.400 380.593,24.593 380.400,24.829 380.400 C 25.382 380.400,26.400 379.382,26.400 378.829 C 26.400 378.593,26.593 378.400,26.829 378.400 C 27.382 378.400,28.400 377.382,28.400 376.829 C 28.400 376.593,28.593 376.400,28.829 376.400 C 29.382 376.400,30.400 375.382,30.400 374.829 C 30.400 374.593,30.593 374.400,30.829 374.400 C 31.382 374.400,32.400 373.382,32.400 372.829 C 32.400 372.593,32.593 372.400,32.829 372.400 C 33.382 372.400,34.400 371.382,34.400 370.829 C 34.400 370.593,34.670 370.400,35.000 370.400 C 35.330 370.400,35.600 370.251,35.600 370.068 C 35.600 369.886,38.930 366.333,43.000 362.173 C 47.070 358.013,50.400 354.382,50.400 354.105 C 50.400 353.827,50.670 353.600,51.000 353.600 C 51.330 353.600,51.600 353.420,51.600 353.200 C 51.600 352.679,54.679 349.600,55.200 349.600 C 55.420 349.600,55.600 349.407,55.600 349.171 C 55.600 348.618,56.618 347.600,57.171 347.600 C 57.407 347.600,57.600 347.407,57.600 347.171 C 57.600 346.618,58.618 345.600,59.171 345.600 C 59.407 345.600,59.600 345.407,59.600 345.171 C 59.600 344.618,60.618 343.600,61.171 343.600 C 61.407 343.600,61.600 343.436,61.600 343.236 C 61.600 343.036,66.269 338.168,71.975 332.418 C 77.681 326.668,82.925 321.296,83.628 320.481 C 84.331 319.667,85.692 318.158,86.653 317.129 C 87.614 316.100,88.400 315.065,88.400 314.829 C 88.400 314.593,88.593 314.400,88.829 314.400 C 89.382 314.400,90.400 313.382,90.400 312.829 C 90.400 312.593,90.593 312.400,90.829 312.400 C 91.382 312.400,92.400 311.382,92.400 310.829 C 92.400 310.593,92.593 310.400,92.829 310.400 C 93.382 310.400,94.400 309.382,94.400 308.829 C 94.400 308.593,94.593 308.400,94.829 308.400 C 95.260 308.400,96.400 307.427,96.400 307.059 C 96.400 306.801,98.801 304.400,99.059 304.400 C 99.427 304.400,100.400 303.260,100.400 302.829 C 100.400 302.593,100.593 302.400,100.829 302.400 C 101.382 302.400,102.400 301.382,102.400 300.829 C 102.400 300.593,102.593 300.400,102.829 300.400 C 103.382 300.400,104.400 299.382,104.400 298.829 C 104.400 298.593,104.593 298.400,104.829 298.400 C 105.382 298.400,106.400 297.382,106.400 296.829 C 106.400 296.593,106.670 296.400,107.000 296.400 C 107.330 296.400,107.600 296.119,107.600 295.776 C 107.600 295.433,107.780 295.264,108.000 295.400 C 108.220 295.536,108.400 295.367,108.400 295.024 C 108.400 294.681,108.670 294.400,109.000 294.400 C 109.330 294.400,109.600 294.119,109.600 293.776 C 109.600 293.433,109.780 293.264,110.000 293.400 C 110.220 293.536,110.400 293.367,110.400 293.024 C 110.400 292.681,110.593 292.400,110.829 292.400 C 111.382 292.400,112.400 291.382,112.400 290.829 C 112.400 290.593,112.593 290.400,112.829 290.400 C 113.382 290.400,114.400 289.382,114.400 288.829 C 114.400 288.593,114.670 288.400,115.000 288.400 C 115.330 288.400,115.600 288.250,115.600 288.066 C 115.600 287.882,116.424 286.896,117.430 285.876 C 119.458 283.819,119.493 283.262,117.742 280.962 C 117.224 280.281,116.800 279.462,116.800 279.142 C 116.800 278.822,116.594 278.354,116.341 278.101 C 115.708 277.468,115.439 272.148,115.942 270.200 C 116.169 269.320,116.523 267.936,116.730 267.125 C 117.618 263.629,123.170 253.420,124.484 252.867 C 124.658 252.793,124.800 252.493,124.800 252.200 C 124.800 251.907,124.935 251.607,125.100 251.533 C 125.363 251.416,127.335 249.092,129.793 246.000 C 132.283 242.868,143.301 232.460,146.828 229.908 C 147.803 229.202,148.690 228.525,148.800 228.402 C 148.910 228.280,149.810 227.555,150.800 226.793 C 151.790 226.030,152.660 225.270,152.733 225.103 C 152.807 224.936,153.026 224.800,153.220 224.800 C 153.414 224.800,155.469 223.450,157.787 221.800 C 160.105 220.150,162.166 218.800,162.367 218.800 C 162.569 218.800,162.793 218.654,162.867 218.476 C 163.002 218.147,169.058 214.332,172.388 212.477 C 173.384 211.922,174.740 211.148,175.400 210.758 C 179.234 208.493,190.399 202.800,191.006 202.800 C 191.423 202.800,191.449 202.487,191.128 201.324 C 190.745 199.937,190.836 198.171,191.362 196.800 C 191.529 196.364,190.966 195.934,189.296 195.224 C 188.033 194.688,185.560 193.590,183.800 192.785 C 182.040 191.980,177.540 190.116,173.800 188.643 C 170.060 187.170,166.640 185.807,166.200 185.615 C 165.426 185.276,162.522 184.226,156.900 182.252 C 153.807 181.167,148.896 179.615,145.400 178.620 C 144.080 178.244,142.550 177.784,142.000 177.599 C 141.115 177.301,135.081 175.821,130.600 174.803 C 119.819 172.354,109.798 171.200,99.299 171.200 C 94.698 171.200,90.853 171.280,90.756 171.378 M62.922 173.000 C 62.660 173.285,62.210 173.602,61.922 173.704 C 61.635 173.807,61.493 173.993,61.606 174.118 C 61.719 174.243,62.257 174.010,62.800 173.600 C 63.343 173.190,63.701 172.771,63.594 172.668 C 63.487 172.565,63.185 172.714,62.922 173.000 " stroke="none" fill="#047ceb" fill-rule="evenodd"></path><path id="path3" d="M389.885 3.076 C 389.995 3.364,389.854 3.600,389.572 3.600 C 389.289 3.600,386.178 6.525,382.659 10.100 C 379.140 13.675,376.098 16.551,375.900 16.490 C 375.702 16.430,375.662 16.577,375.811 16.817 C 375.962 17.063,375.725 17.347,375.268 17.466 C 374.728 17.607,374.537 17.890,374.697 18.309 C 374.876 18.775,374.765 18.872,374.269 18.682 C 373.831 18.514,373.600 18.628,373.600 19.013 C 373.600 19.336,373.330 19.600,373.000 19.600 C 372.670 19.600,372.445 19.735,372.500 19.900 C 372.555 20.065,372.420 20.256,372.200 20.324 C 371.980 20.392,371.667 20.809,371.503 21.250 C 371.340 21.691,371.021 21.936,370.793 21.796 C 370.566 21.655,370.430 21.779,370.490 22.070 C 370.551 22.362,370.362 22.551,370.070 22.490 C 369.779 22.430,369.642 22.544,369.766 22.745 C 369.890 22.945,369.723 23.332,369.396 23.604 C 369.068 23.876,368.800 23.979,368.800 23.833 C 368.800 23.688,368.553 23.800,368.250 24.082 C 367.948 24.365,367.787 24.822,367.893 25.098 C 368.063 25.542,367.560 25.778,366.714 25.652 C 366.557 25.629,366.544 25.909,366.684 26.274 C 366.879 26.782,366.776 26.876,366.249 26.674 C 365.869 26.528,365.656 26.567,365.776 26.761 C 365.895 26.954,365.558 27.397,365.027 27.746 C 364.495 28.094,363.951 28.724,363.817 29.146 C 363.683 29.568,363.219 30.006,362.787 30.119 C 362.354 30.233,362.000 30.612,362.000 30.963 C 362.000 31.313,361.835 31.600,361.633 31.600 C 361.109 31.600,357.780 34.874,357.900 35.270 C 357.955 35.452,357.741 35.600,357.424 35.600 C 357.107 35.600,356.719 35.808,356.562 36.062 C 356.368 36.375,356.457 36.415,356.838 36.185 C 357.316 35.897,357.318 35.948,356.855 36.519 C 356.555 36.889,356.145 37.090,355.945 36.966 C 355.744 36.842,355.630 36.979,355.690 37.270 C 355.751 37.562,355.562 37.751,355.270 37.690 C 354.979 37.630,354.842 37.744,354.966 37.945 C 355.264 38.427,354.220 39.278,353.799 38.897 C 353.619 38.733,353.601 38.825,353.759 39.100 C 353.918 39.375,353.846 39.600,353.600 39.600 C 353.354 39.600,353.265 39.781,353.402 40.003 C 353.726 40.528,352.528 41.726,352.003 41.402 C 351.781 41.265,351.600 41.354,351.600 41.600 C 351.600 41.846,351.440 41.949,351.245 41.828 C 351.050 41.707,350.915 41.922,350.945 42.304 C 350.979 42.738,350.738 42.979,350.304 42.945 C 349.922 42.915,349.707 43.050,349.828 43.245 C 349.949 43.440,349.846 43.600,349.600 43.600 C 349.354 43.600,349.270 43.790,349.413 44.021 C 349.556 44.253,349.269 44.793,348.776 45.221 C 347.737 46.122,347.443 46.207,347.817 45.500 C 347.963 45.225,347.253 45.860,346.241 46.912 C 345.228 47.963,344.400 48.970,344.400 49.150 C 344.400 49.722,342.948 50.814,342.603 50.501 C 342.421 50.335,342.402 50.426,342.561 50.703 C 342.730 50.997,342.591 51.305,342.225 51.446 C 341.881 51.578,341.600 51.956,341.600 52.286 C 341.600 52.645,341.368 52.796,341.020 52.663 C 340.633 52.515,340.515 52.633,340.663 53.020 C 340.801 53.378,340.640 53.600,340.243 53.600 C 339.889 53.600,339.600 53.889,339.600 54.243 C 339.600 54.640,339.378 54.801,339.020 54.663 C 338.633 54.515,338.515 54.633,338.663 55.020 C 338.801 55.378,338.640 55.600,338.243 55.600 C 337.889 55.600,337.600 55.889,337.600 56.243 C 337.600 56.659,337.382 56.802,336.979 56.647 C 336.638 56.516,336.451 56.559,336.564 56.742 C 336.732 57.014,329.510 64.631,328.962 64.762 C 328.873 64.783,328.845 64.859,328.900 64.930 C 328.955 65.002,328.209 65.767,327.242 66.630 C 323.335 70.119,321.248 72.459,321.487 73.084 C 321.644 73.491,321.543 73.648,321.198 73.533 C 320.906 73.435,320.168 73.816,319.556 74.378 C 318.944 74.940,318.209 75.616,317.922 75.881 C 317.635 76.145,317.184 76.595,316.919 76.881 C 316.655 77.166,316.166 77.626,315.833 77.903 C 315.500 78.180,315.336 78.688,315.468 79.033 C 315.620 79.430,315.505 79.632,315.154 79.583 C 313.947 79.414,313.600 79.641,313.600 80.600 C 313.600 81.400,313.400 81.600,312.600 81.600 C 311.948 81.600,311.600 81.824,311.600 82.242 C 311.600 82.596,310.606 83.901,309.391 85.142 C 308.175 86.384,304.729 89.920,301.731 93.000 C 298.734 96.080,296.128 98.555,295.941 98.500 C 295.753 98.445,295.600 98.670,295.600 99.000 C 295.600 99.330,295.330 99.600,295.000 99.600 C 294.670 99.600,294.445 99.825,294.500 100.100 C 294.555 100.375,294.375 100.555,294.100 100.500 C 293.825 100.445,293.600 100.670,293.600 101.000 C 293.600 101.330,293.330 101.600,293.000 101.600 C 292.670 101.600,292.445 101.825,292.500 102.100 C 292.555 102.375,292.375 102.555,292.100 102.500 C 291.825 102.445,291.600 102.670,291.600 103.000 C 291.600 103.330,291.330 103.600,291.000 103.600 C 290.670 103.600,290.445 103.825,290.500 104.100 C 290.555 104.375,290.330 104.540,290.000 104.467 C 289.670 104.393,289.533 104.467,289.697 104.630 C 290.086 105.020,289.217 106.058,288.745 105.766 C 288.544 105.642,288.430 105.779,288.490 106.070 C 288.551 106.362,288.362 106.551,288.070 106.490 C 287.775 106.429,287.660 106.573,287.811 106.817 C 287.962 107.063,287.725 107.347,287.268 107.466 C 286.728 107.607,286.537 107.890,286.697 108.309 C 286.876 108.775,286.765 108.872,286.269 108.682 C 285.783 108.495,285.600 108.641,285.600 109.213 C 285.600 109.646,285.415 110.000,285.188 110.000 C 284.962 110.000,283.618 111.175,282.203 112.612 C 279.397 115.460,279.339 115.782,281.164 118.352 C 283.727 121.960,283.893 127.834,281.589 133.400 C 279.301 138.925,275.058 146.170,272.802 148.400 C 272.691 148.510,271.795 149.590,270.811 150.800 C 268.373 153.798,265.920 156.427,262.635 159.562 C 261.114 161.013,259.404 162.655,258.835 163.211 C 257.101 164.903,253.211 168.115,249.000 171.328 C 246.800 173.007,244.820 174.528,244.600 174.709 C 243.910 175.276,232.231 183.027,231.600 183.337 C 230.968 183.647,230.812 183.739,226.999 186.059 C 223.362 188.272,217.269 191.600,211.026 194.785 L 208.252 196.200 208.351 199.063 C 208.456 202.075,206.890 205.282,204.755 206.424 C 204.340 206.646,204.000 207.175,204.000 207.598 C 204.000 208.352,209.207 218.746,211.061 221.692 C 211.577 222.513,212.000 223.303,212.000 223.449 C 212.000 223.594,212.720 224.854,213.600 226.247 C 214.480 227.640,215.200 228.893,215.200 229.030 C 215.200 229.167,217.275 232.397,219.810 236.207 C 226.396 246.103,231.890 253.204,238.200 259.976 C 243.274 265.421,246.640 268.496,252.200 272.763 C 253.080 273.438,254.017 274.173,254.283 274.395 C 254.549 274.618,254.876 274.800,255.010 274.800 C 255.144 274.800,255.826 275.231,256.527 275.758 C 264.496 281.754,276.037 283.852,280.460 280.107 C 280.823 279.800,281.722 279.532,282.457 279.511 C 283.760 279.474,287.600 276.209,287.600 275.139 C 287.600 274.927,287.780 274.864,288.000 275.000 C 288.220 275.136,288.400 274.956,288.400 274.600 C 288.400 274.244,288.580 274.064,288.800 274.200 C 289.020 274.336,289.200 274.278,289.200 274.071 C 289.200 273.580,292.380 270.400,292.871 270.400 C 293.078 270.400,293.165 270.265,293.066 270.100 C 292.829 269.709,293.840 268.774,294.157 269.091 C 294.291 269.224,294.400 269.158,294.400 268.943 C 294.400 268.729,295.570 267.348,297.000 265.875 C 298.430 264.402,299.600 263.110,299.600 263.003 C 299.600 262.541,300.973 261.260,301.271 261.444 C 301.452 261.556,301.600 261.444,301.600 261.195 C 301.600 260.622,302.607 259.600,303.171 259.600 C 303.407 259.600,303.600 259.420,303.600 259.200 C 303.600 258.980,304.320 258.080,305.200 257.200 C 306.080 256.320,306.980 255.600,307.200 255.600 C 307.420 255.600,307.600 255.426,307.600 255.214 C 307.600 255.002,309.354 253.067,311.498 250.914 C 313.642 248.761,316.197 246.100,317.175 245.000 C 318.153 243.900,319.054 243.000,319.177 243.000 C 319.300 243.000,319.355 242.865,319.300 242.700 C 319.245 242.535,319.351 242.400,319.536 242.400 C 320.048 242.400,323.414 239.096,323.712 238.300 C 323.857 237.915,324.211 237.600,324.499 237.600 C 324.995 237.600,326.400 236.245,326.400 235.767 C 326.400 235.446,327.490 234.400,327.824 234.400 C 328.074 234.400,329.466 232.967,331.200 230.923 C 331.530 230.534,331.751 230.064,331.690 229.878 C 331.630 229.693,331.733 229.635,331.919 229.750 C 332.236 229.946,333.600 228.660,333.600 228.164 C 333.600 228.039,334.275 227.270,335.100 226.455 C 335.925 225.640,337.162 224.349,337.848 223.586 C 338.534 222.824,339.839 221.510,340.748 220.666 C 341.657 219.823,342.400 218.968,342.400 218.766 C 342.400 218.565,342.593 218.400,342.829 218.400 C 343.270 218.400,344.400 217.424,344.400 217.043 C 344.400 216.709,347.723 213.600,348.081 213.600 C 348.256 213.600,348.400 213.330,348.400 213.000 C 348.400 212.670,348.670 212.400,349.000 212.400 C 349.330 212.400,349.555 212.175,349.500 211.900 C 349.445 211.625,349.625 211.445,349.900 211.500 C 350.175 211.555,350.400 211.330,350.400 211.000 C 350.400 210.670,350.670 210.400,351.000 210.400 C 351.330 210.400,351.555 210.175,351.500 209.900 C 351.445 209.625,351.625 209.445,351.900 209.500 C 352.175 209.555,352.400 209.330,352.400 209.000 C 352.400 208.670,352.582 208.400,352.804 208.400 C 353.026 208.400,353.762 207.499,354.439 206.398 C 355.117 205.297,355.835 204.498,356.035 204.622 C 356.236 204.746,356.400 204.598,356.400 204.293 C 356.400 203.989,356.850 203.317,357.400 202.800 C 357.950 202.283,358.400 201.659,358.400 201.413 C 358.400 201.166,359.106 200.208,359.969 199.282 C 360.832 198.357,361.417 197.595,361.269 197.588 C 361.121 197.581,361.315 197.392,361.700 197.168 C 362.085 196.944,362.400 196.492,362.400 196.163 C 362.400 195.605,362.660 195.197,363.900 193.815 C 364.175 193.508,364.400 192.884,364.400 192.429 C 364.400 191.959,364.660 191.600,365.000 191.600 C 365.330 191.600,365.600 191.336,365.600 191.014 C 365.600 190.431,367.382 186.944,368.049 186.220 C 368.242 186.011,368.400 185.598,368.400 185.303 C 368.400 185.007,368.850 184.280,369.400 183.687 C 369.965 183.078,370.400 182.128,370.400 181.504 C 370.400 180.771,370.609 180.400,371.024 180.400 C 371.367 180.400,371.531 180.212,371.389 179.982 C 371.247 179.753,371.417 179.129,371.766 178.596 C 372.114 178.064,372.400 177.321,372.400 176.946 C 372.400 176.570,372.680 175.954,373.021 175.576 C 373.363 175.199,373.672 174.509,373.707 174.045 C 373.742 173.580,373.912 173.200,374.085 173.200 C 374.258 173.200,374.400 172.765,374.400 172.233 C 374.400 171.702,374.590 171.203,374.822 171.126 C 375.054 171.049,375.310 170.629,375.391 170.193 C 375.472 169.757,375.574 169.310,375.617 169.200 C 375.660 169.090,375.673 168.865,375.647 168.700 C 375.621 168.535,375.780 168.400,376.000 168.400 C 376.220 168.400,376.400 167.869,376.400 167.220 C 376.400 166.518,376.684 165.875,377.100 165.632 C 377.485 165.408,377.673 165.219,377.518 165.212 C 377.363 165.205,377.498 164.457,377.818 163.550 C 378.138 162.642,378.400 161.388,378.400 160.762 C 378.400 159.978,378.566 159.689,378.935 159.830 C 379.314 159.976,379.485 159.622,379.522 158.614 C 379.552 157.832,379.761 156.846,379.988 156.422 C 380.215 155.999,380.400 155.213,380.400 154.675 C 380.400 154.138,380.630 153.507,380.911 153.274 C 381.192 153.041,381.463 152.344,381.514 151.725 C 381.565 151.106,381.785 150.540,382.003 150.467 C 382.222 150.393,382.400 149.443,382.400 148.354 C 382.400 146.954,382.577 146.307,383.007 146.142 C 383.341 146.014,383.590 145.704,383.560 145.454 C 383.403 144.147,383.645 142.381,383.955 142.572 C 384.150 142.693,384.302 142.568,384.292 142.296 C 384.211 140.042,384.467 138.400,384.900 138.400 C 385.229 138.400,385.433 137.630,385.498 136.144 C 385.551 134.903,385.746 133.688,385.931 133.444 C 386.115 133.200,386.307 132.100,386.358 131.000 C 386.409 129.900,386.667 128.820,386.933 128.600 C 387.199 128.380,387.449 127.462,387.489 126.560 C 387.530 125.658,387.684 124.398,387.833 123.760 C 387.982 123.122,388.185 121.700,388.284 120.600 C 388.382 119.500,388.675 118.420,388.933 118.200 C 389.191 117.980,389.457 116.452,389.523 114.800 C 389.590 113.150,389.815 111.629,390.022 111.420 C 390.230 111.211,390.400 109.649,390.400 107.949 C 390.400 106.024,390.589 104.658,390.900 104.329 C 391.403 103.797,391.446 103.473,391.612 98.900 C 391.662 97.525,391.840 96.400,392.007 96.400 C 392.174 96.400,392.303 96.175,392.293 95.900 C 392.127 91.439,392.454 88.400,393.100 88.394 C 393.698 88.389,393.713 88.331,393.200 88.000 C 392.870 87.787,392.787 87.609,393.015 87.606 C 393.271 87.602,393.472 85.870,393.537 83.100 C 393.596 80.625,393.751 78.060,393.882 77.400 C 394.012 76.740,394.188 73.140,394.272 69.400 C 394.377 64.700,394.575 62.476,394.912 62.200 C 395.248 61.925,395.443 59.800,395.538 55.402 C 395.615 51.883,395.840 48.700,396.038 48.328 C 396.547 47.378,396.514 46.405,396.000 47.200 C 395.688 47.683,395.611 47.619,395.606 46.876 C 395.603 46.361,395.777 46.062,396.000 46.200 C 396.220 46.336,396.400 46.267,396.400 46.047 C 396.400 45.827,396.220 45.536,396.000 45.400 C 395.780 45.264,395.603 44.758,395.606 44.276 C 395.611 43.546,395.684 43.500,396.041 44.000 C 396.375 44.467,396.413 44.379,396.216 43.600 C 395.805 41.978,395.729 40.368,396.053 40.168 C 396.218 40.065,396.369 35.085,396.387 29.100 C 396.407 22.616,396.578 18.062,396.810 17.830 C 397.025 17.615,397.173 16.711,397.140 15.820 L 397.080 14.200 396.805 16.000 C 396.588 17.421,396.522 17.022,396.492 14.101 C 396.465 11.385,396.607 10.250,397.027 9.830 C 397.704 9.154,397.797 7.200,397.153 7.200 C 396.904 7.200,396.799 6.847,396.916 6.399 C 397.031 5.959,396.962 5.700,396.763 5.823 C 396.563 5.946,396.400 5.767,396.400 5.424 C 396.400 5.081,396.209 4.800,395.976 4.800 C 395.743 4.800,395.620 4.665,395.702 4.500 C 395.784 4.335,395.461 3.828,394.984 3.374 C 393.947 2.385,389.520 2.127,389.885 3.076 M397.314 11.800 C 397.317 12.900,397.395 13.303,397.487 12.695 C 397.579 12.086,397.577 11.186,397.482 10.695 C 397.387 10.203,397.311 10.700,397.314 11.800 M121.781 117.926 C 120.671 118.297,119.270 118.991,118.668 119.468 C 117.795 120.160,117.334 120.268,116.393 119.998 C 115.295 119.683,115.008 119.861,112.306 122.529 C 110.708 124.107,109.719 125.148,110.110 124.842 C 111.358 123.863,111.211 124.586,109.849 126.116 C 109.124 126.931,108.412 127.478,108.266 127.332 C 108.120 127.186,108.000 127.296,108.000 127.576 C 108.000 127.856,107.767 127.996,107.482 127.887 C 107.183 127.772,106.940 127.997,106.909 128.417 C 106.843 129.289,105.418 130.800,104.662 130.800 C 104.366 130.800,103.781 131.191,103.362 131.669 C 102.943 132.147,102.825 132.406,103.100 132.245 C 103.776 131.850,103.733 132.324,103.029 133.029 C 102.324 133.733,101.850 133.776,102.245 133.100 C 102.406 132.825,102.147 132.943,101.669 133.362 C 100.769 134.151,100.500 134.633,101.200 134.200 C 101.796 133.832,101.683 134.374,101.029 135.029 C 100.324 135.733,99.850 135.776,100.245 135.100 C 100.406 134.825,100.147 134.943,99.669 135.362 C 98.713 136.200,98.517 136.617,99.300 136.147 C 99.593 135.971,99.552 136.161,99.200 136.606 C 97.985 138.144,97.161 138.823,96.790 138.594 C 96.581 138.464,96.509 138.619,96.631 138.938 C 96.886 139.600,95.282 140.898,94.673 140.522 C 94.455 140.387,94.398 140.473,94.547 140.714 C 94.899 141.284,92.450 144.078,91.898 143.737 C 91.658 143.589,91.594 143.667,91.749 143.917 C 92.118 144.514,88.494 148.099,87.879 147.746 C 87.616 147.595,87.527 147.613,87.683 147.785 C 87.991 148.127,86.116 150.800,85.567 150.800 C 84.957 150.800,82.026 154.119,82.278 154.526 C 82.413 154.745,82.351 154.817,82.139 154.686 C 81.703 154.416,78.800 157.252,78.800 157.948 C 78.800 158.198,78.080 158.714,77.200 159.096 C 76.237 159.513,75.600 160.058,75.600 160.465 C 75.600 160.837,75.156 161.491,74.614 161.918 C 74.071 162.345,73.726 162.793,73.848 162.914 C 74.210 163.276,72.422 164.061,71.930 163.757 C 71.652 163.585,71.587 163.655,71.762 163.938 C 71.919 164.192,71.862 164.400,71.636 164.400 C 71.410 164.400,71.341 164.701,71.482 165.069 C 71.671 165.563,71.575 165.676,71.115 165.499 C 70.659 165.324,70.542 165.455,70.680 165.985 C 70.892 166.794,70.197 167.442,69.802 166.803 C 69.641 166.542,69.341 166.602,68.974 166.968 C 68.267 167.676,68.222 168.151,68.900 167.755 C 69.175 167.594,69.057 167.853,68.638 168.331 C 67.849 169.231,67.367 169.500,67.800 168.800 C 68.170 168.201,67.625 168.318,66.964 168.979 C 66.646 169.297,66.434 169.792,66.493 170.079 C 66.552 170.365,66.376 170.555,66.102 170.501 C 65.368 170.354,63.600 172.030,63.600 172.872 C 63.600 173.272,63.432 173.600,63.227 173.600 C 63.022 173.600,62.732 173.984,62.583 174.453 C 62.371 175.123,62.237 175.187,61.962 174.753 C 61.759 174.431,61.610 174.389,61.606 174.653 C 61.603 174.902,60.520 176.199,59.200 177.536 C 57.880 178.872,56.800 180.153,56.800 180.383 C 56.800 180.612,56.629 180.800,56.421 180.800 C 55.814 180.800,53.999 182.638,54.006 183.246 C 54.010 183.579,54.130 183.640,54.306 183.400 C 54.622 182.970,55.826 182.162,56.800 181.727 C 57.130 181.579,57.490 181.355,57.600 181.229 C 57.808 180.991,59.192 180.220,62.600 178.443 C 63.700 177.869,64.660 177.265,64.733 177.100 C 64.807 176.935,65.201 176.800,65.610 176.800 C 66.018 176.800,66.448 176.647,66.563 176.459 C 66.679 176.272,67.635 175.805,68.687 175.422 C 69.739 175.038,71.167 174.472,71.860 174.162 C 72.554 173.853,73.488 173.600,73.937 173.600 C 74.386 173.600,74.864 173.420,75.000 173.200 C 75.136 172.980,75.698 172.800,76.250 172.800 C 76.801 172.800,77.573 172.628,77.965 172.419 C 79.484 171.606,86.893 170.541,94.400 170.058 C 102.551 169.533,120.777 170.931,124.526 172.368 C 125.145 172.606,126.213 172.800,126.898 172.800 C 127.583 172.800,128.696 172.969,129.372 173.175 C 130.577 173.542,133.024 174.118,136.200 174.782 C 137.080 174.966,138.790 175.415,140.000 175.779 C 141.210 176.143,142.830 176.593,143.600 176.779 C 145.511 177.240,150.818 178.813,151.800 179.210 C 152.240 179.388,152.960 179.626,153.400 179.740 C 153.840 179.853,155.730 180.510,157.600 181.200 C 159.470 181.890,161.360 182.547,161.800 182.660 C 162.240 182.774,162.960 183.010,163.400 183.186 C 164.255 183.526,167.279 184.697,168.600 185.200 C 171.128 186.161,173.835 187.240,176.700 188.427 C 177.195 188.632,178.005 188.968,178.500 189.173 C 183.088 191.074,185.284 192.048,188.861 193.769 L 191.123 194.856 192.925 193.054 C 194.538 191.441,194.669 191.176,194.176 190.526 C 193.873 190.127,193.620 189.485,193.613 189.100 C 193.606 188.715,193.420 188.400,193.200 188.400 C 192.980 188.400,192.800 188.062,192.800 187.649 C 192.800 187.236,192.530 186.674,192.200 186.400 C 191.870 186.126,191.600 185.579,191.600 185.184 C 191.600 184.790,191.465 184.407,191.300 184.333 C 191.135 184.260,190.401 183.030,189.669 181.600 C 188.938 180.170,187.818 178.100,187.182 177.000 C 186.545 175.900,185.895 174.730,185.737 174.400 C 185.578 174.070,184.853 172.864,184.124 171.719 C 183.396 170.575,182.800 169.528,182.800 169.393 C 182.800 169.257,182.350 168.557,181.800 167.836 C 181.250 167.114,180.800 166.394,180.800 166.236 C 180.800 166.077,180.350 165.357,179.800 164.636 C 179.250 163.914,178.800 163.199,178.800 163.045 C 178.800 162.892,178.617 162.549,178.393 162.283 C 178.169 162.017,176.524 159.730,174.737 157.200 C 172.951 154.670,171.334 152.540,171.144 152.467 C 170.955 152.393,170.800 152.093,170.800 151.800 C 170.800 151.507,170.664 151.207,170.497 151.133 C 170.330 151.060,169.570 150.190,168.807 149.200 C 168.045 148.210,167.326 147.310,167.210 147.200 C 167.095 147.090,166.194 146.010,165.209 144.800 C 161.110 139.763,152.551 131.277,148.200 127.936 C 147.540 127.429,146.940 126.876,146.867 126.707 C 146.793 126.538,146.555 126.400,146.338 126.400 C 146.121 126.400,145.692 126.175,145.385 125.900 C 144.062 124.713,143.609 124.400,143.217 124.400 C 142.988 124.400,142.800 124.232,142.800 124.027 C 142.800 123.822,142.395 123.528,141.900 123.373 C 141.405 123.219,140.910 122.981,140.800 122.846 C 140.272 122.198,134.189 119.200,133.402 119.200 C 133.071 119.200,132.800 119.057,132.800 118.882 C 132.800 117.694,124.607 116.984,121.781 117.926 " stroke="none" fill="#05cbde" fill-rule="evenodd"></path><path id="path4" d="M396.556 14.571 C 396.435 14.885,396.404 15.560,396.486 16.071 C 396.595 16.754,396.688 16.604,396.837 15.500 C 397.047 13.947,396.936 13.581,396.556 14.571 M206.959 197.037 C 208.085 199.971,207.346 202.664,204.700 205.274 C 202.664 207.282,202.496 207.765,203.413 208.976 C 204.080 209.859,204.197 209.516,203.606 208.412 C 203.283 207.807,203.601 207.276,205.395 205.423 C 208.319 202.404,209.608 196.400,207.333 196.400 C 206.931 196.400,206.800 196.624,206.959 197.037 M190.980 203.164 C 190.771 203.364,188.170 204.777,185.200 206.303 C 182.230 207.830,179.170 209.437,178.400 209.875 C 177.630 210.312,175.920 211.267,174.600 211.997 C 164.994 217.311,151.178 226.955,142.800 234.197 C 122.565 251.686,112.475 270.122,117.900 279.694 C 118.615 280.956,119.218 282.396,119.240 282.894 C 119.278 283.764,119.291 283.760,119.570 282.800 C 119.785 282.058,119.517 281.148,118.530 279.267 C 113.264 269.234,126.009 247.766,146.637 231.921 C 147.277 231.429,147.890 230.919,148.000 230.787 C 148.542 230.134,156.716 224.172,160.600 221.596 C 163.020 219.992,165.695 218.218,166.545 217.654 C 168.256 216.519,169.492 215.778,170.400 215.345 C 170.730 215.187,171.090 214.952,171.200 214.821 C 171.310 214.691,171.850 214.364,172.400 214.094 C 172.950 213.825,173.940 213.282,174.600 212.887 C 177.231 211.313,182.444 208.487,186.976 206.177 C 189.603 204.838,191.823 203.531,191.910 203.271 C 192.096 202.713,191.520 202.647,190.980 203.164 M204.490 211.100 C 205.058 212.419,206.000 213.900,206.000 213.473 C 206.000 213.044,204.423 210.000,204.200 210.000 C 204.100 210.000,204.230 210.495,204.490 211.100 M206.069 214.300 C 206.821 215.964,208.491 218.843,208.625 218.708 C 208.824 218.509,206.441 214.000,206.137 214.000 C 206.025 214.000,205.994 214.135,206.069 214.300 M208.806 219.277 C 208.798 219.639,210.428 222.400,210.650 222.400 C 210.744 222.400,210.553 221.905,210.225 221.300 C 209.410 219.795,208.813 218.944,208.806 219.277 M210.800 222.971 C 210.800 223.355,213.720 228.013,213.868 227.865 C 213.956 227.777,213.371 226.601,212.567 225.252 C 211.252 223.044,210.800 222.461,210.800 222.971 M214.858 229.800 C 215.478 231.280,216.182 232.400,216.491 232.400 C 216.691 232.400,216.451 231.815,215.957 231.100 C 214.906 229.579,214.627 229.248,214.858 229.800 M221.999 240.913 C 223.164 242.625,224.301 244.139,224.525 244.277 C 224.994 244.567,221.365 239.302,220.474 238.400 C 220.148 238.070,220.834 239.201,221.999 240.913 M225.974 246.500 C 227.236 248.253,232.228 254.565,234.005 256.654 C 234.557 257.304,235.277 258.000,235.604 258.202 C 235.931 258.405,234.838 256.957,233.175 254.985 C 231.513 253.013,229.009 249.915,227.611 248.100 C 224.939 244.629,223.888 243.602,225.974 246.500 M240.392 263.313 C 242.478 265.451,244.306 267.200,244.455 267.200 C 244.695 267.200,237.591 260.082,236.883 259.613 C 236.727 259.509,238.306 261.174,240.392 263.313 M245.400 268.232 C 246.782 269.582,252.146 273.836,253.400 274.576 L 254.600 275.284 253.404 274.342 C 252.746 273.824,250.885 272.320,249.268 271.000 C 245.828 268.191,244.073 266.935,245.400 268.232 M254.800 275.446 C 254.800 275.730,260.118 279.007,261.400 279.514 C 262.837 280.081,262.413 279.788,258.100 277.232 C 256.285 276.157,254.800 275.353,254.800 275.446 M264.753 281.009 C 265.938 281.571,267.104 281.965,267.346 281.885 C 267.587 281.804,266.978 281.456,265.993 281.111 C 262.784 279.990,262.566 279.972,264.753 281.009 M280.297 280.766 C 278.925 281.645,278.560 282.001,279.033 281.998 C 279.235 281.997,279.940 281.553,280.600 281.012 C 281.999 279.866,281.867 279.759,280.297 280.766 M277.114 282.219 C 276.994 282.339,275.749 282.587,274.348 282.768 C 272.107 283.059,272.017 283.101,273.600 283.119 C 275.282 283.137,279.352 282.134,277.967 282.042 C 277.618 282.019,277.235 282.099,277.114 282.219 " stroke="none" fill="#1db48c" fill-rule="evenodd"></path><path id="path5" d="M279.819 116.555 C 279.942 117.190,280.458 118.270,280.966 118.955 C 283.163 121.916,283.276 125.525,281.403 132.800 C 281.217 133.522,281.252 133.633,281.529 133.200 C 283.732 129.763,283.552 121.016,281.228 118.522 C 280.839 118.105,280.313 117.232,280.058 116.582 L 279.595 115.400 279.819 116.555 M122.518 116.766 C 120.690 117.230,116.188 119.583,117.106 119.594 C 117.384 119.597,118.569 119.060,119.738 118.400 C 121.663 117.314,122.202 117.200,125.432 117.205 C 128.724 117.210,129.879 117.436,134.600 118.996 C 135.306 119.229,135.319 119.208,134.713 118.818 C 132.359 117.300,125.173 116.091,122.518 116.766 M135.600 119.373 C 135.600 119.468,136.905 120.208,138.500 121.017 C 146.448 125.050,157.910 135.145,166.411 145.600 C 167.395 146.810,168.303 147.890,168.428 148.000 C 168.553 148.110,169.441 149.280,170.400 150.600 C 171.359 151.920,172.253 153.090,172.387 153.200 C 172.942 153.657,176.800 159.218,176.800 159.561 C 176.800 159.766,176.941 159.993,177.113 160.067 C 177.286 160.140,178.488 161.910,179.785 164.000 C 182.582 168.505,182.350 168.183,182.607 167.926 C 183.705 166.828,164.299 141.609,157.011 134.665 C 149.823 127.815,144.465 123.742,138.291 120.436 C 135.982 119.200,135.600 119.049,135.600 119.373 M279.341 137.248 C 278.448 139.092,276.705 142.085,275.469 143.900 C 274.233 145.715,273.360 147.200,273.529 147.200 C 274.328 147.200,281.379 135.136,281.089 134.266 C 281.021 134.063,280.235 135.405,279.341 137.248 M270.236 150.786 C 258.695 164.735,237.418 180.748,215.878 191.694 C 214.595 192.346,213.625 192.959,213.723 193.056 C 213.882 193.216,217.540 191.389,221.200 189.321 C 221.970 188.887,223.620 187.964,224.867 187.272 C 231.503 183.586,247.175 173.053,251.774 169.187 C 252.420 168.644,254.310 167.055,255.974 165.655 C 261.660 160.872,274.220 147.600,273.061 147.600 C 272.957 147.600,271.686 149.034,270.236 150.786 M182.800 168.523 C 182.800 168.943,186.510 174.823,186.672 174.661 C 186.755 174.579,186.018 173.207,185.035 171.613 C 183.193 168.626,182.800 168.082,182.800 168.523 M186.800 175.377 C 186.800 175.771,188.511 178.422,188.666 178.267 C 188.758 178.176,188.447 177.448,187.977 176.650 C 187.200 175.333,186.800 174.901,186.800 175.377 M188.800 178.977 C 188.800 179.371,190.511 182.022,190.666 181.867 C 190.758 181.776,190.447 181.048,189.977 180.250 C 189.200 178.933,188.800 178.501,188.800 178.977 M190.800 182.549 C 190.800 183.086,192.456 186.077,192.648 185.886 C 192.753 185.780,192.451 184.998,191.977 184.147 C 191.019 182.430,190.800 182.132,190.800 182.549 M192.825 186.600 C 192.825 186.820,193.090 187.349,193.413 187.776 C 193.736 188.204,194.000 188.373,194.000 188.153 C 194.000 187.933,193.736 187.404,193.413 186.976 C 193.090 186.549,192.825 186.380,192.825 186.600 M194.827 191.183 C 194.812 191.725,194.195 192.802,193.451 193.583 C 191.056 196.099,189.973 201.594,191.666 202.641 C 191.948 202.815,191.987 202.459,191.785 201.550 C 191.068 198.326,191.869 195.677,194.235 193.445 C 195.556 192.199,195.683 191.920,195.295 191.115 L 194.854 190.200 194.827 191.183 M211.285 194.071 C 210.342 194.529,209.649 194.982,209.746 195.079 C 209.945 195.279,213.200 193.689,213.200 193.392 C 213.200 193.137,213.247 193.120,211.285 194.071 M208.000 195.800 C 207.722 196.135,207.679 196.400,207.902 196.400 C 208.122 196.400,208.526 196.130,208.800 195.800 C 209.078 195.465,209.121 195.200,208.898 195.200 C 208.678 195.200,208.274 195.470,208.000 195.800 " stroke="none" fill="#519db6" fill-rule="evenodd"></path><path id="path6" d="M396.667 10.267 C 396.250 10.683,396.354 13.124,396.800 13.400 C 397.044 13.551,397.200 12.937,397.200 11.824 C 397.200 9.969,397.140 9.793,396.667 10.267 M120.800 117.800 C 119.508 118.539,120.167 118.544,122.200 117.812 C 123.468 117.355,123.593 117.234,122.800 117.232 C 122.250 117.230,121.350 117.486,120.800 117.800 M129.200 117.817 C 131.964 118.507,132.617 118.500,130.800 117.800 C 130.030 117.503,128.860 117.262,128.200 117.264 C 127.345 117.267,127.633 117.426,129.200 117.817 M118.900 118.860 C 118.648 119.112,117.757 119.437,116.920 119.580 C 115.443 119.833,115.432 119.847,116.535 120.072 C 117.376 120.243,117.944 120.060,118.735 119.364 C 119.321 118.848,119.701 118.420,119.580 118.413 C 119.459 118.406,119.153 118.607,118.900 118.860 M132.800 118.800 C 132.800 119.020,133.079 119.200,133.420 119.200 C 133.761 119.200,134.588 119.483,135.257 119.829 C 135.927 120.176,136.555 120.379,136.653 120.281 C 136.815 120.118,133.482 118.400,133.004 118.400 C 132.892 118.400,132.800 118.580,132.800 118.800 M138.000 121.172 C 138.550 121.629,139.405 122.111,139.900 122.245 C 140.395 122.378,140.800 122.628,140.800 122.800 C 140.800 122.972,141.250 123.226,141.800 123.364 C 142.350 123.502,142.800 123.792,142.800 124.008 C 142.800 124.223,142.988 124.400,143.217 124.400 C 143.609 124.400,144.062 124.713,145.385 125.900 C 145.692 126.175,146.121 126.400,146.338 126.400 C 146.555 126.400,146.793 126.538,146.867 126.707 C 146.940 126.876,147.540 127.429,148.200 127.936 C 152.521 131.255,161.033 139.687,165.209 144.786 C 166.194 145.989,167.315 147.328,167.700 147.762 C 168.086 148.197,168.806 149.146,169.300 149.873 C 169.795 150.600,170.356 151.196,170.547 151.197 C 170.837 151.200,169.144 148.654,168.421 148.000 C 168.300 147.890,167.395 146.810,166.411 145.600 C 158.695 136.109,147.253 125.769,140.201 121.912 C 137.211 120.277,136.727 120.114,138.000 121.172 M110.300 124.832 C 109.915 125.056,109.600 125.531,109.600 125.887 C 109.600 126.242,109.482 126.415,109.337 126.270 C 108.977 125.910,107.955 126.804,108.225 127.241 C 108.440 127.588,109.089 127.049,110.565 125.300 C 111.400 124.310,111.350 124.221,110.300 124.832 M105.599 129.802 C 105.083 130.351,104.782 130.800,104.930 130.800 C 105.318 130.800,106.899 129.165,106.702 128.968 C 106.611 128.877,106.114 129.252,105.599 129.802 M96.260 139.238 C 95.866 139.699,95.614 140.148,95.702 140.235 C 95.789 140.323,96.251 139.945,96.728 139.397 C 97.205 138.849,97.456 138.400,97.286 138.400 C 97.117 138.400,96.655 138.777,96.260 139.238 M89.888 145.760 C 87.530 148.048,85.600 150.127,85.600 150.380 C 85.600 150.800,88.976 147.535,92.919 143.300 C 95.622 140.397,94.363 141.419,89.888 145.760 M170.800 151.871 C 170.800 152.125,170.955 152.393,171.144 152.467 C 171.333 152.540,172.616 154.182,173.994 156.116 C 175.373 158.050,176.582 159.551,176.681 159.452 C 176.877 159.257,173.183 154.023,171.708 152.404 C 171.209 151.856,170.800 151.616,170.800 151.871 M80.000 155.740 C 78.790 156.915,77.457 158.264,77.038 158.738 L 76.275 159.601 77.538 158.971 C 78.232 158.625,78.800 158.151,78.800 157.917 C 78.800 157.366,81.676 154.400,82.011 154.607 C 82.152 154.694,82.267 154.503,82.267 154.182 C 82.267 153.457,82.557 153.258,80.000 155.740 M177.519 161.197 C 177.893 161.856,178.327 162.396,178.481 162.397 C 178.636 162.399,178.456 161.861,178.081 161.203 C 177.707 160.544,177.273 160.004,177.119 160.003 C 176.964 160.001,177.144 160.539,177.519 161.197 M74.400 161.600 C 73.850 162.030,73.597 162.386,73.838 162.391 C 74.079 162.396,74.602 162.040,75.000 161.600 C 75.912 160.592,75.688 160.592,74.400 161.600 M178.802 163.100 C 178.803 163.265,179.257 163.940,179.810 164.600 L 180.816 165.800 179.968 164.300 C 179.145 162.842,178.798 162.485,178.802 163.100 M70.299 165.789 C 69.835 166.427,69.743 166.841,70.026 167.016 C 70.262 167.162,70.552 166.904,70.674 166.440 C 70.794 165.978,71.052 165.600,71.247 165.600 C 71.441 165.600,71.600 165.420,71.600 165.200 C 71.600 164.522,71.034 164.779,70.299 165.789 M180.813 166.138 C 180.794 166.645,182.457 168.877,182.684 168.649 C 182.792 168.541,182.676 168.216,182.427 167.926 C 182.177 167.637,181.715 167.040,181.399 166.600 C 181.084 166.160,180.820 165.952,180.813 166.138 M182.800 169.339 C 182.800 169.504,183.430 170.623,184.200 171.827 C 184.970 173.031,185.600 174.170,185.600 174.359 C 185.600 174.548,185.870 174.926,186.200 175.200 C 187.162 175.999,186.910 175.359,185.134 172.490 C 183.343 169.600,182.800 168.867,182.800 169.339 M94.000 170.031 C 87.345 170.475,79.385 171.659,77.974 172.414 C 77.577 172.626,76.801 172.800,76.250 172.800 C 75.698 172.800,75.136 172.980,75.000 173.200 C 74.864 173.420,74.386 173.600,73.937 173.600 C 73.488 173.600,72.554 173.853,71.860 174.162 C 71.167 174.472,69.739 175.038,68.687 175.422 C 67.635 175.805,66.679 176.272,66.563 176.459 C 66.448 176.647,66.018 176.800,65.610 176.800 C 65.201 176.800,64.807 176.935,64.733 177.100 C 64.660 177.265,63.700 177.869,62.600 178.443 C 59.399 180.112,57.815 180.985,57.600 181.200 C 57.195 181.605,55.780 182.430,55.100 182.658 C 54.715 182.788,54.387 183.097,54.372 183.347 C 54.356 183.596,54.189 183.440,54.000 183.000 C 53.811 182.560,53.644 182.428,53.628 182.707 C 53.613 182.986,52.970 183.826,52.200 184.574 C 49.572 187.126,50.750 187.604,54.060 185.329 C 55.237 184.519,57.370 183.058,58.800 182.082 C 63.485 178.883,71.513 175.334,77.400 173.857 C 85.414 171.848,88.117 171.520,98.400 171.313 C 108.455 171.111,113.835 171.606,125.800 173.836 C 127.560 174.164,129.720 174.598,130.600 174.800 C 135.528 175.930,141.129 177.306,142.000 177.599 C 142.550 177.784,144.080 178.244,145.400 178.620 C 148.896 179.615,153.807 181.167,156.900 182.252 C 162.516 184.224,165.426 185.276,166.200 185.614 C 166.640 185.807,170.150 187.211,174.000 188.734 C 177.850 190.257,181.990 191.957,183.200 192.510 C 191.432 196.276,192.000 196.470,192.000 195.517 C 192.000 195.251,192.663 194.354,193.474 193.524 C 194.285 192.694,194.825 191.892,194.675 191.741 C 194.524 191.591,193.672 192.235,192.781 193.172 L 191.160 194.875 189.080 193.879 C 187.936 193.332,186.010 192.433,184.800 191.882 C 182.857 190.997,181.839 190.559,178.600 189.214 C 178.160 189.031,177.080 188.581,176.200 188.214 C 173.611 187.133,171.921 186.463,168.600 185.200 C 167.279 184.697,164.255 183.526,163.400 183.186 C 162.960 183.010,162.240 182.774,161.800 182.660 C 161.360 182.547,159.470 181.890,157.600 181.200 C 155.730 180.510,153.840 179.853,153.400 179.740 C 152.960 179.626,152.240 179.388,151.800 179.210 C 150.818 178.813,145.511 177.240,143.600 176.779 C 142.830 176.593,141.210 176.143,140.000 175.779 C 138.790 175.415,137.080 174.966,136.200 174.782 C 133.024 174.118,130.577 173.542,129.372 173.175 C 128.696 172.969,127.583 172.800,126.898 172.800 C 126.213 172.800,125.145 172.606,124.526 172.368 C 123.530 171.986,122.132 171.744,116.800 171.032 C 109.386 170.040,100.019 169.629,94.000 170.031 M186.800 176.139 C 186.800 176.515,188.098 178.814,188.425 179.016 C 188.994 179.367,188.882 178.985,187.960 177.423 C 187.220 176.168,186.800 175.703,186.800 176.139 M188.888 179.900 C 188.973 180.065,189.483 181.141,190.021 182.291 C 191.011 184.405,191.976 185.332,191.072 183.300 C 190.246 181.445,189.191 179.600,188.956 179.600 C 188.834 179.600,188.803 179.735,188.888 179.900 M191.600 185.275 C 191.600 185.620,191.870 186.126,192.200 186.400 C 192.963 187.034,192.956 186.439,192.187 185.424 C 191.717 184.802,191.600 184.772,191.600 185.275 M192.800 187.800 C 192.800 188.130,192.980 188.400,193.200 188.400 C 193.420 188.400,193.606 188.715,193.613 189.100 C 193.626 189.828,194.800 191.659,194.800 190.952 C 194.800 190.433,193.241 187.200,192.991 187.200 C 192.886 187.200,192.800 187.470,192.800 187.800 M185.800 205.171 C 180.449 207.970,176.998 209.826,175.400 210.763 C 174.740 211.150,173.384 211.922,172.388 212.477 C 169.058 214.332,163.002 218.147,162.867 218.476 C 162.793 218.654,162.569 218.800,162.367 218.800 C 162.166 218.800,160.105 220.150,157.787 221.800 C 155.469 223.450,153.414 224.800,153.220 224.800 C 153.026 224.800,152.807 224.936,152.733 225.103 C 152.660 225.270,151.790 226.030,150.800 226.793 C 149.810 227.555,148.910 228.280,148.800 228.402 C 148.690 228.525,147.803 229.202,146.828 229.908 C 143.301 232.460,132.283 242.868,129.793 246.000 C 127.335 249.092,125.363 251.416,125.100 251.533 C 124.935 251.607,124.800 251.907,124.800 252.200 C 124.800 252.493,124.658 252.793,124.484 252.867 C 123.170 253.420,117.618 263.629,116.730 267.125 C 116.523 267.936,116.169 269.320,115.942 270.200 C 115.439 272.148,115.708 277.468,116.341 278.101 C 116.594 278.354,116.800 278.822,116.800 279.142 C 116.800 279.462,117.222 280.281,117.738 280.962 C 118.254 281.643,118.795 282.470,118.940 282.800 C 119.086 283.130,119.111 282.910,118.997 282.310 C 118.883 281.711,118.370 280.602,117.857 279.846 C 110.962 269.685,125.046 247.324,150.800 227.548 C 156.973 222.808,172.058 212.800,173.031 212.800 C 173.166 212.800,173.754 212.466,174.338 212.058 C 175.556 211.208,180.729 208.416,186.731 205.369 C 191.079 203.161,191.689 202.778,190.767 202.835 C 190.455 202.854,188.220 203.905,185.800 205.171 " stroke="none" fill="#0691e6" fill-rule="evenodd"></path><path id="path7" d="M279.085 116.397 C 278.905 117.085,279.116 117.739,279.816 118.656 C 280.357 119.366,280.800 120.218,280.800 120.550 C 280.800 120.881,280.980 121.264,281.200 121.400 C 281.420 121.536,281.600 123.289,281.600 125.295 C 281.600 128.575,281.353 130.058,280.384 132.600 C 279.854 133.992,276.654 140.591,276.409 140.800 C 276.280 140.910,275.553 141.990,274.794 143.200 C 274.035 144.410,273.276 145.460,273.107 145.533 C 272.938 145.607,272.800 145.907,272.800 146.200 C 272.800 146.493,272.664 146.793,272.497 146.867 C 272.330 146.940,271.568 147.810,270.803 148.800 C 267.692 152.828,259.310 161.221,254.410 165.215 C 253.205 166.197,252.022 167.180,251.780 167.400 C 251.538 167.620,250.754 168.250,250.036 168.800 C 249.318 169.350,248.489 170.025,248.194 170.300 C 247.899 170.575,247.479 170.800,247.262 170.800 C 247.045 170.800,246.807 170.962,246.733 171.160 C 246.660 171.358,244.530 172.979,242.000 174.762 C 239.470 176.546,237.183 178.184,236.917 178.403 C 236.651 178.621,236.340 178.800,236.225 178.800 C 236.110 178.800,234.676 179.700,233.038 180.800 C 231.401 181.900,229.961 182.800,229.838 182.800 C 229.716 182.800,228.667 183.403,227.508 184.140 C 225.468 185.436,224.519 185.979,219.400 188.783 C 218.080 189.506,216.829 190.256,216.620 190.449 C 216.411 190.642,215.916 190.800,215.520 190.800 C 215.124 190.800,214.800 190.960,214.800 191.157 C 214.800 191.353,214.350 191.626,213.800 191.764 C 213.250 191.902,212.800 192.192,212.800 192.408 C 212.800 192.623,212.559 192.800,212.264 192.800 C 211.243 192.800,206.800 195.265,206.800 195.831 C 206.800 196.483,207.265 196.572,207.820 196.027 C 208.029 195.821,210.450 194.499,213.200 193.087 C 241.866 178.376,263.762 161.091,275.418 143.974 C 282.387 133.740,284.611 123.921,281.067 119.035 C 280.590 118.378,280.006 117.298,279.769 116.634 C 279.341 115.436,279.337 115.435,279.085 116.397 M121.572 116.542 C 120.786 116.794,119.616 117.360,118.972 117.800 C 118.327 118.240,117.260 118.827,116.600 119.104 L 115.400 119.607 116.600 119.372 C 117.260 119.243,118.070 118.912,118.400 118.636 C 120.139 117.182,122.229 116.621,125.800 116.651 C 127.910 116.668,129.069 116.551,128.600 116.368 C 127.425 115.910,123.219 116.014,121.572 116.542 M131.000 117.412 C 133.033 118.144,133.692 118.139,132.400 117.400 C 131.850 117.086,130.950 116.830,130.400 116.832 C 129.607 116.834,129.732 116.955,131.000 117.412 M137.288 119.973 C 139.426 121.048,141.676 122.275,142.288 122.698 C 144.044 123.915,144.703 124.146,143.516 123.129 C 142.544 122.296,141.113 121.456,137.074 119.350 C 134.778 118.153,134.417 118.000,133.905 118.009 C 133.627 118.014,135.149 118.897,137.288 119.973 M145.951 125.072 C 146.693 125.692,148.583 127.253,150.151 128.539 C 162.322 138.530,177.884 158.139,187.022 175.000 C 187.260 175.440,187.967 176.700,188.592 177.800 C 190.463 181.090,195.600 191.368,195.600 191.819 C 195.600 192.049,194.883 192.938,194.006 193.794 C 191.690 196.055,190.866 199.376,191.970 202.000 C 192.316 202.823,192.348 202.669,192.155 201.132 C 191.747 197.900,192.286 196.093,194.244 194.135 C 195.210 193.169,196.000 192.084,196.000 191.724 C 196.000 188.767,175.552 154.453,171.614 150.800 C 171.495 150.690,170.645 149.610,169.725 148.400 C 168.805 147.190,167.725 145.837,167.326 145.394 C 166.927 144.950,165.702 143.510,164.604 142.194 C 160.092 136.782,151.377 128.587,146.800 125.451 C 145.482 124.548,145.142 124.396,145.951 125.072 " stroke="none" fill="#8c9c94" fill-rule="evenodd"></path><path id="path8" d="M203.200 207.447 C 203.200 208.134,209.926 220.957,212.442 225.069 C 213.299 226.469,214.000 227.710,214.000 227.826 C 214.000 228.179,220.001 237.564,222.552 241.200 C 243.997 271.770,268.245 288.380,280.339 280.784 C 281.365 280.140,281.896 279.612,281.524 279.608 C 281.152 279.603,280.736 279.780,280.599 280.001 C 278.071 284.091,264.399 281.681,256.527 275.758 C 255.826 275.231,255.144 274.800,255.010 274.800 C 254.876 274.800,254.549 274.618,254.283 274.395 C 254.017 274.173,253.080 273.438,252.200 272.763 C 246.640 268.496,243.274 265.421,238.200 259.976 C 231.890 253.204,226.396 246.103,219.810 236.207 C 217.275 232.397,215.200 229.167,215.200 229.030 C 215.200 228.893,214.480 227.640,213.600 226.247 C 212.720 224.854,212.000 223.594,212.000 223.449 C 212.000 223.303,211.577 222.513,211.061 221.692 C 209.448 219.129,204.000 208.398,204.000 207.784 C 204.000 207.463,203.820 207.200,203.600 207.200 C 203.380 207.200,203.200 207.311,203.200 207.447 M116.109 273.600 C 116.109 274.590,116.187 274.995,116.282 274.500 C 116.378 274.005,116.378 273.195,116.282 272.700 C 116.187 272.205,116.109 272.610,116.109 273.600 " stroke="none" fill="#04cca8" fill-rule="evenodd"></path></g></svg>