<svg id="svg" version="1.1" xmlns="http://www.w3.org/2000/svg" xmlns:xlink="http://www.w3.org/1999/xlink" width="400" height="400" viewBox="0, 0, 400,400"><g id="svgg"><path id="path0" d="M101.345 117.989 C 88.516 120.730,84.067 137.096,93.659 146.264 C 98.816 151.194,107.397 152.362,112.381 148.813 C 113.010 148.366,113.700 148.000,113.915 148.000 C 116.206 148.000,120.643 140.451,121.065 135.835 C 122.076 124.768,112.057 115.701,101.345 117.989 M289.200 117.949 C 278.638 120.279,273.046 132.278,278.085 141.800 C 279.955 145.334,285.182 150.000,287.272 150.000 C 287.646 150.000,288.064 150.180,288.200 150.400 C 288.957 151.625,296.095 150.837,299.494 149.154 C 316.701 140.630,307.861 113.833,289.200 117.949 M102.295 165.206 C 96.234 165.966,90.396 171.229,88.863 177.314 C 85.753 189.668,97.466 200.989,109.565 197.323 C 128.724 191.516,122.203 162.710,102.295 165.206 M147.692 166.006 C 134.954 169.344,131.038 185.046,140.696 194.060 C 151.883 204.501,170.167 194.870,168.009 179.672 C 167.381 175.250,163.439 169.038,160.712 168.172 C 160.320 168.048,160.000 167.814,160.000 167.652 C 160.000 167.228,156.593 166.106,153.827 165.618 C 150.907 165.104,151.208 165.085,147.692 166.006 M242.268 165.818 C 234.943 167.274,229.200 174.291,229.200 181.785 C 229.200 191.974,238.605 200.098,248.264 198.250 C 266.223 194.816,266.731 170.401,248.939 165.767 C 246.374 165.099,245.866 165.103,242.268 165.818 M289.200 165.774 C 284.120 166.909,277.232 172.822,277.194 176.081 C 277.191 176.366,276.929 177.320,276.612 178.200 C 274.933 182.858,276.888 189.438,281.193 193.625 C 290.112 202.298,304.180 198.778,308.280 186.848 C 309.382 183.642,308.890 176.729,307.422 174.800 C 307.171 174.470,306.715 173.699,306.408 173.087 C 303.759 167.797,295.622 164.339,289.200 165.774 M100.903 212.643 C 85.862 216.731,83.967 237.049,98.000 243.757 C 100.988 245.185,107.888 245.568,110.253 244.437 C 110.884 244.135,111.995 243.598,112.722 243.244 C 120.707 239.354,123.607 227.284,118.420 219.526 C 114.571 213.770,107.287 210.907,100.903 212.643 M195.117 212.982 C 186.661 214.834,180.721 224.020,182.610 232.325 C 184.805 241.976,194.151 247.997,202.648 245.235 C 210.988 242.524,214.965 237.316,214.968 229.105 C 214.969 226.273,214.804 224.644,214.485 224.325 C 214.218 224.058,214.000 223.561,214.001 223.220 C 214.002 222.556,210.490 217.200,210.053 217.200 C 209.910 217.200,209.323 216.765,208.750 216.234 C 205.435 213.161,200.106 211.889,195.117 212.982 M289.800 212.980 C 280.752 214.565,273.790 224.981,276.552 232.800 C 276.902 233.790,277.191 234.834,277.194 235.119 C 277.209 236.443,280.491 240.734,282.801 242.449 C 288.465 246.656,293.984 246.960,300.771 243.440 C 304.063 241.733,308.000 236.855,308.000 234.483 C 308.000 234.085,308.197 233.563,308.439 233.321 C 308.690 233.070,308.890 231.277,308.908 229.127 C 308.990 218.895,299.897 211.211,289.800 212.980 M101.600 259.800 C 96.695 260.905,90.000 266.149,90.000 268.886 C 90.000 269.191,89.850 269.611,89.667 269.820 C 88.052 271.666,88.052 280.334,89.667 282.180 C 89.850 282.389,90.000 282.802,90.000 283.097 C 90.000 284.763,94.146 289.003,97.639 290.909 C 104.356 294.573,114.206 292.027,118.095 285.621 C 118.570 284.839,119.090 284.107,119.252 283.993 C 121.444 282.451,121.500 270.961,119.329 268.369 C 119.038 268.021,118.800 267.561,118.800 267.347 C 118.800 265.324,111.951 260.715,107.578 259.795 C 104.395 259.126,104.592 259.126,101.600 259.800 M288.089 260.621 C 279.677 262.886,274.233 272.573,276.751 280.800 C 282.396 299.248,308.848 295.629,308.914 276.400 C 308.951 265.515,298.716 257.760,288.089 260.621 " stroke="none" fill="#f4fafb" fill-rule="evenodd"></path><path id="path1" d="M0.000 200.000 L 0.000 400.000 200.000 400.000 L 400.000 400.000 400.000 200.000 L 400.000 0.000 200.000 0.000 L 0.000 0.000 0.000 200.000 M205.298 63.659 C 213.204 66.373,217.822 74.011,216.433 82.075 C 213.219 100.733,186.529 100.626,183.622 81.943 C 181.704 69.614,193.547 59.625,205.298 63.659 M158.306 117.367 C 168.555 120.983,172.727 133.485,166.725 142.600 C 165.120 145.037,160.478 148.800,159.077 148.800 C 158.758 148.800,157.851 149.070,157.062 149.400 C 152.814 151.175,145.368 149.208,141.161 145.200 C 128.560 133.193,141.878 111.571,158.306 117.367 M205.400 117.483 C 212.308 119.974,216.791 126.158,216.791 133.200 C 216.791 150.290,193.453 156.228,185.349 141.200 C 178.169 127.885,191.270 112.388,205.400 117.483 M250.600 116.951 C 261.856 119.402,267.305 131.730,261.585 141.800 C 256.960 149.943,245.074 152.512,237.766 146.950 C 235.318 145.086,233.600 143.481,233.600 143.058 C 233.600 142.841,233.295 142.326,232.923 141.914 C 229.635 138.282,229.772 129.114,233.185 124.368 C 237.863 117.861,243.587 115.424,250.600 116.951 M109.742 117.603 C 128.627 123.921,124.595 151.475,104.800 151.380 C 88.712 151.302,81.608 132.445,93.400 121.117 C 94.578 119.985,98.008 118.125,99.495 117.812 C 100.208 117.661,100.894 117.372,101.019 117.169 C 101.441 116.486,107.271 116.776,109.742 117.603 M298.296 117.871 C 308.174 121.782,312.041 130.735,308.372 141.200 C 307.233 144.450,302.321 149.269,299.200 150.200 C 298.650 150.364,297.948 150.701,297.639 150.948 C 296.819 151.607,288.816 151.537,287.361 150.858 C 286.723 150.560,285.618 150.038,284.906 149.698 C 273.047 144.037,272.354 124.642,283.819 119.244 C 289.924 116.369,293.619 116.019,298.296 117.871 M108.600 164.570 C 116.443 166.342,121.987 173.310,121.993 181.400 C 122.006 198.573,99.947 205.473,90.663 191.200 C 81.975 177.844,93.252 161.102,108.600 164.570 M205.122 164.999 C 218.626 169.265,220.883 187.610,208.810 194.962 C 200.740 199.877,189.987 197.127,185.499 189.000 C 178.136 175.668,190.608 160.414,205.122 164.999 M155.027 164.835 C 170.564 167.681,174.001 189.162,160.200 197.167 C 155.443 199.926,146.512 199.873,143.056 197.064 C 142.471 196.589,141.311 195.666,140.478 195.013 C 138.840 193.731,137.379 191.819,136.340 189.600 C 135.979 188.830,135.451 187.698,135.166 187.085 C 134.521 185.694,134.434 178.479,135.048 177.157 C 137.873 171.064,138.578 170.115,142.200 167.541 C 144.741 165.734,146.355 165.136,149.600 164.797 C 151.030 164.648,152.302 164.498,152.427 164.463 C 152.551 164.428,153.721 164.596,155.027 164.835 M252.548 166.032 C 269.693 173.099,264.162 199.200,245.521 199.200 C 228.623 199.200,221.803 175.400,236.400 167.370 C 237.170 166.947,237.894 166.476,238.008 166.325 C 239.472 164.391,248.144 164.217,252.548 166.032 M299.566 166.093 C 312.173 171.912,313.351 188.717,301.715 196.746 C 297.075 199.948,288.892 200.088,284.076 197.048 C 282.265 195.905,278.000 192.060,278.000 191.571 C 278.000 191.379,277.565 190.272,277.034 189.111 C 274.947 184.551,274.701 180.331,276.285 176.257 C 276.945 174.559,279.998 169.601,280.385 169.599 C 280.503 169.599,281.230 169.053,282.000 168.387 C 283.228 167.326,285.100 166.283,287.800 165.158 C 290.373 164.086,296.225 164.551,299.566 166.093 M157.000 211.666 C 168.996 214.863,173.549 228.986,165.684 238.600 C 160.571 244.849,147.867 246.280,142.961 241.160 C 142.350 240.522,141.692 240.000,141.499 240.000 C 140.431 240.000,137.630 235.343,136.589 231.837 C 134.822 225.887,137.738 217.993,143.020 214.428 C 147.743 211.241,152.143 210.372,157.000 211.666 M250.400 211.568 C 254.493 212.602,255.897 213.154,256.155 213.828 C 256.276 214.143,256.637 214.400,256.956 214.400 C 257.276 214.400,258.346 215.323,259.333 216.452 C 270.352 229.048,260.288 246.815,243.716 244.020 C 226.537 241.122,226.284 215.276,243.400 211.622 C 244.720 211.341,245.980 211.054,246.200 210.987 C 246.964 210.751,247.416 210.814,250.400 211.568 M107.304 211.607 C 108.791 211.822,110.321 212.153,110.704 212.342 C 115.170 214.548,117.053 216.080,119.140 219.205 C 129.891 235.306,110.047 253.946,94.316 242.523 C 92.476 241.188,88.800 236.257,88.800 235.126 C 88.800 234.815,88.575 234.335,88.300 234.060 C 87.579 233.340,87.636 225.509,88.379 223.200 C 89.939 218.353,94.684 213.718,99.659 212.182 C 100.836 211.819,101.980 211.463,102.200 211.392 C 102.958 211.148,104.608 211.217,107.304 211.607 M203.600 212.568 C 209.165 214.213,213.500 218.778,215.561 225.160 C 216.110 226.860,216.139 232.667,215.600 233.000 C 215.380 233.136,215.200 233.617,215.200 234.069 C 215.200 236.582,209.771 243.218,206.600 244.580 C 205.720 244.958,204.640 245.468,204.200 245.713 C 200.212 247.938,190.647 245.745,186.741 241.710 C 180.849 235.626,179.783 225.262,184.448 219.425 C 184.635 219.191,185.251 218.422,185.816 217.716 C 187.069 216.151,192.016 212.800,193.074 212.800 C 193.495 212.800,194.011 212.632,194.220 212.427 C 195.083 211.579,200.536 211.661,203.600 212.568 M299.950 213.542 C 306.673 216.865,311.707 226.374,309.683 231.928 C 309.469 232.518,309.056 233.810,308.767 234.800 C 303.704 252.118,278.122 249.293,275.396 231.114 C 274.519 225.267,278.386 217.242,283.368 214.568 C 287.068 212.582,288.018 212.182,289.600 211.946 C 293.162 211.414,296.770 211.970,299.950 213.542 M157.600 258.809 C 164.841 260.900,169.410 267.096,169.391 274.800 C 169.375 281.131,167.484 284.719,161.958 288.903 C 155.148 294.060,143.701 291.448,138.715 283.600 C 130.581 270.797,142.938 254.576,157.600 258.809 M204.658 258.840 C 206.166 259.302,207.684 259.932,208.031 260.240 C 208.379 260.548,208.850 260.800,209.080 260.800 C 209.902 260.800,213.898 265.259,214.912 267.308 C 222.522 282.689,205.259 298.002,190.738 288.752 C 174.985 278.716,186.783 253.364,204.658 258.840 M250.800 258.555 C 254.354 259.406,260.800 263.489,260.800 264.890 C 260.800 265.136,261.070 265.636,261.401 266.001 C 265.617 270.660,264.508 280.236,259.000 286.727 C 253.041 293.748,239.663 292.712,233.793 284.773 C 229.802 279.377,229.366 270.015,232.923 266.086 C 233.295 265.674,233.600 265.154,233.600 264.931 C 233.600 264.708,234.482 263.782,235.559 262.873 C 240.594 258.628,245.406 257.264,250.800 258.555 M109.965 259.484 C 125.769 264.321,125.978 286.775,110.272 292.575 C 106.870 293.832,99.809 293.400,97.600 291.800 C 97.270 291.561,96.476 291.103,95.836 290.783 C 95.195 290.462,93.935 289.477,93.036 288.594 C 79.930 275.728,92.488 254.135,109.965 259.484 M298.600 260.183 C 304.299 262.743,307.083 265.745,308.951 271.346 C 313.878 286.116,297.375 299.535,284.133 291.526 C 268.563 282.110,275.167 258.654,293.200 259.323 C 295.735 259.417,297.532 259.703,298.600 260.183 M205.561 306.236 C 214.734 309.194,219.513 320.804,215.074 329.348 C 214.042 331.332,210.211 335.479,209.076 335.839 C 208.596 335.992,208.022 336.333,207.802 336.598 C 205.770 339.035,193.620 338.927,192.026 336.458 C 191.902 336.266,191.401 335.983,190.913 335.831 C 190.425 335.679,189.075 334.499,187.913 333.210 C 176.091 320.096,188.715 300.802,205.561 306.236 " stroke="none" fill="#539ce3" fill-rule="evenodd"></path><path id="path2" d="M194.986 63.554 C 186.750 66.521,182.335 73.666,183.622 81.943 C 186.529 100.626,213.219 100.733,216.433 82.075 C 218.510 70.018,206.304 59.477,194.986 63.554 M149.000 116.980 C 132.031 121.579,131.887 144.911,148.800 149.406 C 151.644 150.162,155.245 150.159,157.062 149.400 C 157.851 149.070,158.758 148.800,159.077 148.800 C 160.478 148.800,165.120 145.037,166.725 142.600 C 175.012 130.015,163.311 113.101,149.000 116.980 M196.800 116.747 C 179.786 120.450,178.627 143.581,195.178 149.135 C 213.223 155.191,225.265 129.094,209.000 119.179 C 205.495 117.043,200.248 115.997,196.800 116.747 M244.400 116.677 C 233.284 118.542,226.089 134.364,232.923 141.914 C 233.295 142.326,233.600 142.841,233.600 143.058 C 233.600 143.481,235.318 145.086,237.766 146.950 C 248.544 155.153,264.922 145.848,263.908 132.097 C 263.202 122.515,253.817 115.096,244.400 116.677 M101.019 117.169 C 100.894 117.372,100.208 117.661,99.495 117.812 C 98.008 118.125,94.578 119.985,93.400 121.117 C 81.608 132.445,88.712 151.302,104.800 151.380 C 124.595 151.475,128.627 123.921,109.742 117.603 C 107.271 116.776,101.441 116.486,101.019 117.169 M288.600 117.250 C 287.382 117.643,285.955 118.238,283.819 119.244 C 272.354 124.642,273.047 144.037,284.906 149.698 C 285.618 150.038,286.723 150.560,287.361 150.858 C 288.816 151.537,296.819 151.607,297.639 150.948 C 297.948 150.701,298.650 150.364,299.200 150.200 C 307.982 147.581,312.295 135.641,307.845 126.266 C 304.618 119.466,295.285 115.094,288.600 117.250 M111.940 119.397 C 122.101 124.575,124.321 137.881,116.366 145.920 C 115.233 147.064,114.131 148.000,113.915 148.000 C 113.700 148.000,113.010 148.366,112.381 148.813 C 106.255 153.176,95.613 150.351,90.973 143.131 C 82.099 129.322,97.408 111.991,111.940 119.397 M299.348 119.205 C 315.355 126.614,309.966 150.800,292.309 150.800 C 290.166 150.800,288.337 150.622,288.200 150.400 C 288.064 150.180,287.646 150.000,287.272 150.000 C 285.182 150.000,279.955 145.334,278.085 141.800 C 270.817 128.066,285.283 112.695,299.348 119.205 M101.200 164.574 C 92.896 166.121,87.160 173.682,87.716 182.349 C 88.626 196.516,103.874 203.784,115.000 195.354 C 129.881 184.079,119.599 161.146,101.200 164.574 M195.755 164.757 C 179.669 169.362,179.022 190.965,194.800 196.608 C 206.610 200.831,219.142 189.572,216.395 177.205 C 214.351 168.007,204.712 162.193,195.755 164.757 M149.600 164.797 C 146.355 165.136,144.741 165.734,142.200 167.541 C 138.578 170.115,137.873 171.064,135.048 177.157 C 134.434 178.479,134.521 185.694,135.166 187.085 C 135.451 187.698,135.979 188.830,136.340 189.600 C 137.379 191.819,138.840 193.731,140.478 195.013 C 141.311 195.666,142.471 196.589,143.056 197.064 C 146.512 199.873,155.443 199.926,160.200 197.167 C 172.070 190.282,171.757 172.890,159.647 166.462 C 157.786 165.474,153.278 164.226,152.427 164.463 C 152.302 164.498,151.030 164.648,149.600 164.797 M243.200 164.846 C 240.729 165.081,238.461 165.726,238.008 166.325 C 237.894 166.476,237.170 166.947,236.400 167.370 C 224.410 173.966,226.565 193.414,239.836 198.379 C 251.849 202.874,265.235 191.557,262.656 179.088 C 260.636 169.317,253.230 163.896,243.200 164.846 M290.000 164.680 C 289.230 164.759,288.240 164.974,287.800 165.158 C 285.100 166.283,283.228 167.326,282.000 168.387 C 281.230 169.053,280.503 169.599,280.385 169.599 C 279.998 169.601,276.945 174.559,276.285 176.257 C 274.701 180.331,274.947 184.551,277.034 189.111 C 277.565 190.272,278.000 191.379,278.000 191.571 C 278.000 192.060,282.265 195.905,284.076 197.048 C 288.892 200.088,297.075 199.948,301.715 196.746 C 317.223 186.045,308.711 162.746,290.000 164.680 M108.785 165.454 C 115.705 166.886,120.957 173.736,120.987 181.370 C 121.047 196.480,103.418 203.688,93.033 192.801 C 81.637 180.853,92.453 162.075,108.785 165.454 M153.827 165.618 C 156.593 166.106,160.000 167.228,160.000 167.652 C 160.000 167.814,160.320 168.048,160.712 168.172 C 164.625 169.414,168.774 178.078,168.134 183.672 C 166.067 201.732,141.105 203.635,135.797 186.138 C 132.536 175.392,142.827 163.680,153.827 165.618 M248.939 165.767 C 266.731 170.401,266.223 194.816,248.264 198.250 C 230.579 201.633,221.964 176.589,237.668 167.449 C 240.866 165.588,245.560 164.887,248.939 165.767 M295.652 165.776 C 300.224 166.745,304.785 169.845,306.408 173.087 C 306.715 173.699,307.171 174.470,307.422 174.800 C 311.785 180.535,307.409 193.180,299.800 196.824 C 287.618 202.659,272.247 190.314,276.612 178.200 C 276.929 177.320,277.191 176.366,277.194 176.081 C 277.197 175.795,277.806 174.614,278.547 173.456 C 282.542 167.210,288.916 164.348,295.652 165.776 M149.380 211.581 C 136.801 214.727,131.912 229.023,140.091 238.744 C 140.673 239.435,141.306 240.000,141.499 240.000 C 141.692 240.000,142.350 240.522,142.961 241.160 C 147.867 246.280,160.571 244.849,165.684 238.600 C 172.618 230.124,169.424 216.074,159.754 212.517 C 155.541 210.967,152.817 210.722,149.380 211.581 M246.200 210.987 C 245.980 211.054,244.720 211.341,243.400 211.622 C 226.284 215.276,226.537 241.122,243.716 244.020 C 260.288 246.815,270.352 229.048,259.333 216.452 C 258.346 215.323,257.276 214.400,256.956 214.400 C 256.637 214.400,256.276 214.143,256.155 213.828 C 255.897 213.154,254.493 212.602,250.400 211.568 C 247.416 210.814,246.964 210.751,246.200 210.987 M102.200 211.392 C 101.980 211.463,100.836 211.819,99.659 212.182 C 94.684 213.718,89.939 218.353,88.379 223.200 C 87.636 225.509,87.579 233.340,88.300 234.060 C 88.575 234.335,88.800 234.815,88.800 235.126 C 88.800 237.297,94.148 242.995,97.600 244.503 C 113.542 251.466,128.753 233.601,119.140 219.205 C 117.053 216.080,115.170 214.548,110.704 212.342 C 109.375 211.686,103.370 211.015,102.200 211.392 M196.200 211.907 C 195.320 211.987,194.429 212.221,194.220 212.427 C 194.011 212.632,193.495 212.800,193.074 212.800 C 192.016 212.800,187.069 216.151,185.816 217.716 C 185.251 218.422,184.635 219.191,184.448 219.425 C 181.911 222.600,180.835 229.767,182.222 234.253 C 184.008 240.027,187.482 243.530,193.681 245.804 C 195.805 246.583,202.748 246.523,204.200 245.713 C 204.640 245.468,205.720 244.958,206.600 244.580 C 209.771 243.218,215.200 236.582,215.200 234.069 C 215.200 233.617,215.380 233.136,215.600 233.000 C 216.139 232.667,216.110 226.860,215.561 225.160 C 212.615 216.037,205.354 211.066,196.200 211.907 M289.600 211.946 C 288.018 212.182,287.068 212.582,283.368 214.568 C 275.904 218.574,273.341 228.700,277.540 237.600 C 283.629 250.510,304.727 248.619,308.767 234.800 C 309.056 233.810,309.469 232.518,309.683 231.928 C 310.117 230.739,309.918 226.964,309.309 224.800 C 306.880 216.172,298.387 210.633,289.600 211.946 M108.824 212.661 C 122.820 216.039,125.494 237.022,112.722 243.244 C 111.995 243.598,110.884 244.135,110.253 244.437 C 107.888 245.568,100.988 245.185,98.000 243.757 C 80.156 235.227,89.624 208.027,108.824 212.661 M201.680 212.850 C 204.162 213.376,207.276 214.867,208.750 216.234 C 209.323 216.765,209.910 217.200,210.053 217.200 C 210.490 217.200,214.002 222.556,214.001 223.220 C 214.000 223.561,214.218 224.058,214.485 224.325 C 215.637 225.477,215.096 233.129,213.648 236.159 C 206.683 250.731,186.222 248.204,182.610 232.325 C 180.112 221.340,190.705 210.521,201.680 212.850 M297.971 213.643 C 304.670 215.946,308.965 222.027,308.908 229.127 C 308.890 231.277,308.690 233.070,308.439 233.321 C 308.197 233.563,308.000 234.085,308.000 234.483 C 308.000 236.855,304.063 241.733,300.771 243.440 C 293.984 246.960,288.465 246.656,282.801 242.449 C 280.491 240.734,277.209 236.443,277.194 235.119 C 277.191 234.834,276.902 233.790,276.552 232.800 C 272.588 221.579,286.045 209.543,297.971 213.643 M148.559 258.740 C 131.697 263.674,132.225 286.670,149.305 291.201 C 152.874 292.148,159.187 291.001,161.958 288.903 C 167.484 284.719,169.375 281.131,169.391 274.800 C 169.418 263.667,159.048 255.672,148.559 258.740 M195.584 258.771 C 179.492 263.836,179.157 285.446,195.087 290.769 C 207.019 294.756,219.577 283.092,216.371 271.000 C 215.398 267.328,210.731 260.800,209.080 260.800 C 208.850 260.800,208.379 260.548,208.031 260.240 C 205.872 258.325,199.419 257.563,195.584 258.771 M242.787 258.747 C 239.529 259.709,233.600 263.699,233.600 264.931 C 233.600 265.154,233.295 265.674,232.923 266.086 C 231.169 268.024,230.113 273.244,230.695 277.104 C 232.527 289.263,244.864 295.136,255.759 289.036 C 263.521 284.691,266.672 271.825,261.401 266.001 C 261.070 265.636,260.800 265.136,260.800 264.890 C 260.800 264.289,256.656 260.947,254.629 259.912 C 250.952 258.037,246.636 257.612,242.787 258.747 M99.778 259.391 C 85.770 263.818,83.179 284.448,95.836 290.783 C 96.476 291.103,97.270 291.561,97.600 291.800 C 102.668 295.470,114.088 292.657,118.463 286.662 C 128.367 273.089,115.565 254.404,99.778 259.391 M107.578 259.795 C 111.951 260.715,118.800 265.324,118.800 267.347 C 118.800 267.561,119.038 268.021,119.329 268.369 C 121.500 270.961,121.444 282.451,119.252 283.993 C 119.090 284.107,118.570 284.839,118.095 285.621 C 114.206 292.027,104.356 294.573,97.639 290.909 C 94.146 289.003,90.000 284.763,90.000 283.097 C 90.000 282.802,89.850 282.389,89.667 282.180 C 88.052 280.334,88.052 271.666,89.667 269.820 C 89.850 269.611,90.000 269.191,90.000 268.886 C 90.000 266.149,96.695 260.905,101.600 259.800 C 104.592 259.126,104.395 259.126,107.578 259.795 M287.057 260.010 C 273.004 264.978,271.263 283.743,284.133 291.526 C 297.375 299.535,313.878 286.116,308.951 271.346 C 306.418 263.752,300.994 259.612,293.200 259.323 C 290.123 259.209,288.954 259.340,287.057 260.010 M297.429 260.663 C 315.132 266.616,311.249 292.831,292.654 292.896 C 276.178 292.954,269.973 271.457,283.889 262.529 C 287.679 260.098,293.403 259.309,297.429 260.663 M194.745 306.119 C 185.181 309.293,180.532 320.209,184.943 329.133 C 186.011 331.293,189.725 335.460,190.913 335.831 C 191.401 335.983,191.902 336.266,192.026 336.458 C 193.620 338.927,205.770 339.035,207.802 336.598 C 208.022 336.333,208.596 335.992,209.076 335.839 C 209.556 335.687,210.921 334.512,212.109 333.229 C 223.870 320.526,211.154 300.673,194.745 306.119 " stroke="none" fill="#89bcec" fill-rule="evenodd"></path></g></svg>