<svg id="svg" version="1.1" xmlns="http://www.w3.org/2000/svg" xmlns:xlink="http://www.w3.org/1999/xlink" width="400" height="371.4830346930995" viewBox="0, 0, 400,371.4830346930995"><g id="svgg"><path id="path0" d="M352.004 194.292 C 351.607 195.002,351.026 195.996,350.714 196.500 C 349.709 198.121,348.000 201.028,348.000 201.115 C 348.000 201.161,347.587 201.866,347.083 202.681 C 346.579 203.496,346.166 204.220,346.166 204.290 C 346.166 204.360,345.859 204.867,345.484 205.417 C 345.109 205.967,344.611 206.792,344.378 207.250 C 344.146 207.708,343.736 208.403,343.468 208.794 C 343.201 209.184,342.871 209.747,342.736 210.044 C 342.601 210.340,342.155 211.133,341.745 211.806 C 341.335 212.478,341.000 213.063,341.000 213.106 C 341.000 213.149,340.673 213.687,340.274 214.301 C 339.875 214.914,339.266 215.942,338.922 216.583 C 338.577 217.225,338.242 217.787,338.176 217.833 C 338.111 217.879,337.839 218.329,337.573 218.833 C 337.307 219.338,336.732 220.308,336.295 220.991 C 335.858 221.673,335.500 222.303,335.500 222.390 C 335.500 222.477,335.246 222.932,334.936 223.399 C 334.626 223.867,334.109 224.737,333.787 225.333 C 333.465 225.929,332.932 226.818,332.601 227.308 C 332.270 227.799,332.000 228.267,332.000 228.348 C 332.000 228.430,331.667 229.017,331.259 229.652 C 330.852 230.288,330.326 231.170,330.091 231.612 C 329.856 232.055,329.364 232.893,328.998 233.475 C 328.633 234.057,328.333 234.584,328.333 234.645 C 328.333 234.707,327.921 235.392,327.417 236.167 C 326.912 236.942,326.500 237.636,326.500 237.709 C 326.500 237.782,326.210 238.308,325.854 238.879 C 324.376 241.256,324.635 241.865,328.296 244.614 C 331.285 246.859,335.594 251.451,337.079 253.974 C 337.169 254.126,337.520 254.700,337.860 255.250 C 339.933 258.601,342.264 264.426,342.663 267.250 C 342.741 267.800,342.940 268.962,343.105 269.833 C 343.972 274.397,343.329 282.450,341.729 287.083 C 341.317 288.275,340.948 289.407,340.908 289.600 C 340.664 290.785,337.924 295.779,336.125 298.319 C 334.464 300.665,330.780 304.560,329.243 305.596 C 328.880 305.840,328.558 306.106,328.528 306.186 C 328.367 306.609,323.199 309.797,321.249 310.676 C 318.689 311.830,318.389 311.958,317.667 312.213 C 316.494 312.626,312.715 313.646,311.333 313.922 C 309.604 314.267,303.022 314.425,300.167 314.190 C 296.280 313.870,290.408 312.158,287.083 310.376 C 284.155 308.807,283.394 308.315,280.451 306.089 C 276.909 303.410,272.465 298.288,270.685 294.833 C 270.473 294.421,270.050 293.633,269.746 293.083 C 265.673 285.719,264.404 274.961,266.610 266.509 C 266.934 265.267,267.267 263.973,267.349 263.634 C 267.524 262.910,268.024 261.614,268.593 260.411 C 268.817 259.938,269.000 259.442,269.000 259.309 C 269.000 259.176,269.066 258.995,269.147 258.908 C 269.229 258.821,269.675 258.022,270.140 257.132 C 271.028 255.430,273.583 251.500,273.801 251.500 C 273.871 251.500,274.072 251.257,274.248 250.959 C 275.046 249.608,279.292 245.571,281.810 243.771 C 284.289 241.998,284.394 240.710,282.310 237.634 C 281.956 237.112,281.667 236.635,281.667 236.574 C 281.667 236.513,281.275 235.815,280.795 235.023 C 280.316 234.231,279.802 233.358,279.654 233.083 C 279.394 232.604,278.182 230.578,277.211 229.000 C 276.744 228.240,276.535 227.882,275.509 226.083 C 275.195 225.533,274.892 225.046,274.835 225.000 C 274.778 224.954,274.579 224.617,274.392 224.250 C 274.035 223.550,272.823 221.498,271.684 219.667 C 271.314 219.071,270.826 218.233,270.600 217.804 C 270.374 217.375,269.922 216.636,269.595 216.160 C 269.268 215.685,269.000 215.232,269.000 215.153 C 269.000 215.075,268.637 214.427,268.194 213.714 C 267.751 213.000,266.841 211.479,266.171 210.333 C 265.501 209.188,264.676 207.800,264.336 207.250 C 263.570 206.008,262.410 204.057,261.750 202.898 C 261.475 202.416,260.959 201.510,260.602 200.885 C 260.246 200.261,259.600 199.188,259.166 198.500 C 258.732 197.813,258.128 196.800,257.825 196.250 C 257.521 195.700,257.111 195.025,256.913 194.750 C 256.715 194.475,256.457 194.006,256.340 193.708 C 256.064 193.009,255.963 193.022,254.628 193.917 C 254.014 194.329,253.466 194.667,253.413 194.667 C 253.256 194.667,251.256 196.047,251.194 196.197 C 251.164 196.272,251.040 196.333,250.920 196.333 C 250.799 196.333,250.185 196.727,249.555 197.208 C 248.925 197.690,248.289 198.158,248.142 198.250 C 247.700 198.525,244.471 201.029,244.173 201.327 C 244.021 201.479,243.714 201.731,243.491 201.888 C 243.093 202.167,242.215 202.926,240.373 204.583 C 236.874 207.732,231.914 213.069,229.085 216.727 C 228.457 217.540,227.758 218.477,227.532 218.811 C 227.306 219.144,226.969 219.574,226.784 219.766 C 226.599 219.959,226.291 220.376,226.099 220.693 C 225.907 221.010,225.307 221.940,224.766 222.760 C 222.756 225.802,222.500 226.208,222.500 226.344 C 222.500 226.469,221.950 227.364,221.175 228.500 C 221.019 228.729,220.802 229.174,220.693 229.489 C 220.585 229.804,220.395 230.179,220.271 230.323 C 220.147 230.466,219.785 231.108,219.465 231.750 C 219.145 232.392,218.460 233.769,217.942 234.810 C 217.424 235.852,217.000 236.806,217.000 236.930 C 217.000 237.055,216.856 237.440,216.681 237.787 C 216.120 238.894,215.669 239.968,215.173 241.377 C 214.908 242.132,214.429 243.463,214.109 244.333 C 213.790 245.204,213.368 246.479,213.171 247.167 C 212.975 247.854,212.588 249.167,212.311 250.083 C 212.034 251.000,211.746 252.125,211.672 252.583 C 211.597 253.042,211.270 254.579,210.945 256.000 C 210.280 258.907,209.977 260.787,209.590 264.417 C 208.639 273.341,208.759 280.449,210.023 290.167 C 210.195 291.483,210.435 292.690,211.565 297.917 C 212.170 300.718,213.375 304.581,215.348 310.053 C 216.121 312.198,218.869 318.173,220.024 320.223 C 220.378 320.850,220.667 321.413,220.668 321.473 C 220.669 321.596,222.313 324.376,223.287 325.903 C 223.633 326.446,224.094 327.188,224.311 327.553 C 224.527 327.918,225.015 328.648,225.394 329.176 C 226.173 330.259,227.234 331.754,227.789 332.549 C 228.642 333.771,233.132 339.165,234.395 340.484 C 238.007 344.260,240.946 347.005,243.765 349.237 C 244.673 349.957,245.533 350.675,245.674 350.833 C 245.816 350.990,246.253 351.322,246.646 351.570 C 247.038 351.818,247.573 352.211,247.835 352.445 C 248.097 352.678,249.197 353.456,250.281 354.175 C 251.364 354.893,252.550 355.691,252.916 355.949 C 253.282 356.206,253.919 356.612,254.332 356.851 C 254.745 357.090,255.458 357.522,255.917 357.810 C 256.375 358.099,257.087 358.494,257.500 358.688 C 257.912 358.882,258.362 359.133,258.500 359.246 C 259.126 359.758,267.588 363.821,268.667 364.127 C 268.988 364.218,270.004 364.599,270.926 364.973 C 271.848 365.348,273.011 365.765,273.510 365.901 C 274.009 366.036,275.415 366.487,276.634 366.901 C 277.854 367.316,279.129 367.703,279.467 367.762 C 279.806 367.820,280.946 368.089,282.000 368.360 C 284.469 368.992,285.985 369.314,287.333 369.494 C 287.929 369.573,289.411 369.795,290.626 369.987 C 299.827 371.444,309.321 371.422,319.000 369.921 C 320.421 369.701,321.953 369.472,322.406 369.412 C 322.858 369.352,324.433 369.003,325.906 368.636 C 327.378 368.269,329.069 367.863,329.663 367.735 C 331.290 367.383,337.371 365.352,339.083 364.589 C 339.542 364.384,340.142 364.162,340.417 364.096 C 343.087 363.449,354.110 357.499,358.966 354.083 C 361.064 352.608,363.635 350.665,364.000 350.279 C 364.229 350.037,364.496 349.838,364.592 349.836 C 364.688 349.835,365.170 349.477,365.662 349.042 C 371.513 343.862,374.707 340.615,378.946 335.538 C 379.832 334.477,381.734 331.953,382.120 331.328 C 382.319 331.004,382.678 330.516,382.918 330.244 C 383.157 329.972,383.461 329.547,383.594 329.299 C 383.726 329.051,384.164 328.376,384.567 327.799 C 384.969 327.222,385.514 326.375,385.777 325.917 C 386.039 325.458,386.466 324.746,386.724 324.333 C 387.198 323.577,388.386 321.507,388.876 320.583 C 390.270 317.954,392.837 312.537,392.835 312.229 C 392.834 312.126,393.209 311.167,393.667 310.099 C 394.126 309.030,394.569 307.877,394.653 307.536 C 394.736 307.195,395.147 305.942,395.565 304.750 C 395.983 303.558,396.327 302.462,396.329 302.314 C 396.331 302.166,396.660 300.891,397.060 299.481 C 397.459 298.070,397.880 296.392,397.995 295.750 C 398.110 295.108,398.381 293.646,398.598 292.500 C 400.597 281.925,400.592 269.171,398.583 258.333 C 398.353 257.096,398.086 255.633,397.989 255.083 C 397.401 251.761,394.663 243.014,393.086 239.417 C 392.965 239.142,392.793 238.689,392.704 238.411 C 392.314 237.191,388.392 229.264,387.810 228.519 C 387.640 228.301,387.500 228.048,387.500 227.958 C 387.500 227.737,384.356 222.693,383.455 221.471 C 383.342 221.317,382.968 220.792,382.624 220.304 C 382.280 219.816,381.755 219.090,381.457 218.691 C 381.160 218.292,380.617 217.564,380.250 217.072 C 378.303 214.459,375.476 211.287,372.011 207.826 C 368.946 204.766,364.245 200.582,363.275 200.051 C 363.075 199.942,362.575 199.551,362.164 199.182 C 361.753 198.814,361.229 198.416,361.000 198.298 C 360.771 198.180,360.446 197.960,360.279 197.809 C 359.905 197.472,355.760 194.667,355.636 194.667 C 355.586 194.667,354.977 194.292,354.282 193.833 C 352.704 192.793,352.860 192.761,352.004 194.292 " stroke="none" fill="#148cfc" fill-rule="evenodd"></path><path id="path1" d="M90.116 180.439 C 90.085 180.470,89.540 180.526,88.905 180.563 C 86.495 180.704,85.118 180.834,83.379 181.085 C 81.562 181.347,81.053 181.435,78.500 181.931 C 77.721 182.082,76.833 182.194,76.528 182.180 C 76.223 182.166,76.014 182.221,76.065 182.303 C 76.115 182.385,75.960 182.414,75.720 182.368 C 75.422 182.311,75.321 182.345,75.401 182.474 C 75.473 182.591,75.428 182.629,75.282 182.572 C 75.073 182.492,74.351 182.658,70.833 183.595 C 70.329 183.730,69.654 183.878,69.333 183.926 C 69.012 183.973,68.725 184.085,68.694 184.174 C 68.663 184.263,68.578 184.298,68.505 184.253 C 68.432 184.208,67.519 184.474,66.478 184.844 C 65.436 185.214,64.208 185.616,63.750 185.738 C 63.292 185.859,62.617 186.094,62.250 186.261 C 61.883 186.427,61.546 186.574,61.500 186.587 C 61.380 186.622,60.686 186.915,59.917 187.256 C 59.550 187.418,59.156 187.536,59.042 187.518 C 58.927 187.500,58.833 187.551,58.833 187.632 C 58.833 187.712,58.717 187.778,58.574 187.778 C 58.305 187.778,55.980 188.835,55.833 189.024 C 55.788 189.084,55.431 189.218,55.042 189.323 C 54.652 189.427,54.333 189.597,54.333 189.701 C 54.333 189.804,54.287 189.842,54.230 189.785 C 54.117 189.673,52.691 190.350,51.974 190.855 C 51.731 191.026,51.435 191.167,51.317 191.167 C 51.078 191.167,48.804 192.474,48.654 192.698 C 48.602 192.777,48.401 192.872,48.208 192.909 C 47.881 192.972,47.021 193.451,46.833 193.675 C 46.788 193.730,46.431 193.952,46.042 194.168 C 45.652 194.384,45.333 194.627,45.333 194.707 C 45.333 194.787,45.264 194.810,45.180 194.758 C 45.096 194.706,44.914 194.777,44.775 194.915 C 44.637 195.053,44.451 195.167,44.362 195.167 C 44.273 195.167,43.801 195.467,43.313 195.833 C 42.825 196.200,42.347 196.500,42.251 196.500 C 42.156 196.500,41.708 196.805,41.257 197.178 C 40.806 197.550,40.283 197.937,40.094 198.036 C 39.628 198.282,37.764 199.706,37.694 199.869 C 37.664 199.941,37.546 200.000,37.433 200.000 C 37.319 200.000,36.877 200.335,36.450 200.744 C 36.023 201.153,35.466 201.597,35.212 201.730 C 34.958 201.864,34.477 202.264,34.143 202.619 C 33.809 202.975,33.266 203.450,32.936 203.675 C 32.606 203.899,32.335 204.177,32.334 204.292 C 32.334 204.406,32.265 204.500,32.182 204.500 C 32.099 204.500,31.717 204.762,31.333 205.083 C 30.949 205.404,30.686 205.667,30.749 205.667 C 30.812 205.667,30.500 205.956,30.057 206.309 C 29.361 206.864,28.074 208.163,24.150 212.272 C 23.701 212.743,23.333 213.201,23.333 213.291 C 23.333 213.380,23.072 213.707,22.752 214.018 C 22.432 214.329,22.169 214.682,22.168 214.802 C 22.167 214.921,22.095 214.976,22.008 214.922 C 21.921 214.868,21.759 214.995,21.649 215.204 C 21.538 215.412,21.084 215.992,20.640 216.492 C 20.196 216.991,19.833 217.497,19.833 217.617 C 19.833 217.736,19.767 217.833,19.687 217.833 C 19.606 217.833,19.063 218.517,18.479 219.353 C 17.894 220.189,17.135 221.219,16.792 221.642 C 16.448 222.065,16.167 222.495,16.167 222.598 C 16.167 222.702,15.905 223.116,15.585 223.518 C 15.265 223.921,15.003 224.344,15.002 224.458 C 15.001 224.573,14.934 224.667,14.852 224.667 C 14.771 224.667,14.589 224.910,14.447 225.208 C 14.306 225.506,13.847 226.271,13.428 226.909 C 13.009 227.546,12.667 228.123,12.667 228.190 C 12.667 228.258,12.295 228.931,11.842 229.686 C 11.388 230.441,11.055 231.120,11.101 231.196 C 11.148 231.271,11.107 231.333,11.010 231.333 C 10.913 231.333,10.833 231.408,10.833 231.500 C 10.833 231.591,10.469 232.322,10.024 233.125 C 9.579 233.927,9.160 234.771,9.092 235.000 C 9.025 235.229,8.678 235.998,8.321 236.708 C 7.964 237.419,7.718 238.000,7.773 238.000 C 7.829 238.000,7.795 238.096,7.698 238.212 C 7.601 238.329,7.395 238.797,7.241 239.252 C 7.086 239.707,6.740 240.560,6.471 241.147 C 6.202 241.734,5.830 242.709,5.644 243.315 C 5.458 243.921,5.121 244.913,4.896 245.520 C 4.333 247.041,3.672 249.194,3.669 249.520 C 3.668 249.668,3.513 250.268,3.325 250.853 C 2.796 252.500,1.978 255.815,1.914 256.570 C 1.883 256.944,1.778 257.599,1.682 258.024 C 1.039 260.863,0.138 267.657,0.204 269.167 C 0.222 269.580,0.192 269.993,0.137 270.084 C 0.056 270.219,0.061 274.586,0.151 282.667 C 0.156 283.171,0.311 284.783,0.495 286.250 C 0.942 289.814,0.958 289.921,1.426 292.433 C 1.650 293.633,1.835 294.796,1.836 295.016 C 1.838 295.236,2.064 296.279,2.339 297.333 C 2.614 298.387,2.876 299.414,2.921 299.615 C 2.966 299.815,3.151 300.452,3.333 301.031 C 3.514 301.610,3.663 302.240,3.665 302.431 C 3.666 302.622,3.720 302.831,3.784 302.895 C 3.849 302.960,3.926 303.199,3.957 303.427 C 3.988 303.655,4.301 304.646,4.654 305.629 C 5.006 306.612,5.423 307.829,5.579 308.333 C 5.735 308.837,6.107 309.813,6.407 310.500 C 6.706 311.188,7.046 312.050,7.163 312.417 C 7.279 312.783,7.731 313.833,8.168 314.750 C 8.604 315.667,9.011 316.581,9.072 316.781 C 9.133 316.982,9.554 317.829,10.008 318.665 C 10.462 319.500,10.833 320.246,10.833 320.321 C 10.833 320.396,11.246 321.145,11.750 321.985 C 12.254 322.825,12.667 323.585,12.667 323.673 C 12.667 323.761,12.746 323.833,12.843 323.833 C 12.940 323.833,12.981 323.895,12.935 323.971 C 12.865 324.083,13.569 325.232,14.126 325.917 C 14.201 326.008,14.355 326.308,14.468 326.584 C 14.580 326.859,15.039 327.571,15.487 328.167 C 15.935 328.762,16.275 329.293,16.242 329.346 C 16.210 329.399,16.460 329.783,16.800 330.201 C 17.139 330.618,17.867 331.606,18.417 332.396 C 18.967 333.186,19.510 333.833,19.625 333.833 C 19.740 333.833,19.833 333.965,19.833 334.126 C 19.833 334.821,28.693 344.663,30.042 345.466 C 30.294 345.616,30.500 345.821,30.500 345.921 C 30.500 346.022,30.744 346.283,31.042 346.502 C 31.340 346.721,31.846 347.142,32.167 347.439 C 34.109 349.237,34.797 349.834,34.932 349.836 C 35.015 349.838,35.474 350.202,35.951 350.646 C 36.428 351.090,37.046 351.548,37.326 351.663 C 37.605 351.779,37.833 351.936,37.833 352.013 C 37.833 352.089,38.602 352.697,39.542 353.363 C 40.481 354.029,41.305 354.651,41.372 354.745 C 41.440 354.839,41.496 354.860,41.497 354.792 C 41.499 354.723,41.631 354.783,41.792 354.926 C 42.167 355.261,44.786 357.000,44.914 357.000 C 44.967 357.000,45.521 357.336,46.145 357.747 C 46.769 358.158,47.535 358.611,47.848 358.753 C 48.161 358.895,48.792 359.244,49.250 359.529 C 50.526 360.321,51.161 360.667,51.338 360.667 C 51.427 360.667,52.175 361.042,53.000 361.500 C 53.825 361.958,54.571 362.333,54.656 362.333 C 54.742 362.333,55.660 362.746,56.697 363.250 C 57.733 363.754,58.666 364.167,58.770 364.167 C 58.937 364.167,60.341 364.735,61.250 365.171 C 61.906 365.486,63.000 365.816,63.003 365.701 C 63.004 365.636,63.060 365.660,63.128 365.753 C 63.195 365.846,63.550 366.008,63.917 366.112 C 64.283 366.216,65.596 366.639,66.833 367.052 C 68.071 367.465,69.871 368.002,70.833 368.246 C 71.796 368.490,73.137 368.838,73.813 369.021 C 74.490 369.203,75.146 369.313,75.272 369.265 C 75.397 369.217,75.500 369.250,75.500 369.339 C 75.500 369.427,75.727 369.500,76.005 369.500 C 76.282 369.500,77.426 369.685,78.546 369.911 C 86.983 371.615,100.411 371.915,108.583 370.583 C 113.917 369.713,117.287 369.015,119.481 368.325 C 120.342 368.055,121.187 367.833,121.359 367.833 C 121.767 367.833,125.167 366.735,126.279 366.244 C 126.753 366.034,127.184 365.906,127.237 365.959 C 127.290 366.012,127.333 365.970,127.333 365.866 C 127.333 365.762,127.432 365.715,127.554 365.762 C 127.746 365.835,130.101 364.944,130.853 364.513 C 131.001 364.428,131.429 364.276,131.804 364.175 C 132.178 364.074,132.582 363.899,132.701 363.787 C 132.820 363.675,133.067 363.557,133.250 363.525 C 133.433 363.493,133.629 363.393,133.685 363.302 C 133.741 363.212,133.836 363.146,133.895 363.156 C 133.955 363.165,134.222 363.061,134.488 362.923 C 134.755 362.785,135.392 362.516,135.903 362.324 C 136.415 362.133,136.946 361.864,137.083 361.726 C 137.221 361.589,137.333 361.513,137.333 361.558 C 137.333 361.689,141.244 359.643,141.306 359.479 C 141.337 359.398,141.430 359.374,141.514 359.425 C 141.598 359.477,141.667 359.452,141.667 359.370 C 141.667 359.225,142.382 358.818,142.775 358.740 C 142.881 358.718,143.181 358.550,143.442 358.365 C 144.251 357.793,145.395 357.097,145.875 356.885 C 146.127 356.774,146.333 356.600,146.333 356.498 C 146.333 356.397,146.399 356.354,146.479 356.404 C 146.559 356.453,146.836 356.298,147.095 356.058 C 147.353 355.819,147.794 355.525,148.074 355.406 C 148.354 355.286,148.827 354.963,149.125 354.687 C 149.423 354.411,149.667 354.222,149.667 354.266 C 149.667 354.395,151.890 352.833,152.181 352.500 C 152.326 352.333,152.816 351.969,153.268 351.691 C 153.721 351.413,154.246 351.012,154.435 350.801 C 154.870 350.315,155.667 349.640,155.667 349.757 C 155.667 349.886,158.135 347.742,158.914 346.936 C 159.280 346.559,159.626 346.265,159.683 346.284 C 159.741 346.303,160.440 345.651,161.238 344.836 C 162.036 344.021,162.719 343.348,162.757 343.340 C 162.898 343.311,165.829 340.192,167.306 338.500 C 168.146 337.537,169.171 336.364,169.583 335.892 C 169.996 335.420,170.333 334.966,170.333 334.883 C 170.333 334.800,170.704 334.326,171.156 333.828 C 171.609 333.331,171.951 332.895,171.916 332.861 C 171.852 332.797,172.039 332.539,172.519 332.034 C 172.667 331.878,173.300 331.000,173.926 330.083 C 174.552 329.167,175.172 328.307,175.305 328.173 C 175.438 328.039,175.657 327.664,175.792 327.340 C 175.927 327.015,176.093 326.712,176.160 326.667 C 176.310 326.565,177.040 325.410,177.618 324.358 C 177.852 323.932,178.260 323.246,178.523 322.833 C 178.787 322.421,178.995 322.017,178.987 321.935 C 178.978 321.854,179.034 321.741,179.111 321.685 C 179.311 321.539,179.924 320.293,179.875 320.134 C 179.852 320.060,179.898 320.000,179.977 320.000 C 180.132 320.000,181.056 318.325,181.246 317.698 C 181.310 317.485,181.662 316.793,182.027 316.160 C 182.392 315.526,182.648 314.937,182.594 314.851 C 182.541 314.765,182.564 314.670,182.645 314.639 C 182.778 314.588,183.633 312.679,183.726 312.225 C 183.747 312.120,183.859 311.920,183.975 311.780 C 184.091 311.641,184.197 311.371,184.211 311.180 C 184.226 310.989,184.309 310.833,184.397 310.833 C 184.484 310.833,184.506 310.784,184.446 310.724 C 184.386 310.663,184.413 310.521,184.508 310.407 C 184.602 310.294,184.712 310.024,184.752 309.809 C 184.821 309.443,185.046 308.851,185.612 307.545 C 186.001 306.648,186.341 305.624,186.510 304.833 C 186.599 304.421,186.777 303.821,186.906 303.500 C 187.331 302.445,188.283 299.110,188.572 297.667 C 188.916 295.945,188.906 295.987,189.223 294.750 C 189.608 293.248,189.991 291.097,190.172 289.417 C 190.261 288.592,190.487 286.567,190.674 284.917 C 190.876 283.141,191.056 280.166,191.115 277.626 L 191.216 273.335 164.150 273.293 C 136.387 273.249,136.262 273.250,136.423 273.510 C 136.475 273.594,136.415 273.623,136.289 273.575 C 135.401 273.234,134.619 274.822,134.562 277.083 C 134.475 280.538,134.239 281.981,133.058 286.250 C 132.521 288.189,131.505 290.974,131.171 291.417 C 131.102 291.508,130.998 291.783,130.940 292.027 C 130.882 292.271,130.513 293.021,130.120 293.694 C 129.727 294.366,129.266 295.235,129.094 295.625 C 128.923 296.015,128.730 296.333,128.665 296.333 C 128.600 296.333,128.265 296.765,127.920 297.292 C 125.947 300.308,123.063 303.525,120.264 305.833 C 119.542 306.429,118.812 307.048,118.642 307.208 C 118.472 307.369,118.277 307.503,118.208 307.507 C 118.140 307.511,117.686 307.811,117.201 308.174 C 116.716 308.537,116.276 308.833,116.222 308.833 C 116.062 308.833,113.255 310.573,113.194 310.709 C 113.163 310.779,113.075 310.796,112.997 310.748 C 112.919 310.700,112.030 311.075,111.020 311.580 C 110.011 312.086,109.068 312.500,108.924 312.500 C 108.781 312.500,107.820 312.789,106.790 313.143 C 105.064 313.735,103.895 314.059,102.833 314.238 C 102.604 314.277,102.379 314.322,102.333 314.338 C 102.287 314.354,102.006 314.354,101.708 314.337 C 101.410 314.321,101.167 314.370,101.167 314.446 C 101.167 314.521,100.885 314.604,100.542 314.629 C 99.065 314.737,90.691 314.763,90.755 314.659 C 90.818 314.556,90.120 314.436,88.266 314.234 C 87.372 314.136,85.902 313.746,83.873 313.070 C 82.932 312.757,82.087 312.500,81.996 312.500 C 81.804 312.500,80.535 311.950,79.625 311.473 C 79.281 311.293,79.000 311.193,79.000 311.251 C 79.000 311.309,78.882 311.239,78.738 311.095 C 78.594 310.952,78.276 310.786,78.030 310.728 C 77.784 310.670,77.471 310.531,77.333 310.420 C 77.005 310.155,75.286 309.192,75.122 309.182 C 74.982 309.173,73.133 307.843,73.000 307.655 C 72.954 307.591,72.682 307.398,72.394 307.227 C 70.700 306.220,65.162 300.744,64.410 299.333 C 64.288 299.104,63.884 298.552,63.511 298.107 C 63.138 297.661,62.833 297.233,62.833 297.154 C 62.833 297.076,62.421 296.372,61.917 295.591 C 61.412 294.809,61.000 294.071,61.000 293.951 C 61.000 293.830,60.775 293.377,60.500 292.944 C 60.225 292.510,60.000 292.089,60.000 292.008 C 60.000 291.927,59.798 291.461,59.552 290.972 C 59.306 290.483,59.114 289.952,59.125 289.792 C 59.137 289.631,59.092 289.500,59.025 289.500 C 58.959 289.500,58.893 289.353,58.880 289.173 C 58.866 288.993,58.744 288.599,58.609 288.298 C 58.375 287.779,57.972 286.611,57.903 286.250 C 57.885 286.158,57.743 285.633,57.588 285.083 C 57.432 284.533,57.311 283.896,57.319 283.666 C 57.326 283.437,57.219 282.687,57.080 282.000 C 56.557 279.410,56.429 274.238,56.820 271.521 C 56.931 270.753,57.043 269.891,57.068 269.604 C 57.094 269.318,57.158 268.971,57.210 268.833 C 57.262 268.696,57.349 268.208,57.403 267.750 C 57.513 266.806,57.885 265.453,58.350 264.305 C 58.523 263.876,58.691 263.389,58.724 263.221 C 58.756 263.054,58.869 262.706,58.975 262.447 C 59.080 262.189,59.167 261.900,59.167 261.805 C 59.167 261.710,59.351 261.265,59.576 260.816 C 59.802 260.367,59.954 260.000,59.915 260.000 C 59.876 260.000,60.094 259.569,60.399 259.042 C 60.704 258.515,60.998 257.896,61.053 257.667 C 61.108 257.438,61.271 257.100,61.415 256.917 C 61.767 256.469,62.695 255.017,62.980 254.468 C 63.106 254.225,63.502 253.672,63.859 253.239 C 64.216 252.807,64.472 252.417,64.428 252.373 C 64.384 252.328,64.588 252.045,64.882 251.743 C 65.176 251.440,66.429 250.107,67.667 248.779 C 68.904 247.452,70.002 246.358,70.106 246.349 C 70.210 246.341,70.735 245.921,71.272 245.417 C 71.810 244.912,72.314 244.500,72.394 244.500 C 72.473 244.500,72.998 244.153,73.560 243.729 C 74.123 243.305,74.752 242.880,74.958 242.786 C 75.165 242.691,75.333 242.563,75.333 242.501 C 75.333 242.439,75.428 242.389,75.543 242.389 C 75.659 242.389,76.248 242.076,76.853 241.694 C 77.458 241.313,78.033 241.000,78.130 241.000 C 78.228 241.000,79.083 240.634,80.029 240.186 C 81.878 239.311,82.277 239.143,82.667 239.079 C 82.804 239.057,83.404 238.874,84.000 238.674 C 84.596 238.473,85.196 238.284,85.333 238.254 C 85.471 238.223,86.217 238.036,86.990 237.837 C 87.764 237.639,88.739 237.452,89.157 237.423 C 89.575 237.394,90.701 237.277,91.661 237.163 C 93.283 236.971,99.002 237.029,100.667 237.255 C 100.987 237.298,101.603 237.369,102.035 237.412 C 103.049 237.512,105.197 238.055,107.039 238.676 C 107.839 238.946,108.601 239.167,108.731 239.167 C 108.860 239.167,109.619 239.467,110.417 239.833 C 112.438 240.763,114.096 240.647,114.581 239.542 C 114.672 239.335,114.803 239.167,114.873 239.167 C 114.943 239.167,115.000 239.093,115.000 239.003 C 115.000 238.913,115.375 238.297,115.833 237.634 C 116.292 236.971,116.667 236.342,116.667 236.237 C 116.667 236.132,117.042 235.477,117.500 234.782 C 117.958 234.087,118.333 233.448,118.333 233.361 C 118.333 233.275,118.591 232.829,118.907 232.370 C 119.222 231.911,119.435 231.491,119.379 231.435 C 119.323 231.379,119.354 231.333,119.447 231.333 C 119.540 231.333,119.854 230.879,120.145 230.324 C 120.436 229.769,120.930 228.942,121.244 228.487 C 121.557 228.031,121.861 227.508,121.920 227.324 C 121.978 227.141,122.282 226.600,122.596 226.124 C 122.910 225.647,123.167 225.162,123.167 225.045 C 123.167 224.929,123.232 224.833,123.313 224.833 C 123.393 224.833,123.620 224.458,123.817 224.000 C 124.015 223.542,124.237 223.167,124.312 223.167 C 124.387 223.167,124.714 222.650,125.039 222.019 C 125.364 221.388,126.013 220.290,126.481 219.579 C 126.950 218.869,127.333 218.227,127.333 218.154 C 127.333 218.081,127.746 217.364,128.250 216.561 C 128.754 215.758,129.167 215.034,129.167 214.951 C 129.167 214.869,129.335 214.566,129.542 214.277 C 130.070 213.538,131.000 211.983,131.000 211.838 C 131.000 211.771,131.225 211.405,131.501 211.025 C 131.777 210.645,131.945 210.332,131.876 210.331 C 131.807 210.329,131.827 210.273,131.921 210.206 C 132.218 209.992,132.684 209.163,132.591 209.013 C 132.542 208.933,132.595 208.832,132.709 208.788 C 132.823 208.744,133.104 208.325,133.333 207.857 C 133.563 207.388,133.810 207.004,133.884 207.003 C 133.958 207.001,134.175 206.644,134.366 206.208 C 134.558 205.773,134.765 205.379,134.827 205.333 C 134.889 205.287,135.342 204.537,135.834 203.667 C 136.326 202.796,136.839 201.952,136.973 201.792 C 137.108 201.631,137.164 201.500,137.097 201.500 C 137.031 201.500,137.087 201.389,137.223 201.254 C 137.358 201.118,137.827 200.349,138.265 199.545 C 138.703 198.741,139.169 197.976,139.300 197.844 C 139.431 197.712,139.679 197.300,139.851 196.927 C 140.272 196.013,140.698 195.292,141.226 194.600 C 141.468 194.282,141.667 193.935,141.667 193.829 C 141.667 193.722,141.823 193.415,142.014 193.147 L 142.361 192.659 142.005 192.371 C 141.263 191.770,132.482 187.500,131.988 187.500 C 131.891 187.500,131.402 187.313,130.901 187.083 C 130.400 186.854,129.920 186.667,129.834 186.667 C 129.747 186.667,129.393 186.519,129.047 186.338 C 128.700 186.158,128.267 185.987,128.083 185.959 C 127.900 185.930,127.651 185.845,127.531 185.770 C 127.410 185.695,127.267 185.678,127.213 185.732 C 127.158 185.786,127.032 185.763,126.932 185.681 C 126.672 185.468,122.327 184.020,121.650 183.921 C 121.150 183.848,120.247 183.636,119.500 183.417 C 117.381 182.794,115.338 182.302,114.333 182.171 C 113.646 182.082,112.896 181.967,112.667 181.917 C 110.942 181.539,104.892 180.667,103.889 180.652 C 103.629 180.649,102.967 180.611,102.417 180.568 C 101.214 180.474,90.196 180.359,90.116 180.439 " stroke="none" fill="#8cdc64" fill-rule="evenodd"></path><path id="path2" d="M189.333 0.191 C 182.590 0.892,173.508 2.816,168.417 4.622 C 167.408 4.980,166.058 5.448,165.417 5.662 C 164.775 5.876,163.784 6.263,163.214 6.521 C 162.645 6.779,161.970 7.041,161.714 7.103 C 161.023 7.270,153.190 11.011,152.667 11.423 C 152.529 11.532,151.768 11.962,150.975 12.379 C 150.182 12.797,149.154 13.388,148.690 13.694 C 148.226 14.000,147.127 14.700,146.246 15.250 C 145.366 15.800,144.293 16.519,143.863 16.847 C 143.432 17.176,142.810 17.626,142.479 17.847 C 141.119 18.759,138.182 21.053,138.099 21.268 C 138.050 21.396,137.906 21.500,137.778 21.500 C 137.650 21.500,137.179 21.861,136.731 22.302 C 136.282 22.743,135.792 23.174,135.641 23.260 C 135.230 23.495,131.950 26.567,130.512 28.064 C 129.818 28.787,128.818 29.799,128.291 30.314 C 127.763 30.829,127.332 31.338,127.333 31.446 C 127.333 31.554,127.127 31.801,126.875 31.994 C 126.623 32.188,126.063 32.775,125.630 33.298 C 124.370 34.822,122.109 37.699,121.673 38.333 C 121.452 38.654,121.023 39.198,120.719 39.542 C 120.415 39.886,120.167 40.249,120.167 40.349 C 120.167 40.449,119.919 40.819,119.617 41.172 C 119.315 41.525,118.771 42.322,118.409 42.943 C 118.046 43.563,117.580 44.273,117.373 44.521 C 117.165 44.768,116.877 45.253,116.732 45.600 C 116.588 45.946,116.297 46.459,116.085 46.739 C 115.874 47.020,115.403 47.813,115.039 48.500 C 114.675 49.188,114.086 50.279,113.730 50.925 C 112.594 52.987,109.906 58.846,109.374 60.417 C 109.281 60.692,108.869 61.817,108.457 62.917 C 107.793 64.694,107.419 65.820,106.167 69.813 C 105.983 70.398,105.833 71.018,105.833 71.191 C 105.833 71.364,105.579 72.498,105.268 73.711 C 103.962 78.798,103.011 86.132,102.753 93.083 C 102.498 99.967,103.548 110.275,105.163 116.750 C 105.506 118.125,105.832 119.550,105.889 119.917 C 105.946 120.283,106.360 121.708,106.811 123.083 C 107.261 124.458,107.680 125.803,107.742 126.070 C 107.870 126.626,109.078 129.768,109.332 130.206 C 109.424 130.365,109.500 130.621,109.500 130.773 C 109.500 131.038,109.893 131.951,110.768 133.722 C 110.987 134.165,111.167 134.600,111.167 134.690 C 111.167 134.925,114.098 140.768,114.497 141.328 C 114.682 141.589,114.833 141.878,114.833 141.971 C 114.833 142.064,115.206 142.728,115.661 143.445 C 116.117 144.163,116.633 145.059,116.809 145.437 C 116.985 145.815,117.211 146.175,117.312 146.237 C 117.413 146.299,117.789 146.852,118.149 147.467 C 118.509 148.081,119.054 148.913,119.360 149.315 C 119.666 149.717,120.029 150.253,120.167 150.506 C 120.304 150.758,120.657 151.254,120.952 151.607 C 121.246 151.961,121.905 152.813,122.418 153.500 C 123.559 155.032,126.007 158.026,126.818 158.881 C 127.147 159.228,127.812 159.941,128.295 160.464 C 130.101 162.421,132.885 165.152,134.924 166.966 C 136.426 168.302,136.437 168.310,138.457 169.917 C 141.809 172.581,142.025 172.746,142.534 173.029 C 142.810 173.183,143.196 173.456,143.393 173.636 C 143.877 174.080,147.019 176.151,147.992 176.667 C 148.423 176.896,149.014 177.257,149.304 177.469 C 149.951 177.942,150.051 177.884,150.654 176.696 C 150.918 176.176,151.442 175.300,151.817 174.750 C 152.192 174.200,152.499 173.653,152.500 173.535 C 152.500 173.416,152.580 173.229,152.677 173.118 C 153.030 172.717,154.333 170.589,154.333 170.413 C 154.333 170.314,154.550 169.936,154.815 169.575 C 155.080 169.213,155.576 168.392,155.918 167.750 C 156.260 167.108,156.722 166.340,156.944 166.043 C 157.167 165.745,157.477 165.220,157.634 164.876 C 157.790 164.532,158.281 163.694,158.724 163.014 C 159.167 162.334,159.590 161.617,159.665 161.422 C 159.739 161.226,160.024 160.733,160.298 160.325 C 160.572 159.917,161.076 159.058,161.419 158.417 C 161.761 157.775,162.135 157.137,162.251 157.000 C 162.366 156.862,162.858 156.037,163.343 155.167 C 163.828 154.296,164.274 153.546,164.333 153.500 C 164.446 153.413,164.899 152.600,165.076 152.167 C 165.132 152.029,165.473 151.467,165.835 150.917 C 166.196 150.367,166.668 149.579,166.885 149.167 C 167.332 148.314,168.692 146.028,169.562 144.667 C 169.884 144.162,170.227 143.563,170.324 143.333 C 170.421 143.104,170.799 142.467,171.163 141.917 C 171.528 141.367,171.948 140.654,172.096 140.333 C 172.244 140.012,172.610 139.375,172.910 138.917 C 173.209 138.458,173.736 137.558,174.080 136.917 C 174.424 136.275,174.762 135.712,174.831 135.667 C 174.901 135.621,175.352 134.872,175.834 134.002 C 176.316 133.132,176.883 132.194,177.094 131.917 C 178.471 130.112,177.766 128.489,174.708 126.431 C 174.319 126.169,174.000 125.903,174.000 125.839 C 174.000 125.775,173.646 125.469,173.214 125.159 C 172.249 124.465,169.148 121.337,168.488 120.390 C 168.222 120.008,167.935 119.670,167.852 119.640 C 167.664 119.570,165.182 116.044,164.997 115.583 C 164.924 115.400,164.482 114.619,164.015 113.848 C 163.548 113.078,163.167 112.357,163.167 112.248 C 163.167 112.139,162.792 111.254,162.333 110.282 C 161.875 109.311,161.499 108.381,161.499 108.216 C 161.498 108.051,161.306 107.354,161.071 106.667 C 158.858 100.176,158.858 90.657,161.071 84.167 C 161.306 83.479,161.498 82.787,161.499 82.628 C 161.499 82.469,161.806 81.682,162.180 80.878 C 162.554 80.074,163.007 79.029,163.187 78.554 C 163.367 78.080,163.710 77.405,163.948 77.054 C 164.186 76.704,164.614 75.988,164.899 75.463 C 165.424 74.497,166.309 73.191,167.288 71.938 C 167.584 71.560,168.120 70.875,168.479 70.417 C 169.326 69.333,172.449 66.223,173.321 65.593 C 173.695 65.323,174.000 65.048,174.000 64.982 C 174.000 64.915,174.281 64.690,174.625 64.482 C 174.969 64.273,175.550 63.865,175.917 63.573 C 177.619 62.222,183.155 59.318,185.093 58.761 C 185.546 58.630,186.760 58.257,187.791 57.932 C 192.899 56.318,200.589 56.085,206.959 57.350 C 208.412 57.639,213.179 59.269,214.593 59.961 C 215.321 60.317,216.179 60.735,216.500 60.890 C 216.821 61.045,217.496 61.433,218.000 61.751 C 218.504 62.070,219.142 62.444,219.417 62.582 C 219.693 62.720,220.329 63.170,220.833 63.583 C 221.336 63.996,221.838 64.333,221.948 64.333 C 222.058 64.333,222.246 64.468,222.366 64.632 C 222.485 64.796,222.920 65.190,223.332 65.507 C 224.215 66.187,228.000 69.932,228.000 70.125 C 228.000 70.199,228.302 70.557,228.671 70.921 C 229.040 71.285,229.463 71.808,229.612 72.083 C 229.761 72.358,230.121 72.883,230.413 73.250 C 232.206 75.505,234.239 79.655,235.556 83.750 C 239.121 94.831,236.907 109.398,230.414 117.583 C 230.123 117.950,229.788 118.438,229.670 118.667 C 229.551 118.896,229.108 119.472,228.685 119.946 C 228.263 120.421,227.504 121.274,227.000 121.841 C 226.496 122.408,225.858 123.069,225.583 123.311 C 225.308 123.552,224.805 124.031,224.465 124.375 C 224.125 124.719,223.787 125.002,223.715 125.004 C 223.643 125.006,223.145 125.418,222.610 125.920 C 222.074 126.422,221.549 126.835,221.443 126.836 C 221.337 126.838,220.762 127.278,220.167 127.816 L 219.083 128.793 219.083 129.951 C 219.083 130.938,219.147 131.194,219.514 131.680 C 219.750 131.993,220.229 132.775,220.578 133.417 C 220.926 134.058,221.454 134.958,221.749 135.417 C 222.045 135.875,222.400 136.475,222.537 136.750 C 222.756 137.188,223.135 137.837,224.632 140.333 C 224.825 140.654,225.411 141.667,225.936 142.583 C 226.461 143.500,227.058 144.475,227.262 144.750 C 227.467 145.025,227.753 145.512,227.898 145.833 C 228.043 146.154,228.460 146.867,228.825 147.417 C 229.190 147.967,229.534 148.529,229.590 148.667 C 229.645 148.804,229.776 149.067,229.880 149.250 C 230.347 150.074,231.703 152.347,232.316 153.333 C 232.686 153.929,233.187 154.792,233.428 155.250 C 233.670 155.708,234.086 156.408,234.354 156.805 C 234.621 157.202,234.950 157.764,235.085 158.055 C 235.221 158.346,235.627 159.033,235.989 159.583 C 236.352 160.133,236.840 160.958,237.075 161.417 C 237.310 161.875,237.716 162.587,237.978 163.000 C 238.703 164.143,239.867 166.104,240.346 166.993 C 240.583 167.431,241.089 168.258,241.471 168.830 C 241.854 169.403,242.167 169.964,242.167 170.077 C 242.167 170.191,242.391 170.592,242.664 170.970 C 242.938 171.348,243.527 172.315,243.975 173.120 C 244.422 173.925,245.008 174.921,245.277 175.333 C 245.546 175.746,245.903 176.351,246.071 176.677 C 246.726 177.954,246.709 177.948,247.729 177.271 C 248.230 176.939,248.695 176.667,248.763 176.667 C 248.831 176.667,249.435 176.295,250.104 175.841 C 250.774 175.386,251.531 174.905,251.786 174.771 C 252.041 174.638,252.414 174.373,252.616 174.183 C 252.817 173.993,253.304 173.630,253.699 173.376 C 254.972 172.558,258.333 169.978,258.333 169.820 C 258.333 169.736,258.428 169.667,258.544 169.667 C 258.660 169.667,259.167 169.299,259.669 168.849 C 260.172 168.400,261.125 167.556,261.786 166.974 C 263.833 165.175,270.215 158.714,270.898 157.750 C 271.028 157.567,271.479 157.043,271.901 156.587 C 272.322 156.131,272.667 155.662,272.667 155.545 C 272.667 155.429,272.734 155.333,272.817 155.333 C 272.976 155.333,275.708 151.809,276.224 150.936 C 276.393 150.650,276.663 150.267,276.824 150.083 C 277.222 149.629,279.549 146.055,279.916 145.333 C 280.080 145.012,280.263 144.712,280.324 144.667 C 280.683 144.396,284.355 137.506,285.125 135.658 C 285.410 134.975,285.903 133.890,286.221 133.247 C 286.539 132.604,286.890 131.741,286.999 131.330 C 287.109 130.920,287.254 130.508,287.322 130.417 C 287.389 130.325,287.544 129.987,287.665 129.667 C 287.787 129.346,288.024 128.769,288.192 128.385 C 288.361 128.002,288.612 127.253,288.750 126.722 C 288.888 126.191,289.270 125.005,289.598 124.087 C 289.926 123.168,290.334 121.817,290.505 121.083 C 290.675 120.350,291.151 118.362,291.561 116.667 C 294.274 105.448,294.738 92.411,292.831 80.913 C 292.557 79.261,292.333 77.717,292.333 77.482 C 292.333 77.247,291.950 75.561,291.482 73.736 C 291.014 71.910,290.594 70.192,290.549 69.917 C 290.413 69.093,288.408 62.995,287.750 61.404 C 287.413 60.591,287.023 59.586,286.884 59.171 C 286.745 58.756,286.332 57.788,285.967 57.020 C 285.602 56.252,285.208 55.352,285.090 55.020 C 284.973 54.688,284.530 53.789,284.105 53.021 C 283.681 52.254,283.333 51.552,283.333 51.461 C 283.333 51.370,282.958 50.675,282.500 49.917 C 282.042 49.158,281.667 48.471,281.667 48.390 C 281.667 48.309,281.273 47.627,280.792 46.874 C 279.696 45.161,278.346 42.985,277.943 42.284 C 277.774 41.990,277.463 41.563,277.251 41.333 C 277.040 41.104,276.652 40.579,276.390 40.167 C 275.613 38.945,273.117 35.667,272.964 35.667 C 272.886 35.667,272.768 35.519,272.701 35.339 C 272.635 35.159,272.228 34.615,271.798 34.131 C 269.128 31.126,266.821 28.674,265.090 27.000 C 263.999 25.946,262.761 24.746,262.339 24.333 C 261.916 23.921,261.273 23.362,260.910 23.093 C 260.547 22.823,260.191 22.506,260.119 22.388 C 260.047 22.270,259.668 21.955,259.278 21.686 C 258.888 21.418,258.310 20.956,257.993 20.659 C 257.676 20.363,257.229 20.002,257.000 19.857 C 256.771 19.711,256.081 19.197,255.467 18.713 C 254.853 18.229,254.305 17.833,254.248 17.833 C 254.122 17.833,253.070 17.055,252.502 16.542 C 252.273 16.335,251.998 16.167,251.889 16.167 C 251.781 16.167,251.480 15.991,251.221 15.776 C 250.962 15.561,250.075 14.980,249.250 14.486 C 248.425 13.992,247.386 13.343,246.942 13.044 C 246.497 12.745,246.071 12.500,245.995 12.500 C 245.920 12.500,245.258 12.132,244.525 11.682 C 243.792 11.232,243.037 10.815,242.848 10.755 C 242.660 10.695,241.834 10.276,241.013 9.823 C 240.193 9.370,239.414 9.000,239.283 9.000 C 239.151 9.000,238.415 8.673,237.647 8.273 C 236.879 7.873,235.762 7.374,235.167 7.166 C 234.571 6.957,233.708 6.621,233.250 6.419 C 231.747 5.755,228.461 4.607,226.083 3.915 C 223.080 3.040,219.001 1.995,218.234 1.903 C 217.785 1.849,216.742 1.667,215.917 1.499 C 213.618 1.030,210.248 0.516,207.710 0.247 C 205.120 -0.028,191.831 -0.068,189.333 0.191 " stroke="none" fill="#fc2c44" fill-rule="evenodd"></path><path id="path3" d="M98.295 180.454 C 98.594 180.491,99.044 180.490,99.295 180.452 C 99.545 180.414,99.300 180.384,98.750 180.385 C 98.200 180.386,97.995 180.417,98.295 180.454 M150.638 273.292 C 158.093 273.316,170.243 273.316,177.638 273.292 C 185.033 273.268,178.933 273.248,164.083 273.248 C 149.233 273.248,143.183 273.268,150.638 273.292 " stroke="none" fill="#8cdc6c" fill-rule="evenodd"></path><path id="path4" d="" stroke="none" fill="#2c84100" fill-rule="evenodd"></path></g></svg>