<svg id="svg" version="1.1" xmlns="http://www.w3.org/2000/svg" xmlns:xlink="http://www.w3.org/1999/xlink" width="400" height="400" viewBox="0, 0, 400,400"><g id="svgg"><path id="path0" d="M213.088 211.366 C 212.087 212.125,212.195 246.574,213.200 247.209 C 213.560 247.436,223.034 247.590,236.854 247.594 L 259.908 247.600 260.554 246.614 C 261.605 245.009,261.526 212.419,260.469 211.462 C 259.465 210.554,214.279 210.462,213.088 211.366 " stroke="none" fill="#eb048c" fill-rule="evenodd"></path><path id="path1" d="M140.583 152.900 C 140.478 153.175,140.438 161.230,140.496 170.800 L 140.600 188.200 164.500 188.303 L 188.400 188.406 188.400 170.403 L 188.400 152.400 164.587 152.400 C 145.906 152.400,140.734 152.508,140.583 152.900 " stroke="none" fill="#fccc04" fill-rule="evenodd"></path><path id="path2" d="M284.667 41.867 C 284.012 42.522,284.372 280.315,285.029 280.971 C 285.586 281.528,288.300 281.600,308.864 281.600 L 332.072 281.600 332.823 280.700 C 333.703 279.645,334.062 44.011,333.186 42.374 C 332.766 41.589,285.439 41.094,284.667 41.867 M142.000 60.353 L 140.600 60.600 140.498 97.031 L 140.396 133.463 141.298 133.939 C 141.973 134.296,147.990 134.389,165.200 134.308 L 188.200 134.200 188.302 97.350 L 188.404 60.501 187.152 60.250 C 185.548 59.930,143.861 60.024,142.000 60.353 M67.100 119.388 C 66.187 120.643,65.989 356.488,66.900 357.728 C 67.363 358.358,69.192 358.401,91.400 358.304 L 115.400 358.200 115.501 238.929 C 115.592 130.896,115.542 119.599,114.972 119.029 C 114.414 118.471,111.715 118.401,91.071 118.413 L 67.800 118.425 67.100 119.388 M213.029 119.029 C 212.466 119.591,212.400 123.497,212.400 156.032 L 212.400 192.406 236.700 192.303 L 261.000 192.200 261.102 156.289 C 261.195 123.748,261.143 120.286,260.556 119.389 L 259.908 118.400 236.783 118.400 C 216.293 118.400,213.586 118.472,213.029 119.029 M140.667 206.667 C 140.520 206.813,140.400 223.463,140.400 243.667 L 140.400 280.400 164.400 280.400 L 188.400 280.400 188.400 243.400 L 188.400 206.400 164.667 206.400 C 151.613 206.400,140.813 206.520,140.667 206.667 M212.584 266.100 C 212.479 266.375,212.440 282.980,212.497 303.000 L 212.600 339.400 236.354 339.503 C 258.618 339.600,260.141 339.562,260.641 338.903 C 261.385 337.923,261.462 266.822,260.720 266.080 C 260.008 265.368,212.856 265.387,212.584 266.100 " stroke="none" fill="#0c0454" fill-rule="evenodd"></path></g></svg>