<svg id="svg" version="1.1" xmlns="http://www.w3.org/2000/svg" xmlns:xlink="http://www.w3.org/1999/xlink" width="400" height="400" viewBox="0, 0, 400,400"><g id="svgg"><path id="path0" d="M180.500 0.355 C 139.936 3.120,114.660 13.800,106.146 31.770 C 103.613 37.116,103.667 36.405,103.667 64.720 L 103.667 90.000 152.333 90.000 L 201.000 90.000 201.000 96.840 L 201.000 103.679 129.417 103.662 C 54.148 103.645,55.487 103.619,49.515 105.171 C 16.784 113.678,0.167 145.497,0.167 199.667 C 0.167 253.818,15.342 286.956,44.517 296.513 C 50.577 298.498,52.799 298.667,72.959 298.667 L 91.000 298.667 91.000 273.750 C 91.001 247.478,91.136 244.258,92.527 237.333 C 97.084 214.659,111.376 199.558,132.250 195.359 C 138.813 194.039,140.551 194.000,193.262 194.000 C 247.035 194.000,248.451 193.966,255.882 192.484 C 278.041 188.066,292.034 175.005,296.576 154.500 L 297.462 150.500 297.651 99.667 C 297.857 44.299,297.883 45.242,295.986 39.566 C 288.819 18.117,264.023 4.919,223.167 0.807 C 216.928 0.179,187.631 -0.132,180.500 0.355 M149.636 31.513 C 162.579 34.564,167.356 50.804,158.082 60.223 C 151.101 67.314,140.509 67.392,133.487 60.406 C 121.297 48.278,132.876 27.563,149.636 31.513 " stroke="none" fill="#3472a4" fill-rule="evenodd"></path><path id="path1" d="M310.333 127.259 C 310.333 158.204,310.197 159.907,306.904 170.000 C 301.169 187.581,289.022 199.124,271.623 203.526 C 263.739 205.521,266.473 205.432,206.000 205.668 C 145.733 205.903,149.748 205.776,142.273 207.683 C 122.011 212.851,108.840 225.990,105.033 244.833 C 103.711 251.376,103.630 255.171,103.734 305.667 L 103.833 354.167 104.712 357.333 C 112.770 386.382,151.963 401.672,212.527 399.395 C 263.100 397.494,292.669 384.256,297.527 361.341 C 297.896 359.602,297.990 354.175,297.994 334.250 L 298.000 309.333 249.333 309.333 L 200.667 309.333 200.667 302.667 L 200.667 296.000 271.150 296.000 C 347.678 296.000,345.197 296.056,352.430 294.176 C 376.893 287.820,393.236 266.194,399.156 232.342 L 400.000 227.517 400.000 199.330 L 400.000 171.144 399.163 166.043 C 393.666 132.546,379.525 110.921,358.078 103.214 C 352.177 101.094,350.974 101.000,329.698 101.000 L 310.333 101.000 310.333 127.259 M261.154 334.735 C 273.426 338.769,277.119 354.205,267.996 363.329 C 259.960 371.364,246.022 369.383,240.767 359.459 C 233.431 345.602,246.393 329.882,261.154 334.735 " stroke="none" fill="#fcd343" fill-rule="evenodd"></path></g></svg>