<svg id="svg" version="1.1" xmlns="http://www.w3.org/2000/svg" xmlns:xlink="http://www.w3.org/1999/xlink" width="400" height="400" viewBox="0, 0, 400,400"><g id="svgg"><path id="path0" d="M224.800 0.398 C 224.800 0.651,224.485 0.791,224.100 0.709 C 223.715 0.627,223.017 0.960,222.548 1.448 C 221.888 2.137,221.583 2.231,221.190 1.868 C 220.834 1.540,220.759 1.536,220.938 1.856 C 221.247 2.409,216.525 4.925,215.902 4.539 C 215.650 4.384,215.594 4.466,215.764 4.741 C 215.930 5.011,215.746 5.314,215.325 5.464 C 214.926 5.606,214.292 5.986,213.915 6.309 C 213.538 6.633,212.959 6.793,212.628 6.666 C 212.297 6.539,211.902 6.635,211.751 6.879 C 211.585 7.148,211.659 7.211,211.938 7.038 C 212.192 6.881,212.400 6.943,212.400 7.176 C 212.400 7.409,212.085 7.606,211.700 7.613 C 211.315 7.620,210.668 7.877,210.261 8.185 C 209.855 8.493,209.288 8.655,209.002 8.545 C 208.715 8.435,208.345 8.566,208.179 8.835 C 207.973 9.168,208.043 9.221,208.400 9.000 C 208.757 8.780,208.827 8.832,208.622 9.165 C 208.456 9.433,208.228 9.561,208.116 9.449 C 207.904 9.237,206.182 10.096,204.318 11.344 C 203.722 11.743,203.019 11.936,202.756 11.773 C 202.470 11.596,202.381 11.646,202.536 11.896 C 202.822 12.358,201.728 12.926,201.192 12.595 C 201.007 12.480,200.725 12.598,200.566 12.855 C 200.373 13.167,200.451 13.216,200.800 13.000 C 201.146 12.786,201.227 12.833,201.038 13.138 C 200.881 13.392,200.364 13.600,199.889 13.600 C 199.414 13.600,198.639 14.050,198.166 14.600 C 197.694 15.150,196.853 15.638,196.298 15.684 C 195.721 15.731,195.365 15.966,195.467 16.231 C 195.581 16.526,195.262 16.653,194.592 16.579 C 193.885 16.502,193.601 16.627,193.729 16.960 C 193.951 17.537,190.544 18.936,189.895 18.535 C 189.650 18.384,189.596 18.469,189.764 18.741 C 189.930 19.010,189.745 19.318,189.325 19.474 C 188.926 19.621,188.489 19.907,188.352 20.110 C 188.216 20.312,187.654 20.506,187.103 20.539 C 186.483 20.577,186.175 20.790,186.294 21.100 C 186.416 21.417,186.122 21.600,185.492 21.600 C 184.945 21.600,184.267 21.878,183.985 22.218 C 183.703 22.558,183.246 22.750,182.969 22.643 C 182.692 22.537,182.367 22.709,182.246 23.025 C 182.124 23.341,181.649 23.600,181.189 23.600 C 180.729 23.600,180.464 23.780,180.600 24.000 C 180.736 24.220,180.579 24.400,180.252 24.400 C 179.925 24.400,179.386 24.671,179.055 25.002 C 178.724 25.334,178.004 25.642,177.455 25.687 C 176.907 25.733,176.545 25.912,176.652 26.085 C 176.845 26.396,176.253 26.552,175.321 26.435 C 175.057 26.402,174.638 26.754,174.390 27.219 C 173.966 28.010,171.801 29.092,171.070 28.877 C 170.889 28.824,170.855 28.965,170.994 29.190 C 171.133 29.416,170.967 29.623,170.624 29.650 C 169.316 29.755,169.161 29.815,168.830 30.351 C 168.643 30.654,168.289 30.779,168.045 30.628 C 167.800 30.476,167.600 30.591,167.600 30.882 C 167.600 31.535,164.520 32.921,163.908 32.543 C 163.620 32.365,163.554 32.503,163.719 32.934 C 163.965 33.573,163.572 33.761,162.104 33.708 C 161.832 33.698,161.682 33.809,161.771 33.953 C 161.860 34.098,161.051 34.687,159.971 35.262 C 158.892 35.837,158.112 36.104,158.237 35.854 C 158.362 35.604,158.034 35.850,157.507 36.400 C 156.587 37.361,155.953 37.684,154.918 37.718 C 154.652 37.726,154.528 37.883,154.641 38.067 C 154.835 38.381,154.676 38.438,153.200 38.580 C 152.870 38.611,152.645 38.854,152.700 39.119 C 152.785 39.530,152.059 39.782,151.138 39.660 C 150.994 39.641,150.666 39.879,150.409 40.189 C 150.152 40.499,149.698 40.659,149.401 40.545 C 149.104 40.431,148.659 40.717,148.411 41.180 C 148.163 41.643,147.812 41.931,147.630 41.819 C 147.449 41.707,146.819 42.062,146.230 42.607 C 145.641 43.153,145.009 43.600,144.825 43.600 C 144.642 43.600,143.989 43.861,143.374 44.180 C 142.760 44.498,142.082 44.650,141.867 44.518 C 141.649 44.383,141.604 44.482,141.764 44.742 C 142.078 45.250,140.449 46.054,139.838 45.691 C 139.639 45.573,139.605 45.684,139.762 45.938 C 140.019 46.354,139.257 46.609,138.270 46.437 C 138.089 46.406,138.055 46.565,138.194 46.791 C 138.486 47.263,136.524 48.124,135.957 47.773 C 135.750 47.645,135.630 47.779,135.690 48.070 C 135.751 48.362,135.530 48.600,135.200 48.600 C 134.870 48.600,134.456 48.825,134.280 49.100 C 134.104 49.375,133.718 49.600,133.423 49.600 C 133.127 49.600,132.778 49.882,132.646 50.226 C 132.502 50.599,132.042 50.801,131.503 50.726 C 130.945 50.648,130.638 50.791,130.700 51.100 C 130.762 51.408,130.355 51.600,129.643 51.600 C 128.989 51.600,128.387 51.858,128.258 52.193 C 128.129 52.529,127.765 52.685,127.419 52.552 C 127.065 52.416,126.706 52.580,126.568 52.939 C 126.437 53.281,125.670 53.776,124.865 54.039 C 124.059 54.301,122.974 54.848,122.453 55.253 C 121.932 55.658,121.319 55.874,121.091 55.733 C 120.861 55.590,120.795 55.669,120.944 55.909 C 121.091 56.148,120.849 56.457,120.406 56.598 C 119.963 56.739,119.600 57.022,119.600 57.227 C 119.600 57.432,119.169 57.600,118.643 57.600 C 118.116 57.600,117.577 57.882,117.445 58.228 C 117.285 58.645,116.935 58.770,116.402 58.601 C 115.849 58.425,115.600 58.528,115.600 58.930 C 115.600 59.609,114.523 60.123,113.902 59.739 C 113.666 59.594,113.592 59.664,113.736 59.896 C 114.030 60.372,112.921 60.922,112.364 60.578 C 112.164 60.454,112.000 60.591,112.000 60.882 C 112.000 61.426,108.991 63.010,108.104 62.933 C 107.832 62.910,107.680 63.007,107.768 63.149 C 107.856 63.291,107.224 63.750,106.364 64.168 C 105.504 64.586,104.800 65.080,104.800 65.264 C 104.800 65.449,104.459 65.600,104.043 65.600 C 103.626 65.600,103.185 65.862,103.062 66.183 C 102.927 66.534,102.392 66.733,101.719 66.683 C 101.004 66.630,100.636 66.781,100.700 67.100 C 100.755 67.375,100.530 67.600,100.200 67.600 C 99.870 67.600,99.600 67.780,99.600 68.000 C 99.600 68.220,99.409 68.400,99.176 68.400 C 98.943 68.400,98.867 68.175,99.006 67.900 C 99.145 67.625,98.988 67.733,98.656 68.140 C 98.325 68.547,97.857 68.759,97.617 68.610 C 97.377 68.462,97.230 68.489,97.290 68.670 C 97.351 68.852,97.284 69.000,97.142 69.000 C 97.000 69.000,96.474 69.360,95.973 69.800 C 95.400 70.303,95.173 70.378,95.361 70.000 C 95.626 69.467,95.600 69.467,95.130 70.000 C 94.350 70.884,90.423 72.861,89.986 72.591 C 89.779 72.463,89.694 72.593,89.797 72.879 C 90.014 73.483,87.040 74.995,86.406 74.604 C 86.179 74.464,85.886 74.631,85.754 74.975 C 85.622 75.319,85.253 75.600,84.934 75.600 C 84.614 75.600,84.464 75.780,84.600 76.000 C 84.824 76.363,84.200 76.552,82.916 76.510 C 82.649 76.501,82.469 76.690,82.516 76.929 C 82.562 77.168,82.375 77.394,82.100 77.432 C 81.825 77.469,81.465 77.544,81.300 77.597 C 81.135 77.651,80.865 77.673,80.700 77.647 C 80.535 77.621,80.400 77.870,80.400 78.200 C 80.400 78.530,80.055 78.800,79.633 78.800 C 79.212 78.800,78.807 78.978,78.733 79.197 C 78.660 79.415,78.118 79.633,77.529 79.681 C 76.940 79.730,76.545 79.912,76.652 80.085 C 76.836 80.382,76.671 80.438,75.200 80.580 C 74.870 80.611,74.645 80.854,74.700 81.119 C 74.755 81.383,74.595 81.600,74.344 81.600 C 74.093 81.600,73.649 81.915,73.357 82.300 C 72.981 82.795,72.822 82.841,72.813 82.456 C 72.805 82.119,72.484 82.271,71.970 82.856 C 71.513 83.375,71.253 83.575,71.393 83.300 C 71.533 83.025,71.534 82.800,71.395 82.800 C 71.256 82.800,70.892 83.025,70.585 83.300 C 69.082 84.648,68.716 84.853,68.179 84.647 C 67.836 84.516,67.600 84.664,67.600 85.013 C 67.600 85.336,67.235 85.600,66.787 85.600 C 66.341 85.600,65.881 85.844,65.767 86.143 C 65.652 86.441,65.123 86.638,64.591 86.579 C 64.038 86.519,63.662 86.668,63.712 86.927 C 63.760 87.177,63.403 87.442,62.917 87.516 C 62.432 87.590,61.622 88.086,61.117 88.619 C 60.581 89.184,59.738 89.589,59.087 89.593 C 58.454 89.597,57.872 89.868,57.736 90.223 C 57.602 90.572,57.236 90.746,56.904 90.618 C 56.497 90.462,56.383 90.579,56.541 90.991 C 56.668 91.321,56.643 91.571,56.486 91.548 C 55.490 91.399,54.392 91.663,54.600 92.000 C 54.736 92.220,54.579 92.400,54.252 92.400 C 53.925 92.400,53.365 92.693,53.007 93.050 C 52.650 93.408,51.920 93.700,51.386 93.700 C 50.852 93.700,50.483 93.813,50.566 93.950 C 50.649 94.088,50.286 94.523,49.759 94.919 C 49.231 95.314,48.800 95.464,48.800 95.252 C 48.800 95.040,49.025 94.776,49.300 94.665 C 49.692 94.507,49.689 94.456,49.287 94.432 C 49.006 94.414,48.671 94.670,48.545 95.000 C 48.418 95.330,48.083 95.600,47.800 95.600 C 47.517 95.600,47.178 95.881,47.046 96.225 C 46.914 96.569,46.623 96.738,46.400 96.600 C 46.177 96.462,45.891 96.620,45.764 96.950 C 45.637 97.281,45.008 97.666,44.367 97.807 C 43.725 97.948,43.200 98.219,43.200 98.409 C 43.200 98.599,42.835 98.684,42.389 98.598 C 41.943 98.512,41.673 98.594,41.788 98.781 C 42.035 99.181,39.010 100.840,38.292 100.697 C 38.022 100.644,37.845 100.825,37.900 101.100 C 37.986 101.532,36.908 101.818,35.870 101.637 C 35.689 101.606,35.655 101.765,35.794 101.990 C 35.933 102.216,35.767 102.400,35.424 102.400 C 35.081 102.400,34.800 102.591,34.800 102.824 C 34.800 103.057,34.647 103.153,34.461 103.037 C 34.274 102.922,33.741 103.181,33.277 103.614 C 32.319 104.507,31.822 104.641,32.223 103.900 C 32.372 103.625,32.047 103.895,31.500 104.500 C 30.954 105.105,30.046 105.638,29.482 105.685 C 28.919 105.732,28.534 105.893,28.627 106.043 C 28.846 106.398,27.630 106.866,27.192 106.595 C 27.007 106.480,26.725 106.598,26.566 106.855 C 26.385 107.148,26.450 107.216,26.738 107.038 C 26.992 106.881,27.200 106.858,27.200 106.986 C 27.200 107.264,25.130 108.157,24.700 108.065 C 24.535 108.029,24.400 108.199,24.400 108.443 C 24.400 108.686,24.139 108.786,23.820 108.663 C 23.441 108.517,23.315 108.633,23.455 108.998 C 23.589 109.347,23.394 109.562,22.934 109.572 C 21.369 109.609,20.843 109.746,21.041 110.067 C 21.155 110.250,21.069 110.400,20.852 110.400 C 20.635 110.400,20.176 110.681,19.833 111.025 C 19.489 111.368,18.859 111.675,18.432 111.708 C 18.005 111.740,17.688 111.926,17.728 112.121 C 17.767 112.317,17.386 112.637,16.880 112.833 C 16.288 113.062,16.046 113.049,16.203 112.795 C 16.337 112.578,16.257 112.400,16.024 112.400 C 15.791 112.400,15.600 112.670,15.600 113.000 C 15.600 113.340,15.241 113.600,14.771 113.600 C 14.316 113.600,13.671 113.872,13.339 114.204 C 13.007 114.536,12.570 114.705,12.368 114.580 C 12.165 114.455,12.000 114.523,12.000 114.730 C 12.000 114.938,11.528 115.417,10.951 115.795 C 10.374 116.174,10.024 116.284,10.174 116.041 C 10.645 115.280,10.078 115.559,9.036 116.600 C 8.486 117.150,7.704 117.600,7.298 117.600 C 6.892 117.600,6.335 117.825,6.060 118.100 C 5.785 118.375,5.344 118.608,5.080 118.618 C 4.816 118.628,4.645 118.853,4.700 119.118 C 4.760 119.407,4.332 119.600,3.633 119.600 C 2.992 119.600,2.403 119.790,2.326 120.022 C 2.249 120.254,1.879 120.489,1.504 120.544 C 1.130 120.599,0.683 120.798,0.512 120.986 C 0.340 121.174,0.470 121.196,0.800 121.034 C 1.130 120.873,1.053 121.022,0.629 121.366 C 0.205 121.710,-0.065 122.052,0.029 122.126 C 0.763 122.705,5.528 125.373,10.000 127.709 C 13.842 129.716,16.000 130.892,20.000 133.159 C 21.210 133.845,23.460 135.048,25.000 135.832 C 27.810 137.262,29.742 138.305,34.200 140.798 C 35.520 141.536,38.220 142.982,40.200 144.012 C 42.180 145.041,44.790 146.448,46.000 147.139 C 47.210 147.829,49.010 148.800,50.000 149.297 C 50.990 149.793,51.890 150.289,52.000 150.400 C 54.203 152.607,57.499 153.063,60.291 151.546 C 63.776 149.652,67.424 147.695,71.200 145.693 C 73.070 144.702,75.140 143.578,75.800 143.197 C 76.460 142.816,78.440 141.734,80.200 140.793 C 81.960 139.853,84.300 138.594,85.400 137.995 C 86.500 137.397,88.660 136.231,90.200 135.405 C 93.762 133.495,97.695 131.359,100.000 130.085 C 100.990 129.537,103.060 128.420,104.600 127.602 C 109.931 124.771,113.407 122.899,115.000 122.002 C 115.880 121.506,118.130 120.286,120.000 119.291 C 121.870 118.296,124.300 116.995,125.400 116.400 C 126.500 115.805,128.930 114.504,130.800 113.509 C 132.670 112.514,134.920 111.294,135.800 110.798 C 137.317 109.943,139.841 108.583,146.200 105.191 C 151.339 102.451,154.187 100.913,155.612 100.109 C 157.783 98.884,165.973 94.491,172.400 91.103 C 174.050 90.234,175.580 89.386,175.800 89.220 C 176.020 89.055,177.730 88.105,179.600 87.111 C 183.682 84.942,187.354 82.969,190.600 81.203 C 191.920 80.484,194.260 79.223,195.800 78.399 C 197.340 77.576,199.410 76.456,200.400 75.912 C 201.390 75.368,203.820 74.060,205.800 73.005 C 207.780 71.951,210.300 70.598,211.400 69.998 C 212.500 69.398,214.660 68.232,216.200 67.407 C 217.740 66.583,219.900 65.413,221.000 64.809 C 222.100 64.204,224.104 63.122,225.453 62.403 L 227.906 61.097 230.653 62.485 C 232.164 63.249,234.120 64.289,235.000 64.798 C 235.880 65.307,238.310 66.617,240.400 67.709 C 244.003 69.591,246.860 71.143,250.000 72.925 C 250.770 73.362,253.200 74.658,255.400 75.805 C 257.600 76.952,260.030 78.245,260.800 78.680 C 261.570 79.114,263.280 80.061,264.600 80.783 C 265.920 81.506,267.171 82.256,267.380 82.449 C 267.589 82.642,268.069 82.800,268.447 82.800 C 268.824 82.800,269.193 82.935,269.267 83.100 C 269.340 83.265,270.210 83.806,271.200 84.303 C 272.190 84.800,273.990 85.764,275.200 86.447 C 279.999 89.154,281.945 90.216,285.400 92.012 C 287.380 93.041,289.990 94.448,291.200 95.139 C 292.410 95.829,294.210 96.800,295.200 97.297 C 296.190 97.793,297.090 98.289,297.200 98.400 C 297.310 98.510,298.570 99.187,300.000 99.905 C 301.430 100.622,303.860 101.928,305.400 102.807 C 306.940 103.685,309.460 105.046,311.000 105.831 C 313.812 107.263,315.751 108.310,320.200 110.798 C 321.520 111.536,324.220 112.981,326.200 114.009 C 328.180 115.037,330.430 116.236,331.200 116.674 C 331.970 117.111,333.680 118.068,335.000 118.800 C 336.320 119.532,338.155 120.552,339.077 121.066 C 341.304 122.306,342.404 122.245,345.122 120.729 C 347.465 119.422,348.931 118.631,354.800 115.509 C 356.670 114.514,358.920 113.294,359.800 112.798 C 361.393 111.901,364.869 110.029,370.200 107.198 C 371.740 106.380,373.810 105.263,374.800 104.715 C 379.336 102.206,390.710 96.085,395.307 93.678 C 396.355 93.129,397.651 92.274,398.186 91.778 C 398.721 91.282,399.245 91.044,399.349 91.248 C 399.454 91.453,399.493 91.391,399.436 91.110 C 399.378 90.830,399.077 90.576,398.766 90.546 C 398.455 90.517,397.964 90.472,397.676 90.446 C 397.388 90.421,397.264 90.220,397.400 90.000 C 397.544 89.767,397.137 89.600,396.424 89.600 C 395.751 89.600,395.200 89.423,395.200 89.208 C 395.200 88.992,394.751 88.703,394.203 88.565 C 393.654 88.427,393.291 88.176,393.396 88.006 C 393.501 87.836,393.038 87.588,392.367 87.453 C 391.696 87.319,391.258 87.029,391.394 86.809 C 391.538 86.577,391.381 86.509,391.021 86.647 C 390.660 86.786,390.400 86.672,390.400 86.376 C 390.400 86.096,390.285 85.981,390.145 86.122 C 390.005 86.262,389.420 86.044,388.845 85.639 C 388.270 85.233,386.939 84.511,385.886 84.034 C 384.834 83.558,384.056 83.032,384.159 82.867 C 384.261 82.701,383.968 82.538,383.508 82.503 C 383.048 82.468,382.546 82.236,382.391 81.986 C 382.237 81.736,381.996 81.547,381.855 81.566 C 380.878 81.697,380.400 81.523,380.400 81.035 C 380.400 80.725,380.089 80.516,379.708 80.572 C 379.328 80.628,378.794 80.477,378.522 80.237 C 377.172 79.044,376.789 78.800,376.266 78.800 C 375.954 78.800,375.474 78.530,375.200 78.200 C 374.926 77.870,374.364 77.600,373.951 77.600 C 373.538 77.600,373.200 77.353,373.200 77.052 C 373.200 76.736,372.819 76.525,372.300 76.552 C 371.805 76.578,371.439 76.393,371.486 76.141 C 371.534 75.885,371.262 75.763,370.871 75.866 C 370.481 75.968,369.837 75.682,369.422 75.225 C 369.012 74.771,368.434 74.400,368.138 74.400 C 367.842 74.400,367.600 74.220,367.600 74.000 C 367.600 73.780,367.465 73.621,367.300 73.647 C 367.135 73.673,366.865 73.651,366.700 73.597 C 366.535 73.544,366.175 73.469,365.900 73.432 C 365.625 73.394,365.443 73.153,365.495 72.896 C 365.549 72.632,365.331 72.528,364.995 72.657 C 364.668 72.783,364.400 72.692,364.400 72.455 C 364.400 72.219,364.130 72.129,363.800 72.255 C 363.470 72.382,363.200 72.307,363.200 72.089 C 363.200 71.872,362.822 71.594,362.360 71.474 C 361.819 71.332,361.628 71.078,361.825 70.759 C 362.035 70.420,361.934 70.340,361.505 70.504 C 361.160 70.637,360.756 70.622,360.606 70.472 C 360.456 70.323,360.213 70.184,360.067 70.165 C 359.229 70.057,358.400 69.435,358.400 68.914 C 358.400 68.568,358.166 68.404,357.846 68.527 C 357.541 68.644,356.935 68.490,356.498 68.184 C 356.062 67.878,355.617 67.716,355.510 67.824 C 355.402 67.931,355.086 67.745,354.808 67.410 C 354.530 67.074,354.119 66.800,353.895 66.800 C 353.671 66.800,353.288 66.533,353.044 66.207 C 352.800 65.882,352.150 65.542,351.600 65.453 C 351.050 65.364,350.649 65.077,350.710 64.816 C 350.770 64.554,350.652 64.444,350.446 64.572 C 349.915 64.900,348.759 64.390,349.032 63.948 C 349.157 63.746,349.111 63.606,348.930 63.637 C 348.049 63.791,347.178 63.560,347.383 63.228 C 347.509 63.023,347.430 62.742,347.207 62.604 C 346.983 62.466,346.800 62.526,346.800 62.739 C 346.800 62.966,346.391 62.935,345.803 62.662 C 345.255 62.408,344.805 62.065,344.803 61.900 C 344.801 61.735,344.440 61.600,344.000 61.600 C 343.560 61.600,343.245 61.383,343.300 61.118 C 343.355 60.853,343.175 60.606,342.900 60.568 C 342.625 60.531,342.254 60.477,342.075 60.450 C 341.897 60.423,341.402 60.085,340.975 59.700 C 340.549 59.315,340.020 58.980,339.800 58.957 C 338.912 58.860,337.600 58.288,337.600 57.997 C 337.600 57.826,337.143 57.572,336.584 57.432 C 336.024 57.291,335.683 56.990,335.824 56.762 C 335.965 56.533,335.837 56.380,335.540 56.421 C 334.493 56.564,333.956 56.396,334.200 56.000 C 334.345 55.766,333.923 55.600,333.181 55.600 C 332.178 55.600,331.966 55.465,332.163 54.952 C 332.353 54.456,332.226 54.352,331.621 54.510 C 331.185 54.624,330.621 54.466,330.366 54.159 C 330.111 53.851,329.583 53.600,329.194 53.600 C 328.804 53.600,328.381 53.328,328.254 52.996 C 328.127 52.664,327.792 52.439,327.511 52.496 C 327.230 52.553,327.033 52.412,327.072 52.183 C 327.112 51.954,326.779 51.739,326.332 51.705 C 325.886 51.671,325.313 51.392,325.060 51.084 C 324.807 50.776,323.970 50.279,323.200 49.980 C 322.430 49.682,321.613 49.191,321.385 48.890 C 321.156 48.590,320.796 48.378,320.585 48.419 C 319.659 48.601,318.773 48.367,319.000 48.000 C 319.140 47.773,318.804 47.600,318.224 47.600 C 317.661 47.600,317.245 47.405,317.300 47.167 C 317.355 46.929,316.598 46.414,315.618 46.023 C 314.639 45.631,313.772 45.116,313.693 44.878 C 313.613 44.640,313.313 44.535,313.026 44.645 C 312.738 44.756,312.223 44.566,311.880 44.223 C 311.537 43.880,310.985 43.600,310.652 43.600 C 310.319 43.600,309.919 43.392,309.762 43.138 C 309.570 42.828,309.660 42.783,310.038 43.002 C 310.356 43.187,310.461 43.176,310.281 42.978 C 310.105 42.786,309.484 42.603,308.900 42.572 C 308.316 42.540,307.770 42.309,307.686 42.057 C 307.602 41.806,307.278 41.600,306.967 41.600 C 306.655 41.600,306.400 41.319,306.400 40.976 C 306.400 40.633,306.212 40.469,305.982 40.611 C 305.753 40.753,305.129 40.583,304.596 40.234 C 304.064 39.886,303.352 39.600,303.014 39.600 C 302.676 39.600,302.400 39.330,302.400 39.000 C 302.400 38.623,302.020 38.400,301.376 38.400 C 300.796 38.400,300.460 38.227,300.600 38.000 C 300.736 37.780,300.586 37.600,300.266 37.600 C 299.947 37.600,299.575 37.311,299.439 36.958 C 299.304 36.606,298.938 36.415,298.626 36.535 C 298.314 36.654,297.848 36.499,297.591 36.189 C 297.334 35.879,297.006 35.641,296.862 35.660 C 295.953 35.780,295.190 35.540,295.400 35.200 C 295.541 34.973,295.200 34.800,294.611 34.800 C 294.041 34.800,293.481 34.556,293.367 34.257 C 293.252 33.959,292.439 33.477,291.559 33.186 C 290.680 32.896,289.851 32.483,289.718 32.268 C 289.574 32.034,289.687 32.007,290.000 32.200 C 290.346 32.414,290.427 32.367,290.238 32.062 C 290.081 31.808,289.597 31.600,289.162 31.600 C 288.483 31.600,286.629 30.667,286.000 30.009 C 285.890 29.894,285.458 29.741,285.040 29.669 C 284.622 29.597,284.039 29.296,283.744 29.001 C 283.449 28.706,282.576 28.256,281.804 28.001 C 281.032 27.746,280.400 27.288,280.400 26.982 C 280.400 26.675,280.159 26.518,279.864 26.631 C 279.569 26.744,279.097 26.558,278.815 26.218 C 278.533 25.878,277.874 25.600,277.351 25.600 C 276.772 25.600,276.400 25.365,276.400 25.000 C 276.400 24.670,276.265 24.429,276.100 24.465 C 275.504 24.593,273.575 23.599,273.366 23.056 C 273.249 22.750,272.676 22.500,272.093 22.500 C 271.510 22.500,270.966 22.297,270.883 22.050 C 270.801 21.803,270.388 21.600,269.967 21.600 C 269.545 21.600,269.200 21.423,269.200 21.208 C 269.200 20.992,268.751 20.703,268.203 20.565 C 267.654 20.427,267.308 20.149,267.432 19.947 C 267.557 19.745,267.511 19.620,267.330 19.669 C 266.695 19.841,265.191 19.139,265.415 18.776 C 265.540 18.574,265.355 18.519,265.006 18.653 C 264.656 18.787,264.062 18.633,263.685 18.309 C 263.308 17.986,262.674 17.606,262.275 17.464 C 261.876 17.322,261.660 17.026,261.795 16.807 C 261.937 16.579,261.781 16.509,261.431 16.643 C 261.095 16.772,260.533 16.590,260.182 16.239 C 259.830 15.887,259.176 15.600,258.729 15.600 C 258.182 15.600,257.987 15.410,258.137 15.020 C 258.278 14.652,258.167 14.515,257.831 14.643 C 257.541 14.755,257.023 14.566,256.680 14.223 C 256.337 13.880,255.684 13.600,255.229 13.600 C 254.759 13.600,254.400 13.340,254.400 13.000 C 254.400 12.623,254.020 12.400,253.376 12.400 C 252.796 12.400,252.460 12.227,252.600 12.000 C 252.736 11.780,252.481 11.600,252.033 11.600 C 250.963 11.600,248.719 10.223,249.101 9.801 C 249.266 9.620,249.220 9.569,249.000 9.689 C 248.439 9.993,246.702 9.282,246.965 8.856 C 247.084 8.663,246.781 8.527,246.291 8.553 C 245.801 8.579,245.430 8.420,245.466 8.200 C 245.503 7.980,245.105 7.774,244.581 7.743 C 244.058 7.712,243.340 7.397,242.986 7.043 C 242.632 6.689,242.086 6.400,241.771 6.400 C 241.457 6.400,241.200 6.220,241.200 6.000 C 241.200 5.780,240.840 5.600,240.400 5.600 C 239.960 5.600,239.645 5.375,239.700 5.100 C 239.755 4.825,239.440 4.592,239.000 4.581 C 238.560 4.571,238.249 4.333,238.310 4.052 C 238.370 3.771,238.249 3.646,238.040 3.775 C 237.481 4.121,235.582 3.153,235.878 2.674 C 236.029 2.429,235.875 2.362,235.495 2.508 C 235.145 2.643,234.652 2.504,234.400 2.200 C 234.148 1.897,233.550 1.588,233.071 1.515 C 232.592 1.441,232.241 1.172,232.292 0.916 C 232.342 0.660,232.072 0.429,231.692 0.402 C 225.508 -0.031,224.800 -0.032,224.800 0.398 M228.990 154.000 C 228.990 169.730,229.039 176.165,229.100 168.300 C 229.160 160.435,229.160 147.565,229.100 139.700 C 229.039 131.835,228.990 138.270,228.990 154.000 M228.198 184.162 C 227.979 184.472,226.360 185.487,224.600 186.418 C 220.203 188.744,216.700 190.646,213.464 192.463 C 211.959 193.308,210.661 194.000,210.579 194.000 C 210.497 194.000,208.398 195.104,205.915 196.454 C 203.432 197.804,200.500 199.397,199.400 199.995 C 198.300 200.592,195.600 202.034,193.400 203.198 C 191.200 204.362,189.220 205.443,189.000 205.600 C 188.780 205.758,186.620 206.931,184.200 208.207 C 181.780 209.484,179.233 210.846,178.541 211.234 C 177.849 211.622,176.184 212.512,174.841 213.211 C 171.258 215.075,170.952 214.726,180.600 219.787 C 182.800 220.941,185.320 222.295,186.200 222.795 C 187.999 223.819,191.458 225.688,196.200 228.199 C 197.960 229.131,200.030 230.248,200.800 230.681 C 203.853 232.400,206.771 233.983,210.400 235.891 C 212.490 236.989,214.830 238.243,215.600 238.678 C 218.428 240.276,221.819 242.136,222.500 242.463 C 223.396 242.894,224.456 243.433,226.477 244.487 C 228.313 245.444,227.554 245.678,234.000 242.166 C 235.650 241.267,238.440 239.756,240.200 238.807 C 241.960 237.859,244.300 236.594,245.400 235.995 C 246.500 235.397,248.660 234.230,250.200 233.402 C 251.740 232.575,254.260 231.220,255.800 230.392 C 257.340 229.564,259.590 228.372,260.800 227.743 C 262.010 227.114,263.090 226.510,263.200 226.400 C 263.310 226.290,264.390 225.686,265.600 225.057 C 268.465 223.568,272.980 221.140,275.000 220.002 C 275.880 219.506,278.130 218.296,280.000 217.313 C 284.725 214.828,285.057 214.499,283.914 213.434 C 283.422 212.975,282.880 212.578,282.709 212.550 C 282.539 212.523,282.265 212.456,282.100 212.403 C 281.935 212.349,281.665 212.327,281.500 212.353 C 281.335 212.379,281.200 212.240,281.200 212.043 C 281.200 211.847,280.743 211.572,280.184 211.432 C 279.624 211.291,279.283 210.990,279.424 210.762 C 279.574 210.519,279.372 210.399,278.940 210.473 C 278.524 210.545,278.242 210.388,278.295 210.114 C 278.348 209.847,278.146 209.723,277.847 209.837 C 277.548 209.952,276.985 209.727,276.595 209.338 C 276.206 208.949,275.619 208.591,275.291 208.543 C 274.964 208.495,274.503 208.263,274.268 208.028 C 274.032 207.792,273.516 207.600,273.120 207.600 C 272.724 207.600,272.400 207.375,272.400 207.100 C 272.400 206.825,271.910 206.572,271.312 206.537 C 270.714 206.502,270.159 206.277,270.079 206.037 C 269.999 205.797,269.583 205.600,269.154 205.600 C 268.726 205.600,268.271 205.330,268.145 205.000 C 268.018 204.670,267.653 204.400,267.334 204.400 C 267.014 204.400,266.841 204.257,266.949 204.083 C 267.056 203.909,266.756 203.737,266.280 203.701 C 265.805 203.665,265.187 203.323,264.908 202.941 C 264.628 202.560,264.400 202.394,264.400 202.573 C 264.400 202.752,264.158 202.697,263.863 202.452 C 263.568 202.207,263.208 202.125,263.063 202.270 C 262.918 202.415,262.800 202.323,262.800 202.067 C 262.800 201.810,262.440 201.600,262.000 201.600 C 261.560 201.600,261.221 201.465,261.247 201.300 C 261.363 200.565,261.160 200.243,260.870 200.701 C 260.629 201.080,260.344 201.007,259.693 200.401 C 259.220 199.960,258.509 199.600,258.112 199.600 C 257.715 199.600,257.052 199.150,256.639 198.600 C 256.156 197.957,255.494 197.600,254.787 197.600 C 254.177 197.600,253.583 197.332,253.455 197.000 C 253.329 196.670,252.849 196.400,252.389 196.400 C 251.929 196.400,251.664 196.220,251.800 196.000 C 251.940 195.773,251.604 195.600,251.024 195.600 C 250.390 195.600,250.000 195.376,250.000 195.013 C 250.000 194.686,249.762 194.516,249.464 194.631 C 249.169 194.744,248.697 194.558,248.415 194.218 C 248.133 193.878,247.564 193.600,247.151 193.600 C 246.738 193.600,246.400 193.336,246.400 193.013 C 246.400 192.635,246.168 192.514,245.750 192.674 C 245.360 192.824,244.953 192.660,244.731 192.262 C 244.527 191.898,243.919 191.600,243.380 191.600 C 242.785 191.600,242.400 191.369,242.400 191.013 C 242.400 190.689,242.175 190.511,241.900 190.617 C 241.625 190.722,240.864 190.311,240.208 189.704 C 239.552 189.097,238.832 188.576,238.608 188.546 C 238.384 188.517,237.964 188.472,237.676 188.446 C 237.388 188.421,237.264 188.220,237.400 188.000 C 237.544 187.767,237.137 187.600,236.424 187.600 C 235.751 187.600,235.200 187.423,235.200 187.208 C 235.200 186.992,234.751 186.703,234.203 186.565 C 233.654 186.427,233.305 186.154,233.426 185.957 C 233.548 185.761,233.426 185.600,233.155 185.600 C 232.884 185.600,232.303 185.285,231.863 184.900 C 231.423 184.515,231.205 184.443,231.380 184.740 C 231.636 185.177,231.535 185.193,230.848 184.826 C 230.382 184.576,230.000 184.198,230.000 183.986 C 230.000 183.395,228.647 183.527,228.198 184.162 M228.990 338.600 C 228.990 354.660,229.039 361.172,229.100 353.071 C 229.160 344.969,229.160 331.829,229.100 323.871 C 229.039 315.912,228.990 322.540,228.990 338.600 " stroke="none" fill="#fbc33b" fill-rule="evenodd"></path><path id="path1" d="M225.800 62.952 C 222.604 64.786,220.226 66.074,210.000 71.511 C 208.130 72.505,206.420 73.447,206.200 73.603 C 205.980 73.759,203.820 74.931,201.400 76.207 C 198.980 77.484,196.460 78.830,195.800 79.199 C 192.415 81.090,189.661 82.579,181.000 87.197 C 179.240 88.136,177.260 89.219,176.600 89.605 C 175.940 89.991,173.690 91.203,171.600 92.298 C 168.014 94.177,166.600 94.943,161.800 97.607 C 160.700 98.217,158.270 99.520,156.400 100.503 C 154.530 101.485,152.280 102.696,151.400 103.195 C 150.520 103.693,147.910 105.096,145.600 106.313 C 143.290 107.531,140.821 108.852,140.112 109.250 C 138.353 110.237,134.372 112.398,131.000 114.196 C 122.669 118.638,121.366 119.343,121.000 119.606 C 120.780 119.764,118.800 120.842,116.600 122.003 C 114.400 123.163,111.700 124.603,110.600 125.203 C 108.741 126.216,107.204 127.046,100.400 130.707 C 98.970 131.477,96.990 132.557,96.000 133.109 C 95.010 133.660,92.490 135.010,90.400 136.109 C 87.006 137.893,84.947 139.007,81.000 141.196 C 80.340 141.562,78.180 142.730,76.200 143.791 C 70.386 146.907,67.660 148.380,66.288 149.148 C 61.670 151.733,57.307 153.973,57.166 153.832 C 57.075 153.741,57.047 167.602,57.105 184.633 C 57.219 218.461,57.128 217.215,59.343 215.000 C 59.673 214.670,60.108 214.400,60.310 214.400 C 60.863 214.400,63.151 213.202,63.416 212.775 C 63.543 212.569,63.997 212.400,64.424 212.400 C 64.851 212.400,65.200 212.223,65.200 212.008 C 65.200 211.792,65.650 211.502,66.200 211.364 C 66.750 211.226,67.200 210.953,67.200 210.757 C 67.200 210.560,67.635 210.400,68.167 210.400 C 68.698 210.400,69.193 210.239,69.267 210.043 C 69.412 209.654,73.456 207.359,76.500 205.937 C 77.545 205.449,78.400 204.904,78.400 204.725 C 78.400 204.546,78.676 204.400,79.014 204.400 C 79.553 204.400,81.441 203.394,82.000 202.809 C 82.110 202.694,82.830 202.286,83.600 201.902 C 84.370 201.519,85.270 201.044,85.600 200.846 C 85.930 200.649,86.875 200.157,87.700 199.753 C 88.525 199.349,89.200 198.879,89.200 198.709 C 89.200 198.539,89.442 198.400,89.739 198.400 C 90.292 198.400,92.843 197.244,93.200 196.831 C 93.595 196.375,95.200 195.600,95.752 195.600 C 96.061 195.600,96.408 195.356,96.523 195.057 C 96.637 194.758,97.242 194.411,97.866 194.284 C 98.490 194.158,99.397 193.683,99.883 193.227 C 100.369 192.772,100.939 192.400,101.151 192.400 C 101.559 192.400,104.062 191.151,104.400 190.779 C 104.510 190.658,105.320 190.226,106.200 189.820 C 107.080 189.414,107.890 188.973,108.000 188.841 C 108.396 188.364,110.002 187.600,110.607 187.600 C 110.947 187.600,111.329 187.330,111.455 187.000 C 111.582 186.670,111.892 186.400,112.145 186.400 C 112.398 186.400,112.834 185.883,113.113 185.251 C 113.424 184.550,114.357 183.720,115.511 183.121 C 116.550 182.581,118.480 181.536,119.800 180.799 C 121.120 180.061,123.100 178.980,124.200 178.396 C 128.548 176.086,133.499 173.407,135.400 172.335 C 136.500 171.715,138.570 170.621,140.000 169.904 C 141.430 169.187,142.690 168.506,142.800 168.390 C 142.910 168.275,143.900 167.722,145.000 167.160 C 146.100 166.599,147.900 165.635,149.000 165.018 C 150.100 164.402,152.530 163.089,154.400 162.100 C 159.250 159.537,162.218 157.920,167.853 154.767 C 168.543 154.382,169.533 154.006,170.053 153.933 L 171.000 153.800 171.103 184.120 L 171.205 214.441 173.815 213.007 C 175.250 212.218,177.094 211.193,177.912 210.729 C 178.731 210.265,181.200 208.945,183.400 207.795 C 185.600 206.646,188.030 205.351,188.800 204.918 C 192.054 203.088,194.826 201.580,198.400 199.697 C 200.490 198.595,203.190 197.137,204.400 196.455 C 205.610 195.774,207.770 194.628,209.200 193.910 C 210.630 193.192,211.890 192.513,212.000 192.402 C 212.110 192.290,213.010 191.790,214.000 191.290 C 214.990 190.790,217.420 189.484,219.400 188.389 C 221.380 187.294,223.810 185.993,224.800 185.499 C 225.790 185.005,226.660 184.465,226.733 184.300 C 226.807 184.135,227.115 184.000,227.419 184.000 C 228.730 184.000,228.800 182.481,228.800 153.920 C 228.800 126.094,228.780 125.351,227.995 123.886 C 227.206 122.414,227.192 121.786,227.295 92.192 C 227.353 75.586,227.400 62.008,227.400 62.017 C 227.400 62.026,226.680 62.447,225.800 62.952 M398.899 91.549 C 398.986 92.363,398.544 92.737,395.800 94.171 C 392.279 96.011,387.666 98.519,385.800 99.607 C 385.140 99.992,382.890 101.202,380.800 102.297 C 378.710 103.392,376.280 104.695,375.400 105.194 C 374.520 105.692,371.910 107.096,369.600 108.313 C 367.290 109.531,364.860 110.829,364.200 111.198 C 361.026 112.974,358.277 114.463,354.800 116.291 C 352.710 117.390,350.100 118.788,349.000 119.397 C 343.420 122.488,342.151 123.093,341.600 122.924 C 341.166 122.790,341.137 122.836,341.493 123.089 C 341.876 123.361,341.991 130.361,342.007 154.501 C 342.026 181.607,342.103 185.535,342.614 185.339 C 342.936 185.216,343.200 184.954,343.200 184.757 C 343.200 184.561,343.571 184.400,344.024 184.400 C 344.477 184.400,344.736 184.220,344.600 184.000 C 344.464 183.780,344.701 183.600,345.127 183.600 C 345.553 183.600,346.126 183.330,346.400 183.000 C 346.674 182.670,347.236 182.400,347.649 182.400 C 348.062 182.400,348.400 182.220,348.400 182.000 C 348.400 181.780,348.766 181.600,349.213 181.600 C 349.659 181.600,350.129 181.330,350.255 181.000 C 350.382 180.670,350.740 180.400,351.051 180.400 C 351.362 180.400,352.329 179.950,353.200 179.400 C 354.071 178.850,354.946 178.400,355.143 178.400 C 355.341 178.400,355.724 178.132,355.996 177.804 C 356.268 177.477,356.638 177.300,356.818 177.411 C 356.998 177.522,357.251 177.442,357.380 177.232 C 357.678 176.750,359.960 175.600,360.619 175.600 C 360.891 175.600,361.218 175.330,361.345 175.000 C 361.471 174.670,361.823 174.400,362.126 174.400 C 362.824 174.400,365.109 173.271,365.416 172.775 C 365.543 172.569,365.997 172.400,366.424 172.400 C 366.851 172.400,367.201 172.265,367.203 172.100 C 367.206 171.715,369.505 170.400,370.174 170.400 C 370.454 170.400,371.169 169.950,371.762 169.400 C 372.356 168.850,373.192 168.400,373.621 168.400 C 374.049 168.400,374.400 168.220,374.400 168.000 C 374.400 167.780,374.766 167.600,375.213 167.600 C 375.659 167.600,376.129 167.330,376.255 167.000 C 376.382 166.670,376.709 166.400,376.981 166.400 C 377.526 166.400,380.082 165.212,380.400 164.810 C 380.510 164.672,381.275 164.244,382.100 163.860 C 382.925 163.477,383.600 162.991,383.600 162.781 C 383.600 162.572,383.842 162.400,384.139 162.400 C 384.718 162.400,387.271 161.226,387.600 160.809 C 387.840 160.504,390.434 159.419,391.000 159.386 C 391.220 159.374,391.367 159.182,391.326 158.960 C 391.285 158.738,392.140 158.211,393.226 157.790 C 394.312 157.369,395.200 156.884,395.200 156.712 C 395.200 156.540,395.470 156.400,395.800 156.400 C 396.130 156.400,396.400 156.220,396.400 156.000 C 396.400 155.780,396.766 155.600,397.213 155.600 C 397.659 155.600,398.129 155.330,398.255 155.000 C 398.382 154.670,398.736 154.400,399.043 154.400 C 399.732 154.400,399.879 92.243,399.193 91.200 C 398.881 90.727,398.819 90.802,398.899 91.549 M285.298 214.817 C 285.244 215.156,284.255 215.915,283.100 216.504 C 281.945 217.092,279.470 218.406,277.600 219.423 C 273.671 221.559,269.000 224.072,265.000 226.201 C 263.460 227.021,261.300 228.189,260.200 228.797 C 259.100 229.406,257.300 230.400,256.200 231.007 C 255.100 231.614,252.490 233.010,250.400 234.108 C 248.310 235.207,245.790 236.555,244.800 237.104 C 243.810 237.652,241.650 238.826,240.000 239.711 C 238.350 240.597,236.820 241.449,236.600 241.604 C 236.380 241.760,234.355 242.840,232.100 244.004 L 228.000 246.120 228.000 276.660 C 228.000 311.404,228.418 308.162,224.238 305.852 C 220.027 303.524,217.514 302.164,213.800 300.201 C 211.820 299.155,209.660 297.985,209.000 297.603 C 207.282 296.607,202.750 294.157,198.800 292.089 C 195.757 290.496,193.592 289.319,189.800 287.198 C 189.140 286.829,186.710 285.531,184.400 284.313 C 182.090 283.096,179.570 281.747,178.800 281.316 C 174.486 278.897,172.909 278.075,172.100 277.825 L 171.200 277.546 171.200 338.773 C 171.200 372.448,171.353 400.000,171.540 400.000 C 172.312 400.000,174.400 399.095,174.400 398.761 C 174.400 398.562,174.676 398.400,175.014 398.400 C 175.553 398.400,177.441 397.394,178.000 396.809 C 178.110 396.694,178.830 396.286,179.600 395.902 C 180.370 395.519,181.270 395.044,181.600 394.846 C 181.930 394.649,182.875 394.157,183.700 393.753 C 184.525 393.349,185.200 392.879,185.200 392.709 C 185.200 392.539,185.442 392.400,185.739 392.400 C 186.293 392.400,188.844 391.244,189.200 390.831 C 189.310 390.703,189.940 390.353,190.600 390.053 C 191.260 389.753,192.070 389.357,192.400 389.173 C 192.730 388.990,193.765 388.454,194.700 387.984 C 195.635 387.514,196.400 386.965,196.400 386.764 C 196.400 386.564,196.655 386.400,196.968 386.400 C 197.515 386.400,199.990 385.231,200.400 384.779 C 200.510 384.658,201.320 384.226,202.200 383.820 C 203.080 383.414,203.890 382.973,204.000 382.841 C 204.396 382.364,206.002 381.600,206.607 381.600 C 206.947 381.600,207.329 381.330,207.455 381.000 C 207.582 380.670,207.922 380.400,208.210 380.400 C 208.892 380.400,211.194 379.090,211.197 378.700 C 211.199 378.535,211.442 378.400,211.739 378.400 C 212.426 378.400,214.712 377.267,215.016 376.775 C 215.143 376.569,215.607 376.400,216.047 376.400 C 216.487 376.400,216.736 376.220,216.600 376.000 C 216.464 375.780,216.701 375.600,217.127 375.600 C 217.553 375.600,218.126 375.330,218.400 375.000 C 218.674 374.670,219.236 374.400,219.649 374.400 C 220.062 374.400,220.400 374.220,220.400 374.000 C 220.400 373.780,220.766 373.600,221.213 373.600 C 221.659 373.600,222.129 373.330,222.255 373.000 C 222.382 372.670,222.916 372.400,223.443 372.400 C 223.969 372.400,224.400 372.261,224.400 372.091 C 224.400 371.708,227.027 370.267,227.725 370.267 C 228.573 370.267,228.599 369.293,228.600 338.300 C 228.600 320.446,228.748 308.400,228.967 308.400 C 229.168 308.400,229.221 308.288,229.084 308.151 C 228.844 307.911,232.515 305.831,236.500 303.948 C 237.545 303.454,238.400 302.904,238.400 302.725 C 238.400 302.546,238.676 302.400,239.014 302.400 C 239.553 302.400,241.441 301.394,242.000 300.809 C 242.110 300.694,242.830 300.286,243.600 299.902 C 244.370 299.519,245.270 299.044,245.600 298.846 C 245.930 298.649,246.875 298.157,247.700 297.753 C 248.525 297.349,249.200 296.879,249.200 296.709 C 249.200 296.539,249.515 296.387,249.900 296.371 C 250.285 296.355,251.140 296.003,251.800 295.589 C 252.460 295.174,253.630 294.543,254.400 294.185 C 255.170 293.826,256.070 293.375,256.400 293.182 C 256.730 292.988,257.765 292.431,258.700 291.944 C 259.635 291.457,260.400 290.910,260.400 290.729 C 260.400 290.548,260.738 290.400,261.151 290.400 C 261.564 290.400,262.126 290.130,262.400 289.800 C 262.674 289.470,263.236 289.200,263.649 289.200 C 264.062 289.200,264.400 289.057,264.400 288.882 C 264.400 288.707,265.210 288.230,266.200 287.822 C 267.190 287.413,268.001 286.972,268.003 286.840 C 268.007 286.524,270.011 285.600,270.692 285.600 C 270.985 285.600,271.329 285.330,271.455 285.000 C 271.582 284.670,271.922 284.400,272.210 284.400 C 272.892 284.400,275.194 283.090,275.197 282.700 C 275.199 282.535,275.410 282.400,275.666 282.400 C 276.412 282.400,279.200 281.077,279.200 280.723 C 279.200 280.545,279.571 280.400,280.024 280.400 C 280.477 280.400,280.736 280.220,280.600 280.000 C 280.464 279.780,280.713 279.600,281.153 279.600 C 281.593 279.600,282.066 279.417,282.204 279.193 C 282.342 278.970,282.623 278.891,282.828 279.017 C 283.032 279.144,283.200 279.057,283.200 278.824 C 283.200 278.591,283.430 278.400,283.711 278.400 C 285.648 278.400,285.612 279.058,285.500 245.493 C 285.442 228.282,285.351 214.478,285.298 214.817 " stroke="none" fill="#ec8c1c" fill-rule="evenodd"></path><path id="path2" d="M228.190 93.200 C 228.190 110.250,228.240 117.225,228.300 108.700 C 228.360 100.175,228.360 86.225,228.300 77.700 C 228.240 69.175,228.190 76.150,228.190 93.200 M340.705 154.229 L 340.810 185.590 341.827 185.506 C 342.692 185.434,342.751 185.353,342.222 184.967 C 341.669 184.562,341.600 181.155,341.600 154.105 C 341.600 130.267,341.492 123.608,341.100 123.283 C 340.701 122.951,340.621 129.176,340.705 154.229 M56.301 173.100 C 56.356 183.605,56.449 196.970,56.508 202.800 C 56.566 208.630,56.656 200.035,56.707 183.700 C 56.758 167.365,56.665 154.000,56.500 154.000 C 56.335 154.000,56.245 162.595,56.301 173.100 M166.400 156.038 C 164.750 156.927,161.960 158.428,160.200 159.374 C 158.440 160.319,156.190 161.541,155.200 162.088 C 154.210 162.636,151.960 163.854,150.200 164.795 C 146.337 166.861,142.827 168.759,140.400 170.095 C 139.410 170.640,136.980 171.947,135.000 172.999 C 133.020 174.052,130.050 175.646,128.400 176.543 C 126.750 177.439,123.168 179.370,120.441 180.834 C 115.397 183.540,112.800 185.309,112.800 186.039 C 112.800 186.262,113.205 186.005,113.700 185.467 C 114.195 184.929,116.400 183.547,118.600 182.395 C 120.800 181.243,122.780 180.170,123.000 180.010 C 123.220 179.850,125.290 178.720,127.600 177.499 C 129.910 176.278,132.700 174.792,133.800 174.197 C 134.900 173.602,137.060 172.440,138.600 171.614 C 140.140 170.788,142.480 169.522,143.800 168.802 C 146.852 167.135,150.486 165.182,154.800 162.889 C 156.670 161.895,158.380 160.953,158.600 160.797 C 158.820 160.641,160.980 159.471,163.400 158.196 C 165.820 156.921,168.188 155.626,168.663 155.317 C 170.035 154.426,170.020 154.092,170.036 184.678 C 170.044 200.695,170.207 214.160,170.397 214.600 C 170.597 215.061,170.756 202.463,170.772 184.900 C 170.798 156.105,170.761 154.401,170.100 154.410 C 169.715 154.416,168.050 155.148,166.400 156.038 M56.460 214.524 C 56.418 215.307,56.249 215.556,55.900 215.347 C 55.519 215.118,55.523 215.198,55.915 215.682 C 56.243 216.087,56.750 216.230,57.315 216.075 C 58.010 215.884,58.055 215.802,57.524 215.692 C 57.150 215.613,56.775 215.071,56.684 214.475 L 56.520 213.400 56.460 214.524 M227.105 275.726 C 227.164 292.441,227.057 305.503,226.858 305.702 C 226.654 305.906,225.171 305.342,223.353 304.370 C 221.619 303.443,218.940 302.016,217.400 301.198 C 215.860 300.381,213.880 299.302,213.000 298.800 C 212.120 298.298,210.140 297.222,208.600 296.409 C 200.402 292.081,195.922 289.614,195.420 289.151 C 195.211 288.958,194.766 288.800,194.431 288.800 C 193.443 288.800,195.756 290.163,204.800 294.909 C 207.949 296.562,211.804 298.652,214.312 300.066 C 215.131 300.528,217.634 301.869,219.876 303.046 C 222.118 304.223,224.598 305.550,225.388 305.993 C 226.178 306.437,226.997 306.800,227.207 306.800 C 227.745 306.800,227.937 246.461,227.400 246.255 C 227.135 246.154,227.035 256.098,227.105 275.726 M170.634 277.023 C 170.066 277.591,170.004 283.625,170.005 338.186 C 170.006 371.479,169.895 399.007,169.760 399.359 C 169.598 399.783,169.732 400.000,170.157 400.000 C 170.745 400.000,170.800 394.728,170.800 338.600 C 170.800 284.950,170.874 277.200,171.386 277.200 C 171.708 277.200,172.743 277.626,173.686 278.147 C 174.629 278.668,176.840 279.862,178.600 280.801 C 180.360 281.740,183.870 283.630,186.400 285.000 C 192.860 288.500,193.600 288.861,193.597 288.510 C 193.595 288.340,193.190 288.007,192.697 287.770 C 191.660 287.273,185.873 284.176,181.800 281.938 C 180.260 281.092,178.190 279.994,177.200 279.500 C 176.210 279.005,175.310 278.510,175.200 278.400 C 175.040 278.240,173.182 277.287,171.532 276.517 C 171.385 276.449,170.981 276.676,170.634 277.023 " stroke="none" fill="#eb6b24" fill-rule="evenodd"></path><path id="path3" d="M228.400 93.799 L 228.400 124.817 229.400 125.273 C 229.950 125.523,230.400 125.899,230.400 126.107 C 230.400 126.315,230.675 126.380,231.011 126.251 C 231.358 126.118,231.915 126.359,232.300 126.808 C 232.673 127.244,233.298 127.600,233.689 127.600 C 234.080 127.600,234.400 127.780,234.400 128.000 C 234.400 128.220,234.670 128.400,235.000 128.400 C 235.330 128.400,235.600 128.577,235.600 128.792 C 235.600 129.008,236.050 129.298,236.600 129.436 C 237.150 129.574,237.600 129.847,237.600 130.043 C 237.600 130.240,238.140 130.400,238.800 130.400 C 239.535 130.400,239.961 130.590,239.900 130.891 C 239.845 131.160,240.205 131.443,240.700 131.518 C 241.195 131.594,241.600 131.823,241.600 132.028 C 241.600 132.233,242.050 132.400,242.600 132.400 C 243.213 132.400,243.600 132.628,243.600 132.987 C 243.600 133.321,243.837 133.484,244.148 133.364 C 244.450 133.249,244.953 133.389,245.265 133.677 C 246.080 134.426,247.288 135.186,248.100 135.458 C 248.485 135.588,248.800 135.852,248.800 136.047 C 248.800 136.241,249.141 136.400,249.557 136.400 C 249.974 136.400,250.418 136.670,250.545 137.000 C 250.671 137.330,251.141 137.600,251.587 137.600 C 252.034 137.600,252.400 137.780,252.400 138.000 C 252.400 138.220,252.831 138.400,253.357 138.400 C 253.884 138.400,254.418 138.670,254.545 139.000 C 254.671 139.330,255.141 139.600,255.587 139.600 C 256.034 139.600,256.400 139.780,256.400 140.000 C 256.400 140.220,256.751 140.400,257.179 140.400 C 257.608 140.400,258.444 140.850,259.038 141.400 C 259.631 141.950,260.451 142.400,260.858 142.400 C 261.266 142.400,261.600 142.577,261.600 142.792 C 261.600 143.008,262.050 143.298,262.600 143.436 C 263.150 143.574,263.600 143.855,263.600 144.061 C 263.600 144.267,263.825 144.406,264.100 144.370 C 265.153 144.233,265.600 144.421,265.600 145.000 C 265.600 145.373,265.978 145.600,266.600 145.600 C 267.150 145.600,267.600 145.780,267.600 146.000 C 267.600 146.220,268.050 146.400,268.600 146.400 C 269.252 146.400,269.600 146.624,269.600 147.043 C 269.600 147.435,269.822 147.600,270.171 147.467 C 270.485 147.346,270.957 147.507,271.220 147.824 C 271.483 148.141,271.946 148.400,272.249 148.400 C 272.552 148.400,272.801 148.535,272.803 148.700 C 272.806 149.090,275.108 150.400,275.790 150.400 C 276.078 150.400,276.418 150.670,276.545 151.000 C 276.671 151.330,277.141 151.600,277.587 151.600 C 278.034 151.600,278.400 151.780,278.400 152.000 C 278.400 152.220,278.856 152.400,279.413 152.400 C 279.969 152.400,280.529 152.670,280.655 153.000 C 280.782 153.330,281.226 153.600,281.643 153.600 C 282.059 153.600,282.400 153.791,282.400 154.024 C 282.400 154.257,282.573 154.340,282.785 154.209 C 282.997 154.078,283.559 154.359,284.033 154.833 C 284.654 155.454,284.977 155.560,285.192 155.213 C 285.393 154.888,285.559 155.002,285.707 155.566 C 285.836 156.058,286.251 156.400,286.720 156.400 C 287.157 156.400,287.626 156.690,287.762 157.045 C 287.919 157.455,288.301 157.615,288.805 157.483 C 289.320 157.348,289.600 157.473,289.600 157.837 C 289.600 158.171,290.007 158.400,290.600 158.400 C 291.222 158.400,291.600 158.627,291.600 159.000 C 291.600 159.373,291.978 159.600,292.600 159.600 C 293.150 159.600,293.600 159.780,293.600 160.000 C 293.600 160.220,294.050 160.400,294.600 160.400 C 295.252 160.400,295.600 160.624,295.600 161.043 C 295.600 161.540,295.850 161.629,296.700 161.431 C 297.484 161.249,297.632 161.287,297.214 161.565 C 296.731 161.885,296.803 162.030,297.614 162.383 C 298.156 162.619,299.140 163.156,299.800 163.577 C 300.460 163.997,301.405 164.355,301.900 164.371 C 302.396 164.387,302.755 164.625,302.700 164.900 C 302.645 165.175,302.945 165.401,303.367 165.402 C 303.789 165.403,304.209 165.628,304.301 165.902 C 304.392 166.176,304.882 166.400,305.391 166.400 C 305.899 166.400,306.418 166.670,306.545 167.000 C 306.671 167.330,307.141 167.600,307.587 167.600 C 308.034 167.600,308.400 167.737,308.400 167.905 C 308.400 168.211,309.585 168.933,310.900 169.429 C 311.285 169.574,311.600 169.852,311.600 170.047 C 311.600 170.241,312.031 170.400,312.557 170.400 C 313.084 170.400,313.618 170.670,313.745 171.000 C 313.871 171.330,314.341 171.600,314.787 171.600 C 315.234 171.600,315.600 171.768,315.600 171.973 C 315.600 172.179,316.095 172.404,316.700 172.473 C 317.319 172.545,317.756 172.819,317.700 173.100 C 317.645 173.375,317.881 173.600,318.224 173.600 C 318.591 173.600,318.743 173.395,318.593 173.100 C 318.453 172.825,318.697 173.005,319.134 173.500 C 319.571 173.995,320.304 174.400,320.764 174.400 C 321.224 174.400,321.600 174.628,321.600 174.906 C 321.600 175.184,322.275 175.728,323.100 176.114 C 323.925 176.501,325.140 177.160,325.800 177.580 C 326.460 177.999,327.296 178.355,327.657 178.371 C 328.019 178.387,328.418 178.670,328.545 179.000 C 328.671 179.330,329.141 179.600,329.587 179.600 C 330.034 179.600,330.400 179.742,330.400 179.915 C 330.400 180.088,330.793 180.259,331.273 180.296 C 331.754 180.332,332.303 180.640,332.493 180.981 C 332.684 181.321,333.191 181.600,333.620 181.600 C 334.049 181.600,334.400 181.780,334.400 182.000 C 334.400 182.220,334.670 182.400,335.000 182.400 C 335.330 182.400,335.600 182.599,335.600 182.843 C 335.600 183.086,335.879 183.178,336.221 183.047 C 336.577 182.911,336.737 182.978,336.597 183.205 C 336.463 183.422,336.633 183.600,336.976 183.600 C 337.319 183.600,337.600 183.780,337.600 184.000 C 337.600 184.220,338.050 184.400,338.600 184.400 C 339.222 184.400,339.600 184.627,339.600 185.000 C 339.600 185.330,339.870 185.600,340.200 185.600 C 340.728 185.600,340.800 181.872,340.800 154.451 L 340.800 123.301 338.300 122.059 C 336.925 121.375,334.180 119.917,332.200 118.818 C 330.220 117.719,327.790 116.410,326.800 115.910 C 325.810 115.410,324.910 114.911,324.800 114.800 C 324.690 114.690,323.610 114.086,322.400 113.457 C 321.190 112.828,318.940 111.632,317.400 110.800 C 315.860 109.968,313.610 108.772,312.400 108.143 C 311.190 107.514,310.110 106.909,310.000 106.798 C 309.890 106.687,308.630 106.008,307.200 105.289 C 305.770 104.570,303.340 103.268,301.800 102.395 C 300.260 101.522,298.190 100.401,297.200 99.904 C 296.210 99.407,295.310 98.909,295.200 98.797 C 295.090 98.684,294.280 98.234,293.400 97.796 C 292.520 97.358,291.740 96.865,291.667 96.700 C 291.593 96.535,291.275 96.400,290.959 96.400 C 290.643 96.400,289.713 95.990,288.892 95.489 C 288.071 94.987,286.680 94.222,285.800 93.789 C 284.920 93.355,284.110 92.909,284.000 92.797 C 283.890 92.685,282.900 92.119,281.800 91.538 C 276.191 88.577,273.671 87.231,272.400 86.517 C 269.200 84.720,266.156 83.052,265.500 82.737 C 263.741 81.891,262.809 81.390,257.400 78.381 C 255.860 77.524,253.790 76.413,252.800 75.912 C 251.810 75.411,250.910 74.911,250.800 74.800 C 250.690 74.690,249.340 73.956,247.800 73.169 C 243.217 70.827,239.813 69.013,239.600 68.800 C 239.490 68.690,238.410 68.090,237.200 67.468 C 235.990 66.845,233.515 65.535,231.700 64.558 L 228.400 62.781 228.400 93.799 M0.005 155.400 C 0.018 185.406,0.043 186.400,0.767 186.400 C 1.178 186.400,1.618 186.670,1.745 187.000 C 1.871 187.330,2.341 187.600,2.787 187.600 C 3.234 187.600,3.600 187.780,3.600 188.000 C 3.600 188.220,4.050 188.400,4.600 188.400 C 5.222 188.400,5.600 188.627,5.600 189.000 C 5.600 189.403,6.003 189.600,6.824 189.600 C 7.537 189.600,7.944 189.767,7.800 190.000 C 7.660 190.227,7.996 190.400,8.576 190.400 C 9.250 190.400,9.600 190.620,9.600 191.043 C 9.600 191.435,9.822 191.600,10.171 191.467 C 10.485 191.346,10.957 191.507,11.220 191.824 C 11.483 192.141,11.869 192.400,12.078 192.400 C 12.286 192.400,12.729 192.672,13.061 193.004 C 13.393 193.336,13.811 193.517,13.990 193.406 C 14.170 193.295,14.419 193.474,14.546 193.802 C 14.672 194.131,15.121 194.400,15.545 194.400 C 15.968 194.400,16.426 194.690,16.562 195.045 C 16.719 195.455,17.101 195.615,17.605 195.483 C 18.120 195.348,18.400 195.473,18.400 195.837 C 18.400 196.164,18.801 196.400,19.357 196.400 C 19.884 196.400,20.418 196.670,20.545 197.000 C 20.671 197.330,21.141 197.600,21.587 197.600 C 22.034 197.600,22.400 197.737,22.400 197.905 C 22.400 198.211,23.585 198.933,24.900 199.429 C 25.285 199.574,25.600 199.852,25.600 200.047 C 25.600 200.241,26.031 200.400,26.557 200.400 C 27.084 200.400,27.625 200.689,27.761 201.042 C 27.904 201.416,28.261 201.585,28.619 201.448 C 28.965 201.315,29.329 201.471,29.458 201.807 C 29.583 202.133,30.116 202.400,30.643 202.400 C 31.227 202.400,31.600 202.634,31.600 203.000 C 31.600 203.403,32.003 203.600,32.824 203.600 C 33.537 203.600,33.944 203.767,33.800 204.000 C 33.660 204.227,33.996 204.400,34.576 204.400 C 35.139 204.400,35.600 204.628,35.600 204.906 C 35.600 205.184,36.275 205.728,37.100 206.114 C 37.925 206.501,39.140 207.160,39.800 207.580 C 40.460 207.999,41.296 208.355,41.657 208.371 C 42.019 208.387,42.418 208.670,42.545 209.000 C 42.671 209.330,43.141 209.600,43.587 209.600 C 44.034 209.600,44.400 209.780,44.400 210.000 C 44.400 210.220,44.831 210.400,45.357 210.400 C 45.884 210.400,46.418 210.670,46.545 211.000 C 46.671 211.330,47.130 211.600,47.564 211.600 C 47.998 211.600,48.472 211.792,48.617 212.027 C 48.762 212.262,49.131 212.359,49.436 212.242 C 49.741 212.125,49.948 212.241,49.895 212.500 C 49.843 212.759,50.205 213.155,50.700 213.380 C 51.195 213.605,51.600 213.927,51.600 214.095 C 51.600 214.263,52.031 214.400,52.557 214.400 C 53.084 214.400,53.618 214.670,53.745 215.000 C 53.871 215.330,54.341 215.600,54.787 215.600 C 55.234 215.600,55.600 215.780,55.600 216.000 C 55.600 216.220,55.802 216.400,56.049 216.400 C 56.369 216.400,56.376 216.253,56.072 215.887 C 55.802 215.561,55.782 215.158,56.017 214.787 C 56.236 214.440,56.390 201.977,56.394 184.305 L 56.400 154.410 54.900 153.505 C 54.075 153.007,52.680 152.242,51.800 151.804 C 50.920 151.366,50.110 150.916,50.000 150.804 C 49.890 150.692,48.360 149.856,46.600 148.947 C 40.406 145.746,38.998 144.998,38.800 144.800 C 38.690 144.690,37.610 144.086,36.400 143.457 C 35.190 142.828,32.940 141.632,31.400 140.800 C 29.860 139.968,27.610 138.772,26.400 138.143 C 25.190 137.514,24.110 136.910,24.000 136.800 C 23.890 136.690,23.260 136.317,22.600 135.971 C 21.940 135.625,20.950 135.102,20.400 134.809 C 18.519 133.806,18.196 133.639,15.600 132.322 C 14.170 131.597,12.910 130.911,12.800 130.796 C 12.690 130.682,11.837 130.231,10.905 129.794 C 9.972 129.357,9.207 128.905,9.205 128.790 C 9.202 128.674,8.392 128.224,7.404 127.790 C 6.416 127.355,5.606 126.865,5.604 126.700 C 5.602 126.535,5.326 126.400,4.992 126.400 C 4.658 126.400,3.671 125.950,2.800 125.400 C -0.256 123.471,-0.011 120.842,0.005 155.400 M166.600 156.541 C 165.280 157.267,163.210 158.408,162.000 159.077 C 158.990 160.741,154.928 162.922,150.400 165.307 C 148.310 166.407,146.420 167.443,146.200 167.607 C 145.980 167.772,144.090 168.800,142.000 169.891 C 136.946 172.532,132.121 175.147,130.400 176.180 C 129.630 176.642,127.830 177.614,126.400 178.340 C 124.970 179.067,122.540 180.365,121.000 181.226 C 119.460 182.087,117.246 183.261,116.079 183.835 C 114.913 184.408,113.744 185.220,113.483 185.639 C 113.221 186.058,112.710 186.400,112.347 186.400 C 111.983 186.400,111.586 186.661,111.463 186.980 C 111.315 187.367,111.433 187.485,111.820 187.337 C 112.325 187.143,112.400 198.832,112.400 278.277 C 112.400 373.795,112.338 370.400,114.080 370.400 C 114.476 370.400,114.800 370.577,114.800 370.792 C 114.800 371.008,115.250 371.298,115.800 371.436 C 116.350 371.574,116.800 371.847,116.800 372.043 C 116.800 372.240,117.141 372.400,117.557 372.400 C 117.974 372.400,118.418 372.670,118.545 373.000 C 118.671 373.330,119.141 373.600,119.587 373.600 C 120.034 373.600,120.400 373.780,120.400 374.000 C 120.400 374.220,120.856 374.400,121.413 374.400 C 121.969 374.400,122.529 374.670,122.655 375.000 C 122.782 375.330,123.211 375.600,123.609 375.600 C 124.008 375.600,124.393 375.778,124.467 375.997 C 124.540 376.215,125.075 376.432,125.655 376.480 C 126.236 376.528,126.641 376.755,126.555 376.984 C 126.399 377.402,128.147 378.400,129.037 378.400 C 129.300 378.400,129.618 378.670,129.745 379.000 C 129.871 379.330,130.341 379.600,130.787 379.600 C 131.234 379.600,131.600 379.780,131.600 380.000 C 131.600 380.220,132.050 380.400,132.600 380.400 C 133.222 380.400,133.600 380.627,133.600 381.000 C 133.600 381.373,133.978 381.600,134.600 381.600 C 135.150 381.600,135.600 381.780,135.600 382.000 C 135.600 382.220,136.050 382.400,136.600 382.400 C 137.222 382.400,137.600 382.627,137.600 383.000 C 137.600 383.330,137.872 383.600,138.205 383.600 C 138.881 383.600,140.269 384.323,141.143 385.130 C 141.568 385.522,141.790 385.539,142.003 385.196 C 142.188 384.896,142.366 385.027,142.507 385.566 C 142.657 386.141,143.047 386.400,143.763 386.400 C 144.379 386.400,144.759 386.603,144.700 386.900 C 144.642 387.188,144.981 387.387,145.500 387.368 C 146.033 387.349,146.400 387.572,146.400 387.915 C 146.400 388.298,146.672 388.422,147.205 388.283 C 147.738 388.143,148.149 388.331,148.419 388.836 C 148.644 389.256,149.182 389.600,149.614 389.600 C 150.046 389.600,150.400 389.737,150.400 389.905 C 150.400 390.211,151.585 390.933,152.900 391.429 C 153.285 391.574,153.600 391.852,153.600 392.047 C 153.600 392.241,154.031 392.400,154.557 392.400 C 155.084 392.400,155.618 392.670,155.745 393.000 C 155.871 393.330,156.341 393.600,156.787 393.600 C 157.234 393.600,157.600 393.780,157.600 394.000 C 157.600 394.220,158.050 394.400,158.600 394.400 C 159.240 394.400,159.600 394.625,159.600 395.025 C 159.600 395.381,159.902 395.620,160.300 395.579 C 161.530 395.454,162.054 395.590,161.817 395.973 C 161.690 396.178,162.045 396.403,162.606 396.473 C 163.166 396.543,163.574 396.749,163.512 396.930 C 163.451 397.112,164.049 397.562,164.842 397.930 C 165.634 398.299,166.534 398.800,166.842 399.045 C 167.388 399.480,169.506 400.120,169.697 399.908 C 169.750 399.848,169.885 372.190,169.997 338.444 C 170.182 282.378,170.256 277.052,170.850 276.677 C 171.503 276.265,172.177 276.527,176.000 278.681 C 176.770 279.114,178.480 280.061,179.800 280.783 C 181.120 281.506,182.371 282.256,182.580 282.449 C 182.789 282.642,183.269 282.800,183.647 282.800 C 184.024 282.800,184.393 282.935,184.467 283.100 C 184.540 283.265,185.410 283.807,186.400 284.304 C 187.390 284.801,189.460 285.919,191.000 286.789 C 192.540 287.658,194.970 288.961,196.400 289.685 C 197.830 290.408,199.090 291.112,199.200 291.249 C 199.310 291.386,200.210 291.879,201.200 292.345 C 202.190 292.811,204.260 293.916,205.800 294.800 C 207.340 295.684,209.320 296.769,210.200 297.211 C 211.080 297.653,212.070 298.163,212.400 298.345 C 212.730 298.527,213.360 298.855,213.800 299.074 C 214.511 299.429,217.033 300.811,220.600 302.800 C 225.250 305.394,226.383 306.000,226.578 306.000 C 227.168 306.000,226.802 246.499,226.209 246.008 C 225.654 245.547,224.630 244.983,219.200 242.148 C 217.990 241.517,216.910 240.910,216.800 240.800 C 216.690 240.690,215.340 239.956,213.800 239.169 C 209.217 236.827,205.813 235.013,205.600 234.800 C 205.490 234.690,204.590 234.198,203.600 233.707 C 202.610 233.215,200.180 231.915,198.200 230.816 C 196.220 229.718,193.790 228.410,192.800 227.910 C 191.810 227.410,190.910 226.911,190.800 226.800 C 190.690 226.690,189.430 226.013,188.000 225.296 C 186.570 224.579,184.410 223.433,183.200 222.749 C 180.400 221.166,174.700 218.113,172.526 217.032 C 169.888 215.720,170.000 217.152,170.000 184.781 C 170.000 161.377,169.896 155.202,169.500 155.211 C 169.225 155.217,167.920 155.815,166.600 156.541 " stroke="none" fill="#e45c2c" fill-rule="evenodd"></path><path id="path4" d="M227.467 62.267 C 227.030 62.703,227.161 122.521,227.600 123.200 C 227.852 123.590,227.990 113.068,227.994 93.100 C 227.997 76.215,228.104 62.400,228.232 62.400 C 228.449 62.400,232.825 64.691,237.400 67.200 C 238.500 67.803,241.020 69.153,243.000 70.199 C 244.980 71.245,247.140 72.415,247.800 72.797 C 249.147 73.578,252.458 75.368,257.800 78.203 C 259.780 79.254,262.210 80.561,263.200 81.108 C 264.190 81.654,266.350 82.824,268.000 83.708 C 269.650 84.591,271.171 85.468,271.380 85.657 C 271.589 85.846,271.940 86.000,272.160 86.000 C 272.814 86.000,271.982 85.396,269.400 83.997 C 264.769 81.487,262.174 80.089,259.200 78.502 C 257.550 77.622,255.390 76.454,254.400 75.908 C 253.410 75.361,250.980 74.055,249.000 73.005 C 247.020 71.956,244.500 70.602,243.400 69.998 C 242.300 69.394,238.790 67.504,235.600 65.799 C 232.410 64.094,229.629 62.542,229.420 62.350 C 228.971 61.936,227.845 61.888,227.467 62.267 M273.411 86.536 C 275.163 87.727,287.528 94.249,287.000 93.704 C 286.780 93.477,285.430 92.656,284.000 91.880 C 274.182 86.551,271.271 85.082,273.411 86.536 M287.820 94.344 C 288.029 94.534,289.640 95.454,291.400 96.390 C 300.558 101.260,302.167 102.082,301.800 101.708 C 301.348 101.245,299.122 99.992,293.600 97.091 C 291.510 95.993,289.401 94.848,288.914 94.547 C 287.929 93.939,287.229 93.809,287.820 94.344 M302.433 102.158 C 302.525 102.245,303.500 102.814,304.600 103.424 C 305.700 104.033,307.140 104.833,307.800 105.201 C 311.998 107.540,313.774 108.505,316.800 110.089 C 320.750 112.157,325.282 114.607,327.000 115.603 C 327.660 115.985,329.820 117.156,331.800 118.203 C 337.920 121.441,340.580 122.900,341.100 123.307 C 341.492 123.614,341.600 130.283,341.600 154.249 C 341.600 171.052,341.735 184.800,341.900 184.800 C 342.706 184.800,342.021 123.405,341.209 122.898 C 340.341 122.356,334.220 118.988,329.600 116.510 C 327.950 115.625,325.790 114.456,324.800 113.912 C 323.810 113.367,321.380 112.060,319.400 111.005 C 317.420 109.951,314.810 108.550,313.600 107.892 C 312.390 107.234,310.320 106.110,309.000 105.393 C 307.680 104.676,305.739 103.620,304.686 103.045 C 302.981 102.114,301.965 101.714,302.433 102.158 M0.000 123.122 C 0.000 123.353,0.945 124.003,2.100 124.567 C 3.255 125.130,5.100 126.103,6.200 126.728 C 7.300 127.354,10.000 128.821,12.200 129.989 C 16.008 132.010,19.052 133.664,21.888 135.252 C 24.090 136.484,28.055 138.627,31.600 140.500 C 33.470 141.488,35.630 142.648,36.400 143.079 C 37.170 143.509,39.420 144.730,41.400 145.791 C 46.894 148.735,49.895 150.356,51.312 151.142 C 52.021 151.536,53.544 152.368,54.698 152.991 L 56.795 154.124 56.900 184.962 L 57.005 215.800 57.103 184.905 L 57.200 154.010 55.608 153.005 C 54.732 152.452,53.944 152.000,53.857 152.000 C 53.769 152.000,52.280 151.222,50.549 150.270 C 48.817 149.319,45.870 147.723,44.000 146.724 C 42.130 145.725,39.790 144.461,38.800 143.917 C 37.810 143.372,35.650 142.201,34.000 141.315 C 29.464 138.879,25.999 137.005,24.000 135.907 C 23.010 135.363,20.580 134.053,18.600 132.994 C 16.620 131.936,14.190 130.628,13.200 130.087 C 10.671 128.706,6.656 126.535,3.600 124.895 C 2.170 124.128,0.775 123.321,0.500 123.101 C 0.164 122.833,0.000 122.840,0.000 123.122 M169.839 153.910 C 169.421 154.005,168.521 154.394,167.839 154.776 C 167.158 155.157,166.180 155.693,165.666 155.967 C 165.152 156.241,164.807 156.541,164.900 156.633 C 164.993 156.726,166.043 156.265,167.234 155.608 C 171.187 153.430,170.800 150.245,170.800 184.971 L 170.800 215.541 172.900 216.723 C 176.248 218.606,178.725 219.942,189.200 225.511 C 191.070 226.505,192.780 227.447,193.000 227.603 C 193.220 227.759,195.380 228.931,197.800 230.207 C 200.220 231.484,202.740 232.830,203.400 233.198 C 207.248 235.349,212.542 238.063,212.200 237.710 C 211.980 237.483,210.810 236.758,209.600 236.099 C 206.725 234.532,192.245 226.737,188.400 224.686 C 186.750 223.806,184.590 222.638,183.600 222.090 C 182.610 221.541,180.270 220.273,178.400 219.270 C 176.530 218.267,174.190 216.974,173.200 216.396 L 171.400 215.344 171.297 184.790 C 171.193 153.797,171.184 153.606,169.839 153.910 M162.697 157.566 C 160.885 158.728,160.886 158.956,162.700 158.041 C 163.635 157.570,164.400 157.097,164.400 156.992 C 164.400 156.649,163.823 156.844,162.697 157.566 M156.662 160.847 C 155.816 161.293,155.209 161.742,155.312 161.845 C 155.502 162.036,158.400 160.455,158.400 160.160 C 158.400 159.934,158.371 159.945,156.662 160.847 M153.400 162.552 C 152.960 162.812,151.998 163.347,151.263 163.742 C 150.527 164.136,150.002 164.535,150.095 164.628 C 150.278 164.811,154.800 162.449,154.800 162.170 C 154.800 161.896,154.259 162.044,153.400 162.552 M147.897 165.566 C 146.085 166.728,146.086 166.956,147.900 166.041 C 148.835 165.570,149.600 165.097,149.600 164.992 C 149.600 164.649,149.023 164.844,147.897 165.566 M144.576 167.387 C 144.149 167.710,143.980 167.975,144.200 167.975 C 144.420 167.975,144.949 167.710,145.376 167.387 C 145.804 167.064,145.973 166.800,145.753 166.800 C 145.533 166.800,145.004 167.064,144.576 167.387 M139.600 170.037 C 138.390 170.699,136.888 171.515,136.263 171.850 C 135.637 172.185,135.207 172.540,135.306 172.640 C 135.406 172.739,136.610 172.186,137.982 171.410 C 139.354 170.635,140.595 169.994,140.738 169.987 C 140.882 169.980,141.349 169.710,141.776 169.387 C 143.055 168.421,141.948 168.751,139.600 170.037 M131.703 174.309 C 130.330 175.096,129.269 175.803,129.347 175.880 C 129.471 176.005,134.347 173.383,134.767 172.966 C 135.292 172.443,133.877 173.064,131.703 174.309 M127.097 176.766 C 125.285 177.928,125.286 178.156,127.100 177.241 C 128.035 176.770,128.800 176.297,128.800 176.192 C 128.800 175.849,128.223 176.044,127.097 176.766 M122.731 179.130 C 119.899 180.752,119.881 181.055,122.700 179.642 C 124.075 178.952,125.200 178.301,125.200 178.194 C 125.200 177.832,124.604 178.058,122.731 179.130 M118.297 181.566 C 116.698 182.591,116.403 183.006,117.800 182.266 C 119.476 181.377,120.271 180.808,119.800 180.835 C 119.580 180.848,118.904 181.177,118.297 181.566 M114.762 183.466 C 114.191 183.820,113.492 184.491,113.209 184.955 L 112.695 185.800 113.647 184.962 C 114.171 184.502,115.045 183.827,115.589 183.462 C 116.860 182.611,116.134 182.614,114.762 183.466 M213.411 238.536 C 214.137 239.029,216.277 240.196,223.800 244.202 C 225.340 245.022,226.771 245.852,226.980 246.046 C 227.189 246.241,227.544 246.400,227.769 246.400 C 228.565 246.400,226.691 245.303,217.230 240.234 C 213.154 238.050,211.827 237.460,213.411 238.536 M227.600 276.800 C 227.600 295.798,227.459 306.800,227.214 306.800 C 227.002 306.800,226.057 306.374,225.114 305.853 C 220.436 303.269,217.892 301.974,217.758 302.109 C 217.677 302.190,218.373 302.663,219.305 303.159 C 220.237 303.655,222.282 304.767,223.849 305.630 C 225.416 306.494,226.991 307.200,227.349 307.200 C 227.945 307.200,228.000 304.625,228.000 277.000 C 228.000 260.390,227.910 246.800,227.800 246.800 C 227.690 246.800,227.600 260.300,227.600 276.800 M170.899 338.700 L 170.997 400.200 171.100 338.873 L 171.203 277.547 172.051 277.816 C 172.622 277.998,172.811 277.941,172.626 277.643 C 172.476 277.399,172.003 277.200,171.576 277.200 C 170.811 277.200,170.801 278.056,170.899 338.700 M175.600 279.335 C 175.600 279.606,178.474 281.259,178.646 281.087 C 178.726 281.008,178.073 280.539,177.196 280.046 C 176.318 279.552,175.600 279.233,175.600 279.335 M179.200 281.368 C 179.200 281.601,185.846 285.202,186.262 285.193 C 186.577 285.186,179.677 281.200,179.350 281.200 C 179.267 281.200,179.200 281.275,179.200 281.368 M186.800 285.335 C 186.800 285.606,189.674 287.259,189.846 287.087 C 189.926 287.008,189.273 286.539,188.396 286.046 C 187.518 285.552,186.800 285.233,186.800 285.335 M190.600 287.490 C 191.262 288.173,200.828 293.305,201.042 293.091 C 201.123 293.010,200.517 292.583,199.695 292.142 C 192.262 288.161,190.256 287.135,190.600 287.490 M205.200 295.373 C 205.200 295.536,212.531 299.632,213.393 299.950 C 214.629 300.406,212.602 299.071,209.800 297.584 C 208.040 296.650,206.429 295.732,206.220 295.543 C 205.820 295.182,205.200 295.079,205.200 295.373 M214.400 300.421 C 215.442 301.130,217.200 302.028,217.200 301.850 C 217.200 301.628,214.439 299.998,214.077 300.006 C 213.925 300.009,214.070 300.196,214.400 300.421 " stroke="none" fill="#ec7c2a" fill-rule="evenodd"></path><path id="path5" d="M226.200 61.956 C 225.059 62.621,221.748 64.424,216.000 67.511 C 214.570 68.279,212.500 69.398,211.400 69.998 C 210.300 70.598,207.780 71.951,205.800 73.005 C 203.820 74.060,201.390 75.368,200.400 75.912 C 199.410 76.456,197.340 77.576,195.800 78.399 C 194.260 79.223,191.920 80.484,190.600 81.203 C 187.354 82.969,183.682 84.942,179.600 87.111 C 177.730 88.105,176.020 89.055,175.800 89.220 C 175.580 89.386,174.050 90.234,172.400 91.103 C 165.973 94.491,157.783 98.884,155.612 100.109 C 154.187 100.913,151.339 102.451,146.200 105.191 C 139.841 108.583,137.317 109.943,135.800 110.798 C 134.920 111.294,132.670 112.514,130.800 113.509 C 128.930 114.504,126.500 115.805,125.400 116.400 C 124.300 116.995,121.870 118.296,120.000 119.291 C 118.130 120.286,115.880 121.506,115.000 122.002 C 113.407 122.899,109.931 124.771,104.600 127.602 C 103.060 128.420,100.990 129.537,100.000 130.085 C 97.695 131.359,93.762 133.495,90.200 135.405 C 88.660 136.231,86.500 137.397,85.400 137.995 C 84.300 138.594,81.960 139.853,80.200 140.793 C 78.440 141.734,76.460 142.816,75.800 143.197 C 75.140 143.578,73.070 144.702,71.200 145.693 C 67.424 147.695,63.776 149.652,60.291 151.546 C 57.499 153.063,54.203 152.607,52.000 150.400 C 51.890 150.289,50.990 149.793,50.000 149.297 C 49.010 148.800,47.210 147.829,46.000 147.139 C 44.790 146.448,42.180 145.041,40.200 144.012 C 38.220 142.982,35.520 141.536,34.200 140.798 C 29.742 138.305,27.810 137.262,25.000 135.832 C 23.460 135.048,21.210 133.845,20.000 133.159 C 16.005 130.895,13.844 129.717,10.000 127.708 C 5.545 125.380,2.514 123.698,1.411 122.941 C 0.977 122.644,0.443 122.400,0.225 122.400 C -0.516 122.400,0.991 123.509,3.700 124.957 C 6.696 126.558,10.458 128.590,13.200 130.087 C 14.190 130.628,16.620 131.936,18.600 132.994 C 20.580 134.053,23.010 135.363,24.000 135.907 C 25.999 137.005,29.464 138.879,34.000 141.315 C 35.650 142.201,37.810 143.369,38.800 143.911 C 39.790 144.453,41.770 145.526,43.200 146.297 C 44.630 147.068,46.880 148.283,48.200 148.997 C 49.520 149.712,52.137 151.120,54.015 152.127 L 57.430 153.958 60.415 152.342 C 62.057 151.453,64.570 150.083,66.000 149.298 C 68.630 147.853,69.708 147.271,76.200 143.791 C 78.180 142.730,80.340 141.562,81.000 141.196 C 84.947 139.007,87.006 137.893,90.400 136.109 C 92.490 135.010,95.010 133.660,96.000 133.109 C 96.990 132.557,98.970 131.477,100.400 130.707 C 107.204 127.046,108.741 126.216,110.600 125.203 C 111.700 124.603,114.400 123.163,116.600 122.003 C 118.800 120.842,120.780 119.764,121.000 119.606 C 121.366 119.343,122.669 118.638,131.000 114.196 C 134.372 112.398,138.353 110.237,140.112 109.250 C 140.821 108.852,143.290 107.531,145.600 106.313 C 147.910 105.096,150.520 103.693,151.400 103.195 C 152.280 102.696,154.530 101.485,156.400 100.503 C 158.270 99.520,160.700 98.217,161.800 97.607 C 166.600 94.943,168.014 94.177,171.600 92.298 C 173.690 91.203,175.940 89.991,176.600 89.605 C 177.260 89.219,179.195 88.160,180.900 87.252 C 189.041 82.914,192.422 81.087,195.800 79.199 C 196.460 78.830,198.980 77.484,201.400 76.207 C 203.820 74.931,205.980 73.759,206.200 73.603 C 206.420 73.447,208.130 72.505,210.000 71.511 C 219.668 66.371,221.002 65.650,225.877 62.934 C 227.637 61.954,228.784 61.764,229.420 62.350 C 229.629 62.542,232.410 64.094,235.600 65.799 C 238.790 67.504,242.300 69.394,243.400 69.998 C 244.500 70.602,247.020 71.956,249.000 73.005 C 250.980 74.055,253.410 75.360,254.400 75.905 C 256.333 76.969,258.899 78.354,264.600 81.409 C 266.580 82.470,268.779 83.661,269.488 84.056 C 270.887 84.834,273.787 86.401,279.400 89.409 C 281.380 90.470,283.630 91.691,284.400 92.121 C 285.170 92.551,287.105 93.600,288.700 94.451 C 290.295 95.303,292.905 96.697,294.500 97.549 C 296.095 98.400,298.120 99.504,299.000 100.002 C 299.880 100.499,302.310 101.805,304.400 102.903 C 306.490 104.001,308.740 105.213,309.400 105.596 C 310.630 106.310,313.073 107.631,319.400 111.003 C 321.380 112.059,323.810 113.367,324.800 113.912 C 325.790 114.456,327.950 115.626,329.600 116.511 C 331.250 117.396,334.490 119.149,336.800 120.406 C 339.110 121.663,341.270 122.785,341.600 122.900 C 342.151 123.091,343.395 122.502,349.000 119.397 C 350.100 118.788,352.710 117.390,354.800 116.291 C 358.277 114.463,361.026 112.974,364.200 111.198 C 364.860 110.829,367.290 109.531,369.600 108.313 C 371.910 107.096,374.520 105.693,375.400 105.195 C 376.280 104.696,378.530 103.485,380.400 102.503 C 382.270 101.520,384.700 100.217,385.800 99.607 C 386.900 98.996,388.700 97.997,389.800 97.386 C 390.900 96.776,393.330 95.480,395.200 94.506 C 398.862 92.600,399.489 92.156,399.089 91.755 C 398.947 91.613,397.969 92.019,396.915 92.657 C 394.744 93.973,394.443 94.140,390.130 96.433 C 384.864 99.233,378.336 102.760,374.800 104.715 C 373.810 105.263,371.740 106.380,370.200 107.198 C 364.869 110.029,361.393 111.901,359.800 112.798 C 358.920 113.294,356.670 114.514,354.800 115.509 C 348.931 118.631,347.465 119.422,345.122 120.729 C 342.274 122.317,341.329 122.318,338.478 120.734 C 337.225 120.038,335.390 119.019,334.400 118.468 C 333.410 117.918,331.970 117.110,331.200 116.673 C 330.430 116.236,328.180 115.037,326.200 114.009 C 324.220 112.981,321.520 111.536,320.200 110.798 C 315.751 108.310,313.812 107.263,311.000 105.831 C 309.460 105.046,306.940 103.685,305.400 102.807 C 303.860 101.928,301.430 100.622,300.000 99.905 C 298.570 99.187,297.310 98.510,297.200 98.400 C 297.090 98.289,296.190 97.793,295.200 97.297 C 294.210 96.800,292.410 95.829,291.200 95.139 C 289.990 94.448,287.380 93.041,285.400 92.012 C 281.945 90.216,279.999 89.154,275.200 86.447 C 273.990 85.764,272.190 84.800,271.200 84.303 C 270.210 83.806,269.340 83.265,269.267 83.100 C 269.193 82.935,268.824 82.800,268.447 82.800 C 268.069 82.800,267.589 82.642,267.380 82.449 C 267.171 82.256,265.920 81.506,264.600 80.783 C 263.280 80.061,261.570 79.114,260.800 78.680 C 260.030 78.245,257.600 76.952,255.400 75.805 C 253.200 74.658,250.770 73.362,250.000 72.925 C 246.860 71.143,244.003 69.591,240.400 67.709 C 238.310 66.617,235.880 65.308,235.000 64.800 C 228.878 61.264,227.920 60.954,226.200 61.956 M227.600 183.915 C 227.270 184.028,226.910 184.228,226.800 184.360 C 226.690 184.493,225.790 185.005,224.800 185.499 C 223.810 185.994,221.380 187.294,219.400 188.389 C 217.420 189.484,214.990 190.790,214.000 191.290 C 213.010 191.790,212.110 192.290,212.000 192.402 C 211.890 192.513,210.630 193.192,209.200 193.910 C 207.770 194.628,205.610 195.774,204.400 196.455 C 203.190 197.137,200.490 198.595,198.400 199.697 C 194.826 201.580,192.054 203.088,188.800 204.918 C 188.030 205.351,185.600 206.646,183.400 207.796 C 181.200 208.946,178.590 210.343,177.600 210.900 C 176.610 211.457,174.810 212.459,173.600 213.128 C 170.320 214.939,170.319 214.937,178.400 219.270 C 180.270 220.273,182.610 221.541,183.600 222.090 C 184.590 222.638,186.750 223.806,188.400 224.686 C 193.827 227.581,207.364 234.879,209.200 235.900 C 210.190 236.451,212.350 237.622,214.000 238.502 C 220.356 241.893,226.218 245.091,227.268 245.740 C 227.847 246.097,234.289 243.242,236.600 241.604 C 236.820 241.449,238.350 240.597,240.000 239.711 C 241.650 238.826,243.810 237.652,244.800 237.104 C 245.790 236.555,248.310 235.207,250.400 234.108 C 252.490 233.010,255.100 231.614,256.200 231.007 C 257.300 230.400,259.100 229.406,260.200 228.797 C 261.300 228.189,263.460 227.021,265.000 226.201 C 269.000 224.072,273.671 221.559,277.600 219.423 C 279.470 218.406,281.945 217.092,283.100 216.504 C 285.153 215.458,285.781 214.406,284.738 213.762 C 284.474 213.598,284.384 213.651,284.529 213.885 C 284.899 214.484,283.807 215.311,280.000 217.313 C 278.130 218.296,275.880 219.506,275.000 220.002 C 272.980 221.140,268.465 223.568,265.600 225.057 C 264.390 225.686,263.310 226.290,263.200 226.400 C 263.090 226.510,262.010 227.114,260.800 227.743 C 259.590 228.372,257.340 229.564,255.800 230.392 C 254.260 231.220,251.740 232.575,250.200 233.402 C 248.660 234.230,246.500 235.397,245.400 235.995 C 244.300 236.594,241.960 237.859,240.200 238.807 C 238.440 239.756,235.650 241.267,234.000 242.166 C 227.554 245.678,228.313 245.444,226.477 244.487 C 225.587 244.023,224.530 243.482,224.129 243.284 C 223.728 243.087,223.040 242.745,222.600 242.526 C 221.803 242.128,218.262 240.182,215.600 238.678 C 214.830 238.243,212.490 236.989,210.400 235.891 C 206.771 233.983,203.853 232.400,200.800 230.681 C 200.030 230.248,197.960 229.131,196.200 228.199 C 191.458 225.688,187.999 223.819,186.200 222.795 C 185.320 222.295,182.800 220.941,180.600 219.787 C 170.952 214.726,171.258 215.075,174.841 213.211 C 176.184 212.512,177.849 211.622,178.541 211.234 C 179.233 210.846,181.780 209.484,184.200 208.207 C 186.620 206.931,188.780 205.758,189.000 205.600 C 189.220 205.443,191.200 204.362,193.400 203.198 C 195.600 202.034,198.300 200.592,199.400 199.995 C 200.500 199.397,203.432 197.804,205.915 196.454 C 208.398 195.104,210.497 194.000,210.579 194.000 C 210.661 194.000,211.959 193.308,213.464 192.463 C 216.560 190.725,219.931 188.892,224.600 186.409 C 228.344 184.419,229.894 183.130,227.600 183.915 " stroke="none" fill="#f49c34" fill-rule="evenodd"></path><path id="path6" d="M235.600 66.592 C 235.600 66.870,238.848 68.485,239.034 68.299 C 239.120 68.214,238.455 67.751,237.557 67.272 C 235.853 66.362,235.600 66.274,235.600 66.592 M246.800 72.592 C 246.800 72.697,247.520 73.151,248.400 73.600 C 250.383 74.612,250.500 74.374,248.577 73.240 C 247.112 72.375,246.800 72.261,246.800 72.592 M254.400 76.535 C 254.400 76.806,257.274 78.459,257.446 78.287 C 257.526 78.208,256.873 77.739,255.996 77.246 C 255.118 76.752,254.400 76.433,254.400 76.535 M261.600 80.560 C 261.600 80.880,264.511 82.430,264.880 82.307 C 265.089 82.237,264.509 81.780,263.592 81.290 C 261.894 80.384,261.600 80.276,261.600 80.560 M272.800 86.560 C 272.800 86.835,275.691 88.442,275.867 88.266 C 275.959 88.174,275.386 87.717,274.594 87.250 C 273.149 86.397,272.800 86.263,272.800 86.560 M278.000 89.392 C 278.000 89.497,278.720 89.951,279.600 90.400 C 281.583 91.412,281.700 91.174,279.777 90.040 C 278.312 89.175,278.000 89.061,278.000 89.392 M287.600 94.552 C 287.600 94.853,290.495 96.438,290.689 96.244 C 290.793 96.141,290.140 95.680,289.239 95.220 C 288.337 94.760,287.600 94.460,287.600 94.552 M302.620 102.751 C 303.322 103.398,306.894 105.240,307.082 105.051 C 307.185 104.949,306.848 104.641,306.334 104.367 C 305.820 104.093,304.810 103.539,304.088 103.135 C 302.693 102.354,301.991 102.170,302.620 102.751 M308.176 105.813 C 308.604 106.136,309.133 106.400,309.353 106.400 C 309.573 106.400,309.404 106.136,308.976 105.813 C 308.549 105.490,308.020 105.225,307.800 105.225 C 307.580 105.225,307.749 105.490,308.176 105.813 M313.600 108.535 C 313.600 108.806,316.474 110.459,316.646 110.287 C 316.726 110.208,316.073 109.739,315.196 109.246 C 314.318 108.752,313.600 108.433,313.600 108.535 M318.800 111.360 C 318.800 111.635,321.691 113.242,321.867 113.066 C 321.959 112.974,321.386 112.517,320.594 112.050 C 319.149 111.197,318.800 111.063,318.800 111.360 M322.976 113.813 C 323.404 114.136,323.933 114.400,324.153 114.400 C 324.373 114.400,324.204 114.136,323.776 113.813 C 323.349 113.490,322.820 113.225,322.600 113.225 C 322.380 113.225,322.549 113.490,322.976 113.813 M333.600 119.364 C 333.600 119.670,338.819 122.515,339.017 122.317 C 339.113 122.220,337.934 121.472,336.396 120.654 C 334.858 119.836,333.600 119.255,333.600 119.364 M1.600 124.552 C 1.600 124.853,4.495 126.438,4.689 126.244 C 4.793 126.141,4.140 125.680,3.239 125.220 C 2.337 124.760,1.600 124.460,1.600 124.552 M14.624 131.787 C 15.051 132.110,15.580 132.375,15.800 132.375 C 16.020 132.375,15.851 132.110,15.424 131.787 C 14.996 131.464,14.467 131.200,14.247 131.200 C 14.027 131.200,14.196 131.464,14.624 131.787 M22.176 135.813 C 22.604 136.136,23.133 136.400,23.353 136.400 C 23.573 136.400,23.404 136.136,22.976 135.813 C 22.549 135.490,22.020 135.225,21.800 135.225 C 21.580 135.225,21.749 135.490,22.176 135.813 M27.600 138.535 C 27.600 138.806,30.474 140.459,30.646 140.287 C 30.726 140.208,30.073 139.739,29.196 139.246 C 28.318 138.752,27.600 138.433,27.600 138.535 M32.800 141.360 C 32.800 141.635,35.691 143.242,35.867 143.066 C 35.959 142.974,35.386 142.517,34.594 142.050 C 33.149 141.197,32.800 141.063,32.800 141.360 M36.976 143.813 C 37.404 144.136,37.933 144.400,38.153 144.400 C 38.373 144.400,38.204 144.136,37.776 143.813 C 37.349 143.490,36.820 143.225,36.600 143.225 C 36.380 143.225,36.549 143.490,36.976 143.813 M42.400 146.535 C 42.400 146.806,45.274 148.459,45.446 148.287 C 45.526 148.208,44.873 147.739,43.996 147.246 C 43.118 146.752,42.400 146.433,42.400 146.535 M51.776 151.813 C 52.204 152.136,52.733 152.400,52.953 152.400 C 53.173 152.400,53.004 152.136,52.576 151.813 C 52.149 151.490,51.620 151.225,51.400 151.225 C 51.180 151.225,51.349 151.490,51.776 151.813 M170.630 215.727 C 170.822 216.221,172.834 217.300,173.088 217.045 C 173.168 216.965,172.607 216.529,171.840 216.077 C 171.073 215.624,170.529 215.467,170.630 215.727 M177.776 219.813 C 178.204 220.136,178.733 220.400,178.953 220.400 C 179.173 220.400,179.004 220.136,178.576 219.813 C 178.149 219.490,177.620 219.225,177.400 219.225 C 177.180 219.225,177.349 219.490,177.776 219.813 M185.024 223.787 C 185.451 224.110,185.980 224.375,186.200 224.375 C 186.420 224.375,186.251 224.110,185.824 223.787 C 185.396 223.464,184.867 223.200,184.647 223.200 C 184.427 223.200,184.596 223.464,185.024 223.787 M186.800 224.592 C 186.800 224.697,187.520 225.151,188.400 225.600 C 190.383 226.612,190.500 226.374,188.577 225.240 C 187.112 224.375,186.800 224.261,186.800 224.592 M194.400 228.535 C 194.400 228.806,197.274 230.459,197.446 230.287 C 197.526 230.208,196.873 229.739,195.996 229.246 C 195.118 228.752,194.400 228.433,194.400 228.535 M201.600 232.592 C 201.600 232.697,202.339 233.161,203.242 233.621 C 204.145 234.082,204.771 234.277,204.634 234.055 C 204.249 233.432,201.600 232.155,201.600 232.592 M212.800 238.592 C 212.800 238.697,213.520 239.151,214.400 239.600 C 216.383 240.612,216.500 240.374,214.577 239.240 C 213.112 238.375,212.800 238.261,212.800 238.592 M220.400 242.535 C 220.400 242.806,223.274 244.459,223.446 244.287 C 223.526 244.208,222.873 243.739,221.996 243.246 C 221.118 242.752,220.400 242.433,220.400 242.535 M226.122 245.914 C 226.744 246.602,226.808 249.088,226.897 276.231 L 226.995 305.800 227.108 276.600 C 227.226 246.049,227.219 245.846,226.126 245.427 C 225.486 245.181,225.485 245.210,226.122 245.914 " stroke="none" fill="#ec672c" fill-rule="evenodd"></path></g></svg>